<?xml version="1.0" encoding="UTF-8" standalone="no"?>
<svg width="451.908mm" height="225.778mm"
 viewBox="0 0 1281 640"
 xmlns="http://www.w3.org/2000/svg" xmlns:xlink="http://www.w3.org/1999/xlink"  version="1.2" baseProfile="tiny">
<title>Qt SVG Document</title>
<desc>MATLAB, The MathWorks, Inc. Version 25.2.0.2998904 R2025b</desc>
<defs>
</defs>
<g fill="none" stroke="black" stroke-width="1" fill-rule="evenodd" stroke-linecap="square" stroke-linejoin="bevel" >

<g fill="#ffffff" fill-opacity="1" stroke="none" transform="matrix(0.5,0,0,0.5,0,0)"
font-family="MS Shell Dlg 2" font-size="8" font-weight="400" font-style="normal" 
>
<path vector-effect="none" fill-rule="evenodd" d="M0,0 L2562,0 L2562,1281 L0,1281 L0,0"/>
</g>

<g fill="#ffffff" fill-opacity="1" stroke="none" transform="matrix(5e-05,0,0,5e-05,0,0)"
font-family="MS Shell Dlg 2" font-size="8" font-weight="400" font-style="normal" 
>
<path vector-effect="none" fill-rule="evenodd" d="M3.33e+06,960000 L3.33e+06,1.127e+07 L2.318e+07,1.127e+07 L2.318e+07,960000 L3.33e+06,960000"/>
</g>

<g fill="#212121" fill-opacity="0.14902" stroke="#212121" stroke-opacity="0.14902" stroke-width="1" stroke-linecap="butt" stroke-linejoin="round" transform="matrix(0.5,0,0,0.5,0,0)"
font-family="MS Shell Dlg 2" font-size="8" font-weight="400" font-style="normal" 
>
<polyline fill="none" vector-effect="none" points="333,96 333,1127 " />
<polyline fill="none" vector-effect="none" points="730,96 730,1127 " />
<polyline fill="none" vector-effect="none" points="1127,96 1127,1127 " />
<polyline fill="none" vector-effect="none" points="1524,96 1524,1127 " />
<polyline fill="none" vector-effect="none" points="1921,96 1921,1127 " />
<polyline fill="none" vector-effect="none" points="2318,96 2318,1127 " />
<polyline fill="none" vector-effect="none" points="333,1127 2318,1127 " />
<polyline fill="none" vector-effect="none" points="333,979.714 2318,979.714 " />
<polyline fill="none" vector-effect="none" points="333,832.429 2318,832.429 " />
<polyline fill="none" vector-effect="none" points="333,685.143 2318,685.143 " />
<polyline fill="none" vector-effect="none" points="333,537.857 2318,537.857 " />
<polyline fill="none" vector-effect="none" points="333,390.571 2318,390.571 " />
<polyline fill="none" vector-effect="none" points="333,243.286 2318,243.286 " />
<polyline fill="none" vector-effect="none" points="333,96 2318,96 " />
</g>

<g fill="#212121" fill-opacity="1" stroke="#212121" stroke-opacity="1" stroke-width="1" stroke-linecap="square" stroke-linejoin="bevel" transform="matrix(0.5,0,0,0.5,608.25,633.5)"
font-family="Helvetica" font-size="60" font-weight="400" font-style="normal" 
>
<text fill="#212121" fill-opacity="1" stroke="none" xml:space="preserve" x="0" y="0" font-family="Helvetica" font-size="60" font-weight="400" font-style="normal" 
 >Time (s)</text>
</g>

<g fill="#212121" fill-opacity="1" stroke="#212121" stroke-opacity="1" stroke-width="1" stroke-linecap="square" stroke-linejoin="round" transform="matrix(0.5,0,0,0.5,0,0)"
font-family="Helvetica" font-size="60" font-weight="400" font-style="normal" 
>
<polyline fill="none" vector-effect="none" points="333,1127 2318,1127 " />
<polyline fill="none" vector-effect="none" points="333,96 2318,96 " />
<polyline fill="none" vector-effect="none" points="333,1127 333,1107.15 " />
<polyline fill="none" vector-effect="none" points="333,115.85 333,96 " />
<polyline fill="none" vector-effect="none" points="730,1127 730,1107.15 " />
<polyline fill="none" vector-effect="none" points="730,115.85 730,96 " />
<polyline fill="none" vector-effect="none" points="1127,1127 1127,1107.15 " />
<polyline fill="none" vector-effect="none" points="1127,115.85 1127,96 " />
<polyline fill="none" vector-effect="none" points="1524,1127 1524,1107.15 " />
<polyline fill="none" vector-effect="none" points="1524,115.85 1524,96 " />
<polyline fill="none" vector-effect="none" points="1921,1127 1921,1107.15 " />
<polyline fill="none" vector-effect="none" points="1921,115.85 1921,96 " />
<polyline fill="none" vector-effect="none" points="2318,1127 2318,1107.15 " />
<polyline fill="none" vector-effect="none" points="2318,115.85 2318,96 " />
</g>

<g fill="#212121" fill-opacity="1" stroke="#212121" stroke-opacity="1" stroke-width="1" stroke-linecap="square" stroke-linejoin="bevel" transform="matrix(0.5,0,0,0.5,158.25,599)"
font-family="Helvetica" font-size="60" font-weight="400" font-style="normal" 
>
<text fill="#212121" fill-opacity="1" stroke="none" xml:space="preserve" x="0" y="0" font-family="Helvetica" font-size="60" font-weight="400" font-style="normal" 
 >0</text>
</g>

<g fill="#212121" fill-opacity="1" stroke="#212121" stroke-opacity="1" stroke-width="1" stroke-linecap="square" stroke-linejoin="bevel" transform="matrix(0.5,0,0,0.5,356.75,599)"
font-family="Helvetica" font-size="60" font-weight="400" font-style="normal" 
>
<text fill="#212121" fill-opacity="1" stroke="none" xml:space="preserve" x="0" y="0" font-family="Helvetica" font-size="60" font-weight="400" font-style="normal" 
 >2</text>
</g>

<g fill="#212121" fill-opacity="1" stroke="#212121" stroke-opacity="1" stroke-width="1" stroke-linecap="square" stroke-linejoin="bevel" transform="matrix(0.5,0,0,0.5,555.25,599)"
font-family="Helvetica" font-size="60" font-weight="400" font-style="normal" 
>
<text fill="#212121" fill-opacity="1" stroke="none" xml:space="preserve" x="0" y="0" font-family="Helvetica" font-size="60" font-weight="400" font-style="normal" 
 >4</text>
</g>

<g fill="#212121" fill-opacity="1" stroke="#212121" stroke-opacity="1" stroke-width="1" stroke-linecap="square" stroke-linejoin="bevel" transform="matrix(0.5,0,0,0.5,753.75,599)"
font-family="Helvetica" font-size="60" font-weight="400" font-style="normal" 
>
<text fill="#212121" fill-opacity="1" stroke="none" xml:space="preserve" x="0" y="0" font-family="Helvetica" font-size="60" font-weight="400" font-style="normal" 
 >6</text>
</g>

<g fill="#212121" fill-opacity="1" stroke="#212121" stroke-opacity="1" stroke-width="1" stroke-linecap="square" stroke-linejoin="bevel" transform="matrix(0.5,0,0,0.5,952.25,599)"
font-family="Helvetica" font-size="60" font-weight="400" font-style="normal" 
>
<text fill="#212121" fill-opacity="1" stroke="none" xml:space="preserve" x="0" y="0" font-family="Helvetica" font-size="60" font-weight="400" font-style="normal" 
 >8</text>
</g>

<g fill="#212121" fill-opacity="1" stroke="#212121" stroke-opacity="1" stroke-width="1" stroke-linecap="square" stroke-linejoin="bevel" transform="matrix(0.5,0,0,0.5,1142.5,599)"
font-family="Helvetica" font-size="60" font-weight="400" font-style="normal" 
>
<text fill="#212121" fill-opacity="1" stroke="none" xml:space="preserve" x="0" y="0" font-family="Helvetica" font-size="60" font-weight="400" font-style="normal" 
 >10</text>
</g>

<g fill="#212121" fill-opacity="1" stroke="#212121" stroke-opacity="1" stroke-width="1" stroke-linecap="square" stroke-linejoin="bevel" transform="matrix(0,-0.5,0.5,0,115.5,433.5)"
font-family="Helvetica" font-size="60" font-weight="400" font-style="normal" 
>
<text fill="#212121" fill-opacity="1" stroke="none" xml:space="preserve" x="0" y="0" font-family="Helvetica" font-size="60" font-weight="400" font-style="normal" 
 >Acceleration (m/s</text>
</g>

<g fill="#212121" fill-opacity="1" stroke="#212121" stroke-opacity="1" stroke-width="1" stroke-linecap="square" stroke-linejoin="bevel" transform="matrix(0,-0.5,0.5,0,100.5,202.5)"
font-family="Helvetica" font-size="48" font-weight="400" font-style="normal" 
>
<text fill="#212121" fill-opacity="1" stroke="none" xml:space="preserve" x="0" y="0" font-family="Helvetica" font-size="48" font-weight="400" font-style="normal" 
 >2</text>
</g>

<g fill="#212121" fill-opacity="1" stroke="#212121" stroke-opacity="1" stroke-width="1" stroke-linecap="square" stroke-linejoin="bevel" transform="matrix(0,-0.5,0.5,0,115.5,189)"
font-family="Helvetica" font-size="60" font-weight="400" font-style="normal" 
>
<text fill="#212121" fill-opacity="1" stroke="none" xml:space="preserve" x="0" y="0" font-family="Helvetica" font-size="60" font-weight="400" font-style="normal" 
 >)</text>
</g>

<g fill="#212121" fill-opacity="1" stroke="#212121" stroke-opacity="1" stroke-width="1" stroke-linecap="square" stroke-linejoin="round" transform="matrix(0.5,0,0,0.5,0,0)"
font-family="Helvetica" font-size="60" font-weight="400" font-style="normal" 
>
<polyline fill="none" vector-effect="none" points="333,1127 333,96 " />
<polyline fill="none" vector-effect="none" points="2318,1127 2318,96 " />
<polyline fill="none" vector-effect="none" points="333,1127 352.85,1127 " />
<polyline fill="none" vector-effect="none" points="2298.15,1127 2318,1127 " />
<polyline fill="none" vector-effect="none" points="333,979.714 352.85,979.714 " />
<polyline fill="none" vector-effect="none" points="2298.15,979.714 2318,979.714 " />
<polyline fill="none" vector-effect="none" points="333,832.429 352.85,832.429 " />
<polyline fill="none" vector-effect="none" points="2298.15,832.429 2318,832.429 " />
<polyline fill="none" vector-effect="none" points="333,685.143 352.85,685.143 " />
<polyline fill="none" vector-effect="none" points="2298.15,685.143 2318,685.143 " />
<polyline fill="none" vector-effect="none" points="333,537.857 352.85,537.857 " />
<polyline fill="none" vector-effect="none" points="2298.15,537.857 2318,537.857 " />
<polyline fill="none" vector-effect="none" points="333,390.571 352.85,390.571 " />
<polyline fill="none" vector-effect="none" points="2298.15,390.571 2318,390.571 " />
<polyline fill="none" vector-effect="none" points="333,243.286 352.85,243.286 " />
<polyline fill="none" vector-effect="none" points="2298.15,243.286 2318,243.286 " />
<polyline fill="none" vector-effect="none" points="333,96 352.85,96 " />
<polyline fill="none" vector-effect="none" points="2298.15,96 2318,96 " />
</g>

<g fill="#212121" fill-opacity="1" stroke="#212121" stroke-opacity="1" stroke-width="1" stroke-linecap="square" stroke-linejoin="bevel" transform="matrix(0.5,0,0,0.5,132,574)"
font-family="Helvetica" font-size="60" font-weight="400" font-style="normal" 
>
<text fill="#212121" fill-opacity="1" stroke="none" xml:space="preserve" x="0" y="0" font-family="Helvetica" font-size="60" font-weight="400" font-style="normal" 
 >-5</text>
</g>

<g fill="#212121" fill-opacity="1" stroke="#212121" stroke-opacity="1" stroke-width="1" stroke-linecap="square" stroke-linejoin="bevel" transform="matrix(0.5,0,0,0.5,142,500.357)"
font-family="Helvetica" font-size="60" font-weight="400" font-style="normal" 
>
<text fill="#212121" fill-opacity="1" stroke="none" xml:space="preserve" x="0" y="0" font-family="Helvetica" font-size="60" font-weight="400" font-style="normal" 
 >0</text>
</g>

<g fill="#212121" fill-opacity="1" stroke="#212121" stroke-opacity="1" stroke-width="1" stroke-linecap="square" stroke-linejoin="bevel" transform="matrix(0.5,0,0,0.5,142,426.714)"
font-family="Helvetica" font-size="60" font-weight="400" font-style="normal" 
>
<text fill="#212121" fill-opacity="1" stroke="none" xml:space="preserve" x="0" y="0" font-family="Helvetica" font-size="60" font-weight="400" font-style="normal" 
 >5</text>
</g>

<g fill="#212121" fill-opacity="1" stroke="#212121" stroke-opacity="1" stroke-width="1" stroke-linecap="square" stroke-linejoin="bevel" transform="matrix(0.5,0,0,0.5,125.5,353.071)"
font-family="Helvetica" font-size="60" font-weight="400" font-style="normal" 
>
<text fill="#212121" fill-opacity="1" stroke="none" xml:space="preserve" x="0" y="0" font-family="Helvetica" font-size="60" font-weight="400" font-style="normal" 
 >10</text>
</g>

<g fill="#212121" fill-opacity="1" stroke="#212121" stroke-opacity="1" stroke-width="1" stroke-linecap="square" stroke-linejoin="bevel" transform="matrix(0.5,0,0,0.5,125.5,279.429)"
font-family="Helvetica" font-size="60" font-weight="400" font-style="normal" 
>
<text fill="#212121" fill-opacity="1" stroke="none" xml:space="preserve" x="0" y="0" font-family="Helvetica" font-size="60" font-weight="400" font-style="normal" 
 >15</text>
</g>

<g fill="#212121" fill-opacity="1" stroke="#212121" stroke-opacity="1" stroke-width="1" stroke-linecap="square" stroke-linejoin="bevel" transform="matrix(0.5,0,0,0.5,125.5,205.786)"
font-family="Helvetica" font-size="60" font-weight="400" font-style="normal" 
>
<text fill="#212121" fill-opacity="1" stroke="none" xml:space="preserve" x="0" y="0" font-family="Helvetica" font-size="60" font-weight="400" font-style="normal" 
 >20</text>
</g>

<g fill="#212121" fill-opacity="1" stroke="#212121" stroke-opacity="1" stroke-width="1" stroke-linecap="square" stroke-linejoin="bevel" transform="matrix(0.5,0,0,0.5,125.5,132.143)"
font-family="Helvetica" font-size="60" font-weight="400" font-style="normal" 
>
<text fill="#212121" fill-opacity="1" stroke="none" xml:space="preserve" x="0" y="0" font-family="Helvetica" font-size="60" font-weight="400" font-style="normal" 
 >25</text>
</g>

<g fill="#212121" fill-opacity="1" stroke="#212121" stroke-opacity="1" stroke-width="1" stroke-linecap="square" stroke-linejoin="bevel" transform="matrix(0.5,0,0,0.5,125.5,58.5)"
font-family="Helvetica" font-size="60" font-weight="400" font-style="normal" 
>
<text fill="#212121" fill-opacity="1" stroke="none" xml:space="preserve" x="0" y="0" font-family="Helvetica" font-size="60" font-weight="400" font-style="normal" 
 >30</text>
</g>

<g fill="#212121" fill-opacity="1" stroke="#212121" stroke-opacity="1" stroke-width="1" stroke-linecap="square" stroke-linejoin="bevel" transform="matrix(0.5,0,0,0.5,271.5,37.75)"
font-family="Helvetica" font-size="60" font-weight="700" font-style="normal" 
>
<text fill="#212121" fill-opacity="1" stroke="none" xml:space="preserve" x="0" y="0" font-family="Helvetica" font-size="60" font-weight="700" font-style="normal" 
 >Acceleration of Quarter Car Model (Wavy Road; Tuned)</text>
</g>

<g fill="none" stroke="#1171be" stroke-opacity="1" stroke-width="4" stroke-linecap="butt" stroke-linejoin="round" transform="matrix(0.5,0,0,0.5,0,0)"
font-family="Helvetica" font-size="60" font-weight="700" font-style="normal" 
>
<polyline fill="none" vector-effect="none" points="333,979.714 335.226,970.305 337.452,927.149 339.369,874.787 341.907,825.843 345.458,787.489 349.866,785.291 354.545,819.864 360.016,864.851 367.372,903.214 375.275,925.917 383.133,938.626 389.445,949.307 395.758,959.328 406.112,965.02 415.038,970.217 422.885,978.585 432.7,978.574 438.421,980.102 444.143,986.997 453.288,988.177 461.167,985.32 467.569,991.731 473.971,995.767 481.718,992.15 488.189,990.986 494.66,999.79 503.163,999.667 510.566,994.06 516.571,1000.29 522.576,1006.05 530.011,1001.81 537.698,997.16 545.65,1008.43 553.662,1006.66 560.828,999.639 566.774,1007.19 572.719,1012.83 579.889,1007.38 587.424,1001.53 595.198,1013.52 603.041,1011.93 610.019,1003.29 615.699,1009.26 621.379,1016.89 628.581,1012.32 635.738,1004.16 641.622,1012.07 647.506,1017.84 654.536,1011.65 661.928,1004.56 669.87,1016.14 677.115,1015.1 684.067,1005.52 689.65,1008.97 695.234,1017.95 702.619,1014.35 709.601,1004.94 715.292,1009.65 720.983,1017.06 728.268,1012.48 735.43,1004.03 741.356,1010.44 747.282,1015.41 754.462,1009.4 761.984,1002.64 770.009,1012.18 777.943,1009.75 785.116,1001.68 791.107,1006.42 797.098,1010.71 804.538,1005.34 812.262,999.415 820.433,1007.15 828.766,1003.88 836.259,997.503 843.372,1002.71 850.484,1002.74 858.173,996.404 865.605,997.118 871.849,1000.27 879.994,996.275 888.359,992.675 896.26,995.95 906.052,992.453 914.739,990.09 922.029,991.307 932.267,988.422 941.32,986.782 948.932,986.368 960.211,984.267 971.496,982.339 991.327,980.506 1000.77,976.836 1010.21,977.105 1019.93,973.472 1027.83,973.191 1037.27,973.849 1046.42,968.205 1055.57,969.92 1062.19,970.409 1068.81,964.192 1078.18,965.028 1086.11,968.24 1093.7,960.61 1101.28,960.556 1108.98,965.618 1115.12,960.479 1121.26,955.134 1128.87,959.13 1136.72,963.159 1144.64,952.538 1152.97,955.055 1160.26,961.133 1166.82,952.191 1173.38,949.299 1180.54,956.136 1186.08,958.849 1191.62,949.067 1199.86,947.501 1206.88,956.039 1212.69,954.662 1218.13,945.157 1226.34,947.036 1233.29,956.012 1238.94,950.907 1244.6,942.621 1251.87,946.755 1258.95,955.356 1264.64,948.568 1270.34,941.742 1277.45,947.012 1284.67,955.015 1290.7,946.292 1296.72,941.713 1303.7,948.759 1311.26,954.913 1319.14,942.797 1327.11,946.283 1334.09,955.159 1339.94,948.237 1345.79,942.822 1352.91,948.844 1360.33,956.043 1368.54,946.022 1375.77,947.59 1382.89,956.291 1388.7,952.854 1394.52,946.233 1401.98,950.679 1409.31,958.289 1415.5,952.377 1421.7,949.31 1429.04,955.492 1437.04,959.455 1444.02,952.242 1452.87,956.29 1460.45,962.343 1469.22,956.192 1477.44,959.171 1485.25,964.532 1493.05,960.14 1500.85,961.611 1508.88,966.738 1515.87,964.92 1522.86,964.326 1531.35,968.45 1539.25,969.295 1546.14,968.409 1555.76,971.243 1564.89,972.865 1572.44,973.247 1583.75,975.323 1594.97,977.249 1614.18,979.028 1624.28,982.63 1634.38,982.463 1644.45,986.343 1652.7,986.112 1662.27,986.307 1671.63,991.736 1679.26,989.228 1686.89,989.745 1693.54,995.83 1703.06,993.846 1711.1,991.962 1718.92,1000.01 1727.91,997.261 1735.74,994.389 1743.89,1003.69 1752.53,1000.66 1760.12,996.286 1767.99,1006.77 1776.34,1004.67 1783.6,998.394 1789.81,1006.62 1796.02,1010.58 1803.21,1004.48 1811.13,1001.7 1817.72,1012.77 1826.11,1009.43 1833.25,1001.86 1839.24,1010.23 1845.24,1015.3 1852.29,1009.01 1859.86,1003.01 1867.32,1015.55 1875.29,1013.39 1882.19,1004.17 1887.83,1010.06 1893.47,1017.7 1900.66,1013.05 1907.78,1004.56 1913.58,1011.96 1919.38,1017.96 1926.43,1012.01 1933.76,1004.45 1940.49,1014.51 1947.21,1016.39 1954.14,1007.66 1959.3,1004.32 1964.46,1013.63 1972.64,1015.41 1979.62,1006.27 1984.87,1004.44 1990.11,1013.18 1998.42,1013.26 2005.43,1003.91 2011.91,1005.63 2017.54,1013.22 2025.1,1009.39 2032.33,1001.33 2038.28,1006.05 2044.22,1010.43 2051.67,1005.15 2059.36,999.145 2067.63,1006.77 2076.2,1003.46 2083.69,997.195 2092.98,1003.02 2100.44,1000.37 2108.37,995.128 2115.36,998.834 2122.35,998.867 2130.38,993.53 2138.19,993.786 2144.75,995.64 2153.3,991.992 2160.45,989.504 2167.6,991.217 2178.39,988.773 2187.49,986.583 2195.54,986.36 2207.27,984.16 2218.41,982.216 2235.64,980.603 2246.28,977.08 2256.92,977.34 2266.51,973.423 2274.28,972.835 2283.52,973.919 2291.18,968.787 2298.85,968.476 2307.34,971.065 2314.11,965.808 2318,963.032 " />
</g>

<g fill="none" stroke="#dd5400" stroke-opacity="1" stroke-width="4" stroke-linecap="butt" stroke-linejoin="round" transform="matrix(0.5,0,0,0.5,0,0)"
font-family="Helvetica" font-size="60" font-weight="700" font-style="normal" 
>
<polyline fill="none" vector-effect="none" points="333,979.714 335.226,979.584 337.452,978.071 339.369,974.305 341.907,967.612 345.458,955.72 349.866,939.428 354.545,924.354 360.016,914.114 367.372,908.928 375.275,908.588 383.133,911.206 389.445,914.998 395.758,919.546 406.112,926.25 415.038,933.573 422.885,940.439 432.7,947.231 438.421,952.232 444.143,956.107 453.288,961.268 461.167,965.939 467.569,969.457 473.971,973.196 481.718,976.721 488.189,979.188 494.66,981.892 503.163,985.438 510.566,987.902 516.571,989.571 522.576,991.99 530.011,994.39 537.698,995.695 545.65,997.604 553.662,1000.3 560.828,1001.42 566.774,1002.16 572.719,1003.95 579.889,1005.59 587.424,1005.96 595.198,1006.98 603.041,1009.03 610.019,1009.52 615.699,1009.49 621.379,1010.67 628.581,1012.02 635.738,1012.06 641.622,1011.95 647.506,1013.11 654.536,1014.09 661.928,1013.67 669.87,1013.82 677.115,1015.12 684.067,1015.04 689.65,1014.26 695.234,1014.8 702.619,1015.72 709.601,1015.36 715.292,1014.52 720.983,1014.98 728.268,1015.6 735.43,1014.92 741.356,1014.11 747.282,1014.54 754.462,1014.79 761.984,1013.71 770.009,1013.14 777.943,1013.49 785.116,1012.59 791.107,1011.54 797.098,1011.59 804.538,1011.48 812.262,1010.16 820.433,1009.33 828.766,1009.16 836.259,1007.88 843.372,1006.79 850.484,1006.5 858.173,1005.59 865.605,1004.09 871.849,1003.5 879.994,1002.83 888.359,1001.25 896.26,1000.16 906.052,999.118 914.739,997.388 922.029,996.24 932.267,994.985 941.32,993.231 948.932,991.914 960.211,990.378 971.496,988.376 991.327,985.659 1000.77,983.197 1010.21,981.517 1019.93,979.842 1027.83,978.063 1037.27,976.825 1046.42,975.103 1055.57,973.267 1062.19,972.374 1068.81,971.146 1078.18,969.326 1086.11,968.335 1093.7,967.151 1101.28,965.33 1108.98,964.396 1115.12,963.846 1121.26,962.398 1128.87,960.965 1136.72,960.546 1144.64,959.398 1152.97,957.508 1160.26,957.063 1166.82,956.528 1173.38,954.928 1180.54,953.942 1186.08,954.049 1191.62,953.537 1199.86,951.888 1206.88,951.142 1212.69,951.413 1218.13,950.649 1226.34,949.172 1233.29,948.907 1238.94,949.241 1244.6,948.295 1251.87,947.083 1258.95,947.164 1264.64,947.526 1270.34,946.593 1277.45,945.63 1284.67,946.011 1290.7,946.34 1296.72,945.364 1303.7,944.752 1311.26,945.562 1319.14,945.487 1327.11,944.483 1334.09,945.056 1339.94,945.748 1345.79,945.166 1352.91,944.739 1360.33,945.669 1368.54,946.127 1375.77,945.543 1382.89,946.16 1388.7,947.254 1394.52,947.125 1401.98,946.878 1409.31,947.861 1415.5,948.836 1421.7,948.712 1429.04,948.943 1437.04,950.372 1444.02,950.93 1452.87,951.131 1460.45,952.516 1469.22,953.505 1477.44,953.949 1485.25,955.308 1493.05,956.454 1500.85,957.014 1508.88,958.255 1515.87,959.597 1522.86,960.299 1531.35,961.358 1539.25,962.89 1546.14,963.896 1555.76,965.067 1564.89,966.75 1572.44,968.053 1583.75,969.562 1594.97,971.536 1614.18,974.151 1624.28,976.627 1634.38,978.372 1644.45,980.146 1652.7,981.934 1662.27,983.115 1671.63,985.054 1679.26,986.653 1686.89,987.474 1693.54,988.883 1703.06,990.615 1711.1,991.467 1718.92,992.949 1727.91,994.779 1735.74,995.415 1743.89,996.799 1752.53,998.645 1760.12,999.119 1767.99,1000.21 1776.34,1002.1 1783.6,1002.58 1789.81,1003.02 1796.02,1004.51 1803.21,1005.62 1811.13,1005.54 1817.72,1006.57 1826.11,1008.18 1833.25,1008.34 1839.24,1008.42 1845.24,1009.71 1852.29,1010.74 1859.86,1010.42 1867.32,1010.88 1875.29,1012.43 1882.19,1012.44 1887.83,1012.01 1893.47,1012.87 1900.66,1013.9 1907.78,1013.6 1913.58,1013.16 1919.38,1014.02 1926.43,1014.77 1933.76,1014.15 1940.49,1013.83 1947.21,1014.8 1954.14,1014.93 1959.3,1014 1964.46,1013.78 1972.64,1014.59 1979.62,1014.53 1984.87,1013.49 1990.11,1013.29 1998.42,1013.9 2005.43,1013.5 2011.91,1012.3 2017.54,1012.34 2025.1,1012.65 2032.33,1011.75 2038.28,1010.69 2044.22,1010.74 2051.67,1010.65 2059.36,1009.36 2067.63,1008.53 2076.2,1008.36 2083.69,1007.05 2092.98,1006.01 2100.44,1005.54 2108.37,1004.28 2115.36,1003.09 2122.35,1002.61 2130.38,1001.61 2138.19,1000.09 2144.75,999.317 2153.3,998.405 2160.45,996.932 2167.6,995.846 2178.39,994.65 2187.49,992.872 2195.54,991.524 2207.27,989.948 2218.41,987.941 2235.64,985.528 2246.28,983.12 2256.92,981.275 2266.51,979.598 2274.28,977.809 2283.52,976.563 2291.18,975.155 2298.85,973.47 2307.34,972.337 2314.11,971.289 2318,970.029 " />
</g>

<g fill="none" stroke="#edb120" stroke-opacity="1" stroke-width="4" stroke-linecap="butt" stroke-linejoin="round" transform="matrix(0.5,0,0,0.5,0,0)"
font-family="Helvetica" font-size="60" font-weight="700" font-style="normal" 
>
<polyline fill="none" vector-effect="none" points="333,979.714 335.226,648.16 337.452,265.056 339.369,195.313 341.907,311.136 345.458,584.42 349.866,898.685 354.545,1068.57 360.016,1078.64 367.372,1027.16 375.275,986.86 383.133,982.732 389.445,1003.61 395.758,999.428 406.112,981.946 415.038,1004.28 422.885,994.759 432.7,977.631 438.421,1011.93 444.143,1014.7 453.288,982.576 461.167,989.157 467.569,1028.08 473.971,995.128 481.718,973.498 488.189,1016.87 494.66,1025.85 503.163,981.691 510.566,987.183 516.571,1045.14 522.576,1007.32 530.011,973.345 537.698,1011.4 545.65,1033.01 553.662,977.937 560.828,992.963 566.774,1054.89 572.719,1009.25 579.889,971.677 587.424,1013.64 595.198,1041.75 603.041,979.342 610.019,984.639 615.699,1063.89 621.379,1022.62 628.581,974.651 635.738,994.732 641.622,1062.28 647.506,1012.17 654.536,970.88 661.928,1010.88 669.87,1045.66 677.115,981.842 684.067,973.301 689.65,1065.58 695.234,1032.06 702.619,977.702 709.601,980.722 715.292,1061.33 720.983,1022.89 728.268,975.066 735.43,991.236 741.356,1054.24 747.282,1009.19 754.462,971.457 761.984,1007.89 770.009,1033.17 777.943,978.453 785.116,986.774 791.107,1043.15 797.098,1005.52 804.538,972.611 812.262,1004.9 820.433,1020.33 828.766,976.349 836.259,993.884 843.372,1021.53 850.484,984.802 858.173,972.832 865.605,1018.59 871.849,996.54 879.994,974.685 888.359,998.037 896.26,995.705 906.052,976.459 914.739,994.072 922.029,988.458 932.267,977.639 941.32,986.742 948.932,982.429 960.211,978.251 971.496,978.876 991.327,976.429 1000.77,972.291 1010.21,976.503 1019.93,964.32 1027.83,978.682 1037.27,965.239 1046.42,961.495 1055.57,982.181 1062.19,951.945 1068.81,949.044 1078.18,980.002 1086.11,960.519 1093.7,940.115 1101.28,978.005 1108.98,975.93 1115.12,920.76 1121.26,954.905 1128.87,985.714 1136.72,947.744 1144.64,932.989 1152.97,983.251 1160.26,958.654 1166.82,914.5 1173.38,965.149 1180.54,990.422 1186.08,931.774 1191.62,910.033 1199.86,968.511 1206.88,987.575 1212.69,909.735 1218.13,920.868 1226.34,977.293 1233.29,979.042 1238.94,894.674 1244.6,933.036 1251.87,983.605 1258.95,970.017 1264.64,895.267 1270.34,940.383 1277.45,986.215 1284.67,959.84 1290.7,899.262 1296.72,953.173 1303.7,990.32 1311.26,939.072 1319.14,920.54 1327.11,983.365 1334.09,966.734 1339.94,901.108 1345.79,947.708 1352.91,987.909 1360.33,952.693 1368.54,921.531 1375.77,978.612 1382.89,981.777 1388.7,907.223 1394.52,941.475 1401.98,984.468 1409.31,966.879 1415.5,918.418 1421.7,960.442 1429.04,988.525 1437.04,943.275 1444.02,944.972 1452.87,983.408 1460.45,960.56 1469.22,945.828 1477.44,982.214 1485.25,966.289 1493.05,948.96 1500.85,979.59 1508.88,976.795 1515.87,951.915 1522.86,973.538 1531.35,983.305 1539.25,962.711 1546.14,972.069 1555.76,982.15 1564.89,972.716 1572.44,976.851 1583.75,981.163 1594.97,980.567 1614.18,983.065 1624.28,986.234 1634.38,984.451 1644.45,993.574 1652.7,980.01 1662.27,1000.75 1671.63,991.162 1679.26,976.156 1686.89,1010.22 1693.54,1005.1 1703.06,977.376 1711.1,1010.21 1718.92,1010.05 1727.91,975.991 1735.74,1012.73 1743.89,1016.5 1752.53,975.544 1760.12,1010.82 1767.99,1028.01 1776.34,977.047 1783.6,997.78 1789.81,1047.34 1796.02,1000.01 1803.21,970.196 1811.13,1029.63 1817.72,1029.1 1826.11,977.167 1833.25,997.539 1839.24,1057.54 1845.24,1007.34 1852.29,970.268 1859.86,1018.11 1867.32,1043.84 1875.29,978.336 1882.19,984.711 1887.83,1065.08 1893.47,1023.77 1900.66,974.83 1907.78,993.015 1913.58,1062.82 1919.38,1014.49 1926.43,971.638 1933.76,1006.04 1940.49,1053.12 1947.21,992.558 1954.14,966.407 1959.3,1032.37 1964.46,1054.81 1972.64,994.441 1979.62,968.482 1984.87,1037.57 1990.11,1045.8 1998.42,988.742 2005.43,969.515 2011.91,1048.49 2017.54,1022.05 2025.1,976.673 2032.33,986.545 2038.28,1043.47 2044.22,1006.09 2051.67,972.781 2059.36,1003.95 2067.63,1020.42 2076.2,976.452 2083.69,995.714 2092.98,1012.96 2100.44,978.658 2108.37,989.857 2115.36,1013.89 2122.35,984.59 2130.38,974.179 2138.19,1008.73 2144.75,990.476 2153.3,975.275 2160.45,993.169 2167.6,992.39 2178.39,977.905 2187.49,986.347 2195.54,982.817 2207.27,978.317 2218.41,978.838 2235.64,976.494 2246.28,973.445 2256.92,977.099 2266.51,962.393 2274.28,978.396 2283.52,969.033 2291.18,955.208 2298.85,978.565 2307.34,971.322 2314.11,941.601 2318,964.762 " />
</g>

<g fill="#ffffff" fill-opacity="1" stroke="none" transform="matrix(5e-05,0,0,5e-05,0,0)"
font-family="Helvetica" font-size="60" font-weight="700" font-style="normal" 
>
<path vector-effect="none" fill-rule="evenodd" d="M2.012e+07,1.12e+06 L2.012e+07,3.2e+06 L2.302e+07,3.2e+06 L2.302e+07,1.12e+06 L2.012e+07,1.12e+06"/>
</g>

<g fill="#1171be" fill-opacity="1" stroke="#1171be" stroke-opacity="1" stroke-width="4" stroke-linecap="butt" stroke-linejoin="round" transform="matrix(0.5,0,0,0.5,0,0)"
font-family="Helvetica" font-size="60" font-weight="700" font-style="normal" 
>
<polyline fill="none" vector-effect="none" points="2017.99,148.412 2077.89,148.412 " />
</g>

<g fill="#dd5400" fill-opacity="1" stroke="#dd5400" stroke-opacity="1" stroke-width="4" stroke-linecap="butt" stroke-linejoin="round" transform="matrix(0.5,0,0,0.5,0,0)"
font-family="Helvetica" font-size="60" font-weight="700" font-style="normal" 
>
<polyline fill="none" vector-effect="none" points="2017.99,216 2077.89,216 " />
</g>

<g fill="#edb120" fill-opacity="1" stroke="#edb120" stroke-opacity="1" stroke-width="4" stroke-linecap="butt" stroke-linejoin="round" transform="matrix(0.5,0,0,0.5,0,0)"
font-family="Helvetica" font-size="60" font-weight="700" font-style="normal" 
>
<polyline fill="none" vector-effect="none" points="2017.99,283.588 2077.89,283.588 " />
</g>

<g fill="#212121" fill-opacity="1" stroke="#212121" stroke-opacity="1" stroke-width="1" stroke-linecap="square" stroke-linejoin="bevel" transform="matrix(0.5,0,0,0.5,1041.19,84.7062)"
font-family="Helvetica" font-size="60" font-weight="400" font-style="normal" 
>
<text fill="#212121" fill-opacity="1" stroke="none" xml:space="preserve" x="0" y="0" font-family="Helvetica" font-size="60" font-weight="400" font-style="normal" 
 >Chassis</text>
</g>

<g fill="#212121" fill-opacity="1" stroke="#212121" stroke-opacity="1" stroke-width="1" stroke-linecap="square" stroke-linejoin="bevel" transform="matrix(0.5,0,0,0.5,1041.19,118.5)"
font-family="Helvetica" font-size="60" font-weight="400" font-style="normal" 
>
<text fill="#212121" fill-opacity="1" stroke="none" xml:space="preserve" x="0" y="0" font-family="Helvetica" font-size="60" font-weight="400" font-style="normal" 
 >Seat</text>
</g>

<g fill="#212121" fill-opacity="1" stroke="#212121" stroke-opacity="1" stroke-width="1" stroke-linecap="square" stroke-linejoin="bevel" transform="matrix(0.5,0,0,0.5,1041.19,152.294)"
font-family="Helvetica" font-size="60" font-weight="400" font-style="normal" 
>
<text fill="#212121" fill-opacity="1" stroke="none" xml:space="preserve" x="0" y="0" font-family="Helvetica" font-size="60" font-weight="400" font-style="normal" 
 >Wheel</text>
</g>

<g fill="none" stroke="#212121" stroke-opacity="1" stroke-width="1" stroke-linecap="butt" stroke-linejoin="miter" stroke-miterlimit="2" transform="matrix(0.5,0,0,0.5,0,0)"
font-family="Helvetica" font-size="60" font-weight="400" font-style="normal" 
>
<path vector-effect="none" fill-rule="evenodd" d="M2012,320 L2012,112 L2302,112 L2302,320 L2012,320"/>
</g>
</g>
</svg>
