<?xml version="1.0" encoding="UTF-8" standalone="no"?>
<svg width="451.908mm" height="225.778mm"
 viewBox="0 0 1281 640"
 xmlns="http://www.w3.org/2000/svg" xmlns:xlink="http://www.w3.org/1999/xlink"  version="1.2" baseProfile="tiny">
<title>Qt SVG Document</title>
<desc>MATLAB, The MathWorks, Inc. Version 25.2.0.2998904 R2025b</desc>
<defs>
</defs>
<g fill="none" stroke="black" stroke-width="1" fill-rule="evenodd" stroke-linecap="square" stroke-linejoin="bevel" >

<g fill="#ffffff" fill-opacity="1" stroke="none" transform="matrix(0.5,0,0,0.5,0,0)"
font-family="MS Shell Dlg 2" font-size="8" font-weight="400" font-style="normal" 
>
<path vector-effect="none" fill-rule="evenodd" d="M0,0 L2562,0 L2562,1281 L0,1281 L0,0"/>
</g>

<g fill="#ffffff" fill-opacity="1" stroke="none" transform="matrix(5e-05,0,0,5e-05,0,0)"
font-family="MS Shell Dlg 2" font-size="8" font-weight="400" font-style="normal" 
>
<path vector-effect="none" fill-rule="evenodd" d="M3.33e+06,960000 L3.33e+06,1.127e+07 L2.318e+07,1.127e+07 L2.318e+07,960000 L3.33e+06,960000"/>
</g>

<g fill="#212121" fill-opacity="0.14902" stroke="#212121" stroke-opacity="0.14902" stroke-width="1" stroke-linecap="butt" stroke-linejoin="round" transform="matrix(0.5,0,0,0.5,0,0)"
font-family="MS Shell Dlg 2" font-size="8" font-weight="400" font-style="normal" 
>
<polyline fill="none" vector-effect="none" points="333,96 333,1127 " />
<polyline fill="none" vector-effect="none" points="730,96 730,1127 " />
<polyline fill="none" vector-effect="none" points="1127,96 1127,1127 " />
<polyline fill="none" vector-effect="none" points="1524,96 1524,1127 " />
<polyline fill="none" vector-effect="none" points="1921,96 1921,1127 " />
<polyline fill="none" vector-effect="none" points="2318,96 2318,1127 " />
<polyline fill="none" vector-effect="none" points="333,1127 2318,1127 " />
<polyline fill="none" vector-effect="none" points="333,869.25 2318,869.25 " />
<polyline fill="none" vector-effect="none" points="333,611.5 2318,611.5 " />
<polyline fill="none" vector-effect="none" points="333,353.75 2318,353.75 " />
<polyline fill="none" vector-effect="none" points="333,96 2318,96 " />
</g>

<g fill="#212121" fill-opacity="1" stroke="#212121" stroke-opacity="1" stroke-width="1" stroke-linecap="square" stroke-linejoin="bevel" transform="matrix(0.5,0,0,0.5,608.25,633.5)"
font-family="Helvetica" font-size="60" font-weight="400" font-style="normal" 
>
<text fill="#212121" fill-opacity="1" stroke="none" xml:space="preserve" x="0" y="0" font-family="Helvetica" font-size="60" font-weight="400" font-style="normal" 
 >Time (s)</text>
</g>

<g fill="#212121" fill-opacity="1" stroke="#212121" stroke-opacity="1" stroke-width="1" stroke-linecap="square" stroke-linejoin="round" transform="matrix(0.5,0,0,0.5,0,0)"
font-family="Helvetica" font-size="60" font-weight="400" font-style="normal" 
>
<polyline fill="none" vector-effect="none" points="333,1127 2318,1127 " />
<polyline fill="none" vector-effect="none" points="333,96 2318,96 " />
<polyline fill="none" vector-effect="none" points="333,1127 333,1107.15 " />
<polyline fill="none" vector-effect="none" points="333,115.85 333,96 " />
<polyline fill="none" vector-effect="none" points="730,1127 730,1107.15 " />
<polyline fill="none" vector-effect="none" points="730,115.85 730,96 " />
<polyline fill="none" vector-effect="none" points="1127,1127 1127,1107.15 " />
<polyline fill="none" vector-effect="none" points="1127,115.85 1127,96 " />
<polyline fill="none" vector-effect="none" points="1524,1127 1524,1107.15 " />
<polyline fill="none" vector-effect="none" points="1524,115.85 1524,96 " />
<polyline fill="none" vector-effect="none" points="1921,1127 1921,1107.15 " />
<polyline fill="none" vector-effect="none" points="1921,115.85 1921,96 " />
<polyline fill="none" vector-effect="none" points="2318,1127 2318,1107.15 " />
<polyline fill="none" vector-effect="none" points="2318,115.85 2318,96 " />
</g>

<g fill="#212121" fill-opacity="1" stroke="#212121" stroke-opacity="1" stroke-width="1" stroke-linecap="square" stroke-linejoin="bevel" transform="matrix(0.5,0,0,0.5,158.25,599)"
font-family="Helvetica" font-size="60" font-weight="400" font-style="normal" 
>
<text fill="#212121" fill-opacity="1" stroke="none" xml:space="preserve" x="0" y="0" font-family="Helvetica" font-size="60" font-weight="400" font-style="normal" 
 >0</text>
</g>

<g fill="#212121" fill-opacity="1" stroke="#212121" stroke-opacity="1" stroke-width="1" stroke-linecap="square" stroke-linejoin="bevel" transform="matrix(0.5,0,0,0.5,356.75,599)"
font-family="Helvetica" font-size="60" font-weight="400" font-style="normal" 
>
<text fill="#212121" fill-opacity="1" stroke="none" xml:space="preserve" x="0" y="0" font-family="Helvetica" font-size="60" font-weight="400" font-style="normal" 
 >2</text>
</g>

<g fill="#212121" fill-opacity="1" stroke="#212121" stroke-opacity="1" stroke-width="1" stroke-linecap="square" stroke-linejoin="bevel" transform="matrix(0.5,0,0,0.5,555.25,599)"
font-family="Helvetica" font-size="60" font-weight="400" font-style="normal" 
>
<text fill="#212121" fill-opacity="1" stroke="none" xml:space="preserve" x="0" y="0" font-family="Helvetica" font-size="60" font-weight="400" font-style="normal" 
 >4</text>
</g>

<g fill="#212121" fill-opacity="1" stroke="#212121" stroke-opacity="1" stroke-width="1" stroke-linecap="square" stroke-linejoin="bevel" transform="matrix(0.5,0,0,0.5,753.75,599)"
font-family="Helvetica" font-size="60" font-weight="400" font-style="normal" 
>
<text fill="#212121" fill-opacity="1" stroke="none" xml:space="preserve" x="0" y="0" font-family="Helvetica" font-size="60" font-weight="400" font-style="normal" 
 >6</text>
</g>

<g fill="#212121" fill-opacity="1" stroke="#212121" stroke-opacity="1" stroke-width="1" stroke-linecap="square" stroke-linejoin="bevel" transform="matrix(0.5,0,0,0.5,952.25,599)"
font-family="Helvetica" font-size="60" font-weight="400" font-style="normal" 
>
<text fill="#212121" fill-opacity="1" stroke="none" xml:space="preserve" x="0" y="0" font-family="Helvetica" font-size="60" font-weight="400" font-style="normal" 
 >8</text>
</g>

<g fill="#212121" fill-opacity="1" stroke="#212121" stroke-opacity="1" stroke-width="1" stroke-linecap="square" stroke-linejoin="bevel" transform="matrix(0.5,0,0,0.5,1142.5,599)"
font-family="Helvetica" font-size="60" font-weight="400" font-style="normal" 
>
<text fill="#212121" fill-opacity="1" stroke="none" xml:space="preserve" x="0" y="0" font-family="Helvetica" font-size="60" font-weight="400" font-style="normal" 
 >10</text>
</g>

<g fill="#212121" fill-opacity="1" stroke="#212121" stroke-opacity="1" stroke-width="1" stroke-linecap="square" stroke-linejoin="bevel" transform="matrix(0,-0.5,0.5,0,105.5,433.5)"
font-family="Helvetica" font-size="60" font-weight="400" font-style="normal" 
>
<text fill="#212121" fill-opacity="1" stroke="none" xml:space="preserve" x="0" y="0" font-family="Helvetica" font-size="60" font-weight="400" font-style="normal" 
 >Acceleration (m/s</text>
</g>

<g fill="#212121" fill-opacity="1" stroke="#212121" stroke-opacity="1" stroke-width="1" stroke-linecap="square" stroke-linejoin="bevel" transform="matrix(0,-0.5,0.5,0,90.5,202.5)"
font-family="Helvetica" font-size="48" font-weight="400" font-style="normal" 
>
<text fill="#212121" fill-opacity="1" stroke="none" xml:space="preserve" x="0" y="0" font-family="Helvetica" font-size="48" font-weight="400" font-style="normal" 
 >2</text>
</g>

<g fill="#212121" fill-opacity="1" stroke="#212121" stroke-opacity="1" stroke-width="1" stroke-linecap="square" stroke-linejoin="bevel" transform="matrix(0,-0.5,0.5,0,105.5,189)"
font-family="Helvetica" font-size="60" font-weight="400" font-style="normal" 
>
<text fill="#212121" fill-opacity="1" stroke="none" xml:space="preserve" x="0" y="0" font-family="Helvetica" font-size="60" font-weight="400" font-style="normal" 
 >)</text>
</g>

<g fill="#212121" fill-opacity="1" stroke="#212121" stroke-opacity="1" stroke-width="1" stroke-linecap="square" stroke-linejoin="round" transform="matrix(0.5,0,0,0.5,0,0)"
font-family="Helvetica" font-size="60" font-weight="400" font-style="normal" 
>
<polyline fill="none" vector-effect="none" points="333,1127 333,96 " />
<polyline fill="none" vector-effect="none" points="2318,1127 2318,96 " />
<polyline fill="none" vector-effect="none" points="333,1127 352.85,1127 " />
<polyline fill="none" vector-effect="none" points="2298.15,1127 2318,1127 " />
<polyline fill="none" vector-effect="none" points="333,869.25 352.85,869.25 " />
<polyline fill="none" vector-effect="none" points="2298.15,869.25 2318,869.25 " />
<polyline fill="none" vector-effect="none" points="333,611.5 352.85,611.5 " />
<polyline fill="none" vector-effect="none" points="2298.15,611.5 2318,611.5 " />
<polyline fill="none" vector-effect="none" points="333,353.75 352.85,353.75 " />
<polyline fill="none" vector-effect="none" points="2298.15,353.75 2318,353.75 " />
<polyline fill="none" vector-effect="none" points="333,96 352.85,96 " />
<polyline fill="none" vector-effect="none" points="2298.15,96 2318,96 " />
</g>

<g fill="#212121" fill-opacity="1" stroke="#212121" stroke-opacity="1" stroke-width="1" stroke-linecap="square" stroke-linejoin="bevel" transform="matrix(0.5,0,0,0.5,115.5,574)"
font-family="Helvetica" font-size="60" font-weight="400" font-style="normal" 
>
<text fill="#212121" fill-opacity="1" stroke="none" xml:space="preserve" x="0" y="0" font-family="Helvetica" font-size="60" font-weight="400" font-style="normal" 
 >-10</text>
</g>

<g fill="#212121" fill-opacity="1" stroke="#212121" stroke-opacity="1" stroke-width="1" stroke-linecap="square" stroke-linejoin="bevel" transform="matrix(0.5,0,0,0.5,132,445.125)"
font-family="Helvetica" font-size="60" font-weight="400" font-style="normal" 
>
<text fill="#212121" fill-opacity="1" stroke="none" xml:space="preserve" x="0" y="0" font-family="Helvetica" font-size="60" font-weight="400" font-style="normal" 
 >-5</text>
</g>

<g fill="#212121" fill-opacity="1" stroke="#212121" stroke-opacity="1" stroke-width="1" stroke-linecap="square" stroke-linejoin="bevel" transform="matrix(0.5,0,0,0.5,142,316.25)"
font-family="Helvetica" font-size="60" font-weight="400" font-style="normal" 
>
<text fill="#212121" fill-opacity="1" stroke="none" xml:space="preserve" x="0" y="0" font-family="Helvetica" font-size="60" font-weight="400" font-style="normal" 
 >0</text>
</g>

<g fill="#212121" fill-opacity="1" stroke="#212121" stroke-opacity="1" stroke-width="1" stroke-linecap="square" stroke-linejoin="bevel" transform="matrix(0.5,0,0,0.5,142,187.375)"
font-family="Helvetica" font-size="60" font-weight="400" font-style="normal" 
>
<text fill="#212121" fill-opacity="1" stroke="none" xml:space="preserve" x="0" y="0" font-family="Helvetica" font-size="60" font-weight="400" font-style="normal" 
 >5</text>
</g>

<g fill="#212121" fill-opacity="1" stroke="#212121" stroke-opacity="1" stroke-width="1" stroke-linecap="square" stroke-linejoin="bevel" transform="matrix(0.5,0,0,0.5,125.5,58.5)"
font-family="Helvetica" font-size="60" font-weight="400" font-style="normal" 
>
<text fill="#212121" fill-opacity="1" stroke="none" xml:space="preserve" x="0" y="0" font-family="Helvetica" font-size="60" font-weight="400" font-style="normal" 
 >10</text>
</g>

<g fill="#212121" fill-opacity="1" stroke="#212121" stroke-opacity="1" stroke-width="1" stroke-linecap="square" stroke-linejoin="bevel" transform="matrix(0.5,0,0,0.5,419.5,37.75)"
font-family="Helvetica" font-size="60" font-weight="700" font-style="normal" 
>
<text fill="#212121" fill-opacity="1" stroke="none" xml:space="preserve" x="0" y="0" font-family="Helvetica" font-size="60" font-weight="700" font-style="normal" 
 >Acceleration of Quarter Car Model</text>
</g>

<g fill="none" stroke="#1171be" stroke-opacity="1" stroke-width="4" stroke-linecap="butt" stroke-linejoin="round" transform="matrix(0.5,0,0,0.5,0,0)"
font-family="Helvetica" font-size="60" font-weight="700" font-style="normal" 
>
<polyline fill="none" vector-effect="none" points="333,611.5 372.7,611.5 412.4,611.5 452.1,611.5 491.8,611.5 531.5,611.5 531.5,611.5 531.5,611.5 532.515,610.718 533.53,606.301 535.118,595.571 537.265,575.805 539.819,553.876 542.886,543.122 546.322,549.908 549.365,561.3 552.77,564.024 556.251,558.298 559.732,553.175 563.86,555.193 568.305,562.239 572.435,566.97 578.102,570.041 582.713,575.794 588.716,583.473 594.168,590.447 600.44,597.255 608.102,605.23 615.088,611.921 622.713,617.254 631.483,621.227 641.608,623.512 651.093,623.588 658.812,622.591 666.3,620.836 674.315,619.08 682.932,617.164 692.014,615.671 701.122,614.659 710.086,614.464 719.241,614.729 729.017,615.52 740.727,616.612 746.305,617.096 751.883,617.273 759.994,617.685 766.747,617.181 774.114,616.716 781.975,615.628 790.833,614.143 800.517,612.09 809.633,609.973 817.742,607.893 825.883,606.322 829.217,605.231 832.55,612.046 835.723,642.006 838.371,666.415 841.73,671.614 845.223,660.79 848.264,651.327 852.203,652.62 856.021,659.879 859.623,661.607 863.643,656.583 867.664,650.739 872.546,647.792 877.386,644.801 882.64,638.84 888.109,632.281 894.705,626.383 900.806,620.101 908.374,614.133 916.641,609.03 924.868,605.275 933.585,603.511 942.666,603.254 952.291,604.509 963.309,606.785 969.537,608.704 975.766,609.962 984.353,611.277 992.216,611.828 1000.89,611.933 1009.6,611.151 1019.03,609.891 1029.35,608.077 1036.4,606.394 1043.45,605.229 1052.09,604.314 1062.96,603.718 1070.33,603.852 1077.7,604.502 1086.32,605.746 1096,607.574 1105.68,609.827 1113.68,612.202 1120.43,613.861 1127.7,615.459 1136.55,616.984 1148.31,618.379 1154.68,618.937 1161.06,619.039 1169.56,618.944 1178.01,618.208 1187.2,617.262 1196.92,615.841 1205.83,614.276 1214.74,612.878 1222.01,611.428 1229.03,610.453 1237.01,609.472 1247.37,608.515 1255.62,607.771 1263.87,607.455 1272.09,607.241 1280.59,607.335 1289.41,607.511 1298.27,607.97 1306.98,608.412 1315.7,609.079 1324.65,609.664 1333.94,610.41 1343.78,611.088 1353.18,611.734 1360.4,612.328 1367.62,612.696 1376.19,613.055 1389.57,613.388 1395.11,613.742 1400.65,614.013 1407.02,613.658 1413.39,613.795 1420.91,613.745 1429.85,613.534 1438.79,613.317 1450.66,612.978 1456.81,612.488 1462.96,612.181 1471.46,612.011 1479.26,611.485 1487.8,611.236 1496.43,610.797 1505.61,610.548 1515.39,610.249 1524.7,610.039 1531.88,610.021 1539.07,609.969 1547.65,609.985 1558.25,610.1 1565.71,610.323 1573.17,610.473 1581.75,610.697 1592.67,610.97 1599.63,611.338 1606.58,611.508 1615.04,611.711 1624.76,611.966 1634.48,612.217 1643.24,612.259 1650.51,612.495 1657.82,612.443 1665.97,612.488 1675.44,612.431 1685.46,612.408 1694.01,612.169 1701.53,612.181 1709.46,611.934 1717.87,611.849 1726.76,611.619 1735.87,611.507 1744.99,611.284 1754.31,611.194 1764.36,611.05 1773.1,610.927 1781.84,610.969 1789.29,610.835 1796.59,610.912 1804.81,610.917 1814.69,610.99 1822.84,611.016 1830.98,611.158 1839.61,611.203 1848.63,611.363 1857.59,611.408 1866.32,611.586 1875.12,611.608 1884.27,611.754 1893.92,611.784 1904.94,611.805 1911.19,611.934 1917.44,611.97 1926.02,611.807 1933.95,611.925 1942.69,611.783 1951.49,611.816 1961.11,611.705 1971.99,611.593 1978.14,611.637 1984.29,611.631 1992.88,611.393 2000.55,611.494 2009.01,611.318 2017.48,611.368 2026.47,611.26 2035.92,611.287 2046.49,611.282 2053.36,611.225 2060.22,611.232 2068.89,611.326 2078.62,611.305 2089.33,611.306 2095.46,611.463 2101.59,611.533 2110.11,611.381 2117.75,611.58 2126.14,611.489 2134.58,611.618 2143.49,611.572 2152.83,611.651 2162.96,611.65 2171.17,611.621 2179.38,611.682 2187.22,611.624 2195.33,611.647 2204.23,611.601 2213.64,611.627 2222.4,611.517 2230.41,611.594 2238.57,611.479 2247.18,611.524 2256.17,611.438 2265.33,611.476 2274.66,611.404 2284.58,611.418 2293.7,611.438 2302.82,611.33 2310.13,611.489 2317.08,611.387 2318,611.345 " />
</g>

<g fill="none" stroke="#dd5400" stroke-opacity="1" stroke-width="4" stroke-linecap="butt" stroke-linejoin="round" transform="matrix(0.5,0,0,0.5,0,0)"
font-family="Helvetica" font-size="60" font-weight="700" font-style="normal" 
>
<polyline fill="none" vector-effect="none" points="333,611.5 372.7,611.5 412.4,611.5 452.1,611.5 491.8,611.5 531.5,611.5 531.5,611.5 531.5,611.5 532.515,611.498 533.53,611.476 535.118,611.355 537.265,610.906 539.819,609.791 542.886,607.762 546.322,604.921 549.365,601.96 552.77,598.921 556.251,595.367 559.732,591.328 563.86,586.555 568.305,581.09 572.435,575.728 578.102,569.812 582.713,564.015 588.716,558.882 594.168,554.532 600.44,551.631 608.102,550.488 615.088,552.06 622.713,556.532 631.483,564.699 641.608,577.47 651.093,593.264 658.812,608.092 666.3,621.055 674.315,633.344 682.932,644.778 692.014,654.291 701.122,660.749 710.086,663.619 719.241,663.021 729.017,659.052 740.727,651.168 746.305,643.077 751.883,637.214 759.994,629.714 766.747,621.513 774.114,613.952 781.975,606.356 790.833,598.973 800.517,592.24 809.633,587.144 817.742,584.087 825.883,582.609 829.217,582.299 832.55,582.472 835.723,583.409 838.371,585.327 841.73,588.243 845.223,592.116 848.264,596.038 852.203,600.56 856.021,606.212 859.623,612.229 863.643,618.75 867.664,625.712 872.546,633.395 877.386,641.645 882.64,649.746 888.109,657.461 894.705,664.71 900.806,670.458 908.374,674.056 916.641,674.792 924.868,671.682 933.585,664.683 942.666,653.941 952.291,640.017 963.309,623.115 969.537,609.001 975.766,599.408 984.353,589.199 992.216,579.734 1000.89,572.674 1009.6,568.05 1019.03,566.326 1029.35,567.752 1036.4,571.375 1043.45,575.709 1052.09,581.605 1062.96,589.899 1070.33,598.045 1077.7,604.541 1086.32,611.218 1096,618.087 1105.68,624.214 1113.68,628.629 1120.43,631.402 1127.7,633.235 1136.55,634.429 1148.31,634.612 1154.68,633.748 1161.06,632.549 1169.56,630.655 1178.01,627.971 1187.2,624.705 1196.92,620.841 1205.83,616.856 1214.74,613.03 1222.01,609.688 1229.03,606.915 1237.01,604.282 1247.37,601.538 1255.62,599.361 1263.87,598.029 1272.09,597.293 1280.59,597.152 1289.41,597.639 1298.27,598.743 1306.98,600.376 1315.7,602.423 1324.65,604.817 1333.94,607.486 1343.78,610.34 1353.18,613.11 1360.4,615.296 1367.62,616.974 1376.19,618.504 1389.57,620.028 1395.11,620.792 1400.65,620.974 1407.02,620.951 1413.39,620.69 1420.91,620.162 1429.85,619.235 1438.79,617.935 1450.66,616.13 1456.81,614.443 1462.96,613.252 1471.46,611.863 1479.26,610.391 1487.8,609.05 1496.43,607.835 1505.61,606.829 1515.39,606.074 1524.7,605.662 1531.88,605.574 1539.07,605.711 1547.65,606.056 1558.25,606.724 1565.71,607.537 1573.17,608.326 1581.75,609.24 1592.67,610.396 1599.63,611.438 1606.58,612.213 1615.04,612.995 1624.76,613.796 1634.48,614.469 1643.24,614.919 1650.51,615.14 1657.82,615.214 1665.97,615.152 1675.44,614.93 1685.46,614.515 1694.01,613.993 1701.53,613.458 1709.46,612.903 1717.87,612.292 1726.76,611.651 1735.87,611.017 1744.99,610.439 1754.31,609.946 1764.36,609.546 1773.1,609.291 1781.84,609.167 1789.29,609.162 1796.59,609.231 1804.81,609.387 1814.69,609.65 1822.84,609.987 1830.98,610.335 1839.61,610.724 1848.63,611.141 1857.59,611.558 1866.32,611.939 1875.12,612.274 1884.27,612.558 1893.92,612.78 1904.94,612.933 1911.19,612.976 1917.44,612.973 1926.02,612.916 1933.95,612.803 1942.69,612.642 1951.49,612.432 1961.11,612.177 1971.99,611.879 1978.14,611.617 1984.29,611.446 1992.88,611.245 2000.55,611.045 2009.01,610.878 2017.48,610.737 2026.47,610.635 2035.92,610.579 2046.49,610.571 2053.36,610.616 2060.22,610.67 2068.89,610.764 2078.62,610.898 2089.33,611.079 2095.46,611.226 2101.59,611.348 2110.11,611.483 2117.75,611.624 2126.14,611.753 2134.58,611.869 2143.49,611.965 2152.83,612.038 2162.96,612.078 2171.17,612.09 2179.38,612.066 2187.22,612.03 2195.33,611.97 2204.23,611.895 2213.64,611.796 2222.4,611.693 2230.41,611.591 2238.57,611.499 2247.18,611.406 2256.17,611.32 2265.33,611.245 2274.66,611.187 2284.58,611.149 2293.7,611.128 2302.82,611.136 2310.13,611.149 2317.08,611.18 2318,611.197 " />
</g>

<g fill="none" stroke="#edb120" stroke-opacity="1" stroke-width="4" stroke-linecap="butt" stroke-linejoin="round" transform="matrix(0.5,0,0,0.5,0,0)"
font-family="Helvetica" font-size="60" font-weight="700" font-style="normal" 
>
<polyline fill="none" vector-effect="none" points="333,611.5 372.7,611.5 412.4,611.5 452.1,611.5 491.8,611.5 531.5,611.5 531.5,611.5 531.5,611.5 532.515,499.867 533.53,310.785 535.118,162.854 537.265,137.035 539.819,335.165 542.886,660.01 546.322,833.593 549.365,735.967 552.77,560.62 556.251,497.197 559.732,569.762 563.86,652.792 568.305,641.704 572.435,591.359 578.102,593.791 582.713,621.166 588.716,614.466 594.168,605.65 600.44,613.315 608.102,612.611 615.088,611.841 622.713,613.375 631.483,612.249 641.608,612.907 651.093,612.41 658.812,611.924 666.3,611.886 674.315,611.985 682.932,611.6 692.014,611.572 701.122,611.943 710.086,611.205 719.241,612.524 729.017,610.936 740.727,613.576 746.305,606.625 751.883,615.593 759.994,611.374 766.747,611.887 774.114,612.405 781.975,611.11 790.833,611.849 800.517,611.118 809.633,610.994 817.742,611.273 825.883,610.629 829.217,610.477 832.55,904.379 835.723,1065.52 838.371,796.472 841.73,481.577 845.223,399.579 848.264,553.506 852.203,706.313 856.021,695.293 859.623,597.527 863.643,562.086 867.664,604.628 872.546,638.203 877.386,616.719 882.64,600.618 888.109,613.431 894.705,614.862 900.806,608.23 908.374,611.862 916.641,610.004 924.868,611.154 933.585,610.168 942.666,611.587 952.291,610.237 963.309,612.787 969.537,608.285 975.766,613.909 984.353,610.666 992.216,612.535 1000.89,610.78 1009.6,612.174 1019.03,610.233 1029.35,612.345 1036.4,608.719 1043.45,612.42 1052.09,609.853 1062.96,612.154 1070.33,608.608 1077.7,612.744 1086.32,610.158 1096,612.517 1105.68,610.545 1113.68,612.938 1120.43,610.698 1127.7,613.111 1136.55,611.416 1148.31,613.114 1154.68,609.463 1161.06,614.097 1169.56,611.082 1178.01,612.854 1187.2,610.821 1196.92,612.917 1205.83,610.069 1214.74,612.488 1222.01,610.21 1229.03,612.371 1237.01,610.433 1247.37,611.823 1255.62,610.243 1263.87,611.814 1272.09,610.666 1280.59,611.525 1289.41,611.065 1298.27,611.267 1306.98,611.527 1315.7,611.057 1324.65,611.923 1333.94,610.824 1343.78,612.521 1353.18,610.399 1360.4,613.064 1367.62,610.508 1376.19,612.42 1389.57,610.09 1395.11,618.418 1400.65,608.138 1407.02,610.916 1413.39,613.292 1420.91,610.646 1429.85,612.331 1438.79,610.839 1450.66,612.668 1456.81,608.242 1462.96,613.855 1471.46,610.541 1479.26,612.31 1487.8,610.807 1496.43,612.082 1505.61,610.598 1515.39,612.437 1524.7,610.093 1531.88,612.867 1539.07,610.198 1547.65,612.159 1558.25,610.597 1565.71,612.773 1573.17,610.404 1581.75,612.184 1592.67,610.823 1599.63,612.88 1606.58,610.342 1615.04,612.297 1624.76,610.854 1634.48,612.338 1643.24,611.011 1650.51,612.168 1657.82,610.863 1665.97,612.12 1675.44,611.196 1685.46,611.682 1694.01,611.734 1701.53,611.365 1709.46,611.469 1717.87,611.523 1726.76,611.59 1735.87,611.187 1744.99,611.984 1754.31,610.701 1764.36,612.523 1773.1,610.099 1781.84,612.441 1789.29,610.513 1796.59,612.333 1804.81,610.833 1814.69,611.933 1822.84,610.971 1830.98,611.858 1839.61,611.258 1848.63,611.563 1857.59,611.654 1866.32,611.182 1875.12,611.997 1884.27,610.89 1893.92,612.424 1904.94,610.174 1911.19,614.729 1917.44,609.276 1926.02,612.5 1933.95,610.583 1942.69,612.279 1951.49,610.641 1961.11,612.559 1971.99,609.981 1978.14,615.013 1984.29,609.072 1992.88,612.46 2000.55,610.583 2009.01,612.072 2017.48,610.867 2026.47,612.16 2035.92,610.587 2046.49,612.761 2053.36,609.153 2060.22,613.167 2068.89,610.512 2078.62,612.616 2089.33,609.889 2095.46,615.069 2101.59,609.023 2110.11,612.465 2117.75,610.644 2126.14,612.043 2134.58,610.964 2143.49,612.117 2152.83,610.717 2162.96,612.633 2171.17,610.01 2179.38,612.654 2187.22,610.593 2195.33,612.191 2204.23,611.031 2213.64,611.778 2222.4,611.466 2230.41,611.422 2238.57,611.553 2247.18,611.384 2256.17,611.749 2265.33,611.034 2274.66,612.197 2284.58,610.479 2293.7,612.736 2302.82,610.595 2310.13,612.436 2317.08,610.413 2318,612.258 " />
</g>

<g fill="#ffffff" fill-opacity="1" stroke="none" transform="matrix(5e-05,0,0,5e-05,0,0)"
font-family="Helvetica" font-size="60" font-weight="700" font-style="normal" 
>
<path vector-effect="none" fill-rule="evenodd" d="M2.012e+07,1.12e+06 L2.012e+07,3.2e+06 L2.302e+07,3.2e+06 L2.302e+07,1.12e+06 L2.012e+07,1.12e+06"/>
</g>

<g fill="#1171be" fill-opacity="1" stroke="#1171be" stroke-opacity="1" stroke-width="4" stroke-linecap="butt" stroke-linejoin="round" transform="matrix(0.5,0,0,0.5,0,0)"
font-family="Helvetica" font-size="60" font-weight="700" font-style="normal" 
>
<polyline fill="none" vector-effect="none" points="2017.99,148.412 2077.89,148.412 " />
</g>

<g fill="#dd5400" fill-opacity="1" stroke="#dd5400" stroke-opacity="1" stroke-width="4" stroke-linecap="butt" stroke-linejoin="round" transform="matrix(0.5,0,0,0.5,0,0)"
font-family="Helvetica" font-size="60" font-weight="700" font-style="normal" 
>
<polyline fill="none" vector-effect="none" points="2017.99,216 2077.89,216 " />
</g>

<g fill="#edb120" fill-opacity="1" stroke="#edb120" stroke-opacity="1" stroke-width="4" stroke-linecap="butt" stroke-linejoin="round" transform="matrix(0.5,0,0,0.5,0,0)"
font-family="Helvetica" font-size="60" font-weight="700" font-style="normal" 
>
<polyline fill="none" vector-effect="none" points="2017.99,283.588 2077.89,283.588 " />
</g>

<g fill="#212121" fill-opacity="1" stroke="#212121" stroke-opacity="1" stroke-width="1" stroke-linecap="square" stroke-linejoin="bevel" transform="matrix(0.5,0,0,0.5,1041.19,84.7062)"
font-family="Helvetica" font-size="60" font-weight="400" font-style="normal" 
>
<text fill="#212121" fill-opacity="1" stroke="none" xml:space="preserve" x="0" y="0" font-family="Helvetica" font-size="60" font-weight="400" font-style="normal" 
 >Chassis</text>
</g>

<g fill="#212121" fill-opacity="1" stroke="#212121" stroke-opacity="1" stroke-width="1" stroke-linecap="square" stroke-linejoin="bevel" transform="matrix(0.5,0,0,0.5,1041.19,118.5)"
font-family="Helvetica" font-size="60" font-weight="400" font-style="normal" 
>
<text fill="#212121" fill-opacity="1" stroke="none" xml:space="preserve" x="0" y="0" font-family="Helvetica" font-size="60" font-weight="400" font-style="normal" 
 >Seat</text>
</g>

<g fill="#212121" fill-opacity="1" stroke="#212121" stroke-opacity="1" stroke-width="1" stroke-linecap="square" stroke-linejoin="bevel" transform="matrix(0.5,0,0,0.5,1041.19,152.294)"
font-family="Helvetica" font-size="60" font-weight="400" font-style="normal" 
>
<text fill="#212121" fill-opacity="1" stroke="none" xml:space="preserve" x="0" y="0" font-family="Helvetica" font-size="60" font-weight="400" font-style="normal" 
 >Wheel</text>
</g>

<g fill="none" stroke="#212121" stroke-opacity="1" stroke-width="1" stroke-linecap="butt" stroke-linejoin="miter" stroke-miterlimit="2" transform="matrix(0.5,0,0,0.5,0,0)"
font-family="Helvetica" font-size="60" font-weight="400" font-style="normal" 
>
<path vector-effect="none" fill-rule="evenodd" d="M2012,320 L2012,112 L2302,112 L2302,320 L2012,320"/>
</g>
</g>
</svg>
