<?xml version="1.0" encoding="UTF-8" standalone="no"?>
<svg width="451.908mm" height="225.778mm"
 viewBox="0 0 1281 640"
 xmlns="http://www.w3.org/2000/svg" xmlns:xlink="http://www.w3.org/1999/xlink"  version="1.2" baseProfile="tiny">
<title>Qt SVG Document</title>
<desc>MATLAB, The MathWorks, Inc. Version 25.2.0.2998904 R2025b</desc>
<defs>
</defs>
<g fill="none" stroke="black" stroke-width="1" fill-rule="evenodd" stroke-linecap="square" stroke-linejoin="bevel" >

<g fill="#ffffff" fill-opacity="1" stroke="none" transform="matrix(0.5,0,0,0.5,0,0)"
font-family="MS Shell Dlg 2" font-size="8" font-weight="400" font-style="normal" 
>
<path vector-effect="none" fill-rule="evenodd" d="M0,0 L2562,0 L2562,1281 L0,1281 L0,0"/>
</g>

<g fill="#ffffff" fill-opacity="1" stroke="none" transform="matrix(5e-05,0,0,5e-05,0,0)"
font-family="MS Shell Dlg 2" font-size="8" font-weight="400" font-style="normal" 
>
<path vector-effect="none" fill-rule="evenodd" d="M3.33e+06,960000 L3.33e+06,1.127e+07 L2.318e+07,1.127e+07 L2.318e+07,960000 L3.33e+06,960000"/>
</g>

<g fill="#212121" fill-opacity="0.14902" stroke="#212121" stroke-opacity="0.14902" stroke-width="1" stroke-linecap="butt" stroke-linejoin="round" transform="matrix(0.5,0,0,0.5,0,0)"
font-family="MS Shell Dlg 2" font-size="8" font-weight="400" font-style="normal" 
>
<polyline fill="none" vector-effect="none" points="333,96 333,1127 " />
<polyline fill="none" vector-effect="none" points="730,96 730,1127 " />
<polyline fill="none" vector-effect="none" points="1127,96 1127,1127 " />
<polyline fill="none" vector-effect="none" points="1524,96 1524,1127 " />
<polyline fill="none" vector-effect="none" points="1921,96 1921,1127 " />
<polyline fill="none" vector-effect="none" points="2318,96 2318,1127 " />
<polyline fill="none" vector-effect="none" points="333,1127 2318,1127 " />
<polyline fill="none" vector-effect="none" points="333,979.714 2318,979.714 " />
<polyline fill="none" vector-effect="none" points="333,832.429 2318,832.429 " />
<polyline fill="none" vector-effect="none" points="333,685.143 2318,685.143 " />
<polyline fill="none" vector-effect="none" points="333,537.857 2318,537.857 " />
<polyline fill="none" vector-effect="none" points="333,390.571 2318,390.571 " />
<polyline fill="none" vector-effect="none" points="333,243.286 2318,243.286 " />
<polyline fill="none" vector-effect="none" points="333,96 2318,96 " />
</g>

<g fill="#212121" fill-opacity="1" stroke="#212121" stroke-opacity="1" stroke-width="1" stroke-linecap="square" stroke-linejoin="bevel" transform="matrix(0.5,0,0,0.5,608.25,633.5)"
font-family="Helvetica" font-size="60" font-weight="400" font-style="normal" 
>
<text fill="#212121" fill-opacity="1" stroke="none" xml:space="preserve" x="0" y="0" font-family="Helvetica" font-size="60" font-weight="400" font-style="normal" 
 >Time (s)</text>
</g>

<g fill="#212121" fill-opacity="1" stroke="#212121" stroke-opacity="1" stroke-width="1" stroke-linecap="square" stroke-linejoin="round" transform="matrix(0.5,0,0,0.5,0,0)"
font-family="Helvetica" font-size="60" font-weight="400" font-style="normal" 
>
<polyline fill="none" vector-effect="none" points="333,1127 2318,1127 " />
<polyline fill="none" vector-effect="none" points="333,96 2318,96 " />
<polyline fill="none" vector-effect="none" points="333,1127 333,1107.15 " />
<polyline fill="none" vector-effect="none" points="333,115.85 333,96 " />
<polyline fill="none" vector-effect="none" points="730,1127 730,1107.15 " />
<polyline fill="none" vector-effect="none" points="730,115.85 730,96 " />
<polyline fill="none" vector-effect="none" points="1127,1127 1127,1107.15 " />
<polyline fill="none" vector-effect="none" points="1127,115.85 1127,96 " />
<polyline fill="none" vector-effect="none" points="1524,1127 1524,1107.15 " />
<polyline fill="none" vector-effect="none" points="1524,115.85 1524,96 " />
<polyline fill="none" vector-effect="none" points="1921,1127 1921,1107.15 " />
<polyline fill="none" vector-effect="none" points="1921,115.85 1921,96 " />
<polyline fill="none" vector-effect="none" points="2318,1127 2318,1107.15 " />
<polyline fill="none" vector-effect="none" points="2318,115.85 2318,96 " />
</g>

<g fill="#212121" fill-opacity="1" stroke="#212121" stroke-opacity="1" stroke-width="1" stroke-linecap="square" stroke-linejoin="bevel" transform="matrix(0.5,0,0,0.5,158.25,599)"
font-family="Helvetica" font-size="60" font-weight="400" font-style="normal" 
>
<text fill="#212121" fill-opacity="1" stroke="none" xml:space="preserve" x="0" y="0" font-family="Helvetica" font-size="60" font-weight="400" font-style="normal" 
 >0</text>
</g>

<g fill="#212121" fill-opacity="1" stroke="#212121" stroke-opacity="1" stroke-width="1" stroke-linecap="square" stroke-linejoin="bevel" transform="matrix(0.5,0,0,0.5,356.75,599)"
font-family="Helvetica" font-size="60" font-weight="400" font-style="normal" 
>
<text fill="#212121" fill-opacity="1" stroke="none" xml:space="preserve" x="0" y="0" font-family="Helvetica" font-size="60" font-weight="400" font-style="normal" 
 >2</text>
</g>

<g fill="#212121" fill-opacity="1" stroke="#212121" stroke-opacity="1" stroke-width="1" stroke-linecap="square" stroke-linejoin="bevel" transform="matrix(0.5,0,0,0.5,555.25,599)"
font-family="Helvetica" font-size="60" font-weight="400" font-style="normal" 
>
<text fill="#212121" fill-opacity="1" stroke="none" xml:space="preserve" x="0" y="0" font-family="Helvetica" font-size="60" font-weight="400" font-style="normal" 
 >4</text>
</g>

<g fill="#212121" fill-opacity="1" stroke="#212121" stroke-opacity="1" stroke-width="1" stroke-linecap="square" stroke-linejoin="bevel" transform="matrix(0.5,0,0,0.5,753.75,599)"
font-family="Helvetica" font-size="60" font-weight="400" font-style="normal" 
>
<text fill="#212121" fill-opacity="1" stroke="none" xml:space="preserve" x="0" y="0" font-family="Helvetica" font-size="60" font-weight="400" font-style="normal" 
 >6</text>
</g>

<g fill="#212121" fill-opacity="1" stroke="#212121" stroke-opacity="1" stroke-width="1" stroke-linecap="square" stroke-linejoin="bevel" transform="matrix(0.5,0,0,0.5,952.25,599)"
font-family="Helvetica" font-size="60" font-weight="400" font-style="normal" 
>
<text fill="#212121" fill-opacity="1" stroke="none" xml:space="preserve" x="0" y="0" font-family="Helvetica" font-size="60" font-weight="400" font-style="normal" 
 >8</text>
</g>

<g fill="#212121" fill-opacity="1" stroke="#212121" stroke-opacity="1" stroke-width="1" stroke-linecap="square" stroke-linejoin="bevel" transform="matrix(0.5,0,0,0.5,1142.5,599)"
font-family="Helvetica" font-size="60" font-weight="400" font-style="normal" 
>
<text fill="#212121" fill-opacity="1" stroke="none" xml:space="preserve" x="0" y="0" font-family="Helvetica" font-size="60" font-weight="400" font-style="normal" 
 >10</text>
</g>

<g fill="#212121" fill-opacity="1" stroke="#212121" stroke-opacity="1" stroke-width="1" stroke-linecap="square" stroke-linejoin="bevel" transform="matrix(0,-0.5,0.5,0,122,433.5)"
font-family="Helvetica" font-size="60" font-weight="400" font-style="normal" 
>
<text fill="#212121" fill-opacity="1" stroke="none" xml:space="preserve" x="0" y="0" font-family="Helvetica" font-size="60" font-weight="400" font-style="normal" 
 >Acceleration (m/s</text>
</g>

<g fill="#212121" fill-opacity="1" stroke="#212121" stroke-opacity="1" stroke-width="1" stroke-linecap="square" stroke-linejoin="bevel" transform="matrix(0,-0.5,0.5,0,107,202.5)"
font-family="Helvetica" font-size="48" font-weight="400" font-style="normal" 
>
<text fill="#212121" fill-opacity="1" stroke="none" xml:space="preserve" x="0" y="0" font-family="Helvetica" font-size="48" font-weight="400" font-style="normal" 
 >2</text>
</g>

<g fill="#212121" fill-opacity="1" stroke="#212121" stroke-opacity="1" stroke-width="1" stroke-linecap="square" stroke-linejoin="bevel" transform="matrix(0,-0.5,0.5,0,122,189)"
font-family="Helvetica" font-size="60" font-weight="400" font-style="normal" 
>
<text fill="#212121" fill-opacity="1" stroke="none" xml:space="preserve" x="0" y="0" font-family="Helvetica" font-size="60" font-weight="400" font-style="normal" 
 >)</text>
</g>

<g fill="#212121" fill-opacity="1" stroke="#212121" stroke-opacity="1" stroke-width="1" stroke-linecap="square" stroke-linejoin="round" transform="matrix(0.5,0,0,0.5,0,0)"
font-family="Helvetica" font-size="60" font-weight="400" font-style="normal" 
>
<polyline fill="none" vector-effect="none" points="333,1127 333,96 " />
<polyline fill="none" vector-effect="none" points="2318,1127 2318,96 " />
<polyline fill="none" vector-effect="none" points="333,1127 352.85,1127 " />
<polyline fill="none" vector-effect="none" points="2298.15,1127 2318,1127 " />
<polyline fill="none" vector-effect="none" points="333,979.714 352.85,979.714 " />
<polyline fill="none" vector-effect="none" points="2298.15,979.714 2318,979.714 " />
<polyline fill="none" vector-effect="none" points="333,832.429 352.85,832.429 " />
<polyline fill="none" vector-effect="none" points="2298.15,832.429 2318,832.429 " />
<polyline fill="none" vector-effect="none" points="333,685.143 352.85,685.143 " />
<polyline fill="none" vector-effect="none" points="2298.15,685.143 2318,685.143 " />
<polyline fill="none" vector-effect="none" points="333,537.857 352.85,537.857 " />
<polyline fill="none" vector-effect="none" points="2298.15,537.857 2318,537.857 " />
<polyline fill="none" vector-effect="none" points="333,390.571 352.85,390.571 " />
<polyline fill="none" vector-effect="none" points="2298.15,390.571 2318,390.571 " />
<polyline fill="none" vector-effect="none" points="333,243.286 352.85,243.286 " />
<polyline fill="none" vector-effect="none" points="2298.15,243.286 2318,243.286 " />
<polyline fill="none" vector-effect="none" points="333,96 352.85,96 " />
<polyline fill="none" vector-effect="none" points="2298.15,96 2318,96 " />
</g>

<g fill="#212121" fill-opacity="1" stroke="#212121" stroke-opacity="1" stroke-width="1" stroke-linecap="square" stroke-linejoin="bevel" transform="matrix(0.5,0,0,0.5,132,574)"
font-family="Helvetica" font-size="60" font-weight="400" font-style="normal" 
>
<text fill="#212121" fill-opacity="1" stroke="none" xml:space="preserve" x="0" y="0" font-family="Helvetica" font-size="60" font-weight="400" font-style="normal" 
 >-1</text>
</g>

<g fill="#212121" fill-opacity="1" stroke="#212121" stroke-opacity="1" stroke-width="1" stroke-linecap="square" stroke-linejoin="bevel" transform="matrix(0.5,0,0,0.5,142,500.357)"
font-family="Helvetica" font-size="60" font-weight="400" font-style="normal" 
>
<text fill="#212121" fill-opacity="1" stroke="none" xml:space="preserve" x="0" y="0" font-family="Helvetica" font-size="60" font-weight="400" font-style="normal" 
 >0</text>
</g>

<g fill="#212121" fill-opacity="1" stroke="#212121" stroke-opacity="1" stroke-width="1" stroke-linecap="square" stroke-linejoin="bevel" transform="matrix(0.5,0,0,0.5,142,426.714)"
font-family="Helvetica" font-size="60" font-weight="400" font-style="normal" 
>
<text fill="#212121" fill-opacity="1" stroke="none" xml:space="preserve" x="0" y="0" font-family="Helvetica" font-size="60" font-weight="400" font-style="normal" 
 >1</text>
</g>

<g fill="#212121" fill-opacity="1" stroke="#212121" stroke-opacity="1" stroke-width="1" stroke-linecap="square" stroke-linejoin="bevel" transform="matrix(0.5,0,0,0.5,142,353.071)"
font-family="Helvetica" font-size="60" font-weight="400" font-style="normal" 
>
<text fill="#212121" fill-opacity="1" stroke="none" xml:space="preserve" x="0" y="0" font-family="Helvetica" font-size="60" font-weight="400" font-style="normal" 
 >2</text>
</g>

<g fill="#212121" fill-opacity="1" stroke="#212121" stroke-opacity="1" stroke-width="1" stroke-linecap="square" stroke-linejoin="bevel" transform="matrix(0.5,0,0,0.5,142,279.429)"
font-family="Helvetica" font-size="60" font-weight="400" font-style="normal" 
>
<text fill="#212121" fill-opacity="1" stroke="none" xml:space="preserve" x="0" y="0" font-family="Helvetica" font-size="60" font-weight="400" font-style="normal" 
 >3</text>
</g>

<g fill="#212121" fill-opacity="1" stroke="#212121" stroke-opacity="1" stroke-width="1" stroke-linecap="square" stroke-linejoin="bevel" transform="matrix(0.5,0,0,0.5,142,205.786)"
font-family="Helvetica" font-size="60" font-weight="400" font-style="normal" 
>
<text fill="#212121" fill-opacity="1" stroke="none" xml:space="preserve" x="0" y="0" font-family="Helvetica" font-size="60" font-weight="400" font-style="normal" 
 >4</text>
</g>

<g fill="#212121" fill-opacity="1" stroke="#212121" stroke-opacity="1" stroke-width="1" stroke-linecap="square" stroke-linejoin="bevel" transform="matrix(0.5,0,0,0.5,142,132.143)"
font-family="Helvetica" font-size="60" font-weight="400" font-style="normal" 
>
<text fill="#212121" fill-opacity="1" stroke="none" xml:space="preserve" x="0" y="0" font-family="Helvetica" font-size="60" font-weight="400" font-style="normal" 
 >5</text>
</g>

<g fill="#212121" fill-opacity="1" stroke="#212121" stroke-opacity="1" stroke-width="1" stroke-linecap="square" stroke-linejoin="bevel" transform="matrix(0.5,0,0,0.5,142,58.5)"
font-family="Helvetica" font-size="60" font-weight="400" font-style="normal" 
>
<text fill="#212121" fill-opacity="1" stroke="none" xml:space="preserve" x="0" y="0" font-family="Helvetica" font-size="60" font-weight="400" font-style="normal" 
 >6</text>
</g>

<g fill="#212121" fill-opacity="1" stroke="#212121" stroke-opacity="1" stroke-width="1" stroke-linecap="square" stroke-linejoin="bevel" transform="matrix(0.5,0,0,0.5,271.5,37.75)"
font-family="Helvetica" font-size="60" font-weight="700" font-style="normal" 
>
<text fill="#212121" fill-opacity="1" stroke="none" xml:space="preserve" x="0" y="0" font-family="Helvetica" font-size="60" font-weight="700" font-style="normal" 
 >Acceleration of Quarter Car Model (Wavy Road; Tuned)</text>
</g>

<g fill="none" stroke="#1171be" stroke-opacity="1" stroke-width="4" stroke-linecap="butt" stroke-linejoin="round" transform="matrix(0.5,0,0,0.5,0,0)"
font-family="Helvetica" font-size="60" font-weight="700" font-style="normal" 
>
<polyline fill="none" vector-effect="none" points="333,979.714 335.226,970.305 337.452,927.149 339.953,867.819 342.845,812.99 346.652,782.197 351.19,792.471 355.993,832.837 361.903,876.981 369.476,911.056 376.843,929.434 385.405,941.245 392.259,953.73 399.114,962.43 408.169,966.013 414.242,970.61 420.315,977.46 430.05,979.095 438.371,979.251 447.67,987.948 456.564,986.799 464.8,987.342 472.23,995.359 481.182,992.763 489.128,991.573 495.954,1000.81 504.592,998.574 512.141,994.019 520.982,1004.14 528.133,1003.28 535.562,997.289 541.495,1003.8 547.428,1009.84 554.721,1005.18 562.25,999.591 570.372,1010.93 577.821,1009.87 584.911,1001.86 590.622,1007.42 596.333,1015.24 603.582,1011 610.745,1003.12 616.611,1010.95 622.476,1016.86 629.521,1010.95 636.899,1004 644.928,1015.64 652.01,1014.89 658.962,1005.4 664.493,1008.61 670.024,1018.18 677.421,1015.01 684.329,1005.29 689.93,1009.44 695.531,1017.93 702.842,1013.99 709.859,1004.86 715.56,1010.17 721.262,1017.05 728.483,1012.14 735.688,1003.96 741.717,1010.99 747.746,1015.3 754.869,1008.83 762.497,1002.71 770.512,1012.73 778.517,1009.2 785.707,1001.43 791.939,1007.42 798.172,1010.4 805.501,1004.16 813.506,1000.34 820.375,1007.48 829.029,1003.59 836.601,997.424 845.731,1003.36 853.389,1000.62 861.27,995.314 868.372,999.178 875.474,998.956 883.478,993.526 891.722,994.301 898.344,995.684 906.736,991.782 913.152,989.671 919.568,991.43 930.225,989.333 939.203,986.707 949.437,986.537 961.953,983.983 973.485,982.146 988.91,980.458 999.995,977.3 1011.08,977.272 1019.52,973.282 1027.96,973.021 1037.09,973.935 1048.15,968.302 1057.26,970.752 1064.63,968.099 1070.71,963.46 1079.19,965.776 1087.43,967.771 1096.33,959.488 1105.18,962.932 1113.15,963.956 1120.17,955.654 1129.05,958.951 1136.65,963.069 1144.88,952.59 1153.22,955.357 1160.55,961.126 1169.12,950.806 1176.08,951.411 1183.33,958.796 1189.08,953.972 1194.82,946.048 1202.17,949.94 1209.36,957.558 1215.2,950.033 1221.03,944.111 1228.13,949.703 1235.53,956.447 1243.66,944.904 1250.69,945.619 1257.68,954.839 1263.22,951.362 1268.76,941.813 1276.14,945.029 1283.06,954.626 1288.65,950.095 1294.25,941.517 1301.52,945.499 1308.53,954.651 1314.2,949.009 1319.87,941.803 1327.05,946.691 1334.2,955.119 1340.08,947.996 1345.97,942.839 1353.05,949.043 1360.5,956.066 1368.48,945.849 1376.04,947.675 1383.11,956.428 1388.93,952.506 1394.75,946.277 1402.17,950.945 1409.52,958.341 1415.83,951.99 1422.13,949.468 1429.43,955.969 1437.55,959.01 1444.57,952.275 1453.48,956.84 1461.1,962.197 1470.05,955.916 1478.88,960.185 1486.77,964.208 1494.17,959.574 1503.63,963.133 1511.75,966.983 1519.87,963.73 1529.8,967.24 1538.44,969.516 1545.51,968.334 1555.62,971.124 1564.79,972.851 1572.28,973.226 1583.6,975.292 1594.75,977.227 1613.62,978.963 1623.82,982.575 1634.03,982.359 1643.88,986.222 1651.93,986.296 1661.35,985.798 1671.88,991.489 1679.42,989.185 1686.96,989.949 1693.37,995.835 1702.7,994.004 1710.72,991.554 1720.07,999.941 1728.86,996.519 1736.83,995.686 1743.63,1003.87 1752.51,1000.69 1760.09,996.294 1767.97,1006.76 1776.32,1004.68 1783.57,998.396 1789.75,1006.55 1795.93,1010.61 1803.11,1004.59 1810.98,1001.51 1817.56,1012.71 1825.93,1009.64 1833.03,1001.88 1838.9,1009.67 1844.78,1015.38 1851.86,1009.6 1859.3,1003.02 1867.23,1014.77 1874.56,1013.76 1881.52,1004.51 1887.1,1008.63 1892.68,1017.68 1899.99,1014.07 1906.96,1004.76 1912.6,1010.06 1918.24,1017.99 1925.44,1013.5 1932.51,1004.72 1938.23,1011.29 1943.95,1017.66 1951.06,1012.17 1958.31,1004.23 1964.52,1012.68 1970.74,1016.26 1977.74,1008.86 1985.51,1004.37 1992.06,1014.62 2000.42,1011.15 2007.51,1002.64 2013.43,1008.37 2019.35,1013.04 2026.62,1007.37 2034.21,1000.91 2042.36,1009.5 2050.48,1006.76 2057.78,999.487 2064.04,1004.43 2070.31,1007.04 2077.82,1001.32 2085.99,998.031 2093.48,1003.71 2102.64,999.201 2110.55,995.321 2118.12,999.863 2127.6,996.077 2135.75,992.629 2143.84,995.669 2153.86,991.964 2160.4,989.582 2166.94,991.28 2177.75,989.037 2186.74,986.545 2196.64,986.329 2209.27,983.806 2220.73,981.98 2236.01,980.316 2247.14,977.164 2258.26,977.146 2266.69,973.158 2275.12,972.879 2284.24,973.823 2293.13,968.196 2302.02,969.527 2310.65,969.806 2318,963.315 " />
</g>

<g fill="none" stroke="#dd5400" stroke-opacity="1" stroke-width="4" stroke-linecap="butt" stroke-linejoin="round" transform="matrix(0.5,0,0,0.5,0,0)"
font-family="Helvetica" font-size="60" font-weight="700" font-style="normal" 
>
<polyline fill="none" vector-effect="none" points="333,979.714 335.226,979.584 337.452,978.071 339.953,973.516 342.845,964.843 346.652,951.266 351.19,934.739 355.993,920.875 361.903,912.089 369.476,908.406 376.843,908.997 385.405,912.132 392.259,916.708 399.114,922.021 408.169,928.376 414.242,934.092 420.315,939.001 430.05,945.336 438.371,951.387 447.67,957.372 456.564,963.308 464.8,967.528 472.23,971.911 481.182,976.23 489.128,979.236 495.954,982.474 504.592,985.989 512.141,988.213 520.982,990.765 528.133,993.872 535.562,995.46 541.495,996.589 547.428,998.627 554.721,1000.63 562.25,1001.46 570.372,1002.85 577.821,1005.16 584.911,1005.98 590.622,1006.2 596.333,1007.59 603.582,1009.17 610.745,1009.49 616.611,1009.6 622.476,1010.94 629.521,1012.12 636.899,1011.95 644.928,1012.33 652.01,1013.84 658.962,1013.99 664.493,1013.35 670.024,1014.02 677.421,1015.17 684.329,1015.04 689.93,1014.29 695.531,1014.86 702.842,1015.73 709.859,1015.31 715.56,1014.52 721.262,1015.02 728.483,1015.6 735.688,1014.87 741.717,1014.11 747.746,1014.58 754.869,1014.76 762.497,1013.6 770.512,1013.15 778.517,1013.49 785.707,1012.48 791.939,1011.51 798.172,1011.63 805.501,1011.37 813.506,1009.93 820.375,1009.36 829.029,1009.16 836.601,1007.8 845.731,1006.75 853.389,1006.27 861.27,1004.97 868.372,1003.77 875.474,1003.27 883.478,1002.22 891.722,1000.65 898.344,999.878 906.736,998.904 913.152,997.475 919.568,996.478 930.225,995.351 939.203,993.585 949.437,992.051 961.953,990.182 973.485,988.046 988.91,985.754 999.995,983.381 1011.08,981.502 1019.52,979.825 1027.96,978.086 1037.09,976.825 1048.15,974.887 1057.26,973.072 1064.63,972.075 1070.71,970.605 1079.19,969.081 1087.43,968.266 1096.33,966.643 1105.18,964.803 1113.15,964.196 1120.17,962.757 1129.05,961.035 1136.65,960.556 1144.88,959.358 1153.22,957.478 1160.55,957.077 1169.12,956.204 1176.08,954.43 1183.33,953.922 1189.08,953.957 1194.82,952.805 1202.17,951.4 1209.36,951.218 1215.2,951.216 1221.03,950.001 1228.13,948.888 1235.53,949.086 1243.66,948.71 1250.69,947.218 1257.68,947.063 1263.22,947.653 1268.76,946.926 1276.14,945.724 1283.06,945.795 1288.65,946.458 1294.25,945.792 1301.52,944.814 1308.53,945.136 1314.2,945.831 1319.87,945.21 1327.05,944.481 1334.2,945.077 1340.08,945.758 1345.97,945.156 1353.05,944.75 1360.5,945.705 1368.48,946.14 1376.04,945.54 1383.11,946.197 1388.93,947.255 1394.75,947.104 1402.17,946.89 1409.52,947.908 1415.83,948.847 1422.13,948.7 1429.43,948.99 1437.55,950.431 1444.57,950.928 1453.48,951.198 1461.1,952.662 1470.05,953.526 1478.88,954.084 1486.77,955.64 1494.17,956.526 1503.63,957.24 1511.75,958.866 1519.87,959.942 1529.8,960.977 1538.44,962.691 1545.51,963.798 1555.62,965.001 1564.79,966.73 1572.28,968.032 1583.6,969.535 1594.75,971.504 1613.62,974.078 1623.82,976.547 1634.03,978.314 1643.88,980.043 1651.93,981.825 1661.35,983.031 1671.88,984.97 1679.42,986.649 1686.96,987.484 1693.37,988.871 1702.7,990.575 1710.72,991.446 1720.07,993.053 1728.86,994.907 1736.83,995.506 1743.63,996.917 1752.51,998.618 1760.09,999.107 1767.97,1000.2 1776.32,1002.1 1783.57,1002.58 1789.75,1003.01 1795.93,1004.49 1803.11,1005.61 1810.98,1005.54 1817.56,1006.53 1825.93,1008.16 1833.03,1008.36 1838.9,1008.38 1844.78,1009.62 1851.86,1010.71 1859.3,1010.48 1867.23,1010.86 1874.56,1012.37 1881.52,1012.49 1887.1,1011.93 1892.68,1012.7 1899.99,1013.85 1906.96,1013.71 1912.6,1013.1 1918.24,1013.82 1925.44,1014.74 1932.51,1014.34 1938.23,1013.71 1943.95,1014.39 1951.06,1015.05 1958.31,1014.36 1964.52,1013.79 1970.74,1014.49 1977.74,1014.71 1985.51,1013.55 1992.06,1013.44 2000.42,1013.98 2007.51,1013.15 2013.43,1012.22 2019.35,1012.47 2026.62,1012.55 2034.21,1011.36 2042.36,1010.65 2050.48,1010.75 2057.78,1009.68 2064.04,1008.61 2070.31,1008.54 2077.82,1008.13 2085.99,1006.63 2093.48,1005.94 2102.64,1005.4 2110.55,1003.8 2118.12,1002.92 2127.6,1002.18 2135.75,1000.53 2143.84,999.492 2153.86,998.419 2160.4,996.867 2166.94,995.883 2177.75,994.753 2186.74,992.99 2196.64,991.504 2209.27,989.679 2220.73,987.564 2236.01,985.318 2247.14,982.976 2258.26,981.109 2266.69,979.45 2275.12,977.726 2284.24,976.477 2293.13,974.85 2302.02,973.033 2310.65,972.044 2318,970.412 " />
</g>

<g fill="none" stroke="#edb120" stroke-opacity="1" stroke-width="4" stroke-linecap="butt" stroke-linejoin="round" transform="matrix(0.5,0,0,0.5,0,0)"
font-family="Helvetica" font-size="60" font-weight="700" font-style="normal" 
>
<polyline fill="none" vector-effect="none" points="333,979.714 335.226,648.16 337.452,265.056 339.953,205.651 342.845,374.169 346.652,680.675 351.19,966.529 355.993,1084.07 361.903,1066.73 369.476,1012.25 376.843,983.299 385.405,985.993 392.259,1007.4 399.114,990.802 408.169,980.22 414.242,1007.49 420.315,1004.03 430.05,980.486 438.371,1000.56 447.67,1004.76 456.564,976.943 464.8,1015.62 472.23,1006.2 481.182,975.713 489.128,1018.61 495.954,1016.22 504.592,977.198 512.141,1003.39 520.982,1027.21 528.133,980.225 535.562,988.098 541.495,1051.11 547.428,1010.24 554.721,972.968 562.25,1009.37 570.372,1038.18 577.821,980.308 584.911,982.348 590.622,1061.88 596.333,1022.48 603.582,975.039 610.745,994.011 616.611,1061.35 622.476,1012.49 629.521,971.301 636.899,1009.99 644.928,1045.74 652.01,982.478 658.962,971.301 664.493,1067.54 670.024,1035.52 677.421,978.778 684.329,976.643 689.93,1065.02 695.531,1029.21 702.842,976.811 709.859,984.14 715.56,1060.64 721.262,1020.13 728.483,974.248 735.688,994.414 741.717,1053.04 747.746,1005.52 754.869,970.402 762.497,1013.67 770.512,1029.69 778.517,975.965 785.707,993.04 791.939,1040.8 798.172,998.496 805.501,970.788 813.506,1016.59 820.375,1014.49 829.029,976.246 836.601,996.867 845.731,1013.13 853.389,978.157 861.27,990.618 868.372,1013.35 875.474,983.669 883.478,974.204 891.722,1009.27 898.344,988.001 906.736,974.819 913.152,994.754 919.568,993.84 930.225,978.422 939.203,985.798 949.437,982.1 961.953,978.58 973.485,978.926 988.91,975.584 999.995,974.884 1011.08,973.827 1019.52,963.179 1027.96,979.579 1037.09,965.513 1048.15,965.721 1057.26,977.986 1064.63,944.536 1070.71,959.346 1079.19,982.73 1087.43,950.895 1096.33,952.008 1105.18,984.393 1113.15,938.888 1120.17,946.113 1129.05,983.677 1136.65,946.74 1144.88,934.55 1153.22,983.491 1160.55,955.309 1169.12,925.585 1176.08,977.691 1183.33,980.21 1189.08,900.569 1194.82,937.308 1202.17,983.932 1209.36,966.5 1215.2,900.303 1221.03,947.07 1228.13,987.595 1235.53,950.258 1243.66,915.121 1250.69,977.037 1257.68,987.203 1263.22,891.797 1268.76,924.639 1276.14,980.927 1283.06,981.663 1288.65,893.049 1294.25,930.017 1301.52,982.774 1308.53,974.702 1314.2,895.969 1319.87,937.531 1327.05,985.055 1334.2,965.809 1340.08,901.471 1345.97,949.164 1353.05,988.359 1360.5,950.747 1368.48,921.212 1376.04,979.442 1383.11,979.238 1388.93,907.859 1394.75,943.453 1402.17,984.986 1409.52,964.585 1415.83,919.522 1422.13,963.135 1429.43,989.12 1437.55,940.583 1444.57,947.74 1453.48,984.398 1461.1,954.945 1470.05,950.126 1478.88,984.084 1486.77,955.271 1494.17,955.989 1503.63,982.962 1511.75,961.716 1519.87,963.265 1529.8,982.932 1538.44,965.179 1545.51,970.784 1555.62,981.944 1564.79,972.776 1572.28,976.754 1583.6,981.155 1594.75,980.58 1613.62,983.038 1623.82,986.171 1634.03,983.674 1643.88,994.777 1651.93,980.341 1661.35,996.174 1671.88,993.306 1679.42,977.549 1686.96,1010.61 1693.37,1005.33 1702.7,977.7 1710.72,1006.64 1720.07,1007.95 1728.86,975.364 1736.83,1020.9 1743.63,1013.68 1752.51,976.066 1760.09,1010.76 1767.97,1028.1 1776.32,977.133 1783.57,997.469 1789.75,1047.56 1795.93,1000.6 1803.11,970.342 1810.98,1028.38 1817.56,1030.54 1825.93,977.737 1833.03,994.66 1838.9,1058.73 1844.78,1011.07 1851.86,971.413 1859.3,1011.22 1867.23,1044.5 1874.56,981.438 1881.52,975.417 1887.1,1066.94 1892.68,1031.75 1899.99,977.452 1906.96,981.886 1912.6,1065.61 1918.24,1025.58 1925.44,975.345 1932.51,989.778 1938.23,1062.29 1943.95,1017.26 1951.06,972.865 1958.31,999.968 1964.52,1054.82 1970.74,1001.23 1977.74,968.511 1985.51,1026.73 1992.06,1031.14 2000.42,977.938 2007.51,989.995 2013.43,1049.33 2019.35,1007.8 2026.62,972.085 2034.21,1005.59 2042.36,1027.38 2050.48,977.682 2057.78,990.226 2064.04,1033.87 2070.31,996.611 2077.82,971.762 2085.99,1012.37 2093.48,1005.88 2102.64,975.03 2110.55,1005.1 2118.12,1002.44 2127.6,976.081 2135.75,999.233 2143.84,994.864 2153.86,976.322 2160.4,994.647 2166.94,993.328 2177.75,978.244 2186.74,986.005 2196.64,982.156 2209.27,978.547 2220.73,978.901 2236.01,975.589 2247.14,974.885 2258.26,973.883 2266.69,963.066 2275.12,979.545 2284.24,965.781 2293.13,960.058 2302.02,981.781 2310.65,950.807 2318,959.151 " />
</g>

<g fill="#ffffff" fill-opacity="1" stroke="none" transform="matrix(5e-05,0,0,5e-05,0,0)"
font-family="Helvetica" font-size="60" font-weight="700" font-style="normal" 
>
<path vector-effect="none" fill-rule="evenodd" d="M2.012e+07,1.12e+06 L2.012e+07,3.2e+06 L2.302e+07,3.2e+06 L2.302e+07,1.12e+06 L2.012e+07,1.12e+06"/>
</g>

<g fill="#1171be" fill-opacity="1" stroke="#1171be" stroke-opacity="1" stroke-width="4" stroke-linecap="butt" stroke-linejoin="round" transform="matrix(0.5,0,0,0.5,0,0)"
font-family="Helvetica" font-size="60" font-weight="700" font-style="normal" 
>
<polyline fill="none" vector-effect="none" points="2017.99,148.412 2077.89,148.412 " />
</g>

<g fill="#dd5400" fill-opacity="1" stroke="#dd5400" stroke-opacity="1" stroke-width="4" stroke-linecap="butt" stroke-linejoin="round" transform="matrix(0.5,0,0,0.5,0,0)"
font-family="Helvetica" font-size="60" font-weight="700" font-style="normal" 
>
<polyline fill="none" vector-effect="none" points="2017.99,216 2077.89,216 " />
</g>

<g fill="#edb120" fill-opacity="1" stroke="#edb120" stroke-opacity="1" stroke-width="4" stroke-linecap="butt" stroke-linejoin="round" transform="matrix(0.5,0,0,0.5,0,0)"
font-family="Helvetica" font-size="60" font-weight="700" font-style="normal" 
>
<polyline fill="none" vector-effect="none" points="2017.99,283.588 2077.89,283.588 " />
</g>

<g fill="#212121" fill-opacity="1" stroke="#212121" stroke-opacity="1" stroke-width="1" stroke-linecap="square" stroke-linejoin="bevel" transform="matrix(0.5,0,0,0.5,1041.19,84.7062)"
font-family="Helvetica" font-size="60" font-weight="400" font-style="normal" 
>
<text fill="#212121" fill-opacity="1" stroke="none" xml:space="preserve" x="0" y="0" font-family="Helvetica" font-size="60" font-weight="400" font-style="normal" 
 >Chassis</text>
</g>

<g fill="#212121" fill-opacity="1" stroke="#212121" stroke-opacity="1" stroke-width="1" stroke-linecap="square" stroke-linejoin="bevel" transform="matrix(0.5,0,0,0.5,1041.19,118.5)"
font-family="Helvetica" font-size="60" font-weight="400" font-style="normal" 
>
<text fill="#212121" fill-opacity="1" stroke="none" xml:space="preserve" x="0" y="0" font-family="Helvetica" font-size="60" font-weight="400" font-style="normal" 
 >Seat</text>
</g>

<g fill="#212121" fill-opacity="1" stroke="#212121" stroke-opacity="1" stroke-width="1" stroke-linecap="square" stroke-linejoin="bevel" transform="matrix(0.5,0,0,0.5,1041.19,152.294)"
font-family="Helvetica" font-size="60" font-weight="400" font-style="normal" 
>
<text fill="#212121" fill-opacity="1" stroke="none" xml:space="preserve" x="0" y="0" font-family="Helvetica" font-size="60" font-weight="400" font-style="normal" 
 >Wheel</text>
</g>

<g fill="none" stroke="#212121" stroke-opacity="1" stroke-width="1" stroke-linecap="butt" stroke-linejoin="miter" stroke-miterlimit="2" transform="matrix(0.5,0,0,0.5,0,0)"
font-family="Helvetica" font-size="60" font-weight="400" font-style="normal" 
>
<path vector-effect="none" fill-rule="evenodd" d="M2012,320 L2012,112 L2302,112 L2302,320 L2012,320"/>
</g>
</g>
</svg>
