<?xml version="1.0" encoding="UTF-8" standalone="no"?>
<svg width="451.908mm" height="225.778mm"
 viewBox="0 0 1281 640"
 xmlns="http://www.w3.org/2000/svg" xmlns:xlink="http://www.w3.org/1999/xlink"  version="1.2" baseProfile="tiny">
<title>Qt SVG Document</title>
<desc>MATLAB, The MathWorks, Inc. Version 25.2.0.2998904 R2025b</desc>
<defs>
</defs>
<g fill="none" stroke="black" stroke-width="1" fill-rule="evenodd" stroke-linecap="square" stroke-linejoin="bevel" >

<g fill="#ffffff" fill-opacity="1" stroke="none" transform="matrix(0.5,0,0,0.5,0,0)"
font-family="MS Shell Dlg 2" font-size="8" font-weight="400" font-style="normal" 
>
<path vector-effect="none" fill-rule="evenodd" d="M0,0 L2562,0 L2562,1281 L0,1281 L0,0"/>
</g>

<g fill="#ffffff" fill-opacity="1" stroke="none" transform="matrix(5e-05,0,0,5e-05,0,0)"
font-family="MS Shell Dlg 2" font-size="8" font-weight="400" font-style="normal" 
>
<path vector-effect="none" fill-rule="evenodd" d="M3.33e+06,960000 L3.33e+06,1.127e+07 L2.318e+07,1.127e+07 L2.318e+07,960000 L3.33e+06,960000"/>
</g>

<g fill="#212121" fill-opacity="0.14902" stroke="#212121" stroke-opacity="0.14902" stroke-width="1" stroke-linecap="butt" stroke-linejoin="round" transform="matrix(0.5,0,0,0.5,0,0)"
font-family="MS Shell Dlg 2" font-size="8" font-weight="400" font-style="normal" 
>
<polyline fill="none" vector-effect="none" points="333,96 333,1127 " />
<polyline fill="none" vector-effect="none" points="730,96 730,1127 " />
<polyline fill="none" vector-effect="none" points="1127,96 1127,1127 " />
<polyline fill="none" vector-effect="none" points="1524,96 1524,1127 " />
<polyline fill="none" vector-effect="none" points="1921,96 1921,1127 " />
<polyline fill="none" vector-effect="none" points="2318,96 2318,1127 " />
<polyline fill="none" vector-effect="none" points="333,1127 2318,1127 " />
<polyline fill="none" vector-effect="none" points="333,783.333 2318,783.333 " />
<polyline fill="none" vector-effect="none" points="333,439.667 2318,439.667 " />
<polyline fill="none" vector-effect="none" points="333,96 2318,96 " />
</g>

<g fill="#212121" fill-opacity="1" stroke="#212121" stroke-opacity="1" stroke-width="1" stroke-linecap="square" stroke-linejoin="bevel" transform="matrix(0.5,0,0,0.5,608.25,633.5)"
font-family="Helvetica" font-size="60" font-weight="400" font-style="normal" 
>
<text fill="#212121" fill-opacity="1" stroke="none" xml:space="preserve" x="0" y="0" font-family="Helvetica" font-size="60" font-weight="400" font-style="normal" 
 >Time (s)</text>
</g>

<g fill="#212121" fill-opacity="1" stroke="#212121" stroke-opacity="1" stroke-width="1" stroke-linecap="square" stroke-linejoin="round" transform="matrix(0.5,0,0,0.5,0,0)"
font-family="Helvetica" font-size="60" font-weight="400" font-style="normal" 
>
<polyline fill="none" vector-effect="none" points="333,1127 2318,1127 " />
<polyline fill="none" vector-effect="none" points="333,96 2318,96 " />
<polyline fill="none" vector-effect="none" points="333,1127 333,1107.15 " />
<polyline fill="none" vector-effect="none" points="333,115.85 333,96 " />
<polyline fill="none" vector-effect="none" points="730,1127 730,1107.15 " />
<polyline fill="none" vector-effect="none" points="730,115.85 730,96 " />
<polyline fill="none" vector-effect="none" points="1127,1127 1127,1107.15 " />
<polyline fill="none" vector-effect="none" points="1127,115.85 1127,96 " />
<polyline fill="none" vector-effect="none" points="1524,1127 1524,1107.15 " />
<polyline fill="none" vector-effect="none" points="1524,115.85 1524,96 " />
<polyline fill="none" vector-effect="none" points="1921,1127 1921,1107.15 " />
<polyline fill="none" vector-effect="none" points="1921,115.85 1921,96 " />
<polyline fill="none" vector-effect="none" points="2318,1127 2318,1107.15 " />
<polyline fill="none" vector-effect="none" points="2318,115.85 2318,96 " />
</g>

<g fill="#212121" fill-opacity="1" stroke="#212121" stroke-opacity="1" stroke-width="1" stroke-linecap="square" stroke-linejoin="bevel" transform="matrix(0.5,0,0,0.5,158.25,599)"
font-family="Helvetica" font-size="60" font-weight="400" font-style="normal" 
>
<text fill="#212121" fill-opacity="1" stroke="none" xml:space="preserve" x="0" y="0" font-family="Helvetica" font-size="60" font-weight="400" font-style="normal" 
 >0</text>
</g>

<g fill="#212121" fill-opacity="1" stroke="#212121" stroke-opacity="1" stroke-width="1" stroke-linecap="square" stroke-linejoin="bevel" transform="matrix(0.5,0,0,0.5,356.75,599)"
font-family="Helvetica" font-size="60" font-weight="400" font-style="normal" 
>
<text fill="#212121" fill-opacity="1" stroke="none" xml:space="preserve" x="0" y="0" font-family="Helvetica" font-size="60" font-weight="400" font-style="normal" 
 >2</text>
</g>

<g fill="#212121" fill-opacity="1" stroke="#212121" stroke-opacity="1" stroke-width="1" stroke-linecap="square" stroke-linejoin="bevel" transform="matrix(0.5,0,0,0.5,555.25,599)"
font-family="Helvetica" font-size="60" font-weight="400" font-style="normal" 
>
<text fill="#212121" fill-opacity="1" stroke="none" xml:space="preserve" x="0" y="0" font-family="Helvetica" font-size="60" font-weight="400" font-style="normal" 
 >4</text>
</g>

<g fill="#212121" fill-opacity="1" stroke="#212121" stroke-opacity="1" stroke-width="1" stroke-linecap="square" stroke-linejoin="bevel" transform="matrix(0.5,0,0,0.5,753.75,599)"
font-family="Helvetica" font-size="60" font-weight="400" font-style="normal" 
>
<text fill="#212121" fill-opacity="1" stroke="none" xml:space="preserve" x="0" y="0" font-family="Helvetica" font-size="60" font-weight="400" font-style="normal" 
 >6</text>
</g>

<g fill="#212121" fill-opacity="1" stroke="#212121" stroke-opacity="1" stroke-width="1" stroke-linecap="square" stroke-linejoin="bevel" transform="matrix(0.5,0,0,0.5,952.25,599)"
font-family="Helvetica" font-size="60" font-weight="400" font-style="normal" 
>
<text fill="#212121" fill-opacity="1" stroke="none" xml:space="preserve" x="0" y="0" font-family="Helvetica" font-size="60" font-weight="400" font-style="normal" 
 >8</text>
</g>

<g fill="#212121" fill-opacity="1" stroke="#212121" stroke-opacity="1" stroke-width="1" stroke-linecap="square" stroke-linejoin="bevel" transform="matrix(0.5,0,0,0.5,1142.5,599)"
font-family="Helvetica" font-size="60" font-weight="400" font-style="normal" 
>
<text fill="#212121" fill-opacity="1" stroke="none" xml:space="preserve" x="0" y="0" font-family="Helvetica" font-size="60" font-weight="400" font-style="normal" 
 >10</text>
</g>

<g fill="#212121" fill-opacity="1" stroke="#212121" stroke-opacity="1" stroke-width="1" stroke-linecap="square" stroke-linejoin="bevel" transform="matrix(0,-0.5,0.5,0,115.5,433.5)"
font-family="Helvetica" font-size="60" font-weight="400" font-style="normal" 
>
<text fill="#212121" fill-opacity="1" stroke="none" xml:space="preserve" x="0" y="0" font-family="Helvetica" font-size="60" font-weight="400" font-style="normal" 
 >Acceleration (m/s</text>
</g>

<g fill="#212121" fill-opacity="1" stroke="#212121" stroke-opacity="1" stroke-width="1" stroke-linecap="square" stroke-linejoin="bevel" transform="matrix(0,-0.5,0.5,0,100.5,202.5)"
font-family="Helvetica" font-size="48" font-weight="400" font-style="normal" 
>
<text fill="#212121" fill-opacity="1" stroke="none" xml:space="preserve" x="0" y="0" font-family="Helvetica" font-size="48" font-weight="400" font-style="normal" 
 >2</text>
</g>

<g fill="#212121" fill-opacity="1" stroke="#212121" stroke-opacity="1" stroke-width="1" stroke-linecap="square" stroke-linejoin="bevel" transform="matrix(0,-0.5,0.5,0,115.5,189)"
font-family="Helvetica" font-size="60" font-weight="400" font-style="normal" 
>
<text fill="#212121" fill-opacity="1" stroke="none" xml:space="preserve" x="0" y="0" font-family="Helvetica" font-size="60" font-weight="400" font-style="normal" 
 >)</text>
</g>

<g fill="#212121" fill-opacity="1" stroke="#212121" stroke-opacity="1" stroke-width="1" stroke-linecap="square" stroke-linejoin="round" transform="matrix(0.5,0,0,0.5,0,0)"
font-family="Helvetica" font-size="60" font-weight="400" font-style="normal" 
>
<polyline fill="none" vector-effect="none" points="333,1127 333,96 " />
<polyline fill="none" vector-effect="none" points="2318,1127 2318,96 " />
<polyline fill="none" vector-effect="none" points="333,1127 352.85,1127 " />
<polyline fill="none" vector-effect="none" points="2298.15,1127 2318,1127 " />
<polyline fill="none" vector-effect="none" points="333,783.333 352.85,783.333 " />
<polyline fill="none" vector-effect="none" points="2298.15,783.333 2318,783.333 " />
<polyline fill="none" vector-effect="none" points="333,439.667 352.85,439.667 " />
<polyline fill="none" vector-effect="none" points="2298.15,439.667 2318,439.667 " />
<polyline fill="none" vector-effect="none" points="333,96 352.85,96 " />
<polyline fill="none" vector-effect="none" points="2298.15,96 2318,96 " />
</g>

<g fill="#212121" fill-opacity="1" stroke="#212121" stroke-opacity="1" stroke-width="1" stroke-linecap="square" stroke-linejoin="bevel" transform="matrix(0.5,0,0,0.5,132,574)"
font-family="Helvetica" font-size="60" font-weight="400" font-style="normal" 
>
<text fill="#212121" fill-opacity="1" stroke="none" xml:space="preserve" x="0" y="0" font-family="Helvetica" font-size="60" font-weight="400" font-style="normal" 
 >-5</text>
</g>

<g fill="#212121" fill-opacity="1" stroke="#212121" stroke-opacity="1" stroke-width="1" stroke-linecap="square" stroke-linejoin="bevel" transform="matrix(0.5,0,0,0.5,142,402.167)"
font-family="Helvetica" font-size="60" font-weight="400" font-style="normal" 
>
<text fill="#212121" fill-opacity="1" stroke="none" xml:space="preserve" x="0" y="0" font-family="Helvetica" font-size="60" font-weight="400" font-style="normal" 
 >0</text>
</g>

<g fill="#212121" fill-opacity="1" stroke="#212121" stroke-opacity="1" stroke-width="1" stroke-linecap="square" stroke-linejoin="bevel" transform="matrix(0.5,0,0,0.5,142,230.333)"
font-family="Helvetica" font-size="60" font-weight="400" font-style="normal" 
>
<text fill="#212121" fill-opacity="1" stroke="none" xml:space="preserve" x="0" y="0" font-family="Helvetica" font-size="60" font-weight="400" font-style="normal" 
 >5</text>
</g>

<g fill="#212121" fill-opacity="1" stroke="#212121" stroke-opacity="1" stroke-width="1" stroke-linecap="square" stroke-linejoin="bevel" transform="matrix(0.5,0,0,0.5,125.5,58.5)"
font-family="Helvetica" font-size="60" font-weight="400" font-style="normal" 
>
<text fill="#212121" fill-opacity="1" stroke="none" xml:space="preserve" x="0" y="0" font-family="Helvetica" font-size="60" font-weight="400" font-style="normal" 
 >10</text>
</g>

<g fill="#212121" fill-opacity="1" stroke="#212121" stroke-opacity="1" stroke-width="1" stroke-linecap="square" stroke-linejoin="bevel" transform="matrix(0.5,0,0,0.5,262.25,37.75)"
font-family="Helvetica" font-size="60" font-weight="700" font-style="normal" 
>
<text fill="#212121" fill-opacity="1" stroke="none" xml:space="preserve" x="0" y="0" font-family="Helvetica" font-size="60" font-weight="700" font-style="normal" 
 >Acceleration of Quarter Car Model (Wavy Road; Control)</text>
</g>

<g fill="none" stroke="#1171be" stroke-opacity="1" stroke-width="4" stroke-linecap="butt" stroke-linejoin="round" transform="matrix(0.5,0,0,0.5,0,0)"
font-family="Helvetica" font-size="60" font-weight="700" font-style="normal" 
>
<polyline fill="none" vector-effect="none" points="333,783.333 334.015,782.293 335.03,776.42 336.619,762.146 338.766,735.853 341.32,706.694 344.388,692.401 347.823,701.434 350.867,716.582 354.272,720.197 357.754,712.578 361.236,705.917 365.33,709.309 369.598,718.999 373.71,725.158 379.242,728.907 383.785,736.233 389.425,747.235 394.22,757.494 399.555,764.689 404.891,772.642 410.242,780.693 415.593,789.085 420.617,795.52 426.28,798.707 431.943,801.529 437.03,804.283 442.117,808.278 446.781,808.632 452.859,806.275 458.253,804.842 464.34,805.403 469.489,806.34 474.922,802.693 480.069,799.664 489.958,799.2 494.165,801.959 498.373,799.547 503.25,796.639 508.731,796.06 513.955,798.999 518.26,802.843 523.36,801.137 528.244,798.935 534.134,799.376 539.154,803.057 543.375,806.898 548.514,804.985 553.386,802.274 559.258,802.026 564.17,805.124 568.319,808.122 573.451,805.065 578.279,800.996 584.062,799.408 588.957,801.337 593.067,803.759 598.047,799.935 602.841,794.826 608.318,792.417 612.586,793.147 616.855,796.405 621.188,794.209 626.253,788.836 630.999,786.081 635.111,785.401 639.222,788.881 643.225,791.064 648.595,787.511 653.297,783.74 658.002,783.205 662.707,785.748 666.97,790.65 671.39,789.863 676.383,786.527 681.219,785.988 685.018,787.13 688.816,791.856 692.843,795.607 697.916,794.06 702.683,791.629 708.23,792.167 713.367,796.327 717.535,801.543 722.358,800.142 727.124,797.375 732.413,797.511 735.675,799.192 738.937,802.978 743.163,805.266 748.501,802.879 753.33,800.147 758.093,799.809 762.856,802.044 767.138,805.683 771.821,803.796 776.812,800.022 781.982,798.71 787.627,799.741 792.819,802.623 797.463,799.86 802.419,796.425 808.193,794.965 813.481,796.164 817.907,798.012 823.229,794.867 828.222,791.557 833.21,790.499 838.199,791.443 842.788,792.859 848.091,790.268 853.32,787.449 858.482,786.573 863.644,787.545 868.397,788.456 874.272,786.064 879.653,784.182 884.905,783.862 890.156,785.188 895.076,785.12 900.608,783.308 906.141,782.519 913.416,782.919 919.942,783.738 926.11,782.409 932.174,782.227 940.198,782.71 947.999,782.765 956.339,782.516 968.045,782.515 973.468,782.632 978.891,783.341 984.606,782.747 990.32,782.115 996.737,782.249 1005.28,782.692 1010.56,782.49 1015.85,780.943 1021.12,780.805 1028.49,781.765 1034.62,781.413 1040.16,779.21 1045.09,778.544 1050.69,779.704 1056.29,779.927 1063.47,777.995 1068.86,775.302 1074.25,777.119 1079.47,777.647 1086.5,776.46 1090.84,772.551 1095.19,772.602 1100.82,774.811 1105.96,775.277 1112.11,773.336 1116.74,769.47 1121.36,770.712 1126.48,773.012 1132.06,773.373 1137.34,770.893 1142.62,767.338 1147.38,769.606 1152.26,771.964 1157.13,772.331 1162.01,769.968 1166.3,765.965 1170.98,767.621 1175.94,771.059 1181.12,771.942 1186.79,769.982 1191.8,765.644 1196.32,767.885 1201.13,771.207 1206.56,772.109 1212.32,769.58 1216.94,765.675 1221.77,768.383 1226.55,771.756 1232.26,772.625 1237.28,769.731 1241.38,765.591 1246.18,768.047 1250.93,772.023 1256.14,772.957 1261.53,770.76 1266.92,766.204 1271.28,768.789 1275.98,772.206 1281.42,773.09 1287.07,770.405 1291.61,766.228 1296.36,768.777 1301.12,772.286 1306.61,773.128 1311.72,770.516 1316.83,766.261 1321.31,768.881 1326.01,772.257 1331.5,773.031 1336.12,770.824 1340.73,766.596 1345.14,768.019 1350.11,771.743 1355.08,772.99 1359.47,772.299 1363.86,768.042 1368.01,767.116 1372.65,770.469 1377.29,772.998 1381.9,773.361 1386.5,771.108 1390.77,767.692 1395.49,769.461 1400.52,772.976 1405.72,773.98 1412.1,772.095 1417.37,769.142 1422.51,772.349 1427.36,774.639 1432.06,774.976 1436.75,773.202 1441.21,770.919 1446.28,772.941 1451.46,775.724 1457.37,776.366 1462.58,774.532 1467.11,773.087 1473.1,775.672 1478.26,777.645 1486.91,777.338 1491.72,775.113 1496.53,776.961 1501.78,779.075 1508.04,779.358 1513.4,778.099 1518.39,777.987 1523.92,779.779 1529.45,780.734 1535.33,780.747 1541.21,779.833 1546.66,780.887 1552.83,781.998 1558.99,782.215 1565.15,781.996 1571.36,782.572 1579.08,783.308 1587.59,783.696 1596.04,784.303 1605.11,784.549 1612.37,785.363 1619.63,786.186 1626.91,785.792 1634.06,786.247 1640.16,787.889 1645.52,787.938 1652.38,787.171 1659.01,787.55 1664.55,789.897 1669.47,790.004 1675.95,788.634 1681.77,788.548 1687.44,790.739 1692.18,792.485 1698.73,790.601 1704.01,789.736 1708.54,790.296 1713.07,793.431 1717.55,794.376 1722.53,792.246 1727.52,790.956 1732.89,791.317 1738.27,794.95 1742.59,796.034 1747.51,793.575 1752.44,792.101 1755.69,792.035 1758.95,793.327 1763.31,796.981 1767.61,797.639 1772.4,794.747 1777.18,792.991 1782.18,793.184 1787.19,796.915 1791.37,799.144 1796.2,796.519 1801.03,793.969 1805.78,793.55 1810.53,796.09 1814.75,800.293 1819.36,798.71 1824.3,795.059 1829.35,794.077 1834.96,795.886 1839.21,800.684 1843.47,799.731 1848.56,795.932 1853.38,794.435 1857.15,794.561 1860.91,798.259 1864.93,801.448 1869.79,799.219 1874.62,795.383 1879.83,794.47 1885.35,796.875 1889.75,801.397 1894.16,799.506 1899,795.722 1904.05,794.511 1909.68,796.088 1914.48,801.139 1918.76,799.688 1923.64,795.753 1928.54,794.336 1932.46,794.659 1936.37,798.714 1940.41,801.138 1945.83,797.942 1950.54,794.464 1955.22,793.899 1959.9,796.135 1964.14,800.401 1968.62,798.92 1973.6,794.917 1978.5,793.562 1982.57,793.954 1986.63,797.809 1990.75,799.559 1995.48,796.533 2000.22,793.46 2006.3,793.002 2011.17,795.909 2015.37,798.39 2020.79,795.57 2025.68,792.559 2030.45,792.043 2035.23,794.088 2039.57,797.094 2044.44,795.124 2049.49,791.934 2054.97,791.106 2059.87,792.669 2064.77,795.383 2069.57,793.454 2074.68,790.733 2080.47,790.025 2085.83,791.72 2090.39,793.625 2096.02,791.207 2101.15,789.103 2106.1,788.889 2111.06,790.394 2115.79,791.393 2121.92,789.245 2127.32,787.715 2132.2,787.549 2137.08,788.995 2141.98,789.092 2147.41,787.238 2152.84,786.273 2158.46,786.238 2164.08,787.197 2169.46,786.346 2175.84,785.069 2182.73,784.79 2188.98,784.914 2195.32,784.286 2203.15,783.534 2212.16,783.04 2220.92,782.387 2230.96,782.044 2237.73,780.826 2244.5,780.456 2253.11,780.693 2259.11,779.895 2265.1,778.291 2270.63,778.769 2276.83,779.317 2281.83,779.023 2286.83,776.895 2291.69,776.118 2297.1,777.476 2302.51,778.047 2307.3,777.56 2312.1,774.775 2316.72,774.162 2318,775.266 " />
</g>

<g fill="none" stroke="#dd5400" stroke-opacity="1" stroke-width="4" stroke-linecap="butt" stroke-linejoin="round" transform="matrix(0.5,0,0,0.5,0,0)"
font-family="Helvetica" font-size="60" font-weight="700" font-style="normal" 
>
<polyline fill="none" vector-effect="none" points="333,783.333 334.015,783.331 335.03,783.301 336.619,783.141 338.766,782.543 341.32,781.06 344.388,778.36 347.823,774.582 350.867,770.645 354.272,766.604 357.754,761.876 361.236,756.504 365.33,750.202 369.598,743.165 373.71,736.267 379.242,728.596 383.785,721.097 389.425,714.565 394.22,709.287 399.555,705.774 404.891,703.88 410.242,704.029 415.593,706.326 420.617,710.636 426.28,717.081 431.943,725.818 437.03,735.711 442.117,746.356 446.781,757.49 452.859,770.36 458.253,784.339 464.34,798.224 469.489,811.476 474.922,823.216 480.069,833.845 489.958,846.5 494.165,856.105 498.373,860.45 503.25,863.844 508.731,866.096 513.955,866.756 518.26,866.143 523.36,864.385 528.244,861.246 534.134,856.508 539.154,850.63 543.375,845.088 548.514,839 553.386,831.954 559.258,823.961 564.17,815.809 568.319,809.155 573.451,802.56 578.279,795.635 584.062,788.579 588.957,782.011 593.067,777.146 598.047,772.842 602.841,768.696 608.318,764.935 612.586,761.996 616.855,760.128 621.188,758.882 626.253,758.026 630.999,757.595 635.111,757.655 639.222,758.165 643.225,759.187 648.595,760.837 653.297,762.895 658.002,765.077 662.707,767.537 666.97,770.27 671.39,773.219 676.383,776.489 681.219,779.892 685.018,782.892 688.816,785.591 692.843,788.517 697.916,791.945 702.683,795.45 708.23,798.862 713.367,802.183 717.535,805.06 722.358,807.731 727.124,810.232 732.413,812.439 735.675,814.045 738.937,815.151 743.163,816.352 748.501,817.63 753.33,818.512 758.093,818.903 762.856,818.939 767.138,818.815 771.821,818.498 776.812,817.76 781.982,816.547 787.627,814.879 792.819,813.036 797.463,811.205 802.419,809.124 808.193,806.509 813.481,803.629 817.907,801.134 823.229,798.625 828.222,795.845 833.21,793.096 838.199,790.395 842.788,787.988 848.091,785.665 853.32,783.262 858.482,781.015 863.644,778.996 868.397,777.367 874.272,775.903 879.653,774.563 884.905,773.546 890.156,772.844 895.076,772.495 900.608,772.382 906.141,772.474 913.416,772.891 919.942,773.737 926.11,774.794 932.174,775.965 940.198,777.495 947.999,779.389 956.339,781.349 968.045,783.699 973.468,785.492 978.891,786.507 984.606,787.416 990.32,788.153 996.737,788.707 1005.28,789.106 1010.56,789.216 1015.85,789.069 1021.12,788.699 1028.49,788.073 1034.62,787.237 1040.16,786.307 1045.09,785.267 1050.69,784.135 1056.29,782.907 1063.47,781.444 1068.86,779.812 1074.25,778.361 1079.47,777.021 1086.5,775.549 1090.84,774.148 1095.19,773.017 1100.82,771.828 1105.96,770.722 1112.11,769.704 1116.74,768.711 1121.36,767.866 1126.48,767.154 1132.06,766.588 1137.34,766.165 1142.62,765.715 1147.38,765.328 1152.26,765.165 1157.13,765.181 1162.01,765.314 1166.3,765.37 1170.98,765.398 1175.94,765.592 1181.12,765.984 1186.79,766.512 1191.8,766.918 1196.32,767.21 1201.13,767.626 1206.56,768.22 1212.32,768.912 1216.94,769.37 1221.77,769.691 1226.55,770.12 1232.26,770.685 1237.28,771.258 1241.38,771.535 1246.18,771.677 1250.93,771.906 1256.14,772.23 1261.53,772.558 1266.92,772.643 1271.28,772.558 1275.98,772.547 1281.42,772.61 1287.07,772.659 1291.61,772.475 1296.36,772.179 1301.12,771.962 1306.61,771.826 1311.72,771.697 1316.83,771.365 1321.31,770.948 1326.01,770.661 1331.5,770.465 1336.12,770.312 1340.73,770.038 1345.14,769.675 1350.11,769.405 1355.08,769.273 1359.47,769.23 1363.86,769.146 1368.01,768.949 1372.65,768.786 1377.29,768.77 1381.9,768.872 1386.5,769.025 1390.77,769.074 1395.49,769.076 1400.52,769.213 1405.72,769.519 1412.1,769.955 1417.37,770.272 1422.51,770.547 1427.36,770.962 1432.06,771.453 1436.75,771.964 1441.21,772.368 1446.28,772.751 1451.46,773.269 1457.37,773.934 1462.58,774.611 1467.11,775.093 1473.1,775.589 1478.26,776.21 1486.91,777.03 1491.72,777.722 1496.53,778.129 1501.78,778.609 1508.04,779.197 1513.4,779.741 1518.39,780.127 1523.92,780.503 1529.45,780.929 1535.33,781.36 1541.21,781.738 1546.66,782.038 1552.83,782.362 1558.99,782.705 1565.15,783.012 1571.36,783.28 1579.08,783.585 1587.59,783.935 1596.04,784.301 1605.11,784.677 1612.37,785.027 1619.63,785.396 1626.91,785.775 1634.06,786.132 1640.16,786.505 1645.52,786.898 1652.38,787.294 1659.01,787.693 1664.55,788.102 1669.47,788.542 1675.95,788.988 1681.77,789.403 1687.44,789.792 1692.18,790.256 1698.73,790.769 1704.01,791.203 1708.54,791.515 1713.07,791.841 1717.55,792.267 1722.53,792.696 1727.52,793.047 1732.89,793.334 1738.27,793.664 1742.59,794.085 1747.51,794.46 1752.44,794.743 1755.69,794.914 1758.95,795.026 1763.31,795.227 1767.61,795.556 1772.4,795.863 1777.18,796.056 1782.18,796.162 1787.19,796.282 1791.37,796.532 1796.2,796.788 1801.03,796.932 1805.78,796.966 1810.53,796.961 1814.75,797.093 1819.36,797.311 1824.3,797.437 1829.35,797.426 1834.96,797.352 1839.21,797.407 1843.47,797.572 1848.56,797.67 1853.38,797.629 1857.15,797.526 1860.91,797.457 1864.93,797.525 1869.79,797.67 1874.62,797.707 1879.83,797.607 1885.35,797.455 1889.75,797.477 1894.16,797.604 1899,797.634 1904.05,797.532 1909.68,797.361 1914.48,797.339 1918.76,797.455 1923.64,797.481 1928.54,797.37 1932.46,797.209 1936.37,797.106 1940.41,797.147 1945.83,797.232 1950.54,797.177 1955.22,797.013 1959.9,796.818 1964.14,796.773 1968.62,796.833 1973.6,796.802 1978.5,796.629 1982.57,796.414 1986.63,796.26 1990.75,796.241 1995.48,796.235 2000.22,796.102 2006.3,795.826 2011.17,795.537 2015.37,795.436 2020.79,795.366 2025.68,795.159 2030.45,794.864 2035.23,794.549 2039.57,794.37 2044.44,794.255 2049.49,794.027 2054.97,793.671 2059.87,793.287 2064.77,793.037 2069.57,792.852 2074.68,792.569 2080.47,792.161 2085.83,791.722 2090.39,791.445 2096.02,791.191 2101.15,790.823 2106.1,790.417 2111.06,790.027 2115.79,789.731 2121.92,789.413 2127.32,788.989 2132.2,788.57 2137.08,788.195 2141.98,787.89 2147.41,787.556 2152.84,787.147 2158.46,786.711 2164.08,786.3 2169.46,785.944 2175.84,785.527 2182.73,785.029 2188.98,784.553 2195.32,784.121 2203.15,783.619 2212.16,783.022 2220.92,782.389 2230.96,781.741 2237.73,781.17 2244.5,780.671 2253.11,780.142 2259.11,779.676 2265.1,779.253 2270.63,778.815 2276.83,778.424 2281.83,778.094 2286.83,777.781 2291.69,777.399 2297.1,777.015 2302.51,776.685 2307.3,776.416 2312.1,776.129 2316.72,775.758 2318,775.526 " />
</g>

<g fill="none" stroke="#edb120" stroke-opacity="1" stroke-width="4" stroke-linecap="butt" stroke-linejoin="round" transform="matrix(0.5,0,0,0.5,0,0)"
font-family="Helvetica" font-size="60" font-weight="700" font-style="normal" 
>
<polyline fill="none" vector-effect="none" points="333,783.333 334.015,634.883 335.03,383.44 336.619,186.684 338.766,152.421 341.32,416.014 344.388,848.008 347.823,1078.69 350.867,948.737 354.272,715.571 357.754,631.353 361.236,733.823 365.33,846.902 369.598,825.412 373.71,754.329 379.242,757.459 383.785,796.939 389.425,808.182 394.22,775.916 399.555,774.026 404.891,789.972 410.242,793.625 415.593,806.277 420.617,780.697 426.28,777.784 431.943,790.103 437.03,809.276 442.117,805.684 446.781,770.42 452.859,779.654 458.253,794.033 464.34,821.742 469.489,782.481 474.922,768.252 480.069,790.34 489.958,816.064 494.165,785.385 498.373,756.415 503.25,780.295 508.731,796.855 513.955,842.392 518.26,790.035 523.36,756.626 528.244,785.213 534.134,800.474 539.154,844.364 543.375,790.371 548.514,756.29 553.386,785.355 559.258,803.334 564.17,847.698 568.319,790.519 573.451,754.372 578.279,784.546 584.062,802.696 588.957,851.742 593.067,792.77 598.047,751.311 602.841,781.229 608.318,799.142 612.586,854.259 616.855,813.854 621.188,752.288 626.253,766.777 630.999,798.79 635.111,819.409 639.222,851.142 643.225,785.693 648.595,750.322 653.297,786.109 658.002,799.701 662.707,851.541 666.97,809.303 671.39,751.691 676.383,769.632 681.219,799.356 685.018,821.39 688.816,852.467 692.843,791.544 697.916,750.814 702.683,782.531 708.23,799.099 713.367,854.309 717.535,795.68 722.358,750.265 727.124,779.644 732.413,801.726 735.675,835.109 738.937,841.209 743.163,786.712 748.501,756.73 753.33,787.966 758.093,797.943 762.856,845.964 767.138,800.889 771.821,755.075 776.812,777.274 781.982,798.306 787.627,831.844 792.819,793.352 797.463,758.757 802.419,783.037 808.193,795.435 813.481,833.569 817.907,786.294 823.229,760.504 828.222,787.076 833.21,796.005 838.199,824.295 842.788,787.457 848.091,764.507 853.32,786.063 858.482,794.922 863.644,815.18 868.397,782.279 874.272,770.095 879.653,788.855 884.905,797.159 890.156,802.126 895.076,774.903 900.608,777.124 906.141,788.566 913.416,797.514 919.942,778.999 926.11,780.405 932.174,787.533 940.198,789.564 947.999,778.556 956.339,786.595 968.045,778.673 973.468,796.604 978.891,778.652 984.606,776.598 990.32,779.595 996.737,786.249 1005.28,781.939 1010.56,773.489 1015.85,771.796 1021.12,790.713 1028.49,783.502 1034.62,771.626 1040.16,764.577 1045.09,791.481 1050.69,788.523 1056.29,777.784 1063.47,752.095 1068.86,792.011 1074.25,794.4 1079.47,774.777 1086.5,755.655 1090.84,762.181 1095.19,801.643 1100.82,791.793 1105.96,772.589 1112.11,741.501 1116.74,772.946 1121.36,805.932 1126.48,785.587 1132.06,771.009 1137.34,729.798 1142.62,778.81 1147.38,807.528 1152.26,780.186 1157.13,771.486 1162.01,720.348 1166.3,766.472 1170.98,812.501 1175.94,789.565 1181.12,768.277 1186.79,726.209 1191.8,770.5 1196.32,812.966 1201.13,786.523 1206.56,766.458 1212.32,722.561 1216.94,776.102 1221.77,813.002 1226.55,783.322 1232.26,767.996 1237.28,709.75 1241.38,770.219 1246.18,817.976 1250.93,788.561 1256.14,765.081 1261.53,720.391 1266.92,770.644 1271.28,815.564 1275.98,786.373 1281.42,765.194 1287.07,719.628 1291.61,773.657 1296.36,814.719 1301.12,785.432 1306.61,766.426 1311.72,716.181 1316.83,772.906 1321.31,815.658 1326.01,785.595 1331.5,765.725 1336.12,719.458 1340.73,759.835 1345.14,813.03 1350.11,793.715 1355.08,767.921 1359.47,738.036 1363.86,734.385 1368.01,797.885 1372.65,808.964 1377.29,776.596 1381.9,766.431 1386.5,722.596 1390.77,766.713 1395.49,811.095 1400.52,789.301 1405.72,768.786 1412.1,734.434 1417.37,786.951 1422.51,804.412 1427.36,775.424 1432.06,768.274 1436.75,736.403 1441.21,775.078 1446.28,804.872 1451.46,782.956 1457.37,768.831 1462.58,744.219 1467.11,785.453 1473.1,799.035 1478.26,775.916 1486.91,759.374 1491.72,779.446 1496.53,801.595 1501.78,782.117 1508.04,769.958 1513.4,763.69 1518.39,789.891 1523.92,789.713 1529.45,778.288 1535.33,770.082 1541.21,778.802 1546.66,791.205 1552.83,781.095 1558.99,777.942 1565.15,779.599 1571.36,786.809 1579.08,781.993 1587.59,784.409 1596.04,782.464 1605.11,784.537 1612.37,790.769 1619.63,780.293 1626.91,784.471 1634.06,791.35 1640.16,792.806 1645.52,776.481 1652.38,784.178 1659.01,797.259 1664.55,798.901 1669.47,772.962 1675.95,781.689 1681.77,792.34 1687.44,815.858 1692.18,778.824 1698.73,772.847 1704.01,791.756 1708.54,809.779 1713.07,816.877 1717.55,773.316 1722.53,768.274 1727.52,790.426 1732.89,807.429 1738.27,821.238 1742.59,770.355 1747.51,767.04 1752.44,791.406 1755.69,795.281 1758.95,835.748 1763.31,822.52 1767.61,767.528 1772.4,763.708 1777.18,792.177 1782.18,809.161 1787.19,836.718 1791.37,778.947 1796.2,758.216 1801.03,787.011 1805.78,797.147 1810.53,850.322 1814.75,802.768 1819.36,752.626 1824.3,774.879 1829.35,799.274 1834.96,840.043 1839.21,810.551 1843.47,755.107 1848.56,769.071 1853.38,798.562 1857.15,817.703 1860.91,854.887 1864.93,797.131 1869.79,750.646 1874.62,778.314 1879.83,801.241 1885.35,846.962 1889.75,800.83 1894.16,751.607 1899,774.427 1904.05,799.459 1909.68,841.2 1914.48,809.523 1918.76,751.532 1923.64,771.094 1928.54,799.635 1932.46,824.7 1936.37,849.685 1940.41,785.802 1945.83,752.249 1950.54,787.755 1955.22,799.097 1959.9,851.633 1964.14,807.538 1968.62,752.464 1973.6,771.665 1978.5,799.547 1982.57,823.885 1986.63,840.638 1990.75,779.272 1995.48,754.476 2000.22,785.638 2006.3,804.663 2011.17,840.042 2015.37,785.894 2020.79,757.742 2025.68,787.734 2030.45,798.415 2035.23,838.786 2039.57,795.341 2044.44,757.535 2049.49,780.663 2054.97,796.778 2059.87,830.44 2064.77,793.311 2069.57,760.971 2074.68,782.633 2080.47,794.825 2085.83,825.273 2090.39,783.249 2096.02,765.338 2101.15,789.278 2106.1,797.495 2111.06,813.795 2115.79,781.467 2121.92,771.732 2127.32,789.749 2132.2,797.904 2137.08,803.936 2141.98,775.978 2147.41,776.04 2152.84,788.844 2158.46,796.032 2164.08,790.327 2169.46,775.099 2175.84,784.574 2182.73,788.656 2188.98,786.621 2195.32,780.257 2203.15,784.653 2212.16,782.098 2220.92,784.588 2230.96,781.206 2237.73,776.133 2244.5,787.415 2253.11,780.898 2259.11,770.743 2265.1,779.418 2270.63,790.25 2276.83,780.532 2281.83,770.171 2286.83,761.341 2291.69,790.262 2297.1,790.949 2302.51,777.525 2307.3,761.526 2312.1,757.026 2316.72,794.155 2318,800.761 " />
</g>

<g fill="#ffffff" fill-opacity="1" stroke="none" transform="matrix(5e-05,0,0,5e-05,0,0)"
font-family="Helvetica" font-size="60" font-weight="700" font-style="normal" 
>
<path vector-effect="none" fill-rule="evenodd" d="M2.012e+07,1.12e+06 L2.012e+07,3.2e+06 L2.302e+07,3.2e+06 L2.302e+07,1.12e+06 L2.012e+07,1.12e+06"/>
</g>

<g fill="#1171be" fill-opacity="1" stroke="#1171be" stroke-opacity="1" stroke-width="4" stroke-linecap="butt" stroke-linejoin="round" transform="matrix(0.5,0,0,0.5,0,0)"
font-family="Helvetica" font-size="60" font-weight="700" font-style="normal" 
>
<polyline fill="none" vector-effect="none" points="2017.99,148.412 2077.89,148.412 " />
</g>

<g fill="#dd5400" fill-opacity="1" stroke="#dd5400" stroke-opacity="1" stroke-width="4" stroke-linecap="butt" stroke-linejoin="round" transform="matrix(0.5,0,0,0.5,0,0)"
font-family="Helvetica" font-size="60" font-weight="700" font-style="normal" 
>
<polyline fill="none" vector-effect="none" points="2017.99,216 2077.89,216 " />
</g>

<g fill="#edb120" fill-opacity="1" stroke="#edb120" stroke-opacity="1" stroke-width="4" stroke-linecap="butt" stroke-linejoin="round" transform="matrix(0.5,0,0,0.5,0,0)"
font-family="Helvetica" font-size="60" font-weight="700" font-style="normal" 
>
<polyline fill="none" vector-effect="none" points="2017.99,283.588 2077.89,283.588 " />
</g>

<g fill="#212121" fill-opacity="1" stroke="#212121" stroke-opacity="1" stroke-width="1" stroke-linecap="square" stroke-linejoin="bevel" transform="matrix(0.5,0,0,0.5,1041.19,84.7062)"
font-family="Helvetica" font-size="60" font-weight="400" font-style="normal" 
>
<text fill="#212121" fill-opacity="1" stroke="none" xml:space="preserve" x="0" y="0" font-family="Helvetica" font-size="60" font-weight="400" font-style="normal" 
 >Chassis</text>
</g>

<g fill="#212121" fill-opacity="1" stroke="#212121" stroke-opacity="1" stroke-width="1" stroke-linecap="square" stroke-linejoin="bevel" transform="matrix(0.5,0,0,0.5,1041.19,118.5)"
font-family="Helvetica" font-size="60" font-weight="400" font-style="normal" 
>
<text fill="#212121" fill-opacity="1" stroke="none" xml:space="preserve" x="0" y="0" font-family="Helvetica" font-size="60" font-weight="400" font-style="normal" 
 >Seat</text>
</g>

<g fill="#212121" fill-opacity="1" stroke="#212121" stroke-opacity="1" stroke-width="1" stroke-linecap="square" stroke-linejoin="bevel" transform="matrix(0.5,0,0,0.5,1041.19,152.294)"
font-family="Helvetica" font-size="60" font-weight="400" font-style="normal" 
>
<text fill="#212121" fill-opacity="1" stroke="none" xml:space="preserve" x="0" y="0" font-family="Helvetica" font-size="60" font-weight="400" font-style="normal" 
 >Wheel</text>
</g>

<g fill="none" stroke="#212121" stroke-opacity="1" stroke-width="1" stroke-linecap="butt" stroke-linejoin="miter" stroke-miterlimit="2" transform="matrix(0.5,0,0,0.5,0,0)"
font-family="Helvetica" font-size="60" font-weight="400" font-style="normal" 
>
<path vector-effect="none" fill-rule="evenodd" d="M2012,320 L2012,112 L2302,112 L2302,320 L2012,320"/>
</g>
</g>
</svg>
