<?xml version="1.0" encoding="UTF-8" standalone="no"?>
<svg width="451.908mm" height="225.778mm"
 viewBox="0 0 1281 640"
 xmlns="http://www.w3.org/2000/svg" xmlns:xlink="http://www.w3.org/1999/xlink"  version="1.2" baseProfile="tiny">
<title>Qt SVG Document</title>
<desc>MATLAB, The MathWorks, Inc. Version 25.2.0.2998904 R2025b</desc>
<defs>
</defs>
<g fill="none" stroke="black" stroke-width="1" fill-rule="evenodd" stroke-linecap="square" stroke-linejoin="bevel" >

<g fill="#ffffff" fill-opacity="1" stroke="none" transform="matrix(0.5,0,0,0.5,0,0)"
font-family="MS Shell Dlg 2" font-size="8" font-weight="400" font-style="normal" 
>
<path vector-effect="none" fill-rule="evenodd" d="M0,0 L2562,0 L2562,1281 L0,1281 L0,0"/>
</g>

<g fill="#ffffff" fill-opacity="1" stroke="none" transform="matrix(5e-05,0,0,5e-05,0,0)"
font-family="MS Shell Dlg 2" font-size="8" font-weight="400" font-style="normal" 
>
<path vector-effect="none" fill-rule="evenodd" d="M3.33e+06,960000 L3.33e+06,1.127e+07 L2.318e+07,1.127e+07 L2.318e+07,960000 L3.33e+06,960000"/>
</g>

<g fill="#212121" fill-opacity="0.14902" stroke="#212121" stroke-opacity="0.14902" stroke-width="1" stroke-linecap="butt" stroke-linejoin="round" transform="matrix(0.5,0,0,0.5,0,0)"
font-family="MS Shell Dlg 2" font-size="8" font-weight="400" font-style="normal" 
>
<polyline fill="none" vector-effect="none" points="333,96 333,1127 " />
<polyline fill="none" vector-effect="none" points="730,96 730,1127 " />
<polyline fill="none" vector-effect="none" points="1127,96 1127,1127 " />
<polyline fill="none" vector-effect="none" points="1524,96 1524,1127 " />
<polyline fill="none" vector-effect="none" points="1921,96 1921,1127 " />
<polyline fill="none" vector-effect="none" points="2318,96 2318,1127 " />
<polyline fill="none" vector-effect="none" points="333,1127 2318,1127 " />
<polyline fill="none" vector-effect="none" points="333,869.25 2318,869.25 " />
<polyline fill="none" vector-effect="none" points="333,611.5 2318,611.5 " />
<polyline fill="none" vector-effect="none" points="333,353.75 2318,353.75 " />
<polyline fill="none" vector-effect="none" points="333,96 2318,96 " />
</g>

<g fill="#212121" fill-opacity="1" stroke="#212121" stroke-opacity="1" stroke-width="1" stroke-linecap="square" stroke-linejoin="bevel" transform="matrix(0.5,0,0,0.5,608.25,633.5)"
font-family="Helvetica" font-size="60" font-weight="400" font-style="normal" 
>
<text fill="#212121" fill-opacity="1" stroke="none" xml:space="preserve" x="0" y="0" font-family="Helvetica" font-size="60" font-weight="400" font-style="normal" 
 >Time (s)</text>
</g>

<g fill="#212121" fill-opacity="1" stroke="#212121" stroke-opacity="1" stroke-width="1" stroke-linecap="square" stroke-linejoin="round" transform="matrix(0.5,0,0,0.5,0,0)"
font-family="Helvetica" font-size="60" font-weight="400" font-style="normal" 
>
<polyline fill="none" vector-effect="none" points="333,1127 2318,1127 " />
<polyline fill="none" vector-effect="none" points="333,96 2318,96 " />
<polyline fill="none" vector-effect="none" points="333,1127 333,1107.15 " />
<polyline fill="none" vector-effect="none" points="333,115.85 333,96 " />
<polyline fill="none" vector-effect="none" points="730,1127 730,1107.15 " />
<polyline fill="none" vector-effect="none" points="730,115.85 730,96 " />
<polyline fill="none" vector-effect="none" points="1127,1127 1127,1107.15 " />
<polyline fill="none" vector-effect="none" points="1127,115.85 1127,96 " />
<polyline fill="none" vector-effect="none" points="1524,1127 1524,1107.15 " />
<polyline fill="none" vector-effect="none" points="1524,115.85 1524,96 " />
<polyline fill="none" vector-effect="none" points="1921,1127 1921,1107.15 " />
<polyline fill="none" vector-effect="none" points="1921,115.85 1921,96 " />
<polyline fill="none" vector-effect="none" points="2318,1127 2318,1107.15 " />
<polyline fill="none" vector-effect="none" points="2318,115.85 2318,96 " />
</g>

<g fill="#212121" fill-opacity="1" stroke="#212121" stroke-opacity="1" stroke-width="1" stroke-linecap="square" stroke-linejoin="bevel" transform="matrix(0.5,0,0,0.5,158.25,599)"
font-family="Helvetica" font-size="60" font-weight="400" font-style="normal" 
>
<text fill="#212121" fill-opacity="1" stroke="none" xml:space="preserve" x="0" y="0" font-family="Helvetica" font-size="60" font-weight="400" font-style="normal" 
 >0</text>
</g>

<g fill="#212121" fill-opacity="1" stroke="#212121" stroke-opacity="1" stroke-width="1" stroke-linecap="square" stroke-linejoin="bevel" transform="matrix(0.5,0,0,0.5,356.75,599)"
font-family="Helvetica" font-size="60" font-weight="400" font-style="normal" 
>
<text fill="#212121" fill-opacity="1" stroke="none" xml:space="preserve" x="0" y="0" font-family="Helvetica" font-size="60" font-weight="400" font-style="normal" 
 >2</text>
</g>

<g fill="#212121" fill-opacity="1" stroke="#212121" stroke-opacity="1" stroke-width="1" stroke-linecap="square" stroke-linejoin="bevel" transform="matrix(0.5,0,0,0.5,555.25,599)"
font-family="Helvetica" font-size="60" font-weight="400" font-style="normal" 
>
<text fill="#212121" fill-opacity="1" stroke="none" xml:space="preserve" x="0" y="0" font-family="Helvetica" font-size="60" font-weight="400" font-style="normal" 
 >4</text>
</g>

<g fill="#212121" fill-opacity="1" stroke="#212121" stroke-opacity="1" stroke-width="1" stroke-linecap="square" stroke-linejoin="bevel" transform="matrix(0.5,0,0,0.5,753.75,599)"
font-family="Helvetica" font-size="60" font-weight="400" font-style="normal" 
>
<text fill="#212121" fill-opacity="1" stroke="none" xml:space="preserve" x="0" y="0" font-family="Helvetica" font-size="60" font-weight="400" font-style="normal" 
 >6</text>
</g>

<g fill="#212121" fill-opacity="1" stroke="#212121" stroke-opacity="1" stroke-width="1" stroke-linecap="square" stroke-linejoin="bevel" transform="matrix(0.5,0,0,0.5,952.25,599)"
font-family="Helvetica" font-size="60" font-weight="400" font-style="normal" 
>
<text fill="#212121" fill-opacity="1" stroke="none" xml:space="preserve" x="0" y="0" font-family="Helvetica" font-size="60" font-weight="400" font-style="normal" 
 >8</text>
</g>

<g fill="#212121" fill-opacity="1" stroke="#212121" stroke-opacity="1" stroke-width="1" stroke-linecap="square" stroke-linejoin="bevel" transform="matrix(0.5,0,0,0.5,1142.5,599)"
font-family="Helvetica" font-size="60" font-weight="400" font-style="normal" 
>
<text fill="#212121" fill-opacity="1" stroke="none" xml:space="preserve" x="0" y="0" font-family="Helvetica" font-size="60" font-weight="400" font-style="normal" 
 >10</text>
</g>

<g fill="#212121" fill-opacity="1" stroke="#212121" stroke-opacity="1" stroke-width="1" stroke-linecap="square" stroke-linejoin="bevel" transform="matrix(0,-0.5,0.5,0,105.5,433.5)"
font-family="Helvetica" font-size="60" font-weight="400" font-style="normal" 
>
<text fill="#212121" fill-opacity="1" stroke="none" xml:space="preserve" x="0" y="0" font-family="Helvetica" font-size="60" font-weight="400" font-style="normal" 
 >Acceleration (m/s</text>
</g>

<g fill="#212121" fill-opacity="1" stroke="#212121" stroke-opacity="1" stroke-width="1" stroke-linecap="square" stroke-linejoin="bevel" transform="matrix(0,-0.5,0.5,0,90.5,202.5)"
font-family="Helvetica" font-size="48" font-weight="400" font-style="normal" 
>
<text fill="#212121" fill-opacity="1" stroke="none" xml:space="preserve" x="0" y="0" font-family="Helvetica" font-size="48" font-weight="400" font-style="normal" 
 >2</text>
</g>

<g fill="#212121" fill-opacity="1" stroke="#212121" stroke-opacity="1" stroke-width="1" stroke-linecap="square" stroke-linejoin="bevel" transform="matrix(0,-0.5,0.5,0,105.5,189)"
font-family="Helvetica" font-size="60" font-weight="400" font-style="normal" 
>
<text fill="#212121" fill-opacity="1" stroke="none" xml:space="preserve" x="0" y="0" font-family="Helvetica" font-size="60" font-weight="400" font-style="normal" 
 >)</text>
</g>

<g fill="#212121" fill-opacity="1" stroke="#212121" stroke-opacity="1" stroke-width="1" stroke-linecap="square" stroke-linejoin="round" transform="matrix(0.5,0,0,0.5,0,0)"
font-family="Helvetica" font-size="60" font-weight="400" font-style="normal" 
>
<polyline fill="none" vector-effect="none" points="333,1127 333,96 " />
<polyline fill="none" vector-effect="none" points="2318,1127 2318,96 " />
<polyline fill="none" vector-effect="none" points="333,1127 352.85,1127 " />
<polyline fill="none" vector-effect="none" points="2298.15,1127 2318,1127 " />
<polyline fill="none" vector-effect="none" points="333,869.25 352.85,869.25 " />
<polyline fill="none" vector-effect="none" points="2298.15,869.25 2318,869.25 " />
<polyline fill="none" vector-effect="none" points="333,611.5 352.85,611.5 " />
<polyline fill="none" vector-effect="none" points="2298.15,611.5 2318,611.5 " />
<polyline fill="none" vector-effect="none" points="333,353.75 352.85,353.75 " />
<polyline fill="none" vector-effect="none" points="2298.15,353.75 2318,353.75 " />
<polyline fill="none" vector-effect="none" points="333,96 352.85,96 " />
<polyline fill="none" vector-effect="none" points="2298.15,96 2318,96 " />
</g>

<g fill="#212121" fill-opacity="1" stroke="#212121" stroke-opacity="1" stroke-width="1" stroke-linecap="square" stroke-linejoin="bevel" transform="matrix(0.5,0,0,0.5,115.5,574)"
font-family="Helvetica" font-size="60" font-weight="400" font-style="normal" 
>
<text fill="#212121" fill-opacity="1" stroke="none" xml:space="preserve" x="0" y="0" font-family="Helvetica" font-size="60" font-weight="400" font-style="normal" 
 >-10</text>
</g>

<g fill="#212121" fill-opacity="1" stroke="#212121" stroke-opacity="1" stroke-width="1" stroke-linecap="square" stroke-linejoin="bevel" transform="matrix(0.5,0,0,0.5,132,445.125)"
font-family="Helvetica" font-size="60" font-weight="400" font-style="normal" 
>
<text fill="#212121" fill-opacity="1" stroke="none" xml:space="preserve" x="0" y="0" font-family="Helvetica" font-size="60" font-weight="400" font-style="normal" 
 >-5</text>
</g>

<g fill="#212121" fill-opacity="1" stroke="#212121" stroke-opacity="1" stroke-width="1" stroke-linecap="square" stroke-linejoin="bevel" transform="matrix(0.5,0,0,0.5,142,316.25)"
font-family="Helvetica" font-size="60" font-weight="400" font-style="normal" 
>
<text fill="#212121" fill-opacity="1" stroke="none" xml:space="preserve" x="0" y="0" font-family="Helvetica" font-size="60" font-weight="400" font-style="normal" 
 >0</text>
</g>

<g fill="#212121" fill-opacity="1" stroke="#212121" stroke-opacity="1" stroke-width="1" stroke-linecap="square" stroke-linejoin="bevel" transform="matrix(0.5,0,0,0.5,142,187.375)"
font-family="Helvetica" font-size="60" font-weight="400" font-style="normal" 
>
<text fill="#212121" fill-opacity="1" stroke="none" xml:space="preserve" x="0" y="0" font-family="Helvetica" font-size="60" font-weight="400" font-style="normal" 
 >5</text>
</g>

<g fill="#212121" fill-opacity="1" stroke="#212121" stroke-opacity="1" stroke-width="1" stroke-linecap="square" stroke-linejoin="bevel" transform="matrix(0.5,0,0,0.5,125.5,58.5)"
font-family="Helvetica" font-size="60" font-weight="400" font-style="normal" 
>
<text fill="#212121" fill-opacity="1" stroke="none" xml:space="preserve" x="0" y="0" font-family="Helvetica" font-size="60" font-weight="400" font-style="normal" 
 >10</text>
</g>

<g fill="#212121" fill-opacity="1" stroke="#212121" stroke-opacity="1" stroke-width="1" stroke-linecap="square" stroke-linejoin="bevel" transform="matrix(0.5,0,0,0.5,330.5,37.75)"
font-family="Helvetica" font-size="60" font-weight="700" font-style="normal" 
>
<text fill="#212121" fill-opacity="1" stroke="none" xml:space="preserve" x="0" y="0" font-family="Helvetica" font-size="60" font-weight="700" font-style="normal" 
 >Acceleration of Quarter Car Model (Smaller k2)</text>
</g>

<g fill="none" stroke="#1171be" stroke-opacity="1" stroke-width="4" stroke-linecap="butt" stroke-linejoin="round" transform="matrix(0.5,0,0,0.5,0,0)"
font-family="Helvetica" font-size="60" font-weight="700" font-style="normal" 
>
<polyline fill="none" vector-effect="none" points="333,611.5 372.7,611.5 412.4,611.5 452.1,611.5 491.8,611.5 531.5,611.5 531.5,611.5 531.5,611.5 533.366,609.016 534.882,598.136 537.054,580.735 539.634,561.788 542.698,555.196 546.136,567.05 549.314,583.82 552.665,590.751 557.129,586.519 560.789,581.858 565.048,584.934 569.657,591.412 573.949,593.961 579.911,593.764 584.713,595.621 590.969,598.352 596.679,599.535 603.248,600.547 611.393,601.955 618.753,602.584 626.75,603.147 635.731,603.357 645.728,603.491 655.457,603.428 664.125,603.587 672.677,603.654 681.744,604.064 691.23,604.558 701.201,605.392 712.323,606.514 719.336,607.473 726.35,608.393 735.343,609.471 745.372,610.615 756.463,611.763 763.025,612.797 769.586,613.318 778.466,613.72 786.984,614.263 796.397,614.452 806.104,614.589 818.2,614.59 823.854,614.19 827.703,613.924 830.687,614.971 833.67,630.671 836.425,656.22 839.271,669.663 843.111,662.683 846.525,644.099 849.752,634.586 853.548,636.632 857.343,642.038 861.18,641.369 865.34,635.43 869.5,630.901 874.889,630.321 879.865,629.695 885.811,626.795 891.435,624.714 897.648,623.851 903.86,622.569 911.741,621.528 920.615,620.979 929.395,620.561 938.821,620.563 948.789,620.606 960.547,620.6 966.761,620.739 972.974,620.569 981.674,620.055 989.479,619.687 998.03,618.838 1006.75,617.988 1015.95,616.788 1025.55,615.548 1035.66,614.125 1047.36,612.561 1053.67,611.616 1059.99,610.879 1068.66,609.997 1076.74,609.49 1085.56,608.904 1094.57,608.671 1104.13,608.486 1114.35,608.558 1124.01,608.809 1131.61,608.978 1139.22,609.32 1148.13,609.625 1160.05,610.059 1166.97,610.242 1173.9,610.502 1182.65,610.703 1193.8,610.815 1202.33,610.831 1210.87,610.875 1219.3,610.758 1228,610.714 1237.17,610.543 1246.43,610.485 1255.29,610.284 1263.96,610.28 1272.88,610.142 1282.17,610.178 1291.74,610.136 1301.62,610.23 1312.39,610.343 1320.15,610.387 1327.92,610.56 1336.69,610.68 1347.96,610.878 1355.23,610.916 1362.5,611.085 1371.37,611.193 1382.14,611.299 1390.37,611.316 1398.6,611.421 1407.44,611.404 1417.08,611.464 1426.6,611.381 1435.22,611.47 1443.63,611.35 1452.49,611.408 1461.79,611.325 1471.39,611.362 1481.28,611.315 1492.07,611.302 1499.79,611.388 1507.51,611.344 1516.3,611.369 1527.98,611.357 1534.95,611.505 1541.92,611.47 1550.79,611.452 1561.41,611.508 1572.42,611.619 1578.78,611.434 1585.14,611.489 1593.69,611.645 1601.93,611.513 1610.83,611.614 1620.01,611.538 1629.8,611.575 1640.58,611.578 1648.16,611.487 1655.75,611.531 1664.59,611.529 1678.94,611.629 1684.37,611.372 1689.81,611.133 1695.99,611.677 1702.17,611.541 1710.02,611.424 1718.87,611.552 1727.62,611.463 1736.99,611.535 1746.88,611.503 1758.2,611.463 1764.89,611.602 1771.57,611.574 1780.53,611.473 1789.34,611.565 1799.15,611.511 1809.63,611.493 1816.99,611.575 1824.36,611.534 1833.4,611.501 1845.45,611.477 1852.35,611.565 1859.25,611.568 1868.64,611.452 1877.21,611.545 1887.6,611.493 1897.65,611.441 1904.51,611.565 1911.37,611.542 1920.49,611.453 1929.55,611.527 1939.95,611.506 1948.58,611.463 1957.22,611.542 1965.43,611.468 1973.81,611.525 1982.9,611.482 1992.6,611.539 2001.85,611.454 2010.37,611.555 2018.97,611.463 2028.03,611.535 2037.48,611.475 2047.22,611.521 2057.48,611.503 2067.17,611.457 2074.79,611.554 2082.41,611.487 2091.31,611.501 2103.01,611.456 2110.11,611.575 2117.21,611.498 2125.98,611.484 2136.35,611.492 2146.72,611.555 2155.69,611.39 2162.88,611.595 2170.29,611.473 2178.7,611.504 2189.21,611.48 2197.63,611.54 2206.04,611.47 2215,611.527 2224.44,611.469 2233.8,611.538 2242.85,611.461 2251.97,611.532 2261.52,611.477 2271.65,611.503 2283.56,611.589 2289.66,611.363 2295.75,611.389 2304.26,611.602 2311.92,611.418 2318,611.551 " />
</g>

<g fill="none" stroke="#dd5400" stroke-opacity="1" stroke-width="4" stroke-linecap="butt" stroke-linejoin="round" transform="matrix(0.5,0,0,0.5,0,0)"
font-family="Helvetica" font-size="60" font-weight="700" font-style="normal" 
>
<polyline fill="none" vector-effect="none" points="333,611.5 372.7,611.5 412.4,611.5 452.1,611.5 491.8,611.5 531.5,611.5 531.5,611.5 531.5,611.5 533.366,611.49 534.882,611.387 537.054,611.007 539.634,610.035 542.698,608.306 546.136,606.028 549.314,603.839 552.665,601.873 557.129,599.471 560.789,596.706 565.048,593.882 569.657,590.89 573.949,588.16 579.911,585.29 584.713,582.615 590.969,580.45 596.679,578.795 603.248,577.871 611.393,577.838 618.753,578.988 626.75,581.25 635.731,584.839 645.728,589.843 655.457,595.695 664.125,601.315 672.677,606.367 681.744,611.03 691.23,615.146 701.201,618.402 712.323,620.596 719.336,621.455 726.35,621.451 735.343,620.867 745.372,619.543 756.463,617.541 763.025,615.648 769.586,614.238 778.466,612.659 786.984,611.095 796.397,609.822 806.104,608.912 818.2,608.471 823.854,608.542 827.703,608.723 830.687,608.913 833.67,609.298 836.425,610.328 839.271,612.076 843.111,614.683 846.525,617.503 849.752,619.883 853.548,622.394 857.343,625.337 861.18,628.486 865.34,631.72 869.5,634.841 874.889,638.13 879.865,641.394 885.811,644.306 891.435,646.67 897.648,648.283 903.86,649.092 911.741,648.849 920.615,647.107 929.395,643.765 938.821,639.01 948.789,632.965 960.547,625.664 966.761,619.668 972.974,615.795 981.674,611.594 989.479,607.639 998.03,604.599 1006.75,602.383 1015.95,601.168 1025.55,600.987 1035.66,601.82 1047.36,603.665 1053.67,605.616 1059.99,607.13 1068.66,608.924 1076.74,610.821 1085.56,612.488 1094.57,613.878 1104.13,614.846 1114.35,615.313 1124.01,615.221 1131.61,614.753 1139.22,614.08 1148.13,613.165 1160.05,611.852 1166.97,610.644 1173.9,609.796 1182.65,608.949 1193.8,608.089 1202.33,607.518 1210.87,607.267 1219.3,607.25 1228,607.432 1237.17,607.814 1246.43,608.352 1255.29,608.979 1263.96,609.621 1272.88,610.256 1282.17,610.858 1291.74,611.385 1301.62,611.8 1312.39,612.076 1320.15,612.195 1327.92,612.189 1336.69,612.11 1347.96,611.921 1355.23,611.701 1362.5,611.501 1371.37,611.284 1382.14,611.038 1390.37,610.845 1398.6,610.717 1407.44,610.641 1417.08,610.613 1426.6,610.65 1435.22,610.731 1443.63,610.846 1452.49,610.984 1461.79,611.145 1471.39,611.313 1481.28,611.473 1492.07,611.62 1499.79,611.715 1507.51,611.778 1516.3,611.811 1527.98,611.823 1534.95,611.798 1541.92,611.773 1550.79,611.724 1561.41,611.658 1572.42,611.574 1578.78,611.522 1585.14,611.474 1593.69,611.435 1601.93,611.4 1610.83,611.377 1620.01,611.366 1629.8,611.371 1640.58,611.387 1648.16,611.418 1655.75,611.44 1664.59,611.473 1678.94,611.511 1684.37,611.563 1689.81,611.565 1695.99,611.572 1702.17,611.593 1710.02,611.599 1718.87,611.604 1727.62,611.603 1736.99,611.596 1746.88,611.581 1758.2,611.566 1764.89,611.541 1771.57,611.533 1780.53,611.516 1789.34,611.502 1799.15,611.487 1809.63,611.48 1816.99,611.469 1824.36,611.472 1833.4,611.471 1845.45,611.478 1852.35,611.477 1859.25,611.489 1868.64,611.494 1877.21,611.503 1887.6,611.508 1897.65,611.519 1904.51,611.515 1911.37,611.523 1920.49,611.522 1929.55,611.523 1939.95,611.519 1948.58,611.52 1957.22,611.511 1965.43,611.511 1973.81,611.504 1982.9,611.502 1992.6,611.496 2001.85,611.495 2010.37,611.491 2018.97,611.491 2028.03,611.49 2037.48,611.491 2047.22,611.492 2057.48,611.493 2067.17,611.498 2074.79,611.495 2082.41,611.501 2091.31,611.5 2103.01,611.504 2110.11,611.501 2117.21,611.506 2125.98,611.504 2136.35,611.505 2146.72,611.501 2155.69,611.505 2162.88,611.499 2170.29,611.503 2178.7,611.499 2189.21,611.5 2197.63,611.497 2206.04,611.499 2215,611.497 2224.44,611.498 2233.8,611.497 2242.85,611.498 2251.97,611.498 2261.52,611.498 2271.65,611.5 2283.56,611.496 2289.66,611.507 2295.75,611.498 2304.26,611.5 2311.92,611.501 2318,611.5 " />
</g>

<g fill="none" stroke="#edb120" stroke-opacity="1" stroke-width="4" stroke-linecap="butt" stroke-linejoin="round" transform="matrix(0.5,0,0,0.5,0,0)"
font-family="Helvetica" font-size="60" font-weight="700" font-style="normal" 
>
<polyline fill="none" vector-effect="none" points="333,611.5 372.7,611.5 412.4,611.5 452.1,611.5 491.8,611.5 531.5,611.5 531.5,611.5 531.5,611.5 533.366,418.854 534.882,173.843 537.054,114.231 539.634,280.68 542.698,609.657 546.136,834.87 549.314,782.782 552.665,603.882 557.129,503.406 560.789,572.278 565.048,655.773 569.657,645.85 573.949,595.469 579.911,596.169 584.713,622.326 590.969,615.385 596.679,606.392 603.248,613.122 611.393,611.834 618.753,611.054 626.75,612.032 635.731,611.093 645.728,611.616 655.457,611.548 664.125,611.078 672.677,611.84 681.744,611.102 691.23,612.072 701.201,610.787 712.323,612.763 719.336,609.406 726.35,613.246 735.343,610.766 745.372,612.666 756.463,610.218 763.025,614.608 769.586,609.528 778.466,612.516 786.984,610.676 796.397,612.405 806.104,610.462 818.2,613.138 823.854,606.254 827.703,613.803 830.687,694.499 833.67,1052.29 836.425,1033.48 839.271,734.538 843.111,431.721 846.525,415.279 849.752,588.06 853.548,713.733 857.343,683.145 861.18,588.156 865.34,561.083 869.5,605.867 874.889,634.884 879.865,611.488 885.811,601.036 891.435,614.781 897.648,613.696 903.86,608.861 911.741,612.373 920.615,610.907 929.395,612.181 938.821,610.883 948.789,612.511 960.547,610.192 966.761,615.316 972.974,608.958 981.674,612.349 989.479,610.815 998.03,611.754 1006.75,611.082 1015.95,611.766 1025.55,610.781 1035.66,612.171 1047.36,610.048 1053.67,614.715 1059.99,608.951 1068.66,612.236 1076.74,610.67 1085.56,611.917 1094.57,610.88 1104.13,612.153 1114.35,610.542 1124.01,612.656 1131.61,610.25 1139.22,612.536 1148.13,610.876 1160.05,612.228 1166.97,609.819 1173.9,612.964 1182.65,610.726 1193.8,612.529 1202.33,609.828 1210.87,612.747 1219.3,610.531 1228,612.164 1237.17,611.007 1246.43,611.732 1255.29,611.408 1263.96,611.423 1272.88,611.625 1282.17,611.208 1291.74,611.968 1301.62,610.771 1312.39,612.576 1320.15,609.863 1327.92,612.731 1336.69,610.706 1347.96,612.274 1355.23,610.06 1362.5,612.697 1371.37,610.788 1382.14,612.27 1390.37,610.418 1398.6,612.319 1407.44,610.935 1417.08,611.864 1426.6,611.375 1435.22,611.413 1443.63,611.612 1452.49,611.351 1461.79,611.766 1471.39,611.027 1481.28,612.227 1492.07,610.424 1499.79,613.17 1507.51,610.265 1516.3,612.314 1527.98,610.656 1534.95,613.416 1541.92,610.012 1550.79,612.325 1561.41,610.514 1572.42,612.992 1578.78,608.264 1585.14,613.901 1593.69,610.611 1601.93,612.21 1610.83,610.941 1620.01,612.14 1629.8,610.691 1640.58,612.643 1648.16,609.687 1655.75,612.826 1664.59,610.653 1678.94,613.572 1684.37,602.063 1689.81,615.39 1695.99,613.857 1702.17,608.961 1710.02,612.438 1718.87,610.928 1727.62,612.112 1736.99,610.839 1746.88,612.376 1758.2,610.226 1764.89,614.251 1771.57,609.566 1780.53,612.417 1789.34,610.545 1799.15,612.516 1809.63,610.143 1816.99,613.536 1824.36,610.053 1833.4,612.381 1845.45,610.141 1852.35,614.712 1859.25,609.473 1868.64,612.592 1877.21,610.221 1887.6,612.838 1897.65,609.632 1904.51,614.177 1911.37,609.673 1920.49,612.447 1929.55,610.449 1939.95,612.729 1948.58,609.883 1957.22,612.718 1965.43,610.543 1973.81,612.202 1982.9,611.021 1992.6,611.773 2001.85,611.472 2010.37,611.364 2018.97,611.657 2028.03,611.275 2037.48,611.881 2047.22,610.892 2057.48,612.405 2067.17,610.397 2074.79,612.733 2082.41,610.52 2091.31,612.145 2103.01,610.865 2110.11,612.931 2117.21,610.258 2125.98,612.236 2136.35,610.76 2146.72,612.362 2155.69,610.815 2162.88,612.304 2170.29,610.543 2178.7,612.161 2189.21,610.991 2197.63,612.113 2206.04,611.05 2215,611.786 2224.44,611.397 2233.8,611.38 2242.85,611.823 2251.97,611.043 2261.52,612.113 2271.65,610.631 2283.56,612.855 2289.66,607.513 2295.75,614.299 2304.26,610.715 2311.92,611.981 2318,611.747 " />
</g>

<g fill="#ffffff" fill-opacity="1" stroke="none" transform="matrix(5e-05,0,0,5e-05,0,0)"
font-family="Helvetica" font-size="60" font-weight="700" font-style="normal" 
>
<path vector-effect="none" fill-rule="evenodd" d="M2.012e+07,1.12e+06 L2.012e+07,3.2e+06 L2.302e+07,3.2e+06 L2.302e+07,1.12e+06 L2.012e+07,1.12e+06"/>
</g>

<g fill="#1171be" fill-opacity="1" stroke="#1171be" stroke-opacity="1" stroke-width="4" stroke-linecap="butt" stroke-linejoin="round" transform="matrix(0.5,0,0,0.5,0,0)"
font-family="Helvetica" font-size="60" font-weight="700" font-style="normal" 
>
<polyline fill="none" vector-effect="none" points="2017.99,148.412 2077.89,148.412 " />
</g>

<g fill="#dd5400" fill-opacity="1" stroke="#dd5400" stroke-opacity="1" stroke-width="4" stroke-linecap="butt" stroke-linejoin="round" transform="matrix(0.5,0,0,0.5,0,0)"
font-family="Helvetica" font-size="60" font-weight="700" font-style="normal" 
>
<polyline fill="none" vector-effect="none" points="2017.99,216 2077.89,216 " />
</g>

<g fill="#edb120" fill-opacity="1" stroke="#edb120" stroke-opacity="1" stroke-width="4" stroke-linecap="butt" stroke-linejoin="round" transform="matrix(0.5,0,0,0.5,0,0)"
font-family="Helvetica" font-size="60" font-weight="700" font-style="normal" 
>
<polyline fill="none" vector-effect="none" points="2017.99,283.588 2077.89,283.588 " />
</g>

<g fill="#212121" fill-opacity="1" stroke="#212121" stroke-opacity="1" stroke-width="1" stroke-linecap="square" stroke-linejoin="bevel" transform="matrix(0.5,0,0,0.5,1041.19,84.7062)"
font-family="Helvetica" font-size="60" font-weight="400" font-style="normal" 
>
<text fill="#212121" fill-opacity="1" stroke="none" xml:space="preserve" x="0" y="0" font-family="Helvetica" font-size="60" font-weight="400" font-style="normal" 
 >Chassis</text>
</g>

<g fill="#212121" fill-opacity="1" stroke="#212121" stroke-opacity="1" stroke-width="1" stroke-linecap="square" stroke-linejoin="bevel" transform="matrix(0.5,0,0,0.5,1041.19,118.5)"
font-family="Helvetica" font-size="60" font-weight="400" font-style="normal" 
>
<text fill="#212121" fill-opacity="1" stroke="none" xml:space="preserve" x="0" y="0" font-family="Helvetica" font-size="60" font-weight="400" font-style="normal" 
 >Seat</text>
</g>

<g fill="#212121" fill-opacity="1" stroke="#212121" stroke-opacity="1" stroke-width="1" stroke-linecap="square" stroke-linejoin="bevel" transform="matrix(0.5,0,0,0.5,1041.19,152.294)"
font-family="Helvetica" font-size="60" font-weight="400" font-style="normal" 
>
<text fill="#212121" fill-opacity="1" stroke="none" xml:space="preserve" x="0" y="0" font-family="Helvetica" font-size="60" font-weight="400" font-style="normal" 
 >Wheel</text>
</g>

<g fill="none" stroke="#212121" stroke-opacity="1" stroke-width="1" stroke-linecap="butt" stroke-linejoin="miter" stroke-miterlimit="2" transform="matrix(0.5,0,0,0.5,0,0)"
font-family="Helvetica" font-size="60" font-weight="400" font-style="normal" 
>
<path vector-effect="none" fill-rule="evenodd" d="M2012,320 L2012,112 L2302,112 L2302,320 L2012,320"/>
</g>
</g>
</svg>
