<?xml version="1.0" encoding="UTF-8" standalone="no"?>
<svg width="451.908mm" height="225.778mm"
 viewBox="0 0 1281 640"
 xmlns="http://www.w3.org/2000/svg" xmlns:xlink="http://www.w3.org/1999/xlink"  version="1.2" baseProfile="tiny">
<title>Qt SVG Document</title>
<desc>MATLAB, The MathWorks, Inc. Version 25.2.0.2998904 R2025b</desc>
<defs>
</defs>
<g fill="none" stroke="black" stroke-width="1" fill-rule="evenodd" stroke-linecap="square" stroke-linejoin="bevel" >

<g fill="#ffffff" fill-opacity="1" stroke="none" transform="matrix(0.5,0,0,0.5,0,0)"
font-family="MS Shell Dlg 2" font-size="8" font-weight="400" font-style="normal" 
>
<path vector-effect="none" fill-rule="evenodd" d="M0,0 L2562,0 L2562,1281 L0,1281 L0,0"/>
</g>

<g fill="#ffffff" fill-opacity="1" stroke="none" transform="matrix(5e-05,0,0,5e-05,0,0)"
font-family="MS Shell Dlg 2" font-size="8" font-weight="400" font-style="normal" 
>
<path vector-effect="none" fill-rule="evenodd" d="M3.33e+06,960000 L3.33e+06,1.127e+07 L2.318e+07,1.127e+07 L2.318e+07,960000 L3.33e+06,960000"/>
</g>

<g fill="#212121" fill-opacity="0.14902" stroke="#212121" stroke-opacity="0.14902" stroke-width="1" stroke-linecap="butt" stroke-linejoin="round" transform="matrix(0.5,0,0,0.5,0,0)"
font-family="MS Shell Dlg 2" font-size="8" font-weight="400" font-style="normal" 
>
<polyline fill="none" vector-effect="none" points="333,96 333,1127 " />
<polyline fill="none" vector-effect="none" points="730,96 730,1127 " />
<polyline fill="none" vector-effect="none" points="1127,96 1127,1127 " />
<polyline fill="none" vector-effect="none" points="1524,96 1524,1127 " />
<polyline fill="none" vector-effect="none" points="1921,96 1921,1127 " />
<polyline fill="none" vector-effect="none" points="2318,96 2318,1127 " />
<polyline fill="none" vector-effect="none" points="333,1127 2318,1127 " />
<polyline fill="none" vector-effect="none" points="333,998.125 2318,998.125 " />
<polyline fill="none" vector-effect="none" points="333,869.25 2318,869.25 " />
<polyline fill="none" vector-effect="none" points="333,740.375 2318,740.375 " />
<polyline fill="none" vector-effect="none" points="333,611.5 2318,611.5 " />
<polyline fill="none" vector-effect="none" points="333,482.625 2318,482.625 " />
<polyline fill="none" vector-effect="none" points="333,353.75 2318,353.75 " />
<polyline fill="none" vector-effect="none" points="333,224.875 2318,224.875 " />
<polyline fill="none" vector-effect="none" points="333,96 2318,96 " />
</g>

<g fill="#212121" fill-opacity="1" stroke="#212121" stroke-opacity="1" stroke-width="1" stroke-linecap="square" stroke-linejoin="bevel" transform="matrix(0.5,0,0,0.5,608.25,633.5)"
font-family="Helvetica" font-size="60" font-weight="400" font-style="normal" 
>
<text fill="#212121" fill-opacity="1" stroke="none" xml:space="preserve" x="0" y="0" font-family="Helvetica" font-size="60" font-weight="400" font-style="normal" 
 >Time (s)</text>
</g>

<g fill="#212121" fill-opacity="1" stroke="#212121" stroke-opacity="1" stroke-width="1" stroke-linecap="square" stroke-linejoin="round" transform="matrix(0.5,0,0,0.5,0,0)"
font-family="Helvetica" font-size="60" font-weight="400" font-style="normal" 
>
<polyline fill="none" vector-effect="none" points="333,1127 2318,1127 " />
<polyline fill="none" vector-effect="none" points="333,96 2318,96 " />
<polyline fill="none" vector-effect="none" points="333,1127 333,1107.15 " />
<polyline fill="none" vector-effect="none" points="333,115.85 333,96 " />
<polyline fill="none" vector-effect="none" points="730,1127 730,1107.15 " />
<polyline fill="none" vector-effect="none" points="730,115.85 730,96 " />
<polyline fill="none" vector-effect="none" points="1127,1127 1127,1107.15 " />
<polyline fill="none" vector-effect="none" points="1127,115.85 1127,96 " />
<polyline fill="none" vector-effect="none" points="1524,1127 1524,1107.15 " />
<polyline fill="none" vector-effect="none" points="1524,115.85 1524,96 " />
<polyline fill="none" vector-effect="none" points="1921,1127 1921,1107.15 " />
<polyline fill="none" vector-effect="none" points="1921,115.85 1921,96 " />
<polyline fill="none" vector-effect="none" points="2318,1127 2318,1107.15 " />
<polyline fill="none" vector-effect="none" points="2318,115.85 2318,96 " />
</g>

<g fill="#212121" fill-opacity="1" stroke="#212121" stroke-opacity="1" stroke-width="1" stroke-linecap="square" stroke-linejoin="bevel" transform="matrix(0.5,0,0,0.5,158.25,599)"
font-family="Helvetica" font-size="60" font-weight="400" font-style="normal" 
>
<text fill="#212121" fill-opacity="1" stroke="none" xml:space="preserve" x="0" y="0" font-family="Helvetica" font-size="60" font-weight="400" font-style="normal" 
 >0</text>
</g>

<g fill="#212121" fill-opacity="1" stroke="#212121" stroke-opacity="1" stroke-width="1" stroke-linecap="square" stroke-linejoin="bevel" transform="matrix(0.5,0,0,0.5,356.75,599)"
font-family="Helvetica" font-size="60" font-weight="400" font-style="normal" 
>
<text fill="#212121" fill-opacity="1" stroke="none" xml:space="preserve" x="0" y="0" font-family="Helvetica" font-size="60" font-weight="400" font-style="normal" 
 >2</text>
</g>

<g fill="#212121" fill-opacity="1" stroke="#212121" stroke-opacity="1" stroke-width="1" stroke-linecap="square" stroke-linejoin="bevel" transform="matrix(0.5,0,0,0.5,555.25,599)"
font-family="Helvetica" font-size="60" font-weight="400" font-style="normal" 
>
<text fill="#212121" fill-opacity="1" stroke="none" xml:space="preserve" x="0" y="0" font-family="Helvetica" font-size="60" font-weight="400" font-style="normal" 
 >4</text>
</g>

<g fill="#212121" fill-opacity="1" stroke="#212121" stroke-opacity="1" stroke-width="1" stroke-linecap="square" stroke-linejoin="bevel" transform="matrix(0.5,0,0,0.5,753.75,599)"
font-family="Helvetica" font-size="60" font-weight="400" font-style="normal" 
>
<text fill="#212121" fill-opacity="1" stroke="none" xml:space="preserve" x="0" y="0" font-family="Helvetica" font-size="60" font-weight="400" font-style="normal" 
 >6</text>
</g>

<g fill="#212121" fill-opacity="1" stroke="#212121" stroke-opacity="1" stroke-width="1" stroke-linecap="square" stroke-linejoin="bevel" transform="matrix(0.5,0,0,0.5,952.25,599)"
font-family="Helvetica" font-size="60" font-weight="400" font-style="normal" 
>
<text fill="#212121" fill-opacity="1" stroke="none" xml:space="preserve" x="0" y="0" font-family="Helvetica" font-size="60" font-weight="400" font-style="normal" 
 >8</text>
</g>

<g fill="#212121" fill-opacity="1" stroke="#212121" stroke-opacity="1" stroke-width="1" stroke-linecap="square" stroke-linejoin="bevel" transform="matrix(0.5,0,0,0.5,1142.5,599)"
font-family="Helvetica" font-size="60" font-weight="400" font-style="normal" 
>
<text fill="#212121" fill-opacity="1" stroke="none" xml:space="preserve" x="0" y="0" font-family="Helvetica" font-size="60" font-weight="400" font-style="normal" 
 >10</text>
</g>

<g fill="#212121" fill-opacity="1" stroke="#212121" stroke-opacity="1" stroke-width="1" stroke-linecap="square" stroke-linejoin="bevel" transform="matrix(0,-0.5,0.5,0,105.5,433.5)"
font-family="Helvetica" font-size="60" font-weight="400" font-style="normal" 
>
<text fill="#212121" fill-opacity="1" stroke="none" xml:space="preserve" x="0" y="0" font-family="Helvetica" font-size="60" font-weight="400" font-style="normal" 
 >Acceleration (m/s</text>
</g>

<g fill="#212121" fill-opacity="1" stroke="#212121" stroke-opacity="1" stroke-width="1" stroke-linecap="square" stroke-linejoin="bevel" transform="matrix(0,-0.5,0.5,0,90.5,202.5)"
font-family="Helvetica" font-size="48" font-weight="400" font-style="normal" 
>
<text fill="#212121" fill-opacity="1" stroke="none" xml:space="preserve" x="0" y="0" font-family="Helvetica" font-size="48" font-weight="400" font-style="normal" 
 >2</text>
</g>

<g fill="#212121" fill-opacity="1" stroke="#212121" stroke-opacity="1" stroke-width="1" stroke-linecap="square" stroke-linejoin="bevel" transform="matrix(0,-0.5,0.5,0,105.5,189)"
font-family="Helvetica" font-size="60" font-weight="400" font-style="normal" 
>
<text fill="#212121" fill-opacity="1" stroke="none" xml:space="preserve" x="0" y="0" font-family="Helvetica" font-size="60" font-weight="400" font-style="normal" 
 >)</text>
</g>

<g fill="#212121" fill-opacity="1" stroke="#212121" stroke-opacity="1" stroke-width="1" stroke-linecap="square" stroke-linejoin="round" transform="matrix(0.5,0,0,0.5,0,0)"
font-family="Helvetica" font-size="60" font-weight="400" font-style="normal" 
>
<polyline fill="none" vector-effect="none" points="333,1127 333,96 " />
<polyline fill="none" vector-effect="none" points="2318,1127 2318,96 " />
<polyline fill="none" vector-effect="none" points="333,1127 352.85,1127 " />
<polyline fill="none" vector-effect="none" points="2298.15,1127 2318,1127 " />
<polyline fill="none" vector-effect="none" points="333,998.125 352.85,998.125 " />
<polyline fill="none" vector-effect="none" points="2298.15,998.125 2318,998.125 " />
<polyline fill="none" vector-effect="none" points="333,869.25 352.85,869.25 " />
<polyline fill="none" vector-effect="none" points="2298.15,869.25 2318,869.25 " />
<polyline fill="none" vector-effect="none" points="333,740.375 352.85,740.375 " />
<polyline fill="none" vector-effect="none" points="2298.15,740.375 2318,740.375 " />
<polyline fill="none" vector-effect="none" points="333,611.5 352.85,611.5 " />
<polyline fill="none" vector-effect="none" points="2298.15,611.5 2318,611.5 " />
<polyline fill="none" vector-effect="none" points="333,482.625 352.85,482.625 " />
<polyline fill="none" vector-effect="none" points="2298.15,482.625 2318,482.625 " />
<polyline fill="none" vector-effect="none" points="333,353.75 352.85,353.75 " />
<polyline fill="none" vector-effect="none" points="2298.15,353.75 2318,353.75 " />
<polyline fill="none" vector-effect="none" points="333,224.875 352.85,224.875 " />
<polyline fill="none" vector-effect="none" points="2298.15,224.875 2318,224.875 " />
<polyline fill="none" vector-effect="none" points="333,96 352.85,96 " />
<polyline fill="none" vector-effect="none" points="2298.15,96 2318,96 " />
</g>

<g fill="#212121" fill-opacity="1" stroke="#212121" stroke-opacity="1" stroke-width="1" stroke-linecap="square" stroke-linejoin="bevel" transform="matrix(0.5,0,0,0.5,115.5,574)"
font-family="Helvetica" font-size="60" font-weight="400" font-style="normal" 
>
<text fill="#212121" fill-opacity="1" stroke="none" xml:space="preserve" x="0" y="0" font-family="Helvetica" font-size="60" font-weight="400" font-style="normal" 
 >-30</text>
</g>

<g fill="#212121" fill-opacity="1" stroke="#212121" stroke-opacity="1" stroke-width="1" stroke-linecap="square" stroke-linejoin="bevel" transform="matrix(0.5,0,0,0.5,115.5,509.563)"
font-family="Helvetica" font-size="60" font-weight="400" font-style="normal" 
>
<text fill="#212121" fill-opacity="1" stroke="none" xml:space="preserve" x="0" y="0" font-family="Helvetica" font-size="60" font-weight="400" font-style="normal" 
 >-20</text>
</g>

<g fill="#212121" fill-opacity="1" stroke="#212121" stroke-opacity="1" stroke-width="1" stroke-linecap="square" stroke-linejoin="bevel" transform="matrix(0.5,0,0,0.5,115.5,445.125)"
font-family="Helvetica" font-size="60" font-weight="400" font-style="normal" 
>
<text fill="#212121" fill-opacity="1" stroke="none" xml:space="preserve" x="0" y="0" font-family="Helvetica" font-size="60" font-weight="400" font-style="normal" 
 >-10</text>
</g>

<g fill="#212121" fill-opacity="1" stroke="#212121" stroke-opacity="1" stroke-width="1" stroke-linecap="square" stroke-linejoin="bevel" transform="matrix(0.5,0,0,0.5,142,380.688)"
font-family="Helvetica" font-size="60" font-weight="400" font-style="normal" 
>
<text fill="#212121" fill-opacity="1" stroke="none" xml:space="preserve" x="0" y="0" font-family="Helvetica" font-size="60" font-weight="400" font-style="normal" 
 >0</text>
</g>

<g fill="#212121" fill-opacity="1" stroke="#212121" stroke-opacity="1" stroke-width="1" stroke-linecap="square" stroke-linejoin="bevel" transform="matrix(0.5,0,0,0.5,125.5,316.25)"
font-family="Helvetica" font-size="60" font-weight="400" font-style="normal" 
>
<text fill="#212121" fill-opacity="1" stroke="none" xml:space="preserve" x="0" y="0" font-family="Helvetica" font-size="60" font-weight="400" font-style="normal" 
 >10</text>
</g>

<g fill="#212121" fill-opacity="1" stroke="#212121" stroke-opacity="1" stroke-width="1" stroke-linecap="square" stroke-linejoin="bevel" transform="matrix(0.5,0,0,0.5,125.5,251.813)"
font-family="Helvetica" font-size="60" font-weight="400" font-style="normal" 
>
<text fill="#212121" fill-opacity="1" stroke="none" xml:space="preserve" x="0" y="0" font-family="Helvetica" font-size="60" font-weight="400" font-style="normal" 
 >20</text>
</g>

<g fill="#212121" fill-opacity="1" stroke="#212121" stroke-opacity="1" stroke-width="1" stroke-linecap="square" stroke-linejoin="bevel" transform="matrix(0.5,0,0,0.5,125.5,187.375)"
font-family="Helvetica" font-size="60" font-weight="400" font-style="normal" 
>
<text fill="#212121" fill-opacity="1" stroke="none" xml:space="preserve" x="0" y="0" font-family="Helvetica" font-size="60" font-weight="400" font-style="normal" 
 >30</text>
</g>

<g fill="#212121" fill-opacity="1" stroke="#212121" stroke-opacity="1" stroke-width="1" stroke-linecap="square" stroke-linejoin="bevel" transform="matrix(0.5,0,0,0.5,125.5,122.938)"
font-family="Helvetica" font-size="60" font-weight="400" font-style="normal" 
>
<text fill="#212121" fill-opacity="1" stroke="none" xml:space="preserve" x="0" y="0" font-family="Helvetica" font-size="60" font-weight="400" font-style="normal" 
 >40</text>
</g>

<g fill="#212121" fill-opacity="1" stroke="#212121" stroke-opacity="1" stroke-width="1" stroke-linecap="square" stroke-linejoin="bevel" transform="matrix(0.5,0,0,0.5,125.5,58.5)"
font-family="Helvetica" font-size="60" font-weight="400" font-style="normal" 
>
<text fill="#212121" fill-opacity="1" stroke="none" xml:space="preserve" x="0" y="0" font-family="Helvetica" font-size="60" font-weight="400" font-style="normal" 
 >50</text>
</g>

<g fill="#212121" fill-opacity="1" stroke="#212121" stroke-opacity="1" stroke-width="1" stroke-linecap="square" stroke-linejoin="bevel" transform="matrix(0.5,0,0,0.5,262.25,37.75)"
font-family="Helvetica" font-size="60" font-weight="700" font-style="normal" 
>
<text fill="#212121" fill-opacity="1" stroke="none" xml:space="preserve" x="0" y="0" font-family="Helvetica" font-size="60" font-weight="700" font-style="normal" 
 >Acceleration of Quarter Car Model (Wavy Road; Control)</text>
</g>

<g fill="none" stroke="#1171be" stroke-opacity="1" stroke-width="4" stroke-linecap="butt" stroke-linejoin="round" transform="matrix(0.5,0,0,0.5,0,0)"
font-family="Helvetica" font-size="60" font-weight="700" font-style="normal" 
>
<polyline fill="none" vector-effect="none" points="333,740.375 334.015,739.4 335.03,733.894 336.461,721.503 338.572,698.233 341.046,670.681 343.923,655.459 347.311,661.388 350.375,676.058 353.641,681.561 357.136,675.652 360.631,668.316 364.391,669.57 368.876,678.332 372.843,685.127 377.34,688.185 381.837,693.035 388.259,703.236 393.557,714.716 398.856,722.014 404.326,729.424 409.612,737.066 414.899,744.766 419.974,751.272 426.11,754.588 431.782,757.355 436.693,759.843 441.603,763.544 446.225,764.26 451.47,762.242 456.716,760.797 461.232,760.203 465.748,761.948 470.191,761.621 475.163,758.244 480.134,755.575 489.927,755.221 494.427,757.89 498.928,755.258 503.722,752.639 509.57,752.546 514.491,755.715 518.745,758.485 524.27,756.703 529.2,755.012 533.882,755.419 538.565,758.395 542.818,762.295 547.571,761.163 552.565,758.402 557.811,757.801 562.981,759.687 568.15,763.417 572.557,761.136 577.393,757.437 582.701,755.675 585.938,755.632 589.175,758.226 593.318,759.353 598.46,755.55 603.246,750.933 609.051,748.84 613.896,750.364 617.965,752.589 622.901,749.047 627.667,744.36 633.04,742.515 637.507,743.75 641.974,747.356 646.289,745.898 651.308,741.873 656.11,740.336 659.778,740.512 663.445,744.109 667.444,747.522 672.194,746.091 677.033,743.07 682.102,742.961 687.591,745.786 691.841,751.317 696.09,751.208 701.102,748.627 705.908,748.359 709.797,749.497 713.686,753.832 717.723,757.38 722.756,755.957 727.553,753.514 733.044,753.671 737.361,756.326 741.678,760.691 746.092,760.098 751.184,756.876 756.042,755.855 759.963,756.195 763.884,759.385 768.03,761.311 773.457,758.52 778.298,755.424 783.085,754.641 787.871,756.072 792.218,758.611 797.011,756.405 802.056,752.807 807.419,751.383 812.502,752.053 817.585,753.953 822.325,751.601 827.474,748.495 833.253,747.116 838.644,748.047 843.191,749.298 848.823,746.504 853.926,744.029 858.869,743.411 863.811,744.451 868.531,745.102 874.604,742.83 880.002,741.145 885.016,740.845 890.031,742.127 894.917,742.119 900.348,740.404 905.778,739.614 911.531,739.759 917.285,740.817 922.71,740.135 928.942,739.315 936.273,739.475 942.461,740.011 948.887,739.756 956.329,739.607 964.604,739.719 972.878,739.72 983.108,739.994 989.633,739.414 996.157,739.233 1002.61,739.772 1009.06,739.73 1015.53,738.415 1020.89,737.999 1026.97,738.845 1033.05,738.851 1039.3,737.025 1044.31,735.68 1049.67,736.884 1055.03,737.247 1059.57,736.747 1064.1,734.154 1068.69,732.888 1073.89,734.29 1079.09,735.085 1083.96,734.583 1088.84,731.7 1093.3,730.019 1098.42,731.611 1103.53,732.812 1108.31,732.531 1113.08,729.768 1117.45,727.361 1122.91,729.083 1127.99,730.946 1132.76,730.943 1137.52,728.385 1141.84,725.36 1146.82,726.995 1151.84,729.585 1157.49,730.052 1162.61,727.368 1166.83,723.999 1171.85,726.171 1176.68,729.173 1182.34,729.76 1187.37,727.137 1191.54,723.513 1196.4,725.7 1201.2,729.108 1206.55,729.883 1211.15,728.072 1215.74,724.116 1220.08,725.143 1225.17,728.745 1230.05,730.194 1233.93,730.034 1237.8,726.304 1241.82,723.851 1247.04,726.644 1251.76,730.065 1257.59,730.612 1262.39,727.57 1266.45,724.067 1271.34,726.41 1276.11,730.02 1281.41,730.836 1286.9,728.324 1291.38,724.343 1296.04,726.498 1300.83,729.892 1306.12,730.761 1311.65,728.586 1316.06,724.417 1320.47,726.152 1325.32,729.603 1330.37,730.666 1336.01,729.172 1341.07,724.66 1345.37,726.246 1350.2,729.622 1355.25,730.682 1360.91,729.322 1365.75,725.089 1370.11,726.442 1375.06,729.81 1380.08,730.946 1384.65,730.282 1389.23,726.534 1393.44,726.235 1398.17,729.392 1402.91,731.391 1407.45,731.577 1412,729.309 1416.29,727.043 1421.41,729.149 1426.44,731.965 1432.3,732.586 1437.4,730.588 1441.79,728.702 1447.35,731.157 1452.37,733.504 1457.23,733.854 1462.09,732.265 1466.63,730.733 1472.12,732.803 1477.35,734.891 1482.41,735.258 1487.46,733.904 1492.17,732.95 1498.26,735.014 1503.64,736.507 1508.66,736.679 1513.68,735.325 1518.56,735.344 1524.01,737.101 1529.46,737.965 1535.33,737.93 1541.19,737.091 1546.66,738.084 1552.82,739.116 1558.97,739.324 1565.12,739.122 1571.32,739.653 1579.05,740.348 1587.45,740.708 1595.88,741.277 1604.85,741.507 1611.85,742.205 1618.84,743.062 1625.57,742.709 1632.49,742.902 1639.12,744.343 1644.49,744.863 1650.56,744.014 1656.63,743.995 1662.86,745.733 1667.88,746.992 1673.26,745.664 1678.63,745.135 1683.18,745.467 1687.72,747.894 1692.31,748.976 1697.5,747.368 1702.7,746.351 1707.56,746.631 1712.43,749.294 1716.89,750.782 1722.01,748.993 1727.13,747.581 1731.9,747.674 1736.68,750.266 1741.05,752.535 1746.51,750.681 1751.58,748.689 1756.35,748.593 1761.13,751.074 1765.44,754.058 1770.42,752.394 1775.44,749.79 1781.08,749.33 1786.21,752.043 1790.43,755.473 1795.44,753.369 1800.28,750.446 1805.92,749.955 1810.97,752.686 1815.13,756.445 1819.99,754.382 1824.79,751.096 1830.12,750.457 1834.77,752.4 1839.42,756.505 1843.76,755.53 1848.82,752.07 1853.72,750.777 1857.65,751.101 1861.58,755.021 1865.6,757.376 1871.03,754.436 1875.72,751.23 1880.36,750.753 1885,752.993 1889.19,757.31 1893.6,756.104 1898.57,752.23 1903.36,750.836 1907.02,750.964 1910.68,754.368 1914.68,757.393 1919.45,755.378 1924.28,751.636 1929.37,750.646 1934.85,752.411 1940,756.846 1944.33,754.811 1949.07,751.413 1954.25,750.405 1959.8,752.004 1964.07,756.24 1968.33,755.054 1973.36,751.43 1978.21,750.001 1982,750.047 1985.79,753.232 1989.86,755.706 1994.89,753.372 1999.73,750.035 2005.25,749.258 2009.58,751 2013.91,754.484 2018.39,753.307 2023.52,749.839 2028.47,748.642 2032.81,749.037 2037.15,752.232 2041.41,752.974 2046.19,750.152 2050.96,748.016 2055.69,747.693 2060.41,749.512 2064.83,751.684 2069.94,749.762 2075.08,747.212 2081.04,746.71 2086.22,748.496 2090.74,749.864 2096.74,747.506 2101.89,745.723 2110.43,746.064 2115.22,748.231 2120.01,746.585 2125.27,744.616 2131.43,744.345 2136.82,745.519 2141.78,745.758 2147.33,744.091 2152.88,743.16 2158.56,743.097 2164.23,743.996 2169.6,743.17 2175.91,741.99 2182.86,741.738 2189.08,741.858 2195.42,741.253 2203.14,740.561 2212.36,740.092 2221.05,739.478 2231.3,739.132 2237.94,738.002 2244.59,737.689 2253.37,737.889 2261.02,736.838 2267.74,735.582 2274.34,736.595 2280.45,736.44 2286.4,734.798 2291.43,733.587 2296.95,734.838 2302.46,735.412 2307.23,734.988 2312,732.399 2316.6,731.748 2318,732.782 " />
</g>

<g fill="none" stroke="#dd5400" stroke-opacity="1" stroke-width="4" stroke-linecap="butt" stroke-linejoin="round" transform="matrix(0.5,0,0,0.5,0,0)"
font-family="Helvetica" font-size="60" font-weight="700" font-style="normal" 
>
<polyline fill="none" vector-effect="none" points="333,740.375 334.015,740.373 335.03,740.345 336.461,740.21 338.572,739.707 341.046,738.417 343.923,736.088 347.311,732.721 350.375,729.055 353.641,725.369 357.136,721.102 360.631,716.143 364.391,710.535 368.876,704.019 372.843,697.462 377.34,691.085 381.837,684.626 388.259,677.677 393.557,671.724 398.856,668.02 404.326,666.006 409.612,665.912 414.899,667.799 419.974,671.595 426.11,677.758 431.782,686.19 436.693,695.265 441.603,704.83 446.225,714.97 451.47,726.001 456.716,737.971 461.232,749.101 465.748,759.242 470.191,769.026 475.163,778.706 480.134,788.004 489.927,799.622 494.427,808.718 498.928,813.008 503.722,816.139 509.57,818.115 514.491,818.579 518.745,817.893 524.27,816.016 529.2,812.741 533.882,808.673 538.565,803.927 542.818,798.939 547.571,793.514 552.565,787.154 557.811,780.067 562.981,772.678 568.15,765.507 572.557,759.098 577.393,753.049 582.701,746.651 585.938,741.558 589.175,738.002 593.318,734.351 598.46,730.256 603.246,726.343 609.051,722.773 613.896,719.898 617.965,718.232 622.901,717.164 627.667,716.464 633.04,716.223 637.507,716.501 641.974,717.34 646.289,718.656 651.308,720.359 656.11,722.386 659.778,724.342 663.445,726.236 667.444,728.499 672.194,731.308 677.033,734.431 682.102,737.648 687.591,741.104 691.841,744.449 696.09,747.466 701.102,750.625 705.908,753.753 709.797,756.356 713.686,758.6 717.723,760.896 722.756,763.404 727.553,765.781 733.044,767.864 737.361,769.535 741.678,770.877 746.092,772.09 751.184,773.045 756.042,773.604 759.963,773.773 763.884,773.733 768.03,773.599 773.457,773.196 778.298,772.341 783.085,771.17 787.871,769.737 792.218,768.277 797.011,766.699 802.056,764.73 807.419,762.373 812.502,759.839 817.585,757.381 822.325,755.016 827.474,752.531 833.253,749.714 838.644,746.877 843.191,744.548 848.823,742.317 853.926,740.027 858.869,738.007 863.811,736.214 868.531,734.738 874.604,733.35 880.002,732.081 885.016,731.159 890.031,730.535 894.917,730.215 900.348,730.105 905.778,730.18 911.531,730.484 917.285,731.066 922.71,731.87 928.942,732.853 936.273,734.151 942.461,735.597 948.887,737.036 956.329,738.618 964.604,740.355 972.878,742.033 983.108,743.634 989.633,744.78 996.157,745.372 1002.61,745.738 1009.06,745.89 1015.53,745.789 1020.89,745.429 1026.97,744.912 1033.05,744.231 1039.3,743.367 1044.31,742.35 1049.67,741.309 1055.03,740.213 1059.57,739.175 1064.1,738.157 1068.69,737.018 1073.89,735.78 1079.09,734.539 1083.96,733.398 1088.84,732.296 1093.3,731.168 1098.42,730.044 1103.53,728.992 1108.31,728.106 1113.08,727.314 1117.45,726.513 1122.91,725.701 1127.99,725.032 1132.76,724.582 1137.52,724.245 1141.84,723.882 1146.82,723.535 1151.84,723.349 1157.49,723.36 1162.61,723.494 1166.83,723.538 1171.85,723.579 1176.68,723.795 1182.34,724.201 1187.37,724.697 1191.54,725.008 1196.4,725.262 1201.2,725.663 1206.55,726.217 1211.15,726.8 1215.74,727.211 1220.08,727.492 1225.17,727.849 1230.05,728.33 1233.93,728.786 1237.8,729.133 1241.82,729.323 1247.04,729.465 1251.76,729.704 1257.59,730.029 1262.39,730.315 1266.45,730.353 1271.34,730.273 1276.11,730.257 1281.41,730.319 1286.9,730.367 1291.38,730.205 1296.04,729.931 1300.83,729.724 1306.12,729.595 1311.65,729.471 1316.06,729.187 1320.47,728.825 1325.32,728.532 1330.37,728.338 1336.01,728.186 1341.07,727.904 1345.37,727.551 1350.2,727.312 1355.25,727.194 1360.91,727.147 1365.75,727.011 1370.11,726.807 1375.06,726.715 1380.08,726.769 1384.65,726.908 1389.23,727.003 1393.44,727.002 1398.17,727.06 1402.91,727.266 1407.45,727.567 1412,727.887 1416.29,728.11 1421.41,728.327 1426.44,728.688 1432.3,729.205 1437.4,729.76 1441.79,730.143 1447.35,730.525 1452.37,731.047 1457.23,731.61 1462.09,732.166 1466.63,732.608 1472.12,733.046 1477.35,733.593 1482.41,734.167 1487.46,734.714 1492.17,735.144 1498.26,735.588 1503.64,736.116 1508.66,736.61 1513.68,737.044 1518.56,737.384 1524.01,737.73 1529.46,738.125 1535.33,738.527 1541.19,738.879 1546.66,739.161 1552.82,739.464 1558.97,739.785 1565.12,740.073 1571.32,740.324 1579.05,740.61 1587.45,740.935 1595.88,741.276 1604.85,741.626 1611.85,741.945 1618.84,742.274 1625.57,742.613 1632.49,742.931 1639.12,743.27 1644.49,743.65 1650.56,744.006 1656.63,744.347 1662.86,744.701 1667.88,745.126 1673.26,745.529 1678.63,745.886 1683.18,746.186 1687.72,746.489 1692.31,746.883 1697.5,747.305 1702.7,747.675 1707.56,747.98 1712.43,748.293 1716.89,748.694 1722.01,749.109 1727.13,749.457 1731.9,749.722 1736.68,749.976 1741.05,750.323 1746.51,750.721 1751.58,751.031 1756.35,751.229 1761.13,751.401 1765.44,751.675 1770.42,752.003 1775.44,752.245 1781.08,752.378 1786.21,752.469 1790.43,752.682 1795.44,752.947 1800.28,753.106 1805.92,753.147 1810.97,753.147 1815.13,753.288 1819.99,753.495 1824.79,753.599 1830.12,753.578 1834.77,753.513 1839.42,753.573 1843.76,753.734 1848.82,753.819 1853.72,753.777 1857.65,753.677 1861.58,753.624 1865.6,753.707 1871.03,753.84 1875.72,753.843 1880.36,753.74 1885,753.609 1889.19,753.621 1893.6,753.742 1898.57,753.788 1903.36,753.702 1907.02,753.57 1910.68,753.477 1914.68,753.512 1919.45,753.619 1924.28,753.629 1929.37,753.509 1934.85,753.332 1940,753.31 1944.33,753.4 1949.07,753.384 1954.25,753.246 1959.8,753.043 1964.07,752.981 1968.33,753.034 1973.36,753.01 1978.21,752.855 1982,752.66 1985.79,752.508 1989.86,752.472 1994.89,752.477 1999.73,752.365 2005.25,752.125 2009.58,751.858 2013.91,751.731 2018.39,751.689 2023.52,751.561 2028.47,751.304 2032.81,751.016 2037.15,750.791 2041.41,750.679 2046.19,750.55 2050.96,750.306 2055.69,749.992 2060.41,749.67 2064.83,749.462 2069.94,749.29 2075.08,749.012 2081.04,748.618 2086.22,748.217 2090.74,747.969 2096.74,747.715 2101.89,747.347 2110.43,746.827 2115.22,746.396 2120.01,746.15 2125.27,745.823 2131.43,745.39 2136.82,744.968 2141.78,744.659 2147.33,744.34 2152.88,743.95 2158.56,743.535 2164.23,743.148 2169.6,742.813 2175.91,742.424 2182.86,741.957 2189.08,741.511 2195.42,741.107 2203.14,740.641 2212.36,740.078 2221.05,739.48 2231.3,738.868 2237.94,738.328 2244.59,737.869 2253.37,737.372 2261.02,736.879 2267.74,736.384 2274.34,735.934 2280.45,735.568 2286.4,735.227 2291.43,734.837 2296.95,734.465 2302.46,734.148 2307.23,733.894 2312,733.628 2316.6,733.282 2318,733.06 " />
</g>

<g fill="none" stroke="#edb120" stroke-opacity="1" stroke-width="4" stroke-linecap="butt" stroke-linejoin="round" transform="matrix(0.5,0,0,0.5,0,0)"
font-family="Helvetica" font-size="60" font-weight="700" font-style="normal" 
>
<polyline fill="none" vector-effect="none" points="333,740.375 334.015,601.203 335.03,365.475 336.461,186.999 338.572,141.406 341.046,362.569 343.923,754.681 347.311,1009.77 350.375,929.071 353.641,708.579 357.136,596.562 360.631,670.661 364.391,788.506 368.876,792.3 372.843,722.124 377.34,706.338 381.837,742.076 388.259,763.937 393.557,738.635 398.856,729.807 404.326,745.583 409.612,748.018 414.899,763.781 419.974,740.643 426.11,734.197 431.782,746.954 436.693,763.037 441.603,764.621 446.225,730.068 451.47,733.04 456.716,748.742 461.232,765.76 465.748,773.498 470.191,732.029 475.163,725.976 480.134,747.031 489.927,772.07 494.427,740.322 498.928,714.859 503.722,741.105 509.57,759.821 514.491,790.06 518.745,742.216 524.27,719.128 529.2,746.06 533.882,755.548 538.565,797.881 542.818,755.384 547.571,714.998 552.565,736.23 557.811,755.572 562.981,795.038 568.15,755.783 572.557,713.391 577.393,736.159 582.701,755.253 585.938,790.263 589.175,799.346 593.318,745.939 598.46,712.086 603.246,741.12 609.051,758.748 613.896,805.842 617.965,749.522 622.901,708.874 627.667,736.931 633.04,756.723 637.507,802.497 641.974,766.864 646.289,711.506 651.308,726.194 656.11,754.453 659.778,772.371 663.445,808.487 667.444,755.309 672.194,708.772 677.033,732.971 682.102,755.876 687.591,796.755 691.841,764.928 696.09,712.566 701.102,726.897 705.908,755.118 709.797,772.623 713.686,804.175 717.723,749.308 722.756,711.207 727.553,739.385 733.044,755.827 737.361,802.43 741.678,766.112 746.092,714.202 751.184,729.041 756.042,755.263 759.963,772.91 763.884,794.892 768.03,743.226 773.457,715.888 778.298,744.895 783.085,753.818 787.871,793.243 792.218,753.522 797.011,716.139 802.056,736.854 807.419,754.021 812.502,781.126 817.585,750.41 822.325,720.41 827.474,739.497 833.253,750.64 838.644,779.691 843.191,740.031 848.823,723.211 853.926,745.713 858.869,753.365 863.811,768.765 868.531,738.585 874.604,729.003 880.002,745.932 885.016,753.724 890.031,758.761 894.917,732.68 900.348,733.731 905.778,745.339 911.531,752.457 917.285,745.276 922.71,732.697 928.942,741.951 936.273,745.52 942.461,742.286 948.887,737.636 956.329,741.742 964.604,739.476 972.878,741.071 983.108,739.059 989.633,733.459 996.157,743.693 1002.61,740.041 1009.06,735.546 1015.53,727.675 1020.89,746.885 1026.97,741.884 1033.05,735.275 1039.3,716.995 1044.31,747.237 1049.67,748.038 1055.03,734.723 1059.57,723.099 1064.1,711.456 1068.69,746.194 1073.89,752.737 1079.09,734.707 1083.96,722.543 1088.84,705.532 1093.3,744.74 1098.42,755.527 1103.53,735.154 1108.31,723.764 1113.08,696.753 1117.45,737.772 1122.91,759.388 1127.99,736.02 1132.76,725.517 1137.52,689.066 1141.84,731.206 1146.82,763.747 1151.84,741.037 1157.49,727.152 1162.61,681.595 1166.83,732.877 1171.85,767.633 1176.68,740.553 1182.34,726.415 1187.37,676.792 1191.54,729.662 1196.4,770.125 1201.2,743.489 1206.55,723.445 1211.15,683.711 1215.74,714.279 1220.08,766.306 1225.17,752.079 1230.05,726.445 1233.93,703.147 1237.8,676.388 1241.82,735.405 1247.04,770.531 1251.76,738.892 1257.59,720.867 1262.39,673.365 1266.45,729.677 1271.34,771.642 1276.11,743.883 1281.41,722.491 1286.9,680.139 1291.38,728.316 1296.04,770.016 1300.83,744.568 1306.12,724.393 1311.65,681.938 1316.06,724.439 1320.47,769.639 1325.32,748.496 1330.37,725.568 1336.01,688.182 1341.07,720.174 1345.37,769.578 1350.2,748.736 1355.25,725.697 1360.91,691.276 1365.75,718.892 1370.11,767.516 1375.06,749.402 1380.08,726.429 1384.65,699.255 1389.23,701.938 1393.44,757.182 1398.17,759.953 1402.91,731.724 1407.45,720.826 1412,691.058 1416.29,733.288 1421.41,762.889 1426.44,739.813 1432.3,725.63 1437.4,696.246 1441.79,739.543 1447.35,759.731 1452.37,735.228 1457.23,726.179 1462.09,703.313 1466.63,738.167 1472.12,756.674 1477.35,736.408 1482.41,727.876 1487.46,711.274 1492.17,742.1 1498.26,751.6 1503.64,734.395 1508.66,726.587 1513.68,721.886 1518.56,748.007 1524.01,746.635 1529.46,735.132 1535.33,727.874 1541.19,736.308 1546.66,747.651 1552.82,738.26 1558.97,735.382 1565.12,736.81 1571.32,743.632 1579.05,739.144 1587.45,741.349 1595.88,739.637 1604.85,741.413 1611.85,747.062 1618.84,738.802 1625.57,739.92 1632.49,744.835 1639.12,753.708 1644.49,733.697 1650.56,739.09 1656.63,745.621 1662.86,763.964 1667.88,733.835 1673.26,732.75 1678.63,746.098 1683.18,757.709 1687.72,769.328 1692.31,734.552 1697.5,728.05 1702.7,746.057 1707.56,758.177 1712.43,775.255 1716.89,736.087 1722.01,725.123 1727.13,745.486 1731.9,756.832 1736.68,783.932 1741.05,742.942 1746.51,721.229 1751.58,744.568 1756.35,755.046 1761.13,791.607 1765.44,749.478 1770.42,716.867 1775.44,739.568 1781.08,753.4 1786.21,799.14 1790.43,747.858 1795.44,712.988 1800.28,740.064 1805.92,754.098 1810.97,804.06 1815.13,751.197 1819.99,710.515 1824.79,737.122 1830.12,757.22 1834.77,796.896 1839.42,765.764 1843.76,714.135 1848.82,729.111 1853.72,754.398 1857.65,779.109 1861.58,802.87 1865.6,742.575 1871.03,711.124 1875.72,744.615 1880.36,755.481 1885,807.359 1889.19,766.014 1893.6,710.682 1898.57,727.198 1903.36,756.108 1907.02,773.701 1910.68,809.023 1914.68,755.328 1919.45,709.286 1924.28,733.895 1929.37,756.225 1934.85,797.562 1940,756.736 1944.33,709.993 1949.07,734.209 1954.25,755.383 1959.8,794.849 1964.07,763.415 1968.33,713.319 1973.36,727.921 1978.21,754.6 1982,771.788 1985.79,801.382 1989.86,749.072 1994.89,712.039 1999.73,739.006 2005.25,754.37 2009.58,798.629 2013.91,762.891 2018.39,714.73 2023.52,730.384 2028.47,754.004 2032.81,775.149 2037.15,780.798 2041.41,729.914 2046.19,720.082 2050.96,746.266 2055.69,755.436 2060.41,784.972 2064.83,747.284 2069.94,719.9 2075.08,741.12 2081.04,754.3 2086.22,776.673 2090.74,738.362 2096.74,725.833 2101.89,747.322 2110.43,762.916 2115.22,744.671 2120.01,723.222 2125.27,741.155 2131.43,752.341 2136.82,759.741 2141.78,734.813 2147.33,733.869 2152.88,745.117 2158.56,752.285 2164.23,746.64 2169.6,732.645 2175.91,741.634 2182.86,745.474 2189.08,743.259 2195.42,737.496 2203.14,741.626 2212.36,739.206 2221.05,741.647 2231.3,737.981 2237.94,734.51 2244.59,743.665 2253.37,738.387 2261.02,726.715 2267.74,746.203 2274.34,740.439 2280.45,734.478 2286.4,717.843 2291.43,745.367 2296.95,747.84 2302.46,735.07 2307.23,720.502 2312,715.028 2316.6,749.964 2318,756.813 " />
</g>

<g fill="#ffffff" fill-opacity="1" stroke="none" transform="matrix(5e-05,0,0,5e-05,0,0)"
font-family="Helvetica" font-size="60" font-weight="700" font-style="normal" 
>
<path vector-effect="none" fill-rule="evenodd" d="M2.012e+07,1.12e+06 L2.012e+07,3.2e+06 L2.302e+07,3.2e+06 L2.302e+07,1.12e+06 L2.012e+07,1.12e+06"/>
</g>

<g fill="#1171be" fill-opacity="1" stroke="#1171be" stroke-opacity="1" stroke-width="4" stroke-linecap="butt" stroke-linejoin="round" transform="matrix(0.5,0,0,0.5,0,0)"
font-family="Helvetica" font-size="60" font-weight="700" font-style="normal" 
>
<polyline fill="none" vector-effect="none" points="2017.99,148.412 2077.89,148.412 " />
</g>

<g fill="#dd5400" fill-opacity="1" stroke="#dd5400" stroke-opacity="1" stroke-width="4" stroke-linecap="butt" stroke-linejoin="round" transform="matrix(0.5,0,0,0.5,0,0)"
font-family="Helvetica" font-size="60" font-weight="700" font-style="normal" 
>
<polyline fill="none" vector-effect="none" points="2017.99,216 2077.89,216 " />
</g>

<g fill="#edb120" fill-opacity="1" stroke="#edb120" stroke-opacity="1" stroke-width="4" stroke-linecap="butt" stroke-linejoin="round" transform="matrix(0.5,0,0,0.5,0,0)"
font-family="Helvetica" font-size="60" font-weight="700" font-style="normal" 
>
<polyline fill="none" vector-effect="none" points="2017.99,283.588 2077.89,283.588 " />
</g>

<g fill="#212121" fill-opacity="1" stroke="#212121" stroke-opacity="1" stroke-width="1" stroke-linecap="square" stroke-linejoin="bevel" transform="matrix(0.5,0,0,0.5,1041.19,84.7062)"
font-family="Helvetica" font-size="60" font-weight="400" font-style="normal" 
>
<text fill="#212121" fill-opacity="1" stroke="none" xml:space="preserve" x="0" y="0" font-family="Helvetica" font-size="60" font-weight="400" font-style="normal" 
 >Chassis</text>
</g>

<g fill="#212121" fill-opacity="1" stroke="#212121" stroke-opacity="1" stroke-width="1" stroke-linecap="square" stroke-linejoin="bevel" transform="matrix(0.5,0,0,0.5,1041.19,118.5)"
font-family="Helvetica" font-size="60" font-weight="400" font-style="normal" 
>
<text fill="#212121" fill-opacity="1" stroke="none" xml:space="preserve" x="0" y="0" font-family="Helvetica" font-size="60" font-weight="400" font-style="normal" 
 >Seat</text>
</g>

<g fill="#212121" fill-opacity="1" stroke="#212121" stroke-opacity="1" stroke-width="1" stroke-linecap="square" stroke-linejoin="bevel" transform="matrix(0.5,0,0,0.5,1041.19,152.294)"
font-family="Helvetica" font-size="60" font-weight="400" font-style="normal" 
>
<text fill="#212121" fill-opacity="1" stroke="none" xml:space="preserve" x="0" y="0" font-family="Helvetica" font-size="60" font-weight="400" font-style="normal" 
 >Wheel</text>
</g>

<g fill="none" stroke="#212121" stroke-opacity="1" stroke-width="1" stroke-linecap="butt" stroke-linejoin="miter" stroke-miterlimit="2" transform="matrix(0.5,0,0,0.5,0,0)"
font-family="Helvetica" font-size="60" font-weight="400" font-style="normal" 
>
<path vector-effect="none" fill-rule="evenodd" d="M2012,320 L2012,112 L2302,112 L2302,320 L2012,320"/>
</g>
</g>
</svg>
