<?xml version="1.0" encoding="UTF-8" standalone="no"?>
<svg width="451.908mm" height="225.778mm"
 viewBox="0 0 1281 640"
 xmlns="http://www.w3.org/2000/svg" xmlns:xlink="http://www.w3.org/1999/xlink"  version="1.2" baseProfile="tiny">
<title>Qt SVG Document</title>
<desc>MATLAB, The MathWorks, Inc. Version 25.2.0.2998904 R2025b</desc>
<defs>
</defs>
<g fill="none" stroke="black" stroke-width="1" fill-rule="evenodd" stroke-linecap="square" stroke-linejoin="bevel" >

<g fill="#ffffff" fill-opacity="1" stroke="none" transform="matrix(0.5,0,0,0.5,0,0)"
font-family="MS Shell Dlg 2" font-size="8" font-weight="400" font-style="normal" 
>
<path vector-effect="none" fill-rule="evenodd" d="M0,0 L2562,0 L2562,1281 L0,1281 L0,0"/>
</g>

<g fill="#ffffff" fill-opacity="1" stroke="none" transform="matrix(5e-05,0,0,5e-05,0,0)"
font-family="MS Shell Dlg 2" font-size="8" font-weight="400" font-style="normal" 
>
<path vector-effect="none" fill-rule="evenodd" d="M3.33e+06,960000 L3.33e+06,1.127e+07 L2.318e+07,1.127e+07 L2.318e+07,960000 L3.33e+06,960000"/>
</g>

<g fill="#212121" fill-opacity="0.14902" stroke="#212121" stroke-opacity="0.14902" stroke-width="1" stroke-linecap="butt" stroke-linejoin="round" transform="matrix(0.5,0,0,0.5,0,0)"
font-family="MS Shell Dlg 2" font-size="8" font-weight="400" font-style="normal" 
>
<polyline fill="none" vector-effect="none" points="333,96 333,1127 " />
<polyline fill="none" vector-effect="none" points="730,96 730,1127 " />
<polyline fill="none" vector-effect="none" points="1127,96 1127,1127 " />
<polyline fill="none" vector-effect="none" points="1524,96 1524,1127 " />
<polyline fill="none" vector-effect="none" points="1921,96 1921,1127 " />
<polyline fill="none" vector-effect="none" points="2318,96 2318,1127 " />
<polyline fill="none" vector-effect="none" points="333,1120.79 2318,1120.79 " />
<polyline fill="none" vector-effect="none" points="333,864.596 2318,864.596 " />
<polyline fill="none" vector-effect="none" points="333,608.397 2318,608.397 " />
<polyline fill="none" vector-effect="none" points="333,352.199 2318,352.199 " />
<polyline fill="none" vector-effect="none" points="333,96 2318,96 " />
</g>

<g fill="#212121" fill-opacity="1" stroke="#212121" stroke-opacity="1" stroke-width="1" stroke-linecap="square" stroke-linejoin="bevel" transform="matrix(0.5,0,0,0.5,608.25,633.5)"
font-family="Helvetica" font-size="60" font-weight="400" font-style="normal" 
>
<text fill="#212121" fill-opacity="1" stroke="none" xml:space="preserve" x="0" y="0" font-family="Helvetica" font-size="60" font-weight="400" font-style="normal" 
 >Time (s)</text>
</g>

<g fill="#212121" fill-opacity="1" stroke="#212121" stroke-opacity="1" stroke-width="1" stroke-linecap="square" stroke-linejoin="round" transform="matrix(0.5,0,0,0.5,0,0)"
font-family="Helvetica" font-size="60" font-weight="400" font-style="normal" 
>
<polyline fill="none" vector-effect="none" points="333,1127 2318,1127 " />
<polyline fill="none" vector-effect="none" points="333,96 2318,96 " />
<polyline fill="none" vector-effect="none" points="333,1127 333,1107.15 " />
<polyline fill="none" vector-effect="none" points="333,115.85 333,96 " />
<polyline fill="none" vector-effect="none" points="730,1127 730,1107.15 " />
<polyline fill="none" vector-effect="none" points="730,115.85 730,96 " />
<polyline fill="none" vector-effect="none" points="1127,1127 1127,1107.15 " />
<polyline fill="none" vector-effect="none" points="1127,115.85 1127,96 " />
<polyline fill="none" vector-effect="none" points="1524,1127 1524,1107.15 " />
<polyline fill="none" vector-effect="none" points="1524,115.85 1524,96 " />
<polyline fill="none" vector-effect="none" points="1921,1127 1921,1107.15 " />
<polyline fill="none" vector-effect="none" points="1921,115.85 1921,96 " />
<polyline fill="none" vector-effect="none" points="2318,1127 2318,1107.15 " />
<polyline fill="none" vector-effect="none" points="2318,115.85 2318,96 " />
</g>

<g fill="#212121" fill-opacity="1" stroke="#212121" stroke-opacity="1" stroke-width="1" stroke-linecap="square" stroke-linejoin="bevel" transform="matrix(0.5,0,0,0.5,158.25,599)"
font-family="Helvetica" font-size="60" font-weight="400" font-style="normal" 
>
<text fill="#212121" fill-opacity="1" stroke="none" xml:space="preserve" x="0" y="0" font-family="Helvetica" font-size="60" font-weight="400" font-style="normal" 
 >0</text>
</g>

<g fill="#212121" fill-opacity="1" stroke="#212121" stroke-opacity="1" stroke-width="1" stroke-linecap="square" stroke-linejoin="bevel" transform="matrix(0.5,0,0,0.5,356.75,599)"
font-family="Helvetica" font-size="60" font-weight="400" font-style="normal" 
>
<text fill="#212121" fill-opacity="1" stroke="none" xml:space="preserve" x="0" y="0" font-family="Helvetica" font-size="60" font-weight="400" font-style="normal" 
 >2</text>
</g>

<g fill="#212121" fill-opacity="1" stroke="#212121" stroke-opacity="1" stroke-width="1" stroke-linecap="square" stroke-linejoin="bevel" transform="matrix(0.5,0,0,0.5,555.25,599)"
font-family="Helvetica" font-size="60" font-weight="400" font-style="normal" 
>
<text fill="#212121" fill-opacity="1" stroke="none" xml:space="preserve" x="0" y="0" font-family="Helvetica" font-size="60" font-weight="400" font-style="normal" 
 >4</text>
</g>

<g fill="#212121" fill-opacity="1" stroke="#212121" stroke-opacity="1" stroke-width="1" stroke-linecap="square" stroke-linejoin="bevel" transform="matrix(0.5,0,0,0.5,753.75,599)"
font-family="Helvetica" font-size="60" font-weight="400" font-style="normal" 
>
<text fill="#212121" fill-opacity="1" stroke="none" xml:space="preserve" x="0" y="0" font-family="Helvetica" font-size="60" font-weight="400" font-style="normal" 
 >6</text>
</g>

<g fill="#212121" fill-opacity="1" stroke="#212121" stroke-opacity="1" stroke-width="1" stroke-linecap="square" stroke-linejoin="bevel" transform="matrix(0.5,0,0,0.5,952.25,599)"
font-family="Helvetica" font-size="60" font-weight="400" font-style="normal" 
>
<text fill="#212121" fill-opacity="1" stroke="none" xml:space="preserve" x="0" y="0" font-family="Helvetica" font-size="60" font-weight="400" font-style="normal" 
 >8</text>
</g>

<g fill="#212121" fill-opacity="1" stroke="#212121" stroke-opacity="1" stroke-width="1" stroke-linecap="square" stroke-linejoin="bevel" transform="matrix(0.5,0,0,0.5,1142.5,599)"
font-family="Helvetica" font-size="60" font-weight="400" font-style="normal" 
>
<text fill="#212121" fill-opacity="1" stroke="none" xml:space="preserve" x="0" y="0" font-family="Helvetica" font-size="60" font-weight="400" font-style="normal" 
 >10</text>
</g>

<g fill="#212121" fill-opacity="1" stroke="#212121" stroke-opacity="1" stroke-width="1" stroke-linecap="square" stroke-linejoin="bevel" transform="matrix(0,-0.5,0.5,0,105.5,433.5)"
font-family="Helvetica" font-size="60" font-weight="400" font-style="normal" 
>
<text fill="#212121" fill-opacity="1" stroke="none" xml:space="preserve" x="0" y="0" font-family="Helvetica" font-size="60" font-weight="400" font-style="normal" 
 >Acceleration (m/s</text>
</g>

<g fill="#212121" fill-opacity="1" stroke="#212121" stroke-opacity="1" stroke-width="1" stroke-linecap="square" stroke-linejoin="bevel" transform="matrix(0,-0.5,0.5,0,90.5,202.5)"
font-family="Helvetica" font-size="48" font-weight="400" font-style="normal" 
>
<text fill="#212121" fill-opacity="1" stroke="none" xml:space="preserve" x="0" y="0" font-family="Helvetica" font-size="48" font-weight="400" font-style="normal" 
 >2</text>
</g>

<g fill="#212121" fill-opacity="1" stroke="#212121" stroke-opacity="1" stroke-width="1" stroke-linecap="square" stroke-linejoin="bevel" transform="matrix(0,-0.5,0.5,0,105.5,189)"
font-family="Helvetica" font-size="60" font-weight="400" font-style="normal" 
>
<text fill="#212121" fill-opacity="1" stroke="none" xml:space="preserve" x="0" y="0" font-family="Helvetica" font-size="60" font-weight="400" font-style="normal" 
 >)</text>
</g>

<g fill="#212121" fill-opacity="1" stroke="#212121" stroke-opacity="1" stroke-width="1" stroke-linecap="square" stroke-linejoin="round" transform="matrix(0.5,0,0,0.5,0,0)"
font-family="Helvetica" font-size="60" font-weight="400" font-style="normal" 
>
<polyline fill="none" vector-effect="none" points="333,1127 333,96 " />
<polyline fill="none" vector-effect="none" points="2318,1127 2318,96 " />
<polyline fill="none" vector-effect="none" points="333,1120.79 352.85,1120.79 " />
<polyline fill="none" vector-effect="none" points="2298.15,1120.79 2318,1120.79 " />
<polyline fill="none" vector-effect="none" points="333,864.596 352.85,864.596 " />
<polyline fill="none" vector-effect="none" points="2298.15,864.596 2318,864.596 " />
<polyline fill="none" vector-effect="none" points="333,608.397 352.85,608.397 " />
<polyline fill="none" vector-effect="none" points="2298.15,608.397 2318,608.397 " />
<polyline fill="none" vector-effect="none" points="333,352.199 352.85,352.199 " />
<polyline fill="none" vector-effect="none" points="2298.15,352.199 2318,352.199 " />
<polyline fill="none" vector-effect="none" points="333,96 352.85,96 " />
<polyline fill="none" vector-effect="none" points="2298.15,96 2318,96 " />
</g>

<g fill="#212121" fill-opacity="1" stroke="#212121" stroke-opacity="1" stroke-width="1" stroke-linecap="square" stroke-linejoin="bevel" transform="matrix(0.5,0,0,0.5,115.5,570.897)"
font-family="Helvetica" font-size="60" font-weight="400" font-style="normal" 
>
<text fill="#212121" fill-opacity="1" stroke="none" xml:space="preserve" x="0" y="0" font-family="Helvetica" font-size="60" font-weight="400" font-style="normal" 
 >-10</text>
</g>

<g fill="#212121" fill-opacity="1" stroke="#212121" stroke-opacity="1" stroke-width="1" stroke-linecap="square" stroke-linejoin="bevel" transform="matrix(0.5,0,0,0.5,132,442.798)"
font-family="Helvetica" font-size="60" font-weight="400" font-style="normal" 
>
<text fill="#212121" fill-opacity="1" stroke="none" xml:space="preserve" x="0" y="0" font-family="Helvetica" font-size="60" font-weight="400" font-style="normal" 
 >-5</text>
</g>

<g fill="#212121" fill-opacity="1" stroke="#212121" stroke-opacity="1" stroke-width="1" stroke-linecap="square" stroke-linejoin="bevel" transform="matrix(0.5,0,0,0.5,142,314.699)"
font-family="Helvetica" font-size="60" font-weight="400" font-style="normal" 
>
<text fill="#212121" fill-opacity="1" stroke="none" xml:space="preserve" x="0" y="0" font-family="Helvetica" font-size="60" font-weight="400" font-style="normal" 
 >0</text>
</g>

<g fill="#212121" fill-opacity="1" stroke="#212121" stroke-opacity="1" stroke-width="1" stroke-linecap="square" stroke-linejoin="bevel" transform="matrix(0.5,0,0,0.5,142,186.599)"
font-family="Helvetica" font-size="60" font-weight="400" font-style="normal" 
>
<text fill="#212121" fill-opacity="1" stroke="none" xml:space="preserve" x="0" y="0" font-family="Helvetica" font-size="60" font-weight="400" font-style="normal" 
 >5</text>
</g>

<g fill="#212121" fill-opacity="1" stroke="#212121" stroke-opacity="1" stroke-width="1" stroke-linecap="square" stroke-linejoin="bevel" transform="matrix(0.5,0,0,0.5,125.5,58.5)"
font-family="Helvetica" font-size="60" font-weight="400" font-style="normal" 
>
<text fill="#212121" fill-opacity="1" stroke="none" xml:space="preserve" x="0" y="0" font-family="Helvetica" font-size="60" font-weight="400" font-style="normal" 
 >10</text>
</g>

<g fill="#212121" fill-opacity="1" stroke="#212121" stroke-opacity="1" stroke-width="1" stroke-linecap="square" stroke-linejoin="bevel" transform="matrix(0.5,0,0,0.5,337.75,37.75)"
font-family="Helvetica" font-size="60" font-weight="700" font-style="normal" 
>
<text fill="#212121" fill-opacity="1" stroke="none" xml:space="preserve" x="0" y="0" font-family="Helvetica" font-size="60" font-weight="700" font-style="normal" 
 >Acceleration of Quarter Car Model (Added c4)</text>
</g>

<g fill="none" stroke="#1171be" stroke-opacity="1" stroke-width="4" stroke-linecap="butt" stroke-linejoin="round" transform="matrix(0.5,0,0,0.5,0,0)"
font-family="Helvetica" font-size="60" font-weight="700" font-style="normal" 
>
<polyline fill="none" vector-effect="none" points="333,608.397 372.7,608.397 412.4,608.397 452.1,608.397 491.8,608.397 531.5,608.397 531.5,608.397 531.5,608.397 531.994,606.396 532.488,602.1 533.476,595.105 535.362,581.486 537.694,565.156 540.528,554.336 543.559,551.652 546.846,553.274 551.338,554.491 555.825,553.948 560.472,554.149 566.479,556.849 572.485,561.828 581.196,569.572 589.907,580.059 602.049,592.757 610.732,604.015 619.414,611.336 633.025,617.402 642.944,620.279 652.863,620.208 664.599,618.5 671.974,616.377 679.349,614.704 691.053,612.939 702.318,611.659 713.582,611.433 723.662,611.959 732.408,612.755 742.519,613.601 751.577,614.212 760.635,614.361 771.174,613.914 783.554,612.571 791.596,610.787 799.639,609.047 815.648,606.287 821.593,603.885 827.537,602.775 830.209,602.71 832.005,614.787 833.8,633.843 837.413,652.138 840.453,659.03 843.496,657.007 847.362,654.461 852.042,654.386 856.216,654.96 862.549,653.322 868.451,649.158 876.52,642.923 885.384,634.183 900.036,621.863 908.123,611.563 916.209,606.162 932.42,601.573 942.077,600.273 951.734,601.381 963.431,603.617 973.31,606.059 983.19,607.806 992.398,608.697 1000.95,608.717 1010.6,607.981 1024.52,606.192 1031.84,604.236 1039.17,602.931 1050.99,601.586 1062.06,600.743 1073.13,600.95 1083.41,602.092 1092.27,603.774 1101.57,605.814 1111.42,608.168 1121.27,610.564 1131.44,612.726 1141.61,614.435 1152.45,615.53 1160.03,615.899 1167.62,615.775 1180.95,615.024 1192.26,613.539 1203.58,611.783 1214.06,609.976 1223.76,608.371 1231.46,607.103 1239.15,606.154 1254.18,605.103 1265.69,604.373 1277.19,604.202 1288.3,604.402 1294.87,604.737 1301.44,605.112 1309.99,605.561 1322.65,606.308 1331.75,607.122 1340.86,607.799 1351.85,608.503 1365.61,609.266 1372.09,609.807 1378.56,610.1 1387.17,610.331 1398.86,610.559 1410.55,610.652 1418.54,610.629 1426.53,610.492 1440.23,610.209 1455.76,609.669 1466.37,609.116 1473.74,608.722 1481.1,608.375 1491.09,607.993 1503.01,607.575 1514.94,607.208 1522.76,607.031 1530.58,606.92 1545.08,606.894 1556.51,606.999 1567.95,607.202 1578.76,607.478 1587.94,607.791 1597.54,608.076 1607.81,608.383 1616.51,608.642 1624.48,608.857 1634.83,609.06 1651.83,609.271 1657.89,609.331 1663.95,609.347 1673.4,609.342 1684.89,609.264 1693.97,609.138 1703.05,608.994 1713.57,608.82 1726.04,608.604 1733.46,608.398 1740.88,608.273 1752.71,608.122 1763.83,607.972 1774.95,607.873 1785.61,607.821 1794.5,607.788 1803.05,607.814 1817.06,607.878 1824.14,607.981 1831.22,608.034 1842.4,608.144 1853.18,608.276 1863.97,608.407 1873.99,608.515 1883.3,608.599 1895.01,608.678 1902.08,608.754 1909.15,608.753 1919.72,608.774 1930.84,608.767 1941.95,608.737 1951.72,608.674 1960.45,608.607 1971.59,608.543 1979.78,608.475 1987.97,608.413 2000.7,608.337 2014.04,608.252 2027.38,608.162 2033.08,608.223 2038.78,608.243 2045.65,608.148 2055.79,608.166 2065.94,608.183 2076.25,608.21 2087.41,608.248 2094.75,608.293 2102.08,608.322 2113.35,608.372 2124.73,608.425 2136.11,608.477 2146.09,608.506 2154.52,608.511 2164.02,608.538 2174.43,608.544 2184.83,608.539 2194.76,608.53 2203.98,608.519 2214.15,608.493 2222.95,608.466 2231.76,608.437 2242.98,608.41 2256.29,608.388 2268.63,608.364 2274.18,608.335 2279.73,608.204 2286.22,608.317 2297.24,608.296 2306.72,608.309 2315.29,608.317 2318,608.31 " />
</g>

<g fill="none" stroke="#dd5400" stroke-opacity="1" stroke-width="4" stroke-linecap="butt" stroke-linejoin="round" transform="matrix(0.5,0,0,0.5,0,0)"
font-family="Helvetica" font-size="60" font-weight="700" font-style="normal" 
>
<polyline fill="none" vector-effect="none" points="333,608.397 372.7,608.397 412.4,608.397 452.1,608.397 491.8,608.397 531.5,608.397 531.5,608.397 531.5,608.397 531.994,608.395 532.488,608.378 533.476,608.314 535.362,608.044 537.694,607.312 540.528,605.931 543.559,603.906 546.846,601.361 551.338,597.815 555.825,593.203 560.472,587.991 566.479,581.482 572.485,573.99 581.196,565.25 589.907,556.47 602.049,549.835 610.732,548.188 619.414,551.357 633.025,561.225 642.944,576.817 652.863,592.884 664.599,611.333 671.974,626.873 679.349,637.471 691.053,648.448 702.318,657.081 713.582,660.078 723.662,658.163 732.408,653.112 742.519,645.529 751.577,636.13 760.635,626.387 771.174,615.734 783.554,604.116 791.596,595.145 799.639,589.409 815.648,583.41 821.593,580.196 827.537,579.561 830.209,579.496 832.005,579.687 833.8,580.206 837.413,581.725 840.453,584.408 843.496,587.442 847.362,591.381 852.042,596.921 856.216,603.383 862.549,611.84 868.451,622.237 876.52,634.179 885.384,647.655 900.036,662.104 908.123,670.169 916.209,671.142 932.42,665.134 942.077,651.613 951.734,637.566 963.431,620.296 973.31,602.947 983.19,588.702 992.398,577.471 1000.95,569.847 1010.6,565.178 1024.52,563.855 1031.84,566.369 1039.17,570.071 1050.99,576.662 1062.06,586.078 1073.13,595.862 1083.41,605.061 1092.27,612.574 1101.57,618.711 1111.42,623.939 1121.27,627.879 1131.44,630.359 1141.61,631.376 1152.45,630.965 1160.03,629.57 1167.62,627.764 1180.95,624.482 1192.26,619.85 1203.58,615.14 1214.06,610.51 1223.76,606.383 1231.46,603.106 1239.15,600.534 1254.18,597.492 1265.69,595.111 1277.19,594.28 1288.3,594.563 1294.87,595.475 1301.44,596.538 1309.99,598.095 1322.65,600.746 1331.75,603.808 1340.86,606.486 1351.85,609.368 1365.61,612.557 1372.09,614.734 1378.56,615.836 1387.17,616.803 1398.86,617.553 1410.55,617.657 1418.54,617.155 1426.53,616.375 1440.23,614.884 1455.76,612.381 1466.37,609.929 1473.74,608.262 1481.1,606.984 1491.09,605.633 1503.01,604.236 1514.94,603.177 1522.76,602.688 1530.58,602.571 1545.08,602.802 1556.51,603.527 1567.95,604.52 1578.76,605.695 1587.94,606.842 1597.54,607.931 1607.81,609.029 1616.51,609.974 1624.48,610.685 1634.83,611.302 1651.83,611.864 1657.89,612.041 1663.95,611.999 1673.4,611.83 1684.89,611.425 1693.97,610.87 1703.05,610.281 1713.57,609.583 1726.04,608.742 1733.46,608.044 1740.88,607.565 1752.71,607.03 1763.83,606.533 1774.95,606.228 1785.61,606.106 1794.5,606.141 1803.05,606.28 1817.06,606.593 1824.14,606.98 1831.22,607.281 1842.4,607.695 1853.18,608.202 1863.97,608.676 1873.99,609.081 1883.3,609.393 1895.01,609.642 1902.08,609.785 1909.15,609.836 1919.72,609.833 1930.84,609.741 1941.95,609.557 1951.72,609.321 1960.45,609.075 1971.59,608.79 1979.78,608.51 1987.97,608.281 2000.7,608.018 2014.04,607.753 2027.38,607.574 2033.08,607.498 2038.78,607.487 2045.65,607.494 2055.79,607.536 2065.94,607.63 2076.25,607.766 2087.41,607.94 2094.75,608.105 2102.08,608.239 2113.35,608.406 2124.73,608.593 2136.11,608.751 2146.09,608.864 2154.52,608.93 2164.02,608.963 2174.43,608.966 2184.83,608.933 2194.76,608.87 2203.98,608.788 2214.15,608.689 2222.95,608.582 2231.76,608.481 2242.98,608.369 2256.29,608.245 2268.63,608.14 2274.18,608.093 2279.73,608.067 2286.22,608.047 2297.24,608.038 2306.72,608.047 2315.29,608.073 2318,608.096 " />
</g>

<g fill="none" stroke="#edb120" stroke-opacity="1" stroke-width="4" stroke-linecap="butt" stroke-linejoin="round" transform="matrix(0.5,0,0,0.5,0,0)"
font-family="Helvetica" font-size="60" font-weight="700" font-style="normal" 
>
<polyline fill="none" vector-effect="none" points="333,608.397 372.7,608.397 412.4,608.397 452.1,608.397 491.8,608.397 531.5,608.397 531.5,608.397 531.5,608.397 531.994,202.203 532.488,170.606 533.476,155.518 535.362,204.416 537.694,364.651 540.528,557.647 543.559,665.829 546.846,665.388 551.338,616.459 555.825,592.627 560.472,599.508 566.479,606.458 572.485,606.148 581.196,606.372 589.907,607.428 602.049,608.394 610.732,609.133 619.414,609.468 633.025,609.542 642.944,609.519 652.863,609.328 664.599,609.247 671.974,608.267 679.349,608.699 691.053,608.547 702.318,608.512 713.582,608.56 723.662,608.841 732.408,608.923 742.519,608.96 751.577,608.851 760.635,608.82 771.174,608.755 783.554,608.476 791.596,608.523 799.639,608.244 815.648,607.952 821.593,607.997 827.537,607.759 830.209,672.526 832.005,1127 833.8,1031.4 837.413,764.817 840.453,554.98 843.496,527.122 847.362,578.198 852.042,622.42 856.216,622.317 862.549,610.843 868.451,609.739 876.52,610.315 885.384,609.326 900.036,608.435 908.123,607.688 916.209,607.554 932.42,607.576 942.077,607.744 951.734,607.975 963.431,608.21 973.31,608.349 983.19,608.461 992.398,608.607 1000.95,608.516 1010.6,608.292 1024.52,608.226 1031.84,607.51 1039.17,607.846 1050.99,607.719 1062.06,607.711 1073.13,607.793 1083.41,608.085 1092.27,608.368 1101.57,608.462 1111.42,608.654 1121.27,608.804 1131.44,608.919 1141.61,608.943 1152.45,608.825 1160.03,609.381 1167.62,608.923 1180.95,608.843 1192.26,608.69 1203.58,608.517 1214.06,608.196 1223.76,608.039 1231.46,608.512 1239.15,608.093 1254.18,608.073 1265.69,608.059 1277.19,607.981 1288.3,607.577 1294.87,609.478 1301.44,607.898 1309.99,608.237 1322.65,608.383 1331.75,608.317 1340.86,608.385 1351.85,608.455 1365.61,608.145 1372.09,609.71 1378.56,608.258 1387.17,608.58 1398.86,608.631 1410.55,608.728 1418.54,608.279 1426.53,608.52 1440.23,608.515 1455.76,608.477 1466.37,607.992 1473.74,609.049 1481.1,608.222 1491.09,608.332 1503.01,608.344 1514.94,608.449 1522.76,607.946 1530.58,608.251 1545.08,608.291 1556.51,608.332 1567.95,608.383 1578.76,608.303 1587.94,608.21 1597.54,608.329 1607.81,608.315 1616.51,608.69 1624.48,608.54 1634.83,608.472 1651.83,608.55 1657.89,608.015 1663.95,608.74 1673.4,608.442 1684.89,608.37 1693.97,608.497 1703.05,608.474 1713.57,608.426 1726.04,608.525 1733.46,608.114 1740.88,608.425 1752.71,608.349 1763.83,608.316 1774.95,608.273 1785.61,608.327 1794.5,608.539 1803.05,608.371 1817.06,608.624 1824.14,607.767 1831.22,608.433 1842.4,608.365 1853.18,608.362 1863.97,608.381 1873.99,608.512 1883.3,608.52 1895.01,608.788 1902.08,607.634 1909.15,608.498 1919.72,608.408 1930.84,608.377 1941.95,608.361 1951.72,608.552 1960.45,608.473 1971.59,608.546 1979.78,608.183 1987.97,608.359 2000.7,608.396 2014.04,608.396 2027.38,607.729 2033.08,611.133 2038.78,607.181 2045.65,608.207 2055.79,608.372 2065.94,608.409 2076.25,608.464 2087.41,608.664 2094.75,607.855 2102.08,608.457 2113.35,608.385 2124.73,608.357 2136.11,608.313 2146.09,608.519 2154.52,608.515 2164.02,608.433 2174.43,608.451 2184.83,608.441 2194.76,608.349 2203.98,608.312 2214.15,608.322 2222.95,608.458 2231.76,608.437 2242.98,608.387 2256.29,608.436 2268.63,609.695 2274.18,603.842 2279.73,609.641 2286.22,608.834 2297.24,608.449 2306.72,608.23 2315.29,608.344 2318,608.534 " />
</g>

<g fill="#ffffff" fill-opacity="1" stroke="none" transform="matrix(5e-05,0,0,5e-05,0,0)"
font-family="Helvetica" font-size="60" font-weight="700" font-style="normal" 
>
<path vector-effect="none" fill-rule="evenodd" d="M2.012e+07,1.12e+06 L2.012e+07,3.2e+06 L2.302e+07,3.2e+06 L2.302e+07,1.12e+06 L2.012e+07,1.12e+06"/>
</g>

<g fill="#1171be" fill-opacity="1" stroke="#1171be" stroke-opacity="1" stroke-width="4" stroke-linecap="butt" stroke-linejoin="round" transform="matrix(0.5,0,0,0.5,0,0)"
font-family="Helvetica" font-size="60" font-weight="700" font-style="normal" 
>
<polyline fill="none" vector-effect="none" points="2017.99,148.412 2077.89,148.412 " />
</g>

<g fill="#dd5400" fill-opacity="1" stroke="#dd5400" stroke-opacity="1" stroke-width="4" stroke-linecap="butt" stroke-linejoin="round" transform="matrix(0.5,0,0,0.5,0,0)"
font-family="Helvetica" font-size="60" font-weight="700" font-style="normal" 
>
<polyline fill="none" vector-effect="none" points="2017.99,216 2077.89,216 " />
</g>

<g fill="#edb120" fill-opacity="1" stroke="#edb120" stroke-opacity="1" stroke-width="4" stroke-linecap="butt" stroke-linejoin="round" transform="matrix(0.5,0,0,0.5,0,0)"
font-family="Helvetica" font-size="60" font-weight="700" font-style="normal" 
>
<polyline fill="none" vector-effect="none" points="2017.99,283.588 2077.89,283.588 " />
</g>

<g fill="#212121" fill-opacity="1" stroke="#212121" stroke-opacity="1" stroke-width="1" stroke-linecap="square" stroke-linejoin="bevel" transform="matrix(0.5,0,0,0.5,1041.19,84.7062)"
font-family="Helvetica" font-size="60" font-weight="400" font-style="normal" 
>
<text fill="#212121" fill-opacity="1" stroke="none" xml:space="preserve" x="0" y="0" font-family="Helvetica" font-size="60" font-weight="400" font-style="normal" 
 >Chassis</text>
</g>

<g fill="#212121" fill-opacity="1" stroke="#212121" stroke-opacity="1" stroke-width="1" stroke-linecap="square" stroke-linejoin="bevel" transform="matrix(0.5,0,0,0.5,1041.19,118.5)"
font-family="Helvetica" font-size="60" font-weight="400" font-style="normal" 
>
<text fill="#212121" fill-opacity="1" stroke="none" xml:space="preserve" x="0" y="0" font-family="Helvetica" font-size="60" font-weight="400" font-style="normal" 
 >Seat</text>
</g>

<g fill="#212121" fill-opacity="1" stroke="#212121" stroke-opacity="1" stroke-width="1" stroke-linecap="square" stroke-linejoin="bevel" transform="matrix(0.5,0,0,0.5,1041.19,152.294)"
font-family="Helvetica" font-size="60" font-weight="400" font-style="normal" 
>
<text fill="#212121" fill-opacity="1" stroke="none" xml:space="preserve" x="0" y="0" font-family="Helvetica" font-size="60" font-weight="400" font-style="normal" 
 >Wheel</text>
</g>

<g fill="none" stroke="#212121" stroke-opacity="1" stroke-width="1" stroke-linecap="butt" stroke-linejoin="miter" stroke-miterlimit="2" transform="matrix(0.5,0,0,0.5,0,0)"
font-family="Helvetica" font-size="60" font-weight="400" font-style="normal" 
>
<path vector-effect="none" fill-rule="evenodd" d="M2012,320 L2012,112 L2302,112 L2302,320 L2012,320"/>
</g>
</g>
</svg>
