<?xml version="1.0" encoding="UTF-8" standalone="no"?>
<svg width="451.908mm" height="225.778mm"
 viewBox="0 0 1281 640"
 xmlns="http://www.w3.org/2000/svg" xmlns:xlink="http://www.w3.org/1999/xlink"  version="1.2" baseProfile="tiny">
<title>Qt SVG Document</title>
<desc>MATLAB, The MathWorks, Inc. Version 25.2.0.2998904 R2025b</desc>
<defs>
</defs>
<g fill="none" stroke="black" stroke-width="1" fill-rule="evenodd" stroke-linecap="square" stroke-linejoin="bevel" >

<g fill="#ffffff" fill-opacity="1" stroke="none" transform="matrix(0.5,0,0,0.5,0,0)"
font-family="MS Shell Dlg 2" font-size="8" font-weight="400" font-style="normal" 
>
<path vector-effect="none" fill-rule="evenodd" d="M0,0 L2562,0 L2562,1281 L0,1281 L0,0"/>
</g>

<g fill="#ffffff" fill-opacity="1" stroke="none" transform="matrix(5e-05,0,0,5e-05,0,0)"
font-family="MS Shell Dlg 2" font-size="8" font-weight="400" font-style="normal" 
>
<path vector-effect="none" fill-rule="evenodd" d="M3.33e+06,960000 L3.33e+06,1.127e+07 L2.318e+07,1.127e+07 L2.318e+07,960000 L3.33e+06,960000"/>
</g>

<g fill="#212121" fill-opacity="0.14902" stroke="#212121" stroke-opacity="0.14902" stroke-width="1" stroke-linecap="butt" stroke-linejoin="round" transform="matrix(0.5,0,0,0.5,0,0)"
font-family="MS Shell Dlg 2" font-size="8" font-weight="400" font-style="normal" 
>
<polyline fill="none" vector-effect="none" points="333,96 333,1127 " />
<polyline fill="none" vector-effect="none" points="730,96 730,1127 " />
<polyline fill="none" vector-effect="none" points="1127,96 1127,1127 " />
<polyline fill="none" vector-effect="none" points="1524,96 1524,1127 " />
<polyline fill="none" vector-effect="none" points="1921,96 1921,1127 " />
<polyline fill="none" vector-effect="none" points="2318,96 2318,1127 " />
<polyline fill="none" vector-effect="none" points="333,1127 2318,1127 " />
<polyline fill="none" vector-effect="none" points="333,955.167 2318,955.167 " />
<polyline fill="none" vector-effect="none" points="333,783.333 2318,783.333 " />
<polyline fill="none" vector-effect="none" points="333,611.5 2318,611.5 " />
<polyline fill="none" vector-effect="none" points="333,439.667 2318,439.667 " />
<polyline fill="none" vector-effect="none" points="333,267.833 2318,267.833 " />
<polyline fill="none" vector-effect="none" points="333,96 2318,96 " />
</g>

<g fill="#212121" fill-opacity="1" stroke="#212121" stroke-opacity="1" stroke-width="1" stroke-linecap="square" stroke-linejoin="bevel" transform="matrix(0.5,0,0,0.5,608.25,633.5)"
font-family="Helvetica" font-size="60" font-weight="400" font-style="normal" 
>
<text fill="#212121" fill-opacity="1" stroke="none" xml:space="preserve" x="0" y="0" font-family="Helvetica" font-size="60" font-weight="400" font-style="normal" 
 >Time (s)</text>
</g>

<g fill="#212121" fill-opacity="1" stroke="#212121" stroke-opacity="1" stroke-width="1" stroke-linecap="square" stroke-linejoin="round" transform="matrix(0.5,0,0,0.5,0,0)"
font-family="Helvetica" font-size="60" font-weight="400" font-style="normal" 
>
<polyline fill="none" vector-effect="none" points="333,1127 2318,1127 " />
<polyline fill="none" vector-effect="none" points="333,96 2318,96 " />
<polyline fill="none" vector-effect="none" points="333,1127 333,1107.15 " />
<polyline fill="none" vector-effect="none" points="333,115.85 333,96 " />
<polyline fill="none" vector-effect="none" points="730,1127 730,1107.15 " />
<polyline fill="none" vector-effect="none" points="730,115.85 730,96 " />
<polyline fill="none" vector-effect="none" points="1127,1127 1127,1107.15 " />
<polyline fill="none" vector-effect="none" points="1127,115.85 1127,96 " />
<polyline fill="none" vector-effect="none" points="1524,1127 1524,1107.15 " />
<polyline fill="none" vector-effect="none" points="1524,115.85 1524,96 " />
<polyline fill="none" vector-effect="none" points="1921,1127 1921,1107.15 " />
<polyline fill="none" vector-effect="none" points="1921,115.85 1921,96 " />
<polyline fill="none" vector-effect="none" points="2318,1127 2318,1107.15 " />
<polyline fill="none" vector-effect="none" points="2318,115.85 2318,96 " />
</g>

<g fill="#212121" fill-opacity="1" stroke="#212121" stroke-opacity="1" stroke-width="1" stroke-linecap="square" stroke-linejoin="bevel" transform="matrix(0.5,0,0,0.5,158.25,599)"
font-family="Helvetica" font-size="60" font-weight="400" font-style="normal" 
>
<text fill="#212121" fill-opacity="1" stroke="none" xml:space="preserve" x="0" y="0" font-family="Helvetica" font-size="60" font-weight="400" font-style="normal" 
 >0</text>
</g>

<g fill="#212121" fill-opacity="1" stroke="#212121" stroke-opacity="1" stroke-width="1" stroke-linecap="square" stroke-linejoin="bevel" transform="matrix(0.5,0,0,0.5,356.75,599)"
font-family="Helvetica" font-size="60" font-weight="400" font-style="normal" 
>
<text fill="#212121" fill-opacity="1" stroke="none" xml:space="preserve" x="0" y="0" font-family="Helvetica" font-size="60" font-weight="400" font-style="normal" 
 >2</text>
</g>

<g fill="#212121" fill-opacity="1" stroke="#212121" stroke-opacity="1" stroke-width="1" stroke-linecap="square" stroke-linejoin="bevel" transform="matrix(0.5,0,0,0.5,555.25,599)"
font-family="Helvetica" font-size="60" font-weight="400" font-style="normal" 
>
<text fill="#212121" fill-opacity="1" stroke="none" xml:space="preserve" x="0" y="0" font-family="Helvetica" font-size="60" font-weight="400" font-style="normal" 
 >4</text>
</g>

<g fill="#212121" fill-opacity="1" stroke="#212121" stroke-opacity="1" stroke-width="1" stroke-linecap="square" stroke-linejoin="bevel" transform="matrix(0.5,0,0,0.5,753.75,599)"
font-family="Helvetica" font-size="60" font-weight="400" font-style="normal" 
>
<text fill="#212121" fill-opacity="1" stroke="none" xml:space="preserve" x="0" y="0" font-family="Helvetica" font-size="60" font-weight="400" font-style="normal" 
 >6</text>
</g>

<g fill="#212121" fill-opacity="1" stroke="#212121" stroke-opacity="1" stroke-width="1" stroke-linecap="square" stroke-linejoin="bevel" transform="matrix(0.5,0,0,0.5,952.25,599)"
font-family="Helvetica" font-size="60" font-weight="400" font-style="normal" 
>
<text fill="#212121" fill-opacity="1" stroke="none" xml:space="preserve" x="0" y="0" font-family="Helvetica" font-size="60" font-weight="400" font-style="normal" 
 >8</text>
</g>

<g fill="#212121" fill-opacity="1" stroke="#212121" stroke-opacity="1" stroke-width="1" stroke-linecap="square" stroke-linejoin="bevel" transform="matrix(0.5,0,0,0.5,1142.5,599)"
font-family="Helvetica" font-size="60" font-weight="400" font-style="normal" 
>
<text fill="#212121" fill-opacity="1" stroke="none" xml:space="preserve" x="0" y="0" font-family="Helvetica" font-size="60" font-weight="400" font-style="normal" 
 >10</text>
</g>

<g fill="#212121" fill-opacity="1" stroke="#212121" stroke-opacity="1" stroke-width="1" stroke-linecap="square" stroke-linejoin="bevel" transform="matrix(0,-0.5,0.5,0,97,422.75)"
font-family="Helvetica" font-size="60" font-weight="400" font-style="normal" 
>
<text fill="#212121" fill-opacity="1" stroke="none" xml:space="preserve" x="0" y="0" font-family="Helvetica" font-size="60" font-weight="400" font-style="normal" 
 >Displacement (m)</text>
</g>

<g fill="#212121" fill-opacity="1" stroke="#212121" stroke-opacity="1" stroke-width="1" stroke-linecap="square" stroke-linejoin="round" transform="matrix(0.5,0,0,0.5,0,0)"
font-family="Helvetica" font-size="60" font-weight="400" font-style="normal" 
>
<polyline fill="none" vector-effect="none" points="333,1127 333,96 " />
<polyline fill="none" vector-effect="none" points="2318,1127 2318,96 " />
<polyline fill="none" vector-effect="none" points="333,1127 352.85,1127 " />
<polyline fill="none" vector-effect="none" points="2298.15,1127 2318,1127 " />
<polyline fill="none" vector-effect="none" points="333,955.167 352.85,955.167 " />
<polyline fill="none" vector-effect="none" points="2298.15,955.167 2318,955.167 " />
<polyline fill="none" vector-effect="none" points="333,783.333 352.85,783.333 " />
<polyline fill="none" vector-effect="none" points="2298.15,783.333 2318,783.333 " />
<polyline fill="none" vector-effect="none" points="333,611.5 352.85,611.5 " />
<polyline fill="none" vector-effect="none" points="2298.15,611.5 2318,611.5 " />
<polyline fill="none" vector-effect="none" points="333,439.667 352.85,439.667 " />
<polyline fill="none" vector-effect="none" points="2298.15,439.667 2318,439.667 " />
<polyline fill="none" vector-effect="none" points="333,267.833 352.85,267.833 " />
<polyline fill="none" vector-effect="none" points="2298.15,267.833 2318,267.833 " />
<polyline fill="none" vector-effect="none" points="333,96 352.85,96 " />
<polyline fill="none" vector-effect="none" points="2298.15,96 2318,96 " />
</g>

<g fill="#212121" fill-opacity="1" stroke="#212121" stroke-opacity="1" stroke-width="1" stroke-linecap="square" stroke-linejoin="bevel" transform="matrix(0.5,0,0,0.5,107,574)"
font-family="Helvetica" font-size="60" font-weight="400" font-style="normal" 
>
<text fill="#212121" fill-opacity="1" stroke="none" xml:space="preserve" x="0" y="0" font-family="Helvetica" font-size="60" font-weight="400" font-style="normal" 
 >-0.2</text>
</g>

<g fill="#212121" fill-opacity="1" stroke="#212121" stroke-opacity="1" stroke-width="1" stroke-linecap="square" stroke-linejoin="bevel" transform="matrix(0.5,0,0,0.5,142,488.083)"
font-family="Helvetica" font-size="60" font-weight="400" font-style="normal" 
>
<text fill="#212121" fill-opacity="1" stroke="none" xml:space="preserve" x="0" y="0" font-family="Helvetica" font-size="60" font-weight="400" font-style="normal" 
 >0</text>
</g>

<g fill="#212121" fill-opacity="1" stroke="#212121" stroke-opacity="1" stroke-width="1" stroke-linecap="square" stroke-linejoin="bevel" transform="matrix(0.5,0,0,0.5,117,402.167)"
font-family="Helvetica" font-size="60" font-weight="400" font-style="normal" 
>
<text fill="#212121" fill-opacity="1" stroke="none" xml:space="preserve" x="0" y="0" font-family="Helvetica" font-size="60" font-weight="400" font-style="normal" 
 >0.2</text>
</g>

<g fill="#212121" fill-opacity="1" stroke="#212121" stroke-opacity="1" stroke-width="1" stroke-linecap="square" stroke-linejoin="bevel" transform="matrix(0.5,0,0,0.5,117,316.25)"
font-family="Helvetica" font-size="60" font-weight="400" font-style="normal" 
>
<text fill="#212121" fill-opacity="1" stroke="none" xml:space="preserve" x="0" y="0" font-family="Helvetica" font-size="60" font-weight="400" font-style="normal" 
 >0.4</text>
</g>

<g fill="#212121" fill-opacity="1" stroke="#212121" stroke-opacity="1" stroke-width="1" stroke-linecap="square" stroke-linejoin="bevel" transform="matrix(0.5,0,0,0.5,117,230.333)"
font-family="Helvetica" font-size="60" font-weight="400" font-style="normal" 
>
<text fill="#212121" fill-opacity="1" stroke="none" xml:space="preserve" x="0" y="0" font-family="Helvetica" font-size="60" font-weight="400" font-style="normal" 
 >0.6</text>
</g>

<g fill="#212121" fill-opacity="1" stroke="#212121" stroke-opacity="1" stroke-width="1" stroke-linecap="square" stroke-linejoin="bevel" transform="matrix(0.5,0,0,0.5,117,144.417)"
font-family="Helvetica" font-size="60" font-weight="400" font-style="normal" 
>
<text fill="#212121" fill-opacity="1" stroke="none" xml:space="preserve" x="0" y="0" font-family="Helvetica" font-size="60" font-weight="400" font-style="normal" 
 >0.8</text>
</g>

<g fill="#212121" fill-opacity="1" stroke="#212121" stroke-opacity="1" stroke-width="1" stroke-linecap="square" stroke-linejoin="bevel" transform="matrix(0.5,0,0,0.5,142,58.5)"
font-family="Helvetica" font-size="60" font-weight="400" font-style="normal" 
>
<text fill="#212121" fill-opacity="1" stroke="none" xml:space="preserve" x="0" y="0" font-family="Helvetica" font-size="60" font-weight="400" font-style="normal" 
 >1</text>
</g>

<g fill="#212121" fill-opacity="1" stroke="#212121" stroke-opacity="1" stroke-width="1" stroke-linecap="square" stroke-linejoin="bevel" transform="matrix(0.5,0,0,0.5,264,37.75)"
font-family="Helvetica" font-size="60" font-weight="700" font-style="normal" 
>
<text fill="#212121" fill-opacity="1" stroke="none" xml:space="preserve" x="0" y="0" font-family="Helvetica" font-size="60" font-weight="700" font-style="normal" 
 >Displacement of Quarter Car Model (Wavy Road; Tuned)</text>
</g>

<g fill="none" stroke="#1171be" stroke-opacity="1" stroke-width="4" stroke-linecap="butt" stroke-linejoin="round" transform="matrix(0.5,0,0,0.5,0,0)"
font-family="Helvetica" font-size="60" font-weight="700" font-style="normal" 
>
<polyline fill="none" vector-effect="none" points="333,611.5 335.226,611.498 337.452,611.475 339.953,611.377 342.845,611.1 346.652,610.383 351.19,608.98 355.993,606.937 361.903,603.848 369.476,599.262 376.843,594.325 385.405,588.142 392.259,582.937 399.114,577.585 408.169,570.353 414.242,565.421 420.315,560.459 430.05,552.497 438.371,545.678 447.67,538.109 456.564,530.97 464.8,524.422 472.23,518.621 481.182,511.794 489.128,505.844 495.954,500.858 504.592,494.754 512.141,489.564 520.982,483.693 528.133,479.156 535.562,474.606 541.495,471.086 547.428,467.711 554.721,463.766 562.25,459.872 570.372,455.91 577.821,452.551 584.911,449.553 590.622,447.263 596.333,445.13 603.582,442.66 610.745,440.425 616.611,438.74 622.476,437.235 629.521,435.661 636.899,434.223 644.928,432.931 652.01,432.084 658.962,431.474 664.493,431.117 670.024,430.916 677.421,430.916 684.329,431.138 689.93,431.452 695.531,431.927 702.842,432.807 709.859,433.87 715.56,434.874 721.262,436.046 728.483,437.776 735.688,439.715 741.717,441.494 747.746,443.458 754.869,446.007 762.497,448.942 770.512,452.287 778.517,455.936 785.707,459.417 791.939,462.58 798.172,465.917 805.501,470.046 813.506,474.746 820.375,478.966 829.029,484.547 836.601,489.612 845.731,495.954 853.389,501.493 861.27,507.356 868.372,512.773 875.474,518.339 883.478,524.761 891.722,531.506 898.344,537.04 906.736,544.184 913.152,549.721 919.568,555.324 930.225,564.78 939.203,572.847 949.437,582.149 961.953,593.64 973.485,604.294 988.91,618.593 999.995,628.852 1011.08,639.067 1019.52,646.798 1027.96,654.455 1037.09,662.668 1048.15,672.466 1057.26,680.388 1064.63,686.725 1070.71,691.852 1079.19,698.875 1087.43,705.573 1096.33,712.627 1105.18,719.412 1113.15,725.374 1120.17,730.467 1129.05,736.669 1136.65,741.811 1144.88,747.167 1153.22,752.323 1160.55,756.675 1169.12,761.528 1176.08,765.226 1183.33,768.896 1189.08,771.684 1194.82,774.323 1202.17,777.463 1209.36,780.342 1215.2,782.542 1221.03,784.572 1228.13,786.813 1235.53,788.945 1243.66,791.021 1250.69,792.532 1257.68,793.82 1263.22,794.715 1268.76,795.456 1276.14,796.179 1283.06,796.639 1288.65,796.879 1294.25,796.958 1301.52,796.803 1308.53,796.437 1314.2,796.002 1319.87,795.399 1327.05,794.389 1334.2,793.168 1340.08,792.012 1345.97,790.675 1353.05,788.832 1360.5,786.685 1368.48,784.122 1376.04,781.401 1383.11,778.643 1388.93,776.241 1394.75,773.682 1402.17,770.192 1409.52,766.533 1415.83,763.248 1422.13,759.788 1429.43,755.576 1437.55,750.706 1444.57,746.299 1453.48,740.435 1461.1,735.239 1470.05,728.909 1478.88,722.397 1486.77,716.426 1494.17,710.667 1503.63,703.078 1511.75,696.427 1519.87,689.627 1529.8,681.118 1538.44,673.588 1545.51,667.339 1555.62,658.268 1564.79,649.945 1572.28,643.081 1583.6,632.624 1594.75,622.26 1613.62,604.674 1623.82,595.171 1634.03,585.71 1643.88,576.645 1651.93,569.311 1661.35,560.796 1671.88,551.429 1679.42,544.83 1686.96,538.306 1693.37,532.849 1702.7,525.078 1710.72,518.528 1720.07,511.081 1728.86,504.319 1736.83,498.325 1743.63,493.374 1752.51,487.14 1760.09,481.987 1767.97,476.822 1776.32,471.625 1783.57,467.29 1789.75,463.728 1795.93,460.336 1803.11,456.594 1810.98,452.677 1817.56,449.605 1825.93,445.993 1833.03,443.137 1838.9,440.912 1844.78,438.86 1851.86,436.613 1859.3,434.46 1867.23,432.421 1874.56,430.837 1881.52,429.549 1887.1,428.645 1892.68,427.899 1899.99,427.181 1906.96,426.713 1912.6,426.471 1918.24,426.395 1925.44,426.549 1932.51,426.917 1938.23,427.359 1943.95,427.974 1951.06,428.98 1958.31,430.22 1964.52,431.454 1970.74,432.893 1977.74,434.742 1985.51,437.006 1992.06,439.122 2000.42,442.14 2007.51,444.917 2013.43,447.376 2019.35,450 2026.62,453.444 2034.21,457.23 2042.36,461.543 2050.48,466.128 2057.78,470.44 2064.04,474.272 2070.31,478.26 2077.82,483.237 2085.99,488.821 2093.48,494.13 2102.64,500.877 2110.55,506.866 2118.12,512.757 2127.6,520.356 2135.75,527.042 2143.84,533.818 2153.86,542.407 2160.4,548.096 2166.94,553.853 2177.75,563.516 2186.74,571.664 2196.64,580.725 2209.27,592.391 2220.73,603.042 2236.01,617.293 2247.14,627.646 2258.26,637.952 2266.69,645.709 2275.12,653.391 2284.24,661.635 2293.13,669.567 2302.02,677.365 2310.65,684.837 2318,691.079 " />
</g>

<g fill="none" stroke="#dd5400" stroke-opacity="1" stroke-width="4" stroke-linecap="butt" stroke-linejoin="round" transform="matrix(0.5,0,0,0.5,0,0)"
font-family="Helvetica" font-size="60" font-weight="700" font-style="normal" 
>
<polyline fill="none" vector-effect="none" points="333,439.667 335.226,439.667 337.452,439.666 339.953,439.662 342.845,439.646 346.652,439.583 351.19,439.404 355.993,439.04 361.903,438.293 369.476,436.805 376.843,434.778 385.405,431.723 392.259,428.764 399.114,425.385 408.169,420.342 414.242,416.629 420.315,412.68 430.05,405.926 438.371,399.804 447.67,392.655 456.564,385.586 464.8,378.893 472.23,372.766 481.182,365.325 489.128,358.703 495.954,353.02 504.592,345.875 512.141,339.699 520.982,332.568 528.133,326.908 535.562,321.148 541.495,316.644 547.428,312.232 554.721,306.952 562.25,301.679 570.372,296.2 577.821,291.383 584.911,286.998 590.622,283.607 596.333,280.347 603.582,276.41 610.745,272.747 616.611,269.915 622.476,267.239 629.521,264.24 636.899,261.354 644.928,258.509 652.01,256.264 658.962,254.308 664.493,252.925 670.024,251.696 677.421,250.3 684.329,249.256 689.93,248.59 695.531,248.086 702.842,247.677 709.859,247.553 715.56,247.64 721.262,247.895 728.483,248.466 735.688,249.309 741.717,250.219 747.746,251.315 754.869,252.854 762.497,254.789 770.512,257.134 778.517,259.795 785.707,262.455 791.939,264.96 798.172,267.648 805.501,271.044 813.506,275.035 820.375,278.684 829.029,283.577 836.601,288.119 845.731,293.906 853.389,299.016 861.27,304.511 868.372,309.655 875.474,314.977 883.478,321.182 891.722,327.788 898.344,333.245 906.736,340.342 913.152,345.9 919.568,351.562 930.225,361.185 939.203,369.484 949.437,379.135 961.953,391.178 973.485,402.468 988.91,417.788 999.995,428.905 1011.08,440.071 1019.52,448.587 1027.96,457.095 1037.09,466.27 1048.15,477.321 1057.26,486.339 1064.63,493.582 1070.71,499.492 1079.19,507.659 1087.43,515.477 1096.33,523.794 1105.18,531.893 1113.15,539.032 1120.17,545.197 1129.05,552.811 1136.65,559.147 1144.88,565.823 1153.22,572.372 1160.55,577.932 1169.12,584.205 1176.08,589.098 1183.33,594.007 1189.08,597.753 1194.82,601.371 1202.17,605.796 1209.36,609.91 1215.2,613.09 1221.03,616.123 1228.13,619.605 1235.53,622.988 1243.66,626.421 1250.69,629.137 1257.68,631.601 1263.22,633.389 1268.76,635.031 1276.14,636.978 1283.06,638.555 1288.65,639.658 1294.25,640.604 1301.52,641.595 1308.53,642.292 1314.2,642.674 1319.87,642.893 1327.05,642.932 1334.2,642.706 1340.08,642.325 1345.97,641.769 1353.05,640.862 1360.5,639.632 1368.48,638.006 1376.04,636.174 1383.11,634.199 1388.93,632.39 1394.75,630.417 1402.17,627.666 1409.52,624.677 1415.83,621.917 1422.13,618.975 1429.43,615.337 1437.55,611.016 1444.57,607.052 1453.48,601.72 1461.1,596.897 1470.05,590.947 1478.88,584.77 1486.77,579.014 1494.17,573.412 1503.63,565.978 1511.75,559.375 1519.87,552.571 1529.8,543.994 1538.44,536.317 1545.51,529.904 1555.62,520.532 1564.79,511.849 1572.28,504.641 1583.6,493.579 1594.75,482.51 1613.62,463.503 1623.82,453.118 1634.03,442.699 1643.88,432.638 1651.93,424.428 1661.35,414.85 1671.88,404.214 1679.42,396.658 1686.96,389.165 1693.37,382.848 1702.7,373.765 1710.72,366.08 1720.07,357.256 1728.86,349.145 1736.83,341.931 1743.63,335.911 1752.51,328.225 1760.09,321.846 1767.97,315.388 1776.32,308.763 1783.57,303.202 1789.75,298.603 1795.93,294.139 1803.11,289.133 1810.98,283.87 1817.56,279.661 1825.93,274.559 1833.03,270.463 1838.9,267.234 1844.78,264.154 1851.86,260.65 1859.3,257.221 1867.23,253.838 1874.56,250.978 1881.52,248.505 1887.1,246.689 1892.68,245.023 1899.99,243.073 1906.96,241.469 1912.6,240.347 1918.24,239.385 1925.44,238.392 1932.51,237.678 1938.23,237.286 1943.95,237.06 1951.06,237.016 1958.31,237.242 1964.52,237.648 1970.74,238.25 1977.74,239.169 1985.51,240.482 1992.06,241.82 2000.42,243.844 2007.51,245.836 2013.43,247.687 2019.35,249.707 2026.62,252.423 2034.21,255.523 2042.36,259.153 2050.48,263.073 2057.78,266.85 2064.04,270.274 2070.31,273.866 2077.82,278.398 2085.99,283.584 2093.48,288.571 2102.64,294.964 2110.55,300.733 2118.12,306.459 2127.6,313.9 2135.75,320.535 2143.84,327.313 2153.86,335.969 2160.4,341.762 2166.94,347.659 2177.75,357.622 2186.74,366.105 2196.64,375.613 2209.27,387.963 2220.73,399.355 2236.01,414.756 2247.14,426.063 2258.26,437.412 2266.69,446.017 2275.12,454.609 2284.24,463.878 2293.13,472.865 2302.02,481.783 2310.65,490.361 2318,497.591 " />
</g>

<g fill="none" stroke="#edb120" stroke-opacity="1" stroke-width="4" stroke-linecap="butt" stroke-linejoin="round" transform="matrix(0.5,0,0,0.5,0,0)"
font-family="Helvetica" font-size="60" font-weight="700" font-style="normal" 
>
<polyline fill="none" vector-effect="none" points="333,783.333 335.226,783.247 337.452,782.754 339.953,781.529 342.845,779.301 346.652,775.531 351.19,770.65 355.993,765.69 361.903,760.06 369.476,753.287 376.843,746.814 385.405,739.321 392.259,733.464 399.114,727.747 408.169,720.231 414.242,715.258 420.315,710.451 430.05,702.854 438.371,696.393 447.67,689.586 456.564,683.163 464.8,677.314 472.23,672.392 481.182,666.542 489.128,661.421 495.954,657.401 504.592,652.441 512.141,648.103 520.982,643.579 528.133,640.099 535.562,636.456 541.495,633.804 547.428,631.433 554.721,628.574 562.25,625.614 570.372,623.007 577.821,620.844 584.911,618.737 590.622,617.276 596.333,616.142 603.582,614.801 610.745,613.433 616.611,612.626 622.476,612.125 629.521,611.575 636.899,610.98 644.928,610.953 652.01,611.182 658.962,611.343 664.493,611.654 670.024,612.323 677.421,613.375 684.329,614.288 689.93,615.239 695.531,616.532 702.842,618.347 709.859,620.029 715.56,621.642 721.262,623.569 728.483,626.097 735.688,628.575 741.717,630.959 747.746,633.621 754.869,636.794 762.497,640.189 770.512,644.318 778.517,648.619 785.707,652.441 791.939,656.038 798.172,659.872 805.501,664.389 813.506,669.371 820.375,674.016 829.029,679.983 836.601,685.183 845.731,691.887 853.389,697.635 861.27,703.531 868.372,709.078 875.474,714.761 883.478,721.13 891.722,727.836 898.344,733.371 906.736,740.377 913.152,745.749 919.568,751.23 930.225,760.386 939.203,768.103 949.437,776.994 961.953,787.855 973.485,797.844 988.91,811.157 999.995,820.576 1011.08,829.961 1019.52,836.934 1027.96,843.831 1037.09,851.268 1048.15,859.892 1057.26,866.953 1064.63,872.525 1070.71,876.918 1079.19,883.005 1087.43,888.878 1096.33,894.76 1105.18,900.521 1113.15,905.613 1120.17,909.72 1129.05,914.808 1136.65,919.143 1144.88,923.298 1153.22,927.347 1160.55,930.916 1169.12,934.521 1176.08,937.238 1183.33,940.118 1189.08,942.184 1194.82,943.928 1202.17,946.054 1209.36,948.179 1215.2,949.605 1221.03,950.733 1228.13,952.051 1235.53,953.444 1243.66,954.353 1250.69,954.893 1257.68,955.491 1263.22,955.778 1268.76,955.707 1276.14,955.46 1283.06,955.296 1288.65,954.943 1294.25,954.248 1301.52,953.217 1308.53,952.282 1314.2,951.274 1319.87,949.943 1327.05,948.166 1334.2,946.442 1340.08,944.718 1345.97,942.701 1353.05,940.23 1360.5,937.651 1368.48,934.319 1376.04,930.94 1383.11,927.831 1388.93,925.061 1394.75,921.997 1402.17,918.014 1409.52,914.1 1415.83,910.45 1422.13,906.568 1429.43,902.069 1437.55,896.995 1444.57,892.235 1453.48,886.097 1461.1,880.845 1470.05,874.237 1478.88,867.614 1486.77,861.682 1494.17,855.83 1503.63,848.268 1511.75,841.773 1519.87,835.031 1529.8,826.737 1538.44,819.48 1545.51,813.424 1555.62,804.743 1564.79,796.841 1572.28,790.332 1583.6,780.503 1594.75,770.84 1613.62,754.556 1623.82,745.892 1634.03,737.251 1643.88,729.117 1651.93,722.537 1661.35,714.872 1671.88,706.678 1679.42,700.837 1686.96,695.082 1693.37,690.42 1702.7,683.724 1710.72,678 1720.07,671.814 1728.86,666.096 1736.83,661.003 1743.63,657.029 1752.51,651.941 1760.09,647.611 1767.97,643.614 1776.32,639.567 1783.57,636.028 1789.75,633.332 1795.93,630.895 1803.11,628.074 1810.98,625.048 1817.56,622.997 1825.93,620.565 1833.03,618.467 1838.9,617.039 1844.78,615.907 1851.86,614.59 1859.3,613.193 1867.23,612.313 1874.56,611.752 1881.52,611.159 1887.1,610.888 1892.68,610.969 1899.99,611.212 1906.96,611.381 1912.6,611.759 1918.24,612.472 1925.44,613.491 1932.51,614.439 1938.23,615.485 1943.95,616.841 1951.06,618.597 1958.31,620.352 1964.52,622.222 1970.74,624.375 1977.74,626.807 1985.51,629.557 1992.06,632.337 2000.42,636.07 2007.51,639.194 2013.43,642.065 2019.35,645.203 2026.62,649.103 2034.21,653.15 2042.36,658.007 2050.48,663.031 2057.78,667.51 2064.04,671.598 2070.31,675.9 2077.82,681.073 2085.99,686.746 2093.48,692.298 2102.64,699.164 2110.55,705.121 2118.12,711.111 2127.6,718.681 2135.75,725.219 2143.84,731.942 2153.86,740.308 2160.4,745.785 2166.94,751.372 2177.75,760.655 2186.74,768.393 2196.64,776.995 2209.27,787.948 2220.73,797.874 2236.01,811.068 2247.14,820.522 2258.26,829.942 2266.69,836.903 2275.12,843.789 2284.24,851.219 2293.13,858.17 2302.02,865.048 2310.65,871.653 2318,876.977 " />
</g>

<g fill="none" stroke="#8516d1" stroke-opacity="1" stroke-width="4" stroke-linecap="butt" stroke-linejoin="round" transform="matrix(0.5,0,0,0.5,0,0)"
font-family="Helvetica" font-size="60" font-weight="700" font-style="normal" 
>
<polyline fill="none" vector-effect="none" points="333,955.167 335.226,953.245 337.452,951.323 339.953,949.164 342.845,946.667 346.652,943.38 351.19,939.462 355.993,935.315 361.903,930.266 369.476,923.831 376.843,917.571 385.405,910.363 392.259,904.723 399.114,899.084 408.169,891.647 414.242,886.893 420.315,882.14 430.05,874.52 438.371,868.299 447.67,861.507 456.564,855.01 464.8,849.447 472.23,844.495 481.182,838.527 489.128,833.712 495.954,829.669 504.592,824.554 512.141,820.463 520.982,815.967 528.133,812.331 535.562,808.829 541.495,806.357 547.428,803.884 554.721,800.845 562.25,798.174 570.372,795.588 577.821,793.215 584.911,791.212 590.622,789.984 596.333,788.755 603.582,787.195 610.745,786.013 616.611,785.377 622.476,784.741 629.521,783.977 636.899,783.672 644.928,783.672 652.01,783.672 658.962,783.855 664.493,784.455 670.024,785.055 677.421,785.857 684.329,786.831 689.93,788.036 695.531,789.241 702.842,790.814 709.859,792.602 715.56,794.417 721.262,796.233 728.483,798.533 735.688,801.179 741.717,803.692 747.746,806.205 754.869,809.173 762.497,812.851 770.512,816.927 778.517,820.997 785.707,824.964 791.939,828.655 798.172,832.346 805.501,836.686 813.506,841.915 820.375,846.493 829.029,852.262 836.601,857.61 845.731,864.279 853.389,869.872 861.27,875.862 868.372,881.421 875.474,886.98 883.478,893.313 891.722,900.095 898.344,905.544 906.736,912.449 913.152,917.901 919.568,923.353 930.225,932.41 939.203,940.141 949.437,948.977 961.953,959.783 973.485,969.739 988.91,982.957 999.995,992.376 1011.08,1001.67 1019.52,1008.62 1027.96,1015.56 1037.09,1022.85 1048.15,1031.51 1057.26,1038.59 1064.63,1043.97 1070.71,1048.41 1079.19,1054.6 1087.43,1060.23 1096.33,1066.17 1105.18,1072.07 1113.15,1076.87 1120.17,1081.02 1129.05,1086.28 1136.65,1090.33 1144.88,1094.51 1153.22,1098.76 1160.55,1102.08 1169.12,1105.65 1176.08,1108.55 1183.33,1111.36 1189.08,1113.19 1194.82,1115.02 1202.17,1117.35 1209.36,1119.3 1215.2,1120.56 1221.03,1121.81 1228.13,1123.34 1235.53,1124.45 1243.66,1125.33 1250.69,1126.09 1257.68,1126.66 1263.22,1126.66 1268.76,1126.66 1276.14,1126.66 1283.06,1126.42 1288.65,1125.82 1294.25,1125.21 1301.52,1124.42 1308.53,1123.37 1314.2,1122.15 1319.87,1120.94 1327.05,1119.39 1334.2,1117.5 1340.08,1115.62 1345.97,1113.75 1353.05,1111.49 1360.5,1108.65 1368.48,1105.32 1376.04,1102.18 1383.11,1099 1388.93,1096.04 1394.75,1093.08 1402.17,1089.31 1409.52,1085.24 1415.83,1081.51 1422.13,1077.78 1429.43,1073.45 1437.55,1068.13 1444.57,1063.45 1453.48,1057.51 1461.1,1052.07 1470.05,1045.53 1478.88,1039.08 1486.77,1032.99 1494.17,1027.2 1503.63,1019.79 1511.75,1013.18 1519.87,1006.5 1529.8,998.332 1538.44,991.003 1545.51,984.998 1555.62,976.402 1564.79,968.484 1572.28,962.015 1583.6,952.241 1594.75,942.611 1613.62,926.441 1623.82,917.767 1634.03,909.2 1643.88,901.098 1651.93,894.476 1661.35,886.976 1671.88,878.735 1679.42,872.833 1686.96,867.295 1693.37,862.612 1702.7,855.796 1710.72,850.311 1720.07,844.073 1728.86,838.219 1736.83,833.419 1743.63,829.397 1752.51,824.136 1760.09,820.09 1767.97,816.081 1776.32,811.836 1783.57,808.498 1789.75,805.923 1795.93,803.348 1803.11,800.355 1810.98,797.689 1817.56,795.596 1825.93,792.931 1833.03,791.018 1838.9,789.754 1844.78,788.489 1851.86,786.965 1859.3,785.867 1867.23,785.007 1874.56,784.213 1881.52,783.672 1887.1,783.672 1892.68,783.672 1899.99,783.672 1906.96,783.941 1912.6,784.552 1918.24,785.163 1925.44,785.944 1932.51,787.04 1938.23,788.27 1943.95,789.5 1951.06,791.029 1958.31,792.995 1964.52,794.975 1970.74,796.954 1977.74,799.184 1985.51,802.268 1992.06,804.997 2000.42,808.481 2007.51,811.733 2013.43,814.743 2019.35,817.753 2026.62,821.452 2034.21,825.726 2042.36,830.556 2050.48,835.366 2057.78,839.959 2064.04,844.132 2070.31,848.305 2077.82,853.315 2085.99,859.198 2093.48,864.669 2102.64,871.361 2110.55,877.478 2118.12,883.405 2127.6,890.822 2135.75,897.476 2143.84,904.132 2153.86,912.377 2160.4,917.932 2166.94,923.488 2177.75,932.671 2186.74,940.424 2196.64,948.973 2209.27,959.872 2220.73,969.765 2236.01,982.864 2247.14,992.318 2258.26,1001.65 2266.69,1008.58 2275.12,1015.52 2284.24,1022.8 2293.13,1029.76 2302.02,1036.71 2310.65,1043.1 2318,1048.47 " />
</g>

<g fill="#ffffff" fill-opacity="1" stroke="none" transform="matrix(5e-05,0,0,5e-05,0,0)"
font-family="Helvetica" font-size="60" font-weight="700" font-style="normal" 
>
<path vector-effect="none" fill-rule="evenodd" d="M2.048e+07,1.12e+06 L2.048e+07,3.44e+06 L2.302e+07,3.44e+06 L2.302e+07,1.12e+06 L2.048e+07,1.12e+06"/>
</g>

<g fill="#1171be" fill-opacity="1" stroke="#1171be" stroke-opacity="1" stroke-width="4" stroke-linecap="butt" stroke-linejoin="round" transform="matrix(0.5,0,0,0.5,0,0)"
font-family="Helvetica" font-size="60" font-weight="700" font-style="normal" 
>
<polyline fill="none" vector-effect="none" points="2053.99,142.967 2113.87,142.967 " />
</g>

<g fill="#dd5400" fill-opacity="1" stroke="#dd5400" stroke-opacity="1" stroke-width="4" stroke-linecap="butt" stroke-linejoin="round" transform="matrix(0.5,0,0,0.5,0,0)"
font-family="Helvetica" font-size="60" font-weight="700" font-style="normal" 
>
<polyline fill="none" vector-effect="none" points="2053.99,199.656 2113.87,199.656 " />
</g>

<g fill="#edb120" fill-opacity="1" stroke="#edb120" stroke-opacity="1" stroke-width="4" stroke-linecap="butt" stroke-linejoin="round" transform="matrix(0.5,0,0,0.5,0,0)"
font-family="Helvetica" font-size="60" font-weight="700" font-style="normal" 
>
<polyline fill="none" vector-effect="none" points="2053.99,256.344 2113.87,256.344 " />
</g>

<g fill="#8516d1" fill-opacity="1" stroke="#8516d1" stroke-opacity="1" stroke-width="4" stroke-linecap="butt" stroke-linejoin="round" transform="matrix(0.5,0,0,0.5,0,0)"
font-family="Helvetica" font-size="60" font-weight="700" font-style="normal" 
>
<polyline fill="none" vector-effect="none" points="2053.99,313.033 2113.87,313.033 " />
</g>

<g fill="#212121" fill-opacity="1" stroke="#212121" stroke-opacity="1" stroke-width="1" stroke-linecap="square" stroke-linejoin="bevel" transform="matrix(0.5,0,0,0.5,1059.18,80.2333)"
font-family="Helvetica" font-size="50" font-weight="400" font-style="normal" 
>
<text fill="#212121" fill-opacity="1" stroke="none" xml:space="preserve" x="0" y="0" font-family="Helvetica" font-size="50" font-weight="400" font-style="normal" 
 >Chassis</text>
</g>

<g fill="#212121" fill-opacity="1" stroke="#212121" stroke-opacity="1" stroke-width="1" stroke-linecap="square" stroke-linejoin="bevel" transform="matrix(0.5,0,0,0.5,1059.18,108.578)"
font-family="Helvetica" font-size="50" font-weight="400" font-style="normal" 
>
<text fill="#212121" fill-opacity="1" stroke="none" xml:space="preserve" x="0" y="0" font-family="Helvetica" font-size="50" font-weight="400" font-style="normal" 
 >Seat</text>
</g>

<g fill="#212121" fill-opacity="1" stroke="#212121" stroke-opacity="1" stroke-width="1" stroke-linecap="square" stroke-linejoin="bevel" transform="matrix(0.5,0,0,0.5,1059.18,136.922)"
font-family="Helvetica" font-size="50" font-weight="400" font-style="normal" 
>
<text fill="#212121" fill-opacity="1" stroke="none" xml:space="preserve" x="0" y="0" font-family="Helvetica" font-size="50" font-weight="400" font-style="normal" 
 >Wheel</text>
</g>

<g fill="#212121" fill-opacity="1" stroke="#212121" stroke-opacity="1" stroke-width="1" stroke-linecap="square" stroke-linejoin="bevel" transform="matrix(0.5,0,0,0.5,1059.18,165.267)"
font-family="Helvetica" font-size="50" font-weight="400" font-style="normal" 
>
<text fill="#212121" fill-opacity="1" stroke="none" xml:space="preserve" x="0" y="0" font-family="Helvetica" font-size="50" font-weight="400" font-style="normal" 
 >Ground</text>
</g>

<g fill="none" stroke="#212121" stroke-opacity="1" stroke-width="1" stroke-linecap="butt" stroke-linejoin="miter" stroke-miterlimit="2" transform="matrix(0.5,0,0,0.5,0,0)"
font-family="Helvetica" font-size="50" font-weight="400" font-style="normal" 
>
<path vector-effect="none" fill-rule="evenodd" d="M2048,344 L2048,112 L2302,112 L2302,344 L2048,344"/>
</g>
</g>
</svg>
