<?xml version="1.0" encoding="UTF-8" standalone="no"?>
<svg width="451.908mm" height="225.778mm"
 viewBox="0 0 1281 640"
 xmlns="http://www.w3.org/2000/svg" xmlns:xlink="http://www.w3.org/1999/xlink"  version="1.2" baseProfile="tiny">
<title>Qt SVG Document</title>
<desc>MATLAB, The MathWorks, Inc. Version 25.2.0.2998904 R2025b</desc>
<defs>
</defs>
<g fill="none" stroke="black" stroke-width="1" fill-rule="evenodd" stroke-linecap="square" stroke-linejoin="bevel" >

<g fill="#ffffff" fill-opacity="1" stroke="none" transform="matrix(0.5,0,0,0.5,0,0)"
font-family="MS Shell Dlg 2" font-size="8" font-weight="400" font-style="normal" 
>
<path vector-effect="none" fill-rule="evenodd" d="M0,0 L2562,0 L2562,1281 L0,1281 L0,0"/>
</g>

<g fill="#ffffff" fill-opacity="1" stroke="none" transform="matrix(5e-05,0,0,5e-05,0,0)"
font-family="MS Shell Dlg 2" font-size="8" font-weight="400" font-style="normal" 
>
<path vector-effect="none" fill-rule="evenodd" d="M3.33e+06,960000 L3.33e+06,1.127e+07 L2.318e+07,1.127e+07 L2.318e+07,960000 L3.33e+06,960000"/>
</g>

<g fill="#212121" fill-opacity="0.14902" stroke="#212121" stroke-opacity="0.14902" stroke-width="1" stroke-linecap="butt" stroke-linejoin="round" transform="matrix(0.5,0,0,0.5,0,0)"
font-family="MS Shell Dlg 2" font-size="8" font-weight="400" font-style="normal" 
>
<polyline fill="none" vector-effect="none" points="333,96 333,1127 " />
<polyline fill="none" vector-effect="none" points="730,96 730,1127 " />
<polyline fill="none" vector-effect="none" points="1127,96 1127,1127 " />
<polyline fill="none" vector-effect="none" points="1524,96 1524,1127 " />
<polyline fill="none" vector-effect="none" points="1921,96 1921,1127 " />
<polyline fill="none" vector-effect="none" points="2318,96 2318,1127 " />
<polyline fill="none" vector-effect="none" points="333,1127 2318,1127 " />
<polyline fill="none" vector-effect="none" points="333,920.8 2318,920.8 " />
<polyline fill="none" vector-effect="none" points="333,714.6 2318,714.6 " />
<polyline fill="none" vector-effect="none" points="333,508.4 2318,508.4 " />
<polyline fill="none" vector-effect="none" points="333,302.2 2318,302.2 " />
<polyline fill="none" vector-effect="none" points="333,96 2318,96 " />
</g>

<g fill="#212121" fill-opacity="1" stroke="#212121" stroke-opacity="1" stroke-width="1" stroke-linecap="square" stroke-linejoin="bevel" transform="matrix(0.5,0,0,0.5,608.25,633.5)"
font-family="Helvetica" font-size="60" font-weight="400" font-style="normal" 
>
<text fill="#212121" fill-opacity="1" stroke="none" xml:space="preserve" x="0" y="0" font-family="Helvetica" font-size="60" font-weight="400" font-style="normal" 
 >Time (s)</text>
</g>

<g fill="#212121" fill-opacity="1" stroke="#212121" stroke-opacity="1" stroke-width="1" stroke-linecap="square" stroke-linejoin="round" transform="matrix(0.5,0,0,0.5,0,0)"
font-family="Helvetica" font-size="60" font-weight="400" font-style="normal" 
>
<polyline fill="none" vector-effect="none" points="333,1127 2318,1127 " />
<polyline fill="none" vector-effect="none" points="333,96 2318,96 " />
<polyline fill="none" vector-effect="none" points="333,1127 333,1107.15 " />
<polyline fill="none" vector-effect="none" points="333,115.85 333,96 " />
<polyline fill="none" vector-effect="none" points="730,1127 730,1107.15 " />
<polyline fill="none" vector-effect="none" points="730,115.85 730,96 " />
<polyline fill="none" vector-effect="none" points="1127,1127 1127,1107.15 " />
<polyline fill="none" vector-effect="none" points="1127,115.85 1127,96 " />
<polyline fill="none" vector-effect="none" points="1524,1127 1524,1107.15 " />
<polyline fill="none" vector-effect="none" points="1524,115.85 1524,96 " />
<polyline fill="none" vector-effect="none" points="1921,1127 1921,1107.15 " />
<polyline fill="none" vector-effect="none" points="1921,115.85 1921,96 " />
<polyline fill="none" vector-effect="none" points="2318,1127 2318,1107.15 " />
<polyline fill="none" vector-effect="none" points="2318,115.85 2318,96 " />
</g>

<g fill="#212121" fill-opacity="1" stroke="#212121" stroke-opacity="1" stroke-width="1" stroke-linecap="square" stroke-linejoin="bevel" transform="matrix(0.5,0,0,0.5,158.25,599)"
font-family="Helvetica" font-size="60" font-weight="400" font-style="normal" 
>
<text fill="#212121" fill-opacity="1" stroke="none" xml:space="preserve" x="0" y="0" font-family="Helvetica" font-size="60" font-weight="400" font-style="normal" 
 >0</text>
</g>

<g fill="#212121" fill-opacity="1" stroke="#212121" stroke-opacity="1" stroke-width="1" stroke-linecap="square" stroke-linejoin="bevel" transform="matrix(0.5,0,0,0.5,356.75,599)"
font-family="Helvetica" font-size="60" font-weight="400" font-style="normal" 
>
<text fill="#212121" fill-opacity="1" stroke="none" xml:space="preserve" x="0" y="0" font-family="Helvetica" font-size="60" font-weight="400" font-style="normal" 
 >2</text>
</g>

<g fill="#212121" fill-opacity="1" stroke="#212121" stroke-opacity="1" stroke-width="1" stroke-linecap="square" stroke-linejoin="bevel" transform="matrix(0.5,0,0,0.5,555.25,599)"
font-family="Helvetica" font-size="60" font-weight="400" font-style="normal" 
>
<text fill="#212121" fill-opacity="1" stroke="none" xml:space="preserve" x="0" y="0" font-family="Helvetica" font-size="60" font-weight="400" font-style="normal" 
 >4</text>
</g>

<g fill="#212121" fill-opacity="1" stroke="#212121" stroke-opacity="1" stroke-width="1" stroke-linecap="square" stroke-linejoin="bevel" transform="matrix(0.5,0,0,0.5,753.75,599)"
font-family="Helvetica" font-size="60" font-weight="400" font-style="normal" 
>
<text fill="#212121" fill-opacity="1" stroke="none" xml:space="preserve" x="0" y="0" font-family="Helvetica" font-size="60" font-weight="400" font-style="normal" 
 >6</text>
</g>

<g fill="#212121" fill-opacity="1" stroke="#212121" stroke-opacity="1" stroke-width="1" stroke-linecap="square" stroke-linejoin="bevel" transform="matrix(0.5,0,0,0.5,952.25,599)"
font-family="Helvetica" font-size="60" font-weight="400" font-style="normal" 
>
<text fill="#212121" fill-opacity="1" stroke="none" xml:space="preserve" x="0" y="0" font-family="Helvetica" font-size="60" font-weight="400" font-style="normal" 
 >8</text>
</g>

<g fill="#212121" fill-opacity="1" stroke="#212121" stroke-opacity="1" stroke-width="1" stroke-linecap="square" stroke-linejoin="bevel" transform="matrix(0.5,0,0,0.5,1142.5,599)"
font-family="Helvetica" font-size="60" font-weight="400" font-style="normal" 
>
<text fill="#212121" fill-opacity="1" stroke="none" xml:space="preserve" x="0" y="0" font-family="Helvetica" font-size="60" font-weight="400" font-style="normal" 
 >10</text>
</g>

<g fill="#212121" fill-opacity="1" stroke="#212121" stroke-opacity="1" stroke-width="1" stroke-linecap="square" stroke-linejoin="bevel" transform="matrix(0,-0.5,0.5,0,107,422.75)"
font-family="Helvetica" font-size="60" font-weight="400" font-style="normal" 
>
<text fill="#212121" fill-opacity="1" stroke="none" xml:space="preserve" x="0" y="0" font-family="Helvetica" font-size="60" font-weight="400" font-style="normal" 
 >Displacement (m)</text>
</g>

<g fill="#212121" fill-opacity="1" stroke="#212121" stroke-opacity="1" stroke-width="1" stroke-linecap="square" stroke-linejoin="round" transform="matrix(0.5,0,0,0.5,0,0)"
font-family="Helvetica" font-size="60" font-weight="400" font-style="normal" 
>
<polyline fill="none" vector-effect="none" points="333,1127 333,96 " />
<polyline fill="none" vector-effect="none" points="2318,1127 2318,96 " />
<polyline fill="none" vector-effect="none" points="333,1127 352.85,1127 " />
<polyline fill="none" vector-effect="none" points="2298.15,1127 2318,1127 " />
<polyline fill="none" vector-effect="none" points="333,920.8 352.85,920.8 " />
<polyline fill="none" vector-effect="none" points="2298.15,920.8 2318,920.8 " />
<polyline fill="none" vector-effect="none" points="333,714.6 352.85,714.6 " />
<polyline fill="none" vector-effect="none" points="2298.15,714.6 2318,714.6 " />
<polyline fill="none" vector-effect="none" points="333,508.4 352.85,508.4 " />
<polyline fill="none" vector-effect="none" points="2298.15,508.4 2318,508.4 " />
<polyline fill="none" vector-effect="none" points="333,302.2 352.85,302.2 " />
<polyline fill="none" vector-effect="none" points="2298.15,302.2 2318,302.2 " />
<polyline fill="none" vector-effect="none" points="333,96 352.85,96 " />
<polyline fill="none" vector-effect="none" points="2298.15,96 2318,96 " />
</g>

<g fill="#212121" fill-opacity="1" stroke="#212121" stroke-opacity="1" stroke-width="1" stroke-linecap="square" stroke-linejoin="bevel" transform="matrix(0.5,0,0,0.5,142,574)"
font-family="Helvetica" font-size="60" font-weight="400" font-style="normal" 
>
<text fill="#212121" fill-opacity="1" stroke="none" xml:space="preserve" x="0" y="0" font-family="Helvetica" font-size="60" font-weight="400" font-style="normal" 
 >0</text>
</g>

<g fill="#212121" fill-opacity="1" stroke="#212121" stroke-opacity="1" stroke-width="1" stroke-linecap="square" stroke-linejoin="bevel" transform="matrix(0.5,0,0,0.5,117,470.9)"
font-family="Helvetica" font-size="60" font-weight="400" font-style="normal" 
>
<text fill="#212121" fill-opacity="1" stroke="none" xml:space="preserve" x="0" y="0" font-family="Helvetica" font-size="60" font-weight="400" font-style="normal" 
 >0.2</text>
</g>

<g fill="#212121" fill-opacity="1" stroke="#212121" stroke-opacity="1" stroke-width="1" stroke-linecap="square" stroke-linejoin="bevel" transform="matrix(0.5,0,0,0.5,117,367.8)"
font-family="Helvetica" font-size="60" font-weight="400" font-style="normal" 
>
<text fill="#212121" fill-opacity="1" stroke="none" xml:space="preserve" x="0" y="0" font-family="Helvetica" font-size="60" font-weight="400" font-style="normal" 
 >0.4</text>
</g>

<g fill="#212121" fill-opacity="1" stroke="#212121" stroke-opacity="1" stroke-width="1" stroke-linecap="square" stroke-linejoin="bevel" transform="matrix(0.5,0,0,0.5,117,264.7)"
font-family="Helvetica" font-size="60" font-weight="400" font-style="normal" 
>
<text fill="#212121" fill-opacity="1" stroke="none" xml:space="preserve" x="0" y="0" font-family="Helvetica" font-size="60" font-weight="400" font-style="normal" 
 >0.6</text>
</g>

<g fill="#212121" fill-opacity="1" stroke="#212121" stroke-opacity="1" stroke-width="1" stroke-linecap="square" stroke-linejoin="bevel" transform="matrix(0.5,0,0,0.5,117,161.6)"
font-family="Helvetica" font-size="60" font-weight="400" font-style="normal" 
>
<text fill="#212121" fill-opacity="1" stroke="none" xml:space="preserve" x="0" y="0" font-family="Helvetica" font-size="60" font-weight="400" font-style="normal" 
 >0.8</text>
</g>

<g fill="#212121" fill-opacity="1" stroke="#212121" stroke-opacity="1" stroke-width="1" stroke-linecap="square" stroke-linejoin="bevel" transform="matrix(0.5,0,0,0.5,142,58.5)"
font-family="Helvetica" font-size="60" font-weight="400" font-style="normal" 
>
<text fill="#212121" fill-opacity="1" stroke="none" xml:space="preserve" x="0" y="0" font-family="Helvetica" font-size="60" font-weight="400" font-style="normal" 
 >1</text>
</g>

<g fill="#212121" fill-opacity="1" stroke="#212121" stroke-opacity="1" stroke-width="1" stroke-linecap="square" stroke-linejoin="bevel" transform="matrix(0.5,0,0,0.5,323,37.75)"
font-family="Helvetica" font-size="60" font-weight="700" font-style="normal" 
>
<text fill="#212121" fill-opacity="1" stroke="none" xml:space="preserve" x="0" y="0" font-family="Helvetica" font-size="60" font-weight="700" font-style="normal" 
 >Displacement of Quarter Car Model (Smaller k2)</text>
</g>

<g fill="none" stroke="#1171be" stroke-opacity="1" stroke-width="4" stroke-linecap="butt" stroke-linejoin="round" transform="matrix(0.5,0,0,0.5,0,0)"
font-family="Helvetica" font-size="60" font-weight="700" font-style="normal" 
>
<polyline fill="none" vector-effect="none" points="333,714.6 372.7,714.6 412.4,714.6 452.1,714.6 491.8,714.6 531.5,714.6 531.5,714.6 531.5,714.6 533.366,714.599 534.882,714.589 537.054,714.529 539.634,714.329 542.698,713.851 546.136,713.024 549.314,712.068 552.665,710.931 557.129,709.219 560.789,707.606 565.048,705.484 569.657,702.947 573.949,700.406 579.911,696.603 584.713,693.315 590.969,688.78 596.679,684.425 603.248,679.18 611.393,672.366 618.753,665.944 626.75,658.696 635.731,650.24 645.728,640.438 655.457,630.506 664.125,621.335 672.677,611.991 681.744,601.774 691.23,590.762 701.201,578.868 712.323,565.266 719.336,556.544 726.35,547.732 735.343,536.341 745.372,523.565 756.463,509.426 763.025,501.079 769.586,492.768 778.466,481.589 786.984,470.962 796.397,459.34 806.104,447.5 818.2,432.946 823.854,426.222 827.703,421.667 830.687,418.151 833.67,414.677 836.425,411.597 839.271,408.63 843.111,404.994 846.525,402.024 849.752,399.363 853.548,396.392 857.343,393.627 861.18,391.06 865.34,388.506 869.5,386.138 874.889,383.317 879.865,380.958 885.811,378.415 891.435,376.242 897.648,374.08 903.86,372.149 911.741,369.993 920.615,367.933 929.395,366.257 938.821,364.853 948.789,363.812 960.547,363.181 966.761,363.103 972.974,363.207 981.674,363.64 989.479,364.304 998.03,365.307 1006.75,366.594 1015.95,368.198 1025.55,370.088 1035.66,372.244 1047.36,374.861 1053.67,376.288 1059.99,377.712 1068.66,379.63 1076.74,381.356 1085.56,383.152 1094.57,384.876 1104.13,386.571 1114.35,388.233 1124.01,389.662 1131.61,390.702 1139.22,391.672 1148.13,392.735 1160.05,394.049 1166.97,394.77 1173.9,395.463 1182.65,396.308 1193.8,397.342 1202.33,398.108 1210.87,398.847 1219.3,399.554 1228,400.254 1237.17,400.956 1246.43,401.622 1255.29,402.214 1263.96,402.746 1272.88,403.242 1282.17,403.701 1291.74,404.112 1301.62,404.472 1312.39,404.794 1320.15,404.987 1327.92,405.147 1336.69,405.297 1347.96,405.445 1355.23,405.522 1362.5,405.585 1371.37,405.65 1382.14,405.713 1390.37,405.756 1398.6,405.793 1407.44,405.83 1417.08,405.867 1426.6,405.901 1435.22,405.928 1443.63,405.951 1452.49,405.971 1461.79,405.986 1471.39,405.994 1481.28,405.994 1492.07,405.986 1499.79,405.972 1507.51,405.955 1516.3,405.929 1527.98,405.89 1534.95,405.862 1541.92,405.835 1550.79,405.797 1561.41,405.753 1572.42,405.706 1578.78,405.683 1585.14,405.659 1593.69,405.629 1601.93,405.603 1610.83,405.577 1620.01,405.554 1629.8,405.533 1640.58,405.511 1648.16,405.499 1655.75,405.486 1664.59,405.473 1678.94,405.45 1684.37,405.447 1689.81,405.439 1695.99,405.429 1702.17,405.422 1710.02,405.411 1718.87,405.399 1727.62,405.387 1736.99,405.375 1746.88,405.362 1758.2,405.35 1764.89,405.341 1771.57,405.335 1780.53,405.326 1789.34,405.319 1799.15,405.312 1809.63,405.307 1816.99,405.303 1824.36,405.301 1833.4,405.298 1845.45,405.297 1852.35,405.294 1859.25,405.295 1868.64,405.293 1877.21,405.294 1887.6,405.292 1897.65,405.294 1904.51,405.292 1911.37,405.292 1920.49,405.291 1929.55,405.291 1939.95,405.29 1948.58,405.29 1957.22,405.289 1965.43,405.289 1973.81,405.288 1982.9,405.289 1992.6,405.288 2001.85,405.289 2010.37,405.289 2018.97,405.289 2028.03,405.29 2037.48,405.29 2047.22,405.291 2057.48,405.291 2067.17,405.293 2074.79,405.293 2082.41,405.294 2091.31,405.294 2103.01,405.296 2110.11,405.295 2117.21,405.296 2125.98,405.296 2136.35,405.297 2146.72,405.296 2155.69,405.298 2162.88,405.297 2170.29,405.298 2178.7,405.297 2189.21,405.298 2197.63,405.298 2206.04,405.298 2215,405.298 2224.44,405.298 2233.8,405.299 2242.85,405.299 2251.97,405.299 2261.52,405.299 2271.65,405.3 2283.56,405.298 2289.66,405.301 2295.75,405.3 2304.26,405.3 2311.92,405.3 2318,405.3 " />
</g>

<g fill="none" stroke="#dd5400" stroke-opacity="1" stroke-width="4" stroke-linecap="butt" stroke-linejoin="round" transform="matrix(0.5,0,0,0.5,0,0)"
font-family="Helvetica" font-size="60" font-weight="700" font-style="normal" 
>
<polyline fill="none" vector-effect="none" points="333,508.4 372.7,508.4 412.4,508.4 452.1,508.4 491.8,508.4 531.5,508.4 531.5,508.4 531.5,508.4 533.366,508.4 534.882,508.4 537.054,508.399 539.634,508.395 542.698,508.381 546.136,508.34 549.314,508.267 552.665,508.142 557.129,507.879 560.789,507.563 565.048,507.056 569.657,506.308 573.949,505.399 579.911,503.75 584.713,502.061 590.969,499.332 596.679,496.288 603.248,492.106 611.393,485.893 618.753,479.319 626.75,471.193 635.731,460.967 645.728,448.418 655.457,435.29 664.125,423.068 672.677,410.723 681.744,397.523 691.23,383.789 701.201,369.619 712.323,354.296 719.336,344.943 726.35,335.839 735.343,324.52 745.372,312.319 756.463,299.247 763.025,291.666 769.586,284.16 778.466,274.068 786.984,264.401 796.397,253.672 806.104,242.505 818.2,228.398 823.854,221.727 827.703,217.158 830.687,213.603 833.67,210.038 836.425,206.737 839.271,203.327 843.111,198.739 846.525,194.688 849.752,190.897 853.548,186.505 857.343,182.203 861.18,177.968 865.34,173.535 869.5,169.293 874.889,164.125 879.865,159.723 885.811,154.982 891.435,151.059 897.648,147.399 903.86,144.469 911.741,141.811 920.615,140.199 929.395,139.943 938.821,140.973 948.789,143.266 960.547,147.119 966.761,149.48 972.974,151.963 981.674,155.506 989.479,158.622 998.03,161.842 1006.75,164.815 1015.95,167.54 1025.55,169.905 1035.66,171.879 1047.36,173.594 1053.67,174.318 1059.99,174.938 1068.66,175.677 1076.74,176.31 1085.56,177.008 1094.57,177.791 1104.13,178.753 1114.35,179.968 1124.01,181.302 1131.61,182.469 1139.22,183.722 1148.13,185.271 1160.05,187.404 1166.97,188.637 1173.9,189.839 1182.65,191.281 1193.8,192.95 1202.33,194.069 1210.87,195.035 1219.3,195.835 1228,196.503 1237.17,197.045 1246.43,197.444 1255.29,197.71 1263.96,197.885 1272.88,198.003 1282.17,198.086 1291.74,198.155 1301.62,198.231 1312.39,198.34 1320.15,198.441 1327.92,198.565 1336.69,198.728 1347.96,198.967 1355.23,199.132 1362.5,199.3 1371.37,199.502 1382.14,199.727 1390.37,199.877 1398.6,200.003 1407.44,200.106 1417.08,200.178 1426.6,200.209 1435.22,200.205 1443.63,200.175 1452.49,200.121 1461.79,200.045 1471.39,199.955 1481.28,199.857 1492.07,199.752 1499.79,199.684 1507.51,199.622 1516.3,199.564 1527.98,199.505 1534.95,199.481 1541.92,199.463 1550.79,199.45 1561.41,199.443 1572.42,199.444 1578.78,199.446 1585.14,199.448 1593.69,199.449 1601.93,199.446 1610.83,199.44 1620.01,199.427 1629.8,199.408 1640.58,199.38 1648.16,199.357 1655.75,199.331 1664.59,199.3 1678.94,199.249 1684.37,199.23 1689.81,199.213 1695.99,199.194 1702.17,199.177 1710.02,199.158 1718.87,199.14 1727.62,199.127 1736.99,199.117 1746.88,199.11 1758.2,199.107 1764.89,199.107 1771.57,199.108 1780.53,199.11 1789.34,199.113 1799.15,199.115 1809.63,199.117 1816.99,199.117 1824.36,199.116 1833.4,199.115 1845.45,199.111 1852.35,199.108 1859.25,199.104 1868.64,199.099 1877.21,199.095 1887.6,199.09 1897.65,199.085 1904.51,199.083 1911.37,199.081 1920.49,199.079 1929.55,199.078 1939.95,199.078 1948.58,199.079 1957.22,199.08 1965.43,199.082 1973.81,199.084 1982.9,199.086 1992.6,199.089 2001.85,199.091 2010.37,199.093 2018.97,199.094 2028.03,199.095 2037.48,199.096 2047.22,199.096 2057.48,199.096 2067.17,199.096 2074.79,199.095 2082.41,199.095 2091.31,199.095 2103.01,199.094 2110.11,199.094 2117.21,199.094 2125.98,199.094 2136.35,199.094 2146.72,199.095 2155.69,199.095 2162.88,199.096 2170.29,199.096 2178.7,199.097 2189.21,199.098 2197.63,199.098 2206.04,199.099 2215,199.1 2224.44,199.1 2233.8,199.1 2242.85,199.1 2251.97,199.1 2261.52,199.1 2271.65,199.1 2283.56,199.1 2289.66,199.1 2295.75,199.1 2304.26,199.1 2311.92,199.1 2318,199.1 " />
</g>

<g fill="none" stroke="#edb120" stroke-opacity="1" stroke-width="4" stroke-linecap="butt" stroke-linejoin="round" transform="matrix(0.5,0,0,0.5,0,0)"
font-family="Helvetica" font-size="60" font-weight="700" font-style="normal" 
>
<polyline fill="none" vector-effect="none" points="333,920.8 372.7,920.8 412.4,920.8 452.1,920.8 491.8,920.8 531.5,920.8 531.5,920.8 531.5,920.8 533.366,920.682 534.882,920.164 537.054,918.433 539.634,915.04 542.698,910.303 546.136,905.761 549.314,902.728 552.665,899.982 557.129,895.641 560.789,891.439 565.048,886.631 569.657,881.924 573.949,877.616 579.911,871.301 584.713,866.2 590.969,859.722 596.679,853.767 603.248,846.878 611.393,838.398 618.753,830.709 626.75,822.37 635.731,812.996 645.728,802.57 655.457,792.402 664.125,783.363 672.677,774.421 681.744,764.958 691.23,755.044 701.201,744.636 712.323,733.038 719.336,725.711 726.35,718.393 735.343,709.028 745.372,698.581 756.463,687.023 763.025,680.212 769.586,673.402 778.466,664.16 786.984,655.323 796.397,645.541 806.104,635.465 818.2,622.935 823.854,617.05 827.703,613.029 830.687,610 833.67,608.182 836.425,608.38 839.271,609.723 843.111,611.172 846.525,611.102 849.752,610.409 853.548,609.956 857.343,610.229 861.18,610.672 865.34,610.767 869.5,610.594 874.889,610.565 879.865,610.723 885.811,610.767 891.435,610.747 897.648,610.806 903.86,610.843 911.741,610.863 920.615,610.913 929.395,610.943 938.821,610.994 948.789,611.044 960.547,611.088 966.761,611.141 972.974,611.195 981.674,611.229 989.479,611.292 998.03,611.332 1006.75,611.389 1015.95,611.429 1025.55,611.477 1035.66,611.512 1047.36,611.523 1053.67,611.552 1059.99,611.575 1068.66,611.565 1076.74,611.582 1085.56,611.573 1094.57,611.578 1104.13,611.567 1114.35,611.561 1124.01,611.565 1131.61,611.551 1139.22,611.549 1148.13,611.547 1160.05,611.558 1166.97,611.546 1173.9,611.544 1182.65,611.552 1193.8,611.556 1202.33,611.553 1210.87,611.561 1219.3,611.558 1228,611.564 1237.17,611.558 1246.43,611.566 1255.29,611.554 1263.96,611.56 1272.88,611.549 1282.17,611.552 1291.74,611.54 1301.62,611.539 1312.39,611.539 1320.15,611.526 1327.92,611.523 1336.69,611.52 1347.96,611.526 1355.23,611.513 1362.5,611.511 1371.37,611.512 1382.14,611.515 1390.37,611.507 1398.6,611.511 1407.44,611.507 1417.08,611.514 1426.6,611.503 1435.22,611.515 1443.63,611.505 1452.49,611.512 1461.79,611.504 1471.39,611.509 1481.28,611.504 1492.07,611.497 1499.79,611.505 1507.51,611.503 1516.3,611.501 1527.98,611.488 1534.95,611.5 1541.92,611.503 1550.79,611.496 1561.41,611.497 1572.42,611.518 1578.78,611.501 1585.14,611.489 1593.69,611.505 1601.93,611.493 1610.83,611.503 1620.01,611.496 1629.8,611.5 1640.58,611.507 1648.16,611.498 1655.75,611.498 1664.59,611.5 1678.94,611.54 1684.37,611.526 1689.81,611.475 1695.99,611.501 1702.17,611.508 1710.02,611.493 1718.87,611.504 1727.62,611.495 1736.99,611.502 1746.88,611.499 1758.2,611.485 1764.89,611.497 1771.57,611.506 1780.53,611.494 1789.34,611.503 1799.15,611.498 1809.63,611.491 1816.99,611.5 1824.36,611.503 1833.4,611.498 1845.45,611.488 1852.35,611.496 1859.25,611.507 1868.64,611.494 1877.21,611.504 1887.6,611.501 1897.65,611.488 1904.51,611.498 1911.37,611.506 1920.49,611.495 1929.55,611.502 1939.95,611.503 1948.58,611.496 1957.22,611.504 1965.43,611.497 1973.81,611.502 1982.9,611.497 1992.6,611.505 2001.85,611.494 2010.37,611.505 2018.97,611.496 2028.03,611.503 2037.48,611.497 2047.22,611.502 2057.48,611.502 2067.17,611.493 2074.79,611.502 2082.41,611.5 2091.31,611.501 2103.01,611.489 2110.11,611.502 2117.21,611.502 2125.98,611.499 2136.35,611.498 2146.72,611.511 2155.69,611.488 2162.88,611.504 2170.29,611.5 2178.7,611.5 2189.21,611.496 2197.63,611.503 2206.04,611.497 2215,611.503 2224.44,611.496 2233.8,611.505 2242.85,611.496 2251.97,611.503 2261.52,611.498 2271.65,611.499 2283.56,611.524 2289.66,611.505 2295.75,611.488 2304.26,611.51 2311.92,611.494 2318,611.501 " />
</g>

<g fill="none" stroke="#8516d1" stroke-opacity="1" stroke-width="4" stroke-linecap="butt" stroke-linejoin="round" transform="matrix(0.5,0,0,0.5,0,0)"
font-family="Helvetica" font-size="60" font-weight="700" font-style="normal" 
>
<polyline fill="none" vector-effect="none" points="333,1127 372.7,1127 412.4,1127 452.1,1127 491.8,1127 531.5,1127 531.5,1127 531.5,1127 533.366,1125.06 534.882,1123.49 537.054,1121.23 539.634,1118.55 542.698,1115.37 546.136,1111.8 549.314,1108.49 552.665,1105.01 557.129,1100.38 560.789,1096.57 565.048,1092.15 569.657,1087.36 573.949,1082.9 579.911,1076.71 584.713,1071.72 590.969,1065.22 596.679,1059.29 603.248,1052.47 611.393,1044.01 618.753,1036.36 626.75,1028.05 635.731,1018.73 645.728,1008.34 655.457,998.234 664.125,989.23 672.677,980.347 681.744,970.928 691.23,961.073 701.201,950.716 712.323,939.163 719.336,931.878 726.35,924.592 735.343,915.25 745.372,904.831 756.463,893.31 763.025,886.494 769.586,879.678 778.466,870.453 786.984,861.605 796.397,851.828 806.104,841.744 818.2,829.179 823.854,823.306 827.703,819.307 830.687,817.7 833.67,817.7 836.425,817.7 839.271,817.7 843.111,817.7 846.525,817.7 849.752,817.7 853.548,817.7 857.343,817.7 861.18,817.7 865.34,817.7 869.5,817.7 874.889,817.7 879.865,817.7 885.811,817.7 891.435,817.7 897.648,817.7 903.86,817.7 911.741,817.7 920.615,817.7 929.395,817.7 938.821,817.7 948.789,817.7 960.547,817.7 966.761,817.7 972.974,817.7 981.674,817.7 989.479,817.7 998.03,817.7 1006.75,817.7 1015.95,817.7 1025.55,817.7 1035.66,817.7 1047.36,817.7 1053.67,817.7 1059.99,817.7 1068.66,817.7 1076.74,817.7 1085.56,817.7 1094.57,817.7 1104.13,817.7 1114.35,817.7 1124.01,817.7 1131.61,817.7 1139.22,817.7 1148.13,817.7 1160.05,817.7 1166.97,817.7 1173.9,817.7 1182.65,817.7 1193.8,817.7 1202.33,817.7 1210.87,817.7 1219.3,817.7 1228,817.7 1237.17,817.7 1246.43,817.7 1255.29,817.7 1263.96,817.7 1272.88,817.7 1282.17,817.7 1291.74,817.7 1301.62,817.7 1312.39,817.7 1320.15,817.7 1327.92,817.7 1336.69,817.7 1347.96,817.7 1355.23,817.7 1362.5,817.7 1371.37,817.7 1382.14,817.7 1390.37,817.7 1398.6,817.7 1407.44,817.7 1417.08,817.7 1426.6,817.7 1435.22,817.7 1443.63,817.7 1452.49,817.7 1461.79,817.7 1471.39,817.7 1481.28,817.7 1492.07,817.7 1499.79,817.7 1507.51,817.7 1516.3,817.7 1527.98,817.7 1534.95,817.7 1541.92,817.7 1550.79,817.7 1561.41,817.7 1572.42,817.7 1578.78,817.7 1585.14,817.7 1593.69,817.7 1601.93,817.7 1610.83,817.7 1620.01,817.7 1629.8,817.7 1640.58,817.7 1648.16,817.7 1655.75,817.7 1664.59,817.7 1678.94,817.7 1684.37,817.7 1689.81,817.7 1695.99,817.7 1702.17,817.7 1710.02,817.7 1718.87,817.7 1727.62,817.7 1736.99,817.7 1746.88,817.7 1758.2,817.7 1764.89,817.7 1771.57,817.7 1780.53,817.7 1789.34,817.7 1799.15,817.7 1809.63,817.7 1816.99,817.7 1824.36,817.7 1833.4,817.7 1845.45,817.7 1852.35,817.7 1859.25,817.7 1868.64,817.7 1877.21,817.7 1887.6,817.7 1897.65,817.7 1904.51,817.7 1911.37,817.7 1920.49,817.7 1929.55,817.7 1939.95,817.7 1948.58,817.7 1957.22,817.7 1965.43,817.7 1973.81,817.7 1982.9,817.7 1992.6,817.7 2001.85,817.7 2010.37,817.7 2018.97,817.7 2028.03,817.7 2037.48,817.7 2047.22,817.7 2057.48,817.7 2067.17,817.7 2074.79,817.7 2082.41,817.7 2091.31,817.7 2103.01,817.7 2110.11,817.7 2117.21,817.7 2125.98,817.7 2136.35,817.7 2146.72,817.7 2155.69,817.7 2162.88,817.7 2170.29,817.7 2178.7,817.7 2189.21,817.7 2197.63,817.7 2206.04,817.7 2215,817.7 2224.44,817.7 2233.8,817.7 2242.85,817.7 2251.97,817.7 2261.52,817.7 2271.65,817.7 2283.56,817.7 2289.66,817.7 2295.75,817.7 2304.26,817.7 2311.92,817.7 2318,817.7 " />
</g>

<g fill="#ffffff" fill-opacity="1" stroke="none" transform="matrix(5e-05,0,0,5e-05,0,0)"
font-family="Helvetica" font-size="60" font-weight="700" font-style="normal" 
>
<path vector-effect="none" fill-rule="evenodd" d="M2.012e+07,8.35e+06 L2.012e+07,1.111e+07 L2.302e+07,1.111e+07 L2.302e+07,8.35e+06 L2.012e+07,8.35e+06"/>
</g>

<g fill="#1171be" fill-opacity="1" stroke="#1171be" stroke-opacity="1" stroke-width="4" stroke-linecap="butt" stroke-linejoin="round" transform="matrix(0.5,0,0,0.5,0,0)"
font-family="Helvetica" font-size="60" font-weight="700" font-style="normal" 
>
<polyline fill="none" vector-effect="none" points="2017.99,871.467 2077.89,871.467 " />
</g>

<g fill="#dd5400" fill-opacity="1" stroke="#dd5400" stroke-opacity="1" stroke-width="4" stroke-linecap="butt" stroke-linejoin="round" transform="matrix(0.5,0,0,0.5,0,0)"
font-family="Helvetica" font-size="60" font-weight="700" font-style="normal" 
>
<polyline fill="none" vector-effect="none" points="2017.99,939.156 2077.89,939.156 " />
</g>

<g fill="#edb120" fill-opacity="1" stroke="#edb120" stroke-opacity="1" stroke-width="4" stroke-linecap="butt" stroke-linejoin="round" transform="matrix(0.5,0,0,0.5,0,0)"
font-family="Helvetica" font-size="60" font-weight="700" font-style="normal" 
>
<polyline fill="none" vector-effect="none" points="2017.99,1006.84 2077.89,1006.84 " />
</g>

<g fill="#8516d1" fill-opacity="1" stroke="#8516d1" stroke-opacity="1" stroke-width="4" stroke-linecap="butt" stroke-linejoin="round" transform="matrix(0.5,0,0,0.5,0,0)"
font-family="Helvetica" font-size="60" font-weight="700" font-style="normal" 
>
<polyline fill="none" vector-effect="none" points="2017.99,1074.53 2077.89,1074.53 " />
</g>

<g fill="#212121" fill-opacity="1" stroke="#212121" stroke-opacity="1" stroke-width="1" stroke-linecap="square" stroke-linejoin="bevel" transform="matrix(0.5,0,0,0.5,1041.19,446.233)"
font-family="Helvetica" font-size="60" font-weight="400" font-style="normal" 
>
<text fill="#212121" fill-opacity="1" stroke="none" xml:space="preserve" x="0" y="0" font-family="Helvetica" font-size="60" font-weight="400" font-style="normal" 
 >Chassis</text>
</g>

<g fill="#212121" fill-opacity="1" stroke="#212121" stroke-opacity="1" stroke-width="1" stroke-linecap="square" stroke-linejoin="bevel" transform="matrix(0.5,0,0,0.5,1041.19,480.078)"
font-family="Helvetica" font-size="60" font-weight="400" font-style="normal" 
>
<text fill="#212121" fill-opacity="1" stroke="none" xml:space="preserve" x="0" y="0" font-family="Helvetica" font-size="60" font-weight="400" font-style="normal" 
 >Seat</text>
</g>

<g fill="#212121" fill-opacity="1" stroke="#212121" stroke-opacity="1" stroke-width="1" stroke-linecap="square" stroke-linejoin="bevel" transform="matrix(0.5,0,0,0.5,1041.19,513.922)"
font-family="Helvetica" font-size="60" font-weight="400" font-style="normal" 
>
<text fill="#212121" fill-opacity="1" stroke="none" xml:space="preserve" x="0" y="0" font-family="Helvetica" font-size="60" font-weight="400" font-style="normal" 
 >Wheel</text>
</g>

<g fill="#212121" fill-opacity="1" stroke="#212121" stroke-opacity="1" stroke-width="1" stroke-linecap="square" stroke-linejoin="bevel" transform="matrix(0.5,0,0,0.5,1041.19,547.767)"
font-family="Helvetica" font-size="60" font-weight="400" font-style="normal" 
>
<text fill="#212121" fill-opacity="1" stroke="none" xml:space="preserve" x="0" y="0" font-family="Helvetica" font-size="60" font-weight="400" font-style="normal" 
 >Ground</text>
</g>

<g fill="none" stroke="#212121" stroke-opacity="1" stroke-width="1" stroke-linecap="butt" stroke-linejoin="miter" stroke-miterlimit="2" transform="matrix(0.5,0,0,0.5,0,0)"
font-family="Helvetica" font-size="60" font-weight="400" font-style="normal" 
>
<path vector-effect="none" fill-rule="evenodd" d="M2012,1111 L2012,835 L2302,835 L2302,1111 L2012,1111"/>
</g>
</g>
</svg>
