<?xml version="1.0" encoding="UTF-8" standalone="no"?>
<svg width="451.908mm" height="225.778mm"
 viewBox="0 0 1281 640"
 xmlns="http://www.w3.org/2000/svg" xmlns:xlink="http://www.w3.org/1999/xlink"  version="1.2" baseProfile="tiny">
<title>Qt SVG Document</title>
<desc>MATLAB, The MathWorks, Inc. Version 25.2.0.2998904 R2025b</desc>
<defs>
</defs>
<g fill="none" stroke="black" stroke-width="1" fill-rule="evenodd" stroke-linecap="square" stroke-linejoin="bevel" >

<g fill="#ffffff" fill-opacity="1" stroke="none" transform="matrix(0.5,0,0,0.5,0,0)"
font-family="MS Shell Dlg 2" font-size="8" font-weight="400" font-style="normal" 
>
<path vector-effect="none" fill-rule="evenodd" d="M0,0 L2562,0 L2562,1281 L0,1281 L0,0"/>
</g>

<g fill="#ffffff" fill-opacity="1" stroke="none" transform="matrix(5e-05,0,0,5e-05,0,0)"
font-family="MS Shell Dlg 2" font-size="8" font-weight="400" font-style="normal" 
>
<path vector-effect="none" fill-rule="evenodd" d="M3.33e+06,960000 L3.33e+06,1.127e+07 L2.318e+07,1.127e+07 L2.318e+07,960000 L3.33e+06,960000"/>
</g>

<g fill="#212121" fill-opacity="0.14902" stroke="#212121" stroke-opacity="0.14902" stroke-width="1" stroke-linecap="butt" stroke-linejoin="round" transform="matrix(0.5,0,0,0.5,0,0)"
font-family="MS Shell Dlg 2" font-size="8" font-weight="400" font-style="normal" 
>
<polyline fill="none" vector-effect="none" points="333,96 333,1127 " />
<polyline fill="none" vector-effect="none" points="730,96 730,1127 " />
<polyline fill="none" vector-effect="none" points="1127,96 1127,1127 " />
<polyline fill="none" vector-effect="none" points="1524,96 1524,1127 " />
<polyline fill="none" vector-effect="none" points="1921,96 1921,1127 " />
<polyline fill="none" vector-effect="none" points="2318,96 2318,1127 " />
<polyline fill="none" vector-effect="none" points="333,1127 2318,1127 " />
<polyline fill="none" vector-effect="none" points="333,955.167 2318,955.167 " />
<polyline fill="none" vector-effect="none" points="333,783.333 2318,783.333 " />
<polyline fill="none" vector-effect="none" points="333,611.5 2318,611.5 " />
<polyline fill="none" vector-effect="none" points="333,439.667 2318,439.667 " />
<polyline fill="none" vector-effect="none" points="333,267.833 2318,267.833 " />
<polyline fill="none" vector-effect="none" points="333,96 2318,96 " />
</g>

<g fill="#212121" fill-opacity="1" stroke="#212121" stroke-opacity="1" stroke-width="1" stroke-linecap="square" stroke-linejoin="bevel" transform="matrix(0.5,0,0,0.5,608.25,633.5)"
font-family="Helvetica" font-size="60" font-weight="400" font-style="normal" 
>
<text fill="#212121" fill-opacity="1" stroke="none" xml:space="preserve" x="0" y="0" font-family="Helvetica" font-size="60" font-weight="400" font-style="normal" 
 >Time (s)</text>
</g>

<g fill="#212121" fill-opacity="1" stroke="#212121" stroke-opacity="1" stroke-width="1" stroke-linecap="square" stroke-linejoin="round" transform="matrix(0.5,0,0,0.5,0,0)"
font-family="Helvetica" font-size="60" font-weight="400" font-style="normal" 
>
<polyline fill="none" vector-effect="none" points="333,1127 2318,1127 " />
<polyline fill="none" vector-effect="none" points="333,96 2318,96 " />
<polyline fill="none" vector-effect="none" points="333,1127 333,1107.15 " />
<polyline fill="none" vector-effect="none" points="333,115.85 333,96 " />
<polyline fill="none" vector-effect="none" points="730,1127 730,1107.15 " />
<polyline fill="none" vector-effect="none" points="730,115.85 730,96 " />
<polyline fill="none" vector-effect="none" points="1127,1127 1127,1107.15 " />
<polyline fill="none" vector-effect="none" points="1127,115.85 1127,96 " />
<polyline fill="none" vector-effect="none" points="1524,1127 1524,1107.15 " />
<polyline fill="none" vector-effect="none" points="1524,115.85 1524,96 " />
<polyline fill="none" vector-effect="none" points="1921,1127 1921,1107.15 " />
<polyline fill="none" vector-effect="none" points="1921,115.85 1921,96 " />
<polyline fill="none" vector-effect="none" points="2318,1127 2318,1107.15 " />
<polyline fill="none" vector-effect="none" points="2318,115.85 2318,96 " />
</g>

<g fill="#212121" fill-opacity="1" stroke="#212121" stroke-opacity="1" stroke-width="1" stroke-linecap="square" stroke-linejoin="bevel" transform="matrix(0.5,0,0,0.5,158.25,599)"
font-family="Helvetica" font-size="60" font-weight="400" font-style="normal" 
>
<text fill="#212121" fill-opacity="1" stroke="none" xml:space="preserve" x="0" y="0" font-family="Helvetica" font-size="60" font-weight="400" font-style="normal" 
 >0</text>
</g>

<g fill="#212121" fill-opacity="1" stroke="#212121" stroke-opacity="1" stroke-width="1" stroke-linecap="square" stroke-linejoin="bevel" transform="matrix(0.5,0,0,0.5,356.75,599)"
font-family="Helvetica" font-size="60" font-weight="400" font-style="normal" 
>
<text fill="#212121" fill-opacity="1" stroke="none" xml:space="preserve" x="0" y="0" font-family="Helvetica" font-size="60" font-weight="400" font-style="normal" 
 >2</text>
</g>

<g fill="#212121" fill-opacity="1" stroke="#212121" stroke-opacity="1" stroke-width="1" stroke-linecap="square" stroke-linejoin="bevel" transform="matrix(0.5,0,0,0.5,555.25,599)"
font-family="Helvetica" font-size="60" font-weight="400" font-style="normal" 
>
<text fill="#212121" fill-opacity="1" stroke="none" xml:space="preserve" x="0" y="0" font-family="Helvetica" font-size="60" font-weight="400" font-style="normal" 
 >4</text>
</g>

<g fill="#212121" fill-opacity="1" stroke="#212121" stroke-opacity="1" stroke-width="1" stroke-linecap="square" stroke-linejoin="bevel" transform="matrix(0.5,0,0,0.5,753.75,599)"
font-family="Helvetica" font-size="60" font-weight="400" font-style="normal" 
>
<text fill="#212121" fill-opacity="1" stroke="none" xml:space="preserve" x="0" y="0" font-family="Helvetica" font-size="60" font-weight="400" font-style="normal" 
 >6</text>
</g>

<g fill="#212121" fill-opacity="1" stroke="#212121" stroke-opacity="1" stroke-width="1" stroke-linecap="square" stroke-linejoin="bevel" transform="matrix(0.5,0,0,0.5,952.25,599)"
font-family="Helvetica" font-size="60" font-weight="400" font-style="normal" 
>
<text fill="#212121" fill-opacity="1" stroke="none" xml:space="preserve" x="0" y="0" font-family="Helvetica" font-size="60" font-weight="400" font-style="normal" 
 >8</text>
</g>

<g fill="#212121" fill-opacity="1" stroke="#212121" stroke-opacity="1" stroke-width="1" stroke-linecap="square" stroke-linejoin="bevel" transform="matrix(0.5,0,0,0.5,1142.5,599)"
font-family="Helvetica" font-size="60" font-weight="400" font-style="normal" 
>
<text fill="#212121" fill-opacity="1" stroke="none" xml:space="preserve" x="0" y="0" font-family="Helvetica" font-size="60" font-weight="400" font-style="normal" 
 >10</text>
</g>

<g fill="#212121" fill-opacity="1" stroke="#212121" stroke-opacity="1" stroke-width="1" stroke-linecap="square" stroke-linejoin="bevel" transform="matrix(0,-0.5,0.5,0,97,422.75)"
font-family="Helvetica" font-size="60" font-weight="400" font-style="normal" 
>
<text fill="#212121" fill-opacity="1" stroke="none" xml:space="preserve" x="0" y="0" font-family="Helvetica" font-size="60" font-weight="400" font-style="normal" 
 >Displacement (m)</text>
</g>

<g fill="#212121" fill-opacity="1" stroke="#212121" stroke-opacity="1" stroke-width="1" stroke-linecap="square" stroke-linejoin="round" transform="matrix(0.5,0,0,0.5,0,0)"
font-family="Helvetica" font-size="60" font-weight="400" font-style="normal" 
>
<polyline fill="none" vector-effect="none" points="333,1127 333,96 " />
<polyline fill="none" vector-effect="none" points="2318,1127 2318,96 " />
<polyline fill="none" vector-effect="none" points="333,1127 352.85,1127 " />
<polyline fill="none" vector-effect="none" points="2298.15,1127 2318,1127 " />
<polyline fill="none" vector-effect="none" points="333,955.167 352.85,955.167 " />
<polyline fill="none" vector-effect="none" points="2298.15,955.167 2318,955.167 " />
<polyline fill="none" vector-effect="none" points="333,783.333 352.85,783.333 " />
<polyline fill="none" vector-effect="none" points="2298.15,783.333 2318,783.333 " />
<polyline fill="none" vector-effect="none" points="333,611.5 352.85,611.5 " />
<polyline fill="none" vector-effect="none" points="2298.15,611.5 2318,611.5 " />
<polyline fill="none" vector-effect="none" points="333,439.667 352.85,439.667 " />
<polyline fill="none" vector-effect="none" points="2298.15,439.667 2318,439.667 " />
<polyline fill="none" vector-effect="none" points="333,267.833 352.85,267.833 " />
<polyline fill="none" vector-effect="none" points="2298.15,267.833 2318,267.833 " />
<polyline fill="none" vector-effect="none" points="333,96 352.85,96 " />
<polyline fill="none" vector-effect="none" points="2298.15,96 2318,96 " />
</g>

<g fill="#212121" fill-opacity="1" stroke="#212121" stroke-opacity="1" stroke-width="1" stroke-linecap="square" stroke-linejoin="bevel" transform="matrix(0.5,0,0,0.5,107,574)"
font-family="Helvetica" font-size="60" font-weight="400" font-style="normal" 
>
<text fill="#212121" fill-opacity="1" stroke="none" xml:space="preserve" x="0" y="0" font-family="Helvetica" font-size="60" font-weight="400" font-style="normal" 
 >-0.2</text>
</g>

<g fill="#212121" fill-opacity="1" stroke="#212121" stroke-opacity="1" stroke-width="1" stroke-linecap="square" stroke-linejoin="bevel" transform="matrix(0.5,0,0,0.5,142,488.083)"
font-family="Helvetica" font-size="60" font-weight="400" font-style="normal" 
>
<text fill="#212121" fill-opacity="1" stroke="none" xml:space="preserve" x="0" y="0" font-family="Helvetica" font-size="60" font-weight="400" font-style="normal" 
 >0</text>
</g>

<g fill="#212121" fill-opacity="1" stroke="#212121" stroke-opacity="1" stroke-width="1" stroke-linecap="square" stroke-linejoin="bevel" transform="matrix(0.5,0,0,0.5,117,402.167)"
font-family="Helvetica" font-size="60" font-weight="400" font-style="normal" 
>
<text fill="#212121" fill-opacity="1" stroke="none" xml:space="preserve" x="0" y="0" font-family="Helvetica" font-size="60" font-weight="400" font-style="normal" 
 >0.2</text>
</g>

<g fill="#212121" fill-opacity="1" stroke="#212121" stroke-opacity="1" stroke-width="1" stroke-linecap="square" stroke-linejoin="bevel" transform="matrix(0.5,0,0,0.5,117,316.25)"
font-family="Helvetica" font-size="60" font-weight="400" font-style="normal" 
>
<text fill="#212121" fill-opacity="1" stroke="none" xml:space="preserve" x="0" y="0" font-family="Helvetica" font-size="60" font-weight="400" font-style="normal" 
 >0.4</text>
</g>

<g fill="#212121" fill-opacity="1" stroke="#212121" stroke-opacity="1" stroke-width="1" stroke-linecap="square" stroke-linejoin="bevel" transform="matrix(0.5,0,0,0.5,117,230.333)"
font-family="Helvetica" font-size="60" font-weight="400" font-style="normal" 
>
<text fill="#212121" fill-opacity="1" stroke="none" xml:space="preserve" x="0" y="0" font-family="Helvetica" font-size="60" font-weight="400" font-style="normal" 
 >0.6</text>
</g>

<g fill="#212121" fill-opacity="1" stroke="#212121" stroke-opacity="1" stroke-width="1" stroke-linecap="square" stroke-linejoin="bevel" transform="matrix(0.5,0,0,0.5,117,144.417)"
font-family="Helvetica" font-size="60" font-weight="400" font-style="normal" 
>
<text fill="#212121" fill-opacity="1" stroke="none" xml:space="preserve" x="0" y="0" font-family="Helvetica" font-size="60" font-weight="400" font-style="normal" 
 >0.8</text>
</g>

<g fill="#212121" fill-opacity="1" stroke="#212121" stroke-opacity="1" stroke-width="1" stroke-linecap="square" stroke-linejoin="bevel" transform="matrix(0.5,0,0,0.5,142,58.5)"
font-family="Helvetica" font-size="60" font-weight="400" font-style="normal" 
>
<text fill="#212121" fill-opacity="1" stroke="none" xml:space="preserve" x="0" y="0" font-family="Helvetica" font-size="60" font-weight="400" font-style="normal" 
 >1</text>
</g>

<g fill="#212121" fill-opacity="1" stroke="#212121" stroke-opacity="1" stroke-width="1" stroke-linecap="square" stroke-linejoin="bevel" transform="matrix(0.5,0,0,0.5,254.75,37.75)"
font-family="Helvetica" font-size="60" font-weight="700" font-style="normal" 
>
<text fill="#212121" fill-opacity="1" stroke="none" xml:space="preserve" x="0" y="0" font-family="Helvetica" font-size="60" font-weight="700" font-style="normal" 
 >Displacement of Quarter Car Model (Wavy Road; Control)</text>
</g>

<g fill="none" stroke="#1171be" stroke-opacity="1" stroke-width="4" stroke-linecap="butt" stroke-linejoin="round" transform="matrix(0.5,0,0,0.5,0,0)"
font-family="Helvetica" font-size="60" font-weight="700" font-style="normal" 
>
<polyline fill="none" vector-effect="none" points="333,611.5 334.015,611.5 335.03,611.499 336.619,611.487 338.766,611.428 341.32,611.237 344.388,610.771 347.823,609.938 350.867,608.969 354.272,607.662 357.754,606.074 361.236,604.198 365.33,601.615 369.598,598.532 373.71,595.228 379.242,590.308 383.785,585.895 389.425,580.037 394.22,574.814 399.555,568.811 404.891,562.675 410.242,556.462 415.593,550.262 420.617,544.516 426.28,538.176 431.943,532.006 437.03,526.632 442.117,521.446 446.781,516.877 452.859,511.17 458.253,506.324 464.34,501.091 469.489,496.876 474.922,492.624 480.069,488.747 489.958,481.667 494.165,478.815 498.373,476.062 503.25,472.974 508.731,469.619 513.955,466.542 518.26,464.123 523.36,461.402 528.244,458.923 534.134,456.092 539.154,453.829 543.375,452.063 548.514,450.088 553.386,448.371 559.258,446.488 564.17,445.079 568.319,444.03 573.451,442.91 578.279,442.006 584.062,441.085 588.957,440.442 593.067,440.018 598.047,439.639 602.841,439.377 608.318,439.168 612.586,439.063 616.855,439.027 621.188,439.064 626.253,439.167 630.999,439.293 635.111,439.414 639.222,439.555 643.225,439.728 648.595,440.01 653.297,440.272 658.002,440.534 662.707,440.801 666.97,441.073 671.39,441.401 676.383,441.806 681.219,442.219 685.018,442.559 688.816,442.925 692.843,443.368 697.916,444.013 702.683,444.688 708.23,445.55 713.367,446.437 717.535,447.256 722.358,448.326 727.124,449.494 732.413,450.907 735.675,451.844 738.937,452.841 743.163,454.238 748.501,456.174 753.33,458.065 758.093,460.05 762.856,462.158 767.138,464.182 771.821,466.54 776.812,469.194 781.982,472.075 787.627,475.372 792.819,478.566 797.463,481.555 802.419,484.855 808.193,488.821 813.481,492.562 817.907,495.789 823.229,499.78 828.222,503.602 833.21,507.482 838.199,511.419 842.788,515.104 848.091,519.433 853.32,523.748 858.482,528.039 863.644,532.358 868.397,536.373 874.272,541.375 879.653,545.972 884.905,550.463 890.156,554.965 895.076,559.197 900.608,563.966 906.141,568.729 913.416,574.981 919.942,580.593 926.11,585.892 932.174,591.091 940.198,597.952 947.999,604.614 956.339,611.719 968.045,621.668 973.468,626.262 978.891,630.854 984.606,635.69 990.32,640.517 996.737,645.922 1005.28,653.1 1010.56,657.533 1015.85,661.953 1021.12,666.341 1028.49,672.44 1034.62,677.492 1040.16,682.03 1045.09,686.036 1050.69,690.538 1056.29,695.006 1063.47,700.679 1068.86,704.865 1074.25,708.984 1079.47,712.916 1086.5,718.132 1090.84,721.29 1095.19,724.381 1100.82,728.303 1105.96,731.814 1112.11,735.916 1116.74,738.905 1121.36,741.802 1126.48,744.921 1132.06,748.221 1137.34,751.251 1142.62,754.152 1147.38,756.648 1152.26,759.116 1157.13,761.498 1162.01,763.793 1166.3,765.717 1170.98,767.7 1175.94,769.696 1181.12,771.682 1186.79,773.746 1191.8,775.43 1196.32,776.836 1201.13,778.235 1206.56,779.711 1212.32,781.157 1216.94,782.193 1221.77,783.156 1226.55,784.013 1232.26,784.935 1237.28,785.645 1241.38,786.131 1246.18,786.585 1250.93,786.939 1256.14,787.241 1261.53,787.454 1266.92,787.525 1271.28,787.473 1275.98,787.331 1281.42,787.075 1287.07,786.7 1291.61,786.286 1296.36,785.739 1301.12,785.099 1306.61,784.269 1311.72,783.403 1316.83,782.409 1321.31,781.426 1326.01,780.31 1331.5,778.912 1336.12,777.657 1340.73,776.301 1345.14,774.903 1350.11,773.226 1355.08,771.463 1359.47,769.84 1363.86,768.137 1368.01,766.438 1372.65,764.441 1377.29,762.366 1381.9,760.239 1386.5,758.041 1390.77,755.92 1395.49,753.472 1400.52,750.768 1405.72,747.889 1412.1,744.244 1417.37,741.108 1422.51,737.937 1427.36,734.87 1432.06,731.842 1436.75,728.752 1441.21,725.747 1446.28,722.231 1451.46,718.571 1457.37,714.321 1462.58,710.5 1467.11,707.112 1473.1,702.543 1478.26,698.548 1486.91,691.743 1491.72,687.886 1496.53,683.973 1501.78,679.659 1508.04,674.474 1513.4,669.981 1518.39,665.767 1523.92,661.045 1529.45,656.294 1535.33,651.22 1541.21,646.112 1546.66,641.34 1552.83,635.922 1558.99,630.501 1565.15,625.065 1571.36,619.567 1579.08,612.737 1587.59,605.205 1596.04,597.735 1605.11,589.751 1612.37,583.39 1619.63,577.072 1626.91,570.776 1634.06,564.638 1640.16,559.453 1645.52,554.934 1652.38,549.216 1659.01,543.738 1664.55,539.224 1669.47,535.266 1675.95,530.124 1681.77,525.567 1687.44,521.187 1692.18,517.593 1698.73,512.717 1704.01,508.861 1708.54,505.594 1713.07,502.382 1717.55,499.281 1722.53,495.9 1727.52,492.582 1732.89,489.075 1738.27,485.656 1742.59,482.99 1747.51,480.032 1752.44,477.147 1755.69,475.279 1758.95,473.441 1763.31,471.039 1767.61,468.756 1772.4,466.308 1777.18,463.934 1782.18,461.524 1787.19,459.205 1791.37,457.36 1796.2,455.331 1801.03,453.388 1805.78,451.55 1810.53,449.791 1814.75,448.32 1819.36,446.819 1824.3,445.312 1829.35,443.861 1834.96,442.352 1839.21,441.31 1843.47,440.367 1848.56,439.346 1853.38,438.467 1857.15,437.837 1860.91,437.265 1864.93,436.738 1869.79,436.22 1874.62,435.808 1879.83,435.456 1885.35,435.196 1889.75,435.099 1894.16,435.111 1899,435.224 1904.05,435.433 1909.68,435.776 1914.48,436.191 1918.76,436.67 1923.64,437.317 1928.54,438.053 1932.46,438.702 1936.37,439.414 1940.41,440.235 1945.83,441.471 1950.54,442.642 1955.22,443.879 1959.9,445.194 1964.14,446.476 1968.62,447.936 1973.6,449.66 1978.5,451.436 1982.57,452.97 1986.63,454.568 1990.75,456.271 1995.48,458.329 2000.22,460.468 2006.3,463.315 2011.17,465.685 2015.37,467.817 2020.79,470.682 2025.68,473.349 2030.45,476.019 2035.23,478.757 2039.57,481.326 2044.44,484.302 2049.49,487.464 2054.97,490.972 2059.87,494.171 2064.77,497.453 2069.57,500.759 2074.68,504.345 2080.47,508.47 2085.83,512.367 2090.39,515.747 2096.02,520.007 2101.15,523.938 2106.1,527.787 2111.06,531.684 2115.79,535.46 2121.92,540.423 2127.32,544.854 2132.2,548.885 2137.08,552.952 2141.98,557.081 2147.41,561.702 2152.84,566.355 2158.46,571.198 2164.08,576.076 2169.46,580.778 2175.84,586.375 2182.73,592.45 2188.98,597.977 2195.32,603.608 2203.15,610.561 2212.16,618.561 2220.92,626.332 2230.96,635.198 2237.73,641.145 2244.5,647.05 2253.11,654.506 2259.11,659.658 2265.1,664.76 2270.63,669.416 2276.83,674.584 2281.83,678.719 2286.83,682.813 2291.69,686.737 2297.1,691.048 2302.51,695.31 2307.3,699.041 2312.1,702.72 2316.72,706.208 2318,707.162 " />
</g>

<g fill="none" stroke="#dd5400" stroke-opacity="1" stroke-width="4" stroke-linecap="butt" stroke-linejoin="round" transform="matrix(0.5,0,0,0.5,0,0)"
font-family="Helvetica" font-size="60" font-weight="700" font-style="normal" 
>
<polyline fill="none" vector-effect="none" points="333,439.667 334.015,439.667 335.03,439.667 336.619,439.667 338.766,439.666 341.32,439.662 344.388,439.648 347.823,439.608 350.867,439.539 354.272,439.41 357.754,439.206 361.236,438.91 365.33,438.413 369.598,437.688 373.71,436.75 379.242,435.057 383.785,433.242 389.425,430.39 394.22,427.399 399.555,423.418 404.891,418.727 410.242,413.301 415.593,407.164 420.617,400.78 426.28,392.917 431.943,384.424 437.03,376.336 442.117,367.9 446.781,359.939 452.859,349.364 458.253,339.92 464.34,329.352 469.489,320.608 474.922,311.695 480.069,303.64 489.958,289.528 494.165,284.159 498.373,279.212 503.25,274.031 508.731,268.947 513.955,264.839 518.26,261.995 523.36,259.25 528.244,257.237 534.134,255.569 539.154,254.76 543.375,254.48 548.514,254.585 553.386,255.09 559.258,256.143 564.17,257.332 568.319,258.511 573.451,260.139 578.279,261.79 584.062,263.852 588.957,265.614 593.067,267.071 598.047,268.776 602.841,270.324 608.318,271.944 612.586,273.076 616.855,274.078 621.188,274.955 626.253,275.791 630.999,276.386 635.111,276.753 639.222,276.983 643.225,277.08 648.595,277.024 653.297,276.813 658.002,276.466 662.707,275.999 666.97,275.488 671.39,274.888 676.383,274.147 681.219,273.391 685.018,272.786 688.816,272.186 692.843,271.567 697.916,270.84 702.683,270.234 708.23,269.654 713.367,269.267 717.535,269.077 722.358,269.016 727.124,269.143 732.413,269.52 735.675,269.884 738.937,270.354 743.163,271.126 748.501,272.374 753.33,273.774 758.093,275.411 762.856,277.305 767.138,279.226 771.821,281.562 776.812,284.319 781.982,287.456 787.627,291.195 792.819,294.908 797.463,298.437 802.419,302.407 808.193,307.272 813.481,311.93 817.907,315.958 823.229,320.938 828.222,325.724 833.21,330.593 838.199,335.529 842.788,340.11 848.091,345.433 853.32,350.692 858.482,355.872 863.644,361.025 868.397,365.731 874.272,371.48 879.653,376.668 884.905,381.65 890.156,386.542 895.076,391.04 900.608,395.998 906.141,400.851 913.416,407.074 919.942,412.512 926.11,417.539 932.174,422.388 940.198,428.686 947.999,434.712 956.339,441.093 968.045,450.021 973.468,454.175 978.891,458.353 984.606,462.793 990.32,467.279 996.737,472.38 1005.28,479.283 1010.56,483.622 1015.85,488.013 1021.12,492.445 1028.49,498.708 1034.62,503.974 1040.16,508.771 1045.09,513.067 1050.69,517.95 1056.29,522.834 1063.47,529.083 1068.86,533.748 1074.25,538.374 1079.47,542.798 1086.5,548.662 1090.84,552.221 1095.19,555.722 1100.82,560.163 1105.96,564.113 1112.11,568.691 1116.74,572.021 1121.36,575.25 1126.48,578.7 1132.06,582.3 1137.34,585.557 1142.62,588.66 1147.38,591.319 1152.26,593.911 1157.13,596.365 1162.01,598.682 1166.3,600.611 1170.98,602.592 1175.94,604.557 1181.12,606.461 1186.79,608.384 1191.8,609.937 1196.32,611.23 1201.13,612.492 1206.56,613.78 1212.32,614.995 1216.94,615.862 1221.77,616.669 1226.55,617.369 1232.26,618.084 1237.28,618.605 1241.38,618.961 1246.18,619.298 1250.93,619.548 1256.14,619.73 1261.53,619.819 1266.92,619.809 1271.28,619.729 1275.98,619.57 1281.42,619.291 1287.07,618.896 1291.61,618.499 1296.36,618.007 1301.12,617.433 1306.61,616.669 1311.72,615.858 1316.83,614.95 1321.31,614.07 1326.01,613.063 1331.5,611.771 1336.12,610.59 1340.73,609.32 1345.14,608.023 1350.11,606.458 1355.08,604.78 1359.47,603.208 1363.86,601.55 1368.01,599.904 1372.65,597.967 1377.29,595.931 1381.9,593.813 1386.5,591.598 1390.77,589.462 1395.49,587.002 1400.52,584.268 1405.72,581.322 1412.1,577.551 1417.37,574.31 1422.51,571.036 1427.36,567.849 1432.06,564.679 1436.75,561.428 1441.21,558.272 1446.28,554.592 1451.46,550.752 1457.37,546.269 1462.58,542.228 1467.11,538.659 1473.1,533.863 1478.26,529.662 1486.91,522.492 1491.72,518.443 1496.53,514.353 1501.78,509.848 1508.04,504.43 1513.4,499.743 1518.39,495.367 1523.92,490.478 1529.45,485.563 1535.33,480.318 1541.21,475.054 1546.66,470.153 1552.83,464.597 1558.99,459.043 1565.15,453.483 1571.36,447.872 1579.08,440.908 1587.59,433.234 1596.04,425.626 1605.11,417.495 1612.37,411.016 1619.63,404.569 1626.91,398.137 1634.06,391.866 1640.16,386.559 1645.52,381.918 1652.38,376.04 1659.01,370.411 1664.55,365.764 1669.47,361.671 1675.95,356.348 1681.77,351.635 1687.44,347.107 1692.18,343.373 1698.73,338.291 1704.01,334.28 1708.54,330.89 1713.07,327.555 1717.55,324.319 1722.53,320.779 1727.52,317.314 1732.89,313.669 1738.27,310.117 1742.59,307.33 1747.51,304.231 1752.44,301.218 1755.69,299.278 1758.95,297.377 1763.31,294.889 1767.61,292.507 1772.4,289.946 1777.18,287.475 1782.18,284.989 1787.19,282.606 1791.37,280.695 1796.2,278.579 1801.03,276.563 1805.78,274.678 1810.53,272.891 1814.75,271.385 1819.36,269.829 1824.3,268.268 1829.35,266.788 1834.96,265.272 1839.21,264.218 1843.47,263.245 1848.56,262.187 1853.38,261.295 1857.15,260.671 1860.91,260.111 1864.93,259.583 1869.79,259.043 1874.62,258.612 1879.83,258.266 1885.35,258.034 1889.75,257.946 1894.16,257.945 1899,258.046 1904.05,258.264 1909.68,258.642 1914.48,259.076 1918.76,259.549 1923.64,260.189 1928.54,260.939 1932.46,261.614 1936.37,262.357 1940.41,263.193 1945.83,264.427 1950.54,265.606 1955.22,266.873 1959.9,268.234 1964.14,269.546 1968.62,271.019 1973.6,272.757 1978.5,274.569 1982.57,276.148 1986.63,277.796 1990.75,279.533 1995.48,281.617 2000.22,283.793 2006.3,286.717 2011.17,289.163 2015.37,291.349 2020.79,294.268 2025.68,296.995 2030.45,299.745 2035.23,302.577 2039.57,305.222 2044.44,308.269 2049.49,311.511 2054.97,315.129 2059.87,318.441 2064.77,321.828 2069.57,325.223 2074.68,328.911 2080.47,333.172 2085.83,337.209 2090.39,340.697 2096.02,345.08 2101.15,349.133 2106.1,353.113 2111.06,357.146 2115.79,361.043 2121.92,366.154 2127.32,370.725 2132.2,374.891 2137.08,379.096 2141.98,383.352 2147.41,388.112 2152.84,392.91 2158.46,397.911 2164.08,402.944 2169.46,407.787 2175.84,413.552 2182.73,419.815 2188.98,425.512 2195.32,431.311 2203.15,438.472 2212.16,446.711 2220.92,454.715 2230.96,463.843 2237.73,469.964 2244.5,476.051 2253.11,483.732 2259.11,489.033 2265.1,494.29 2270.63,499.095 2276.83,504.424 2281.83,508.68 2286.83,512.894 2291.69,516.944 2297.1,521.401 2302.51,525.798 2307.3,529.638 2312.1,533.427 2316.72,537.032 2318,538.021 " />
</g>

<g fill="none" stroke="#edb120" stroke-opacity="1" stroke-width="4" stroke-linecap="butt" stroke-linejoin="round" transform="matrix(0.5,0,0,0.5,0,0)"
font-family="Helvetica" font-size="60" font-weight="700" font-style="normal" 
>
<polyline fill="none" vector-effect="none" points="333,783.333 334.015,783.317 335.03,783.209 336.619,782.7 338.766,781.201 341.32,778.434 344.388,774.734 347.823,771.357 350.867,769.162 354.272,766.85 357.754,763.994 361.236,760.714 365.33,756.944 369.598,753.378 373.71,749.963 379.242,745.07 383.785,741.018 389.425,736.198 394.22,732.18 399.555,727.605 404.891,723.027 410.242,718.507 415.593,714.161 420.617,710.171 426.28,705.605 431.943,701.054 437.03,697.074 442.117,693.356 446.781,689.967 452.859,685.43 458.253,681.456 464.34,677.244 469.489,673.914 474.922,670.275 480.069,666.793 489.958,660.543 494.165,658.195 498.373,655.748 503.25,652.791 508.731,649.545 513.955,646.771 518.26,644.746 523.36,642.217 528.244,639.68 534.134,636.742 539.154,634.576 543.375,633.004 548.514,630.959 553.386,628.903 559.258,626.557 564.17,624.953 568.319,623.849 573.451,622.343 578.279,620.798 584.062,619.073 588.957,617.976 593.067,617.326 598.047,616.401 602.841,615.357 608.318,614.259 612.586,613.656 616.855,613.398 621.188,613.106 626.253,612.541 630.999,612.029 635.111,611.697 639.222,611.699 643.225,611.897 648.595,611.968 653.297,611.895 658.002,611.911 662.707,612.208 666.97,612.823 671.39,613.41 676.383,613.865 681.219,614.339 685.018,614.817 688.816,615.583 692.843,616.604 697.916,617.74 702.683,618.659 708.23,619.832 713.367,621.283 717.535,622.773 722.358,624.373 727.124,625.793 732.413,627.464 735.675,628.619 738.937,629.983 743.163,631.904 748.501,634.174 753.33,636.125 758.093,638.139 762.856,640.424 767.138,642.773 771.821,645.266 776.812,647.762 781.982,650.415 787.627,653.591 792.819,656.865 797.463,659.697 802.419,662.611 808.193,666.095 813.481,669.57 817.907,672.699 823.229,676.326 828.222,679.639 833.21,683.03 838.199,686.635 842.788,690.141 848.091,694.085 853.32,697.893 858.482,701.724 863.644,705.751 868.397,709.595 874.272,714.226 879.653,718.432 884.905,722.612 890.156,726.974 895.076,731.095 900.608,735.638 906.141,740.189 913.416,746.307 919.942,751.919 926.11,757.134 932.174,762.288 940.198,769.202 947.999,775.937 956.339,783.122 968.045,793.191 973.468,797.867 978.891,802.582 984.606,807.482 990.32,812.32 996.737,817.758 1005.28,825.02 1010.56,829.471 1015.85,833.791 1021.12,838.096 1028.49,844.19 1034.62,849.189 1040.16,853.512 1045.09,857.326 1050.69,861.736 1056.29,866.13 1063.47,871.512 1068.86,875.345 1074.25,879.32 1079.47,883.162 1086.5,888.145 1090.84,890.952 1095.19,893.768 1100.82,897.574 1105.96,901.017 1112.11,904.873 1116.74,907.48 1121.36,910.163 1126.48,913.251 1132.06,916.541 1137.34,919.37 1142.62,921.878 1147.38,924.263 1152.26,926.796 1157.13,929.25 1162.01,931.433 1166.3,933.054 1170.98,934.902 1175.94,937.024 1181.12,939.17 1186.79,941.206 1191.8,942.599 1196.32,943.959 1201.13,945.545 1206.56,947.245 1212.32,948.663 1216.94,949.457 1221.77,950.422 1226.55,951.503 1232.26,952.691 1237.28,953.367 1241.38,953.611 1246.18,954.021 1250.93,954.601 1256.14,955.15 1261.53,955.38 1266.92,955.15 1271.28,955.079 1275.98,955.138 1281.42,955.113 1287.07,954.691 1291.61,954 1296.36,953.404 1301.12,952.948 1306.61,952.327 1311.72,951.406 1316.83,950.084 1321.31,949.051 1326.01,948.104 1331.5,946.899 1336.12,945.611 1340.73,943.966 1345.14,942.448 1350.11,940.917 1355.08,939.336 1359.47,937.787 1363.86,935.88 1368.01,933.985 1372.65,932.034 1377.29,930.15 1381.9,928.188 1386.5,925.965 1390.77,923.633 1395.49,921.13 1400.52,918.621 1405.72,915.96 1412.1,912.337 1417.37,909.027 1422.51,905.965 1427.36,903.126 1432.06,900.29 1436.75,897.23 1441.21,894.118 1446.28,890.665 1451.46,887.25 1457.37,883.257 1462.58,879.471 1467.11,876.031 1473.1,871.634 1478.26,867.883 1486.91,861.323 1491.72,857.426 1496.53,853.616 1501.78,849.538 1508.04,844.58 1513.4,840.14 1518.39,835.966 1523.92,831.415 1529.45,826.86 1535.33,821.939 1541.21,816.874 1546.66,812.215 1552.83,806.98 1558.99,801.706 1565.15,796.358 1571.36,790.975 1579.08,784.314 1587.59,776.945 1596.04,769.64 1605.11,761.797 1612.37,755.589 1619.63,749.445 1626.91,743.233 1634.06,737.2 1640.16,732.213 1645.52,727.821 1652.38,722.156 1659.01,716.758 1664.55,712.471 1669.47,708.665 1675.95,703.559 1681.77,699.028 1687.44,694.846 1692.18,691.482 1698.73,686.675 1704.01,682.81 1708.54,679.58 1713.07,676.597 1717.55,673.725 1722.53,670.394 1727.52,667.036 1732.89,663.533 1738.27,660.388 1742.59,657.946 1747.51,655.019 1752.44,652.067 1755.69,650.164 1758.95,648.362 1763.31,646.221 1767.61,644.171 1772.4,641.732 1777.18,639.258 1782.18,636.79 1787.19,634.689 1791.37,633.104 1796.2,631.128 1801.03,629.064 1805.78,627.113 1810.53,625.444 1814.75,624.273 1819.36,622.917 1824.3,621.285 1829.35,619.679 1834.96,618.191 1839.21,617.436 1843.47,616.652 1848.56,615.513 1853.38,614.46 1857.15,613.733 1860.91,613.283 1864.93,613.032 1869.79,612.614 1874.62,612.027 1879.83,611.477 1885.35,611.255 1889.75,611.444 1894.16,611.552 1899,611.499 1904.05,611.501 1909.68,611.805 1914.48,612.519 1918.76,613.105 1923.64,613.584 1928.54,614.106 1932.46,614.643 1936.37,615.492 1940.41,616.552 1945.83,617.787 1950.54,618.741 1955.22,619.782 1959.9,621.099 1964.14,622.625 1968.62,624.184 1973.6,625.72 1978.5,627.274 1982.57,628.689 1986.63,630.415 1990.75,632.311 1995.48,634.336 2000.22,636.255 2006.3,638.862 2011.17,641.292 2015.37,643.597 2020.79,646.413 2025.68,648.852 2030.45,651.321 2035.23,654.046 2039.57,656.777 2044.44,659.75 2049.49,662.691 2054.97,665.964 2059.87,669.116 2064.77,672.533 2069.57,675.801 2074.68,679.169 2080.47,683.06 2085.83,686.926 2090.39,690.393 2096.02,694.539 2101.15,698.252 2106.1,701.927 2111.06,705.795 2115.79,709.606 2121.92,714.415 2127.32,718.641 2132.2,722.521 2137.08,726.569 2141.98,730.679 2147.41,735.145 2152.84,739.612 2158.46,744.311 2164.08,749.151 2169.46,753.756 2175.84,759.162 2182.73,765.066 2188.98,770.491 2195.32,775.99 2203.15,782.754 2212.16,790.553 2220.92,798.129 2230.96,806.809 2237.73,812.563 2244.5,818.306 2253.11,825.642 2259.11,830.667 2265.1,835.55 2270.63,840.096 2276.83,845.213 2281.83,849.292 2286.83,853.193 2291.69,856.928 2297.1,861.18 2302.51,865.43 2307.3,869.116 2312.1,872.574 2316.72,875.865 2318,876.794 " />
</g>

<g fill="none" stroke="#8516d1" stroke-opacity="1" stroke-width="4" stroke-linecap="butt" stroke-linejoin="round" transform="matrix(0.5,0,0,0.5,0,0)"
font-family="Helvetica" font-size="60" font-weight="700" font-style="normal" 
>
<polyline fill="none" vector-effect="none" points="333,955.167 334.015,954.29 335.03,953.414 336.619,952.042 338.766,950.189 341.32,947.983 344.388,945.335 347.823,942.368 350.867,939.741 354.272,936.801 357.754,933.795 361.236,930.833 365.33,927.354 369.598,923.728 373.71,920.233 379.242,915.532 383.785,911.696 389.425,907.055 394.22,903.111 399.555,898.721 404.891,894.331 410.242,890.025 415.593,885.836 420.617,881.903 426.28,877.471 431.943,873.038 437.03,869.279 442.117,865.563 446.781,862.157 452.859,857.717 458.253,853.811 464.34,849.754 469.489,846.321 474.922,842.7 480.069,839.269 489.958,833.22 494.165,830.728 498.373,828.237 503.25,825.348 508.731,822.197 513.955,819.54 518.26,817.351 523.36,814.758 528.244,812.275 534.134,809.424 539.154,807.332 543.375,805.573 548.514,803.431 553.386,801.401 559.258,799.127 564.17,797.563 568.319,796.241 573.451,794.607 578.279,793.069 584.062,791.395 588.957,790.342 593.067,789.458 598.047,788.386 602.841,787.355 608.318,786.276 612.586,785.813 616.855,785.35 621.188,784.881 626.253,784.331 630.999,783.817 635.111,783.672 639.222,783.672 643.225,783.672 648.595,783.672 653.297,783.672 658.002,783.751 662.707,784.261 666.97,784.724 671.39,785.203 676.383,785.744 681.219,786.269 685.018,786.979 688.816,787.796 692.843,788.663 697.916,789.754 702.683,790.779 708.23,792.083 713.367,793.719 717.535,795.046 722.358,796.582 727.124,798.1 732.413,799.814 735.675,801.174 738.937,802.533 743.163,804.294 748.501,806.519 753.33,808.532 758.093,810.612 762.856,813.034 767.138,815.211 771.821,817.593 776.812,820.131 781.982,822.76 787.627,826.101 792.819,829.176 797.463,831.926 802.419,834.861 808.193,838.374 813.481,841.898 817.907,844.849 823.229,848.396 828.222,851.724 833.21,855.134 838.199,858.777 842.788,862.13 848.091,866.003 853.32,869.822 858.482,873.679 863.644,877.72 868.397,881.44 874.272,886.039 879.653,890.251 884.905,894.487 890.156,898.808 895.076,902.855 900.608,907.407 906.141,911.959 913.416,918.126 919.942,923.671 926.11,928.912 932.174,934.073 940.198,941 947.999,947.735 956.339,954.936 968.045,965.043 973.468,969.725 978.891,974.407 984.606,979.299 990.32,984.156 996.737,989.609 1005.28,996.867 1010.56,1001.25 1015.85,1005.6 1021.12,1009.94 1028.49,1016 1034.62,1020.91 1040.16,1025.25 1045.09,1029.11 1050.69,1033.49 1056.29,1037.87 1063.47,1043.12 1068.86,1047.06 1074.25,1051 1079.47,1054.81 1086.5,1059.61 1090.84,1062.51 1095.19,1065.41 1100.82,1069.16 1105.96,1072.59 1112.11,1076.25 1116.74,1078.99 1121.36,1081.73 1126.48,1084.76 1132.06,1087.99 1137.34,1090.68 1142.62,1093.37 1147.38,1095.79 1152.26,1098.27 1157.13,1100.66 1162.01,1102.69 1166.3,1104.48 1170.98,1106.43 1175.94,1108.49 1181.12,1110.65 1186.79,1112.46 1191.8,1114.05 1196.32,1115.49 1201.13,1117.02 1206.56,1118.7 1212.32,1119.94 1216.94,1120.93 1221.77,1121.97 1226.55,1123 1232.26,1124.09 1237.28,1124.64 1241.38,1125.08 1246.18,1125.6 1250.93,1126.12 1256.14,1126.66 1261.53,1126.66 1266.92,1126.66 1271.28,1126.66 1275.98,1126.66 1281.42,1126.6 1287.07,1125.99 1291.61,1125.5 1296.36,1124.98 1301.12,1124.47 1306.61,1123.79 1311.72,1122.69 1316.83,1121.59 1321.31,1120.62 1326.01,1119.61 1331.5,1118.36 1336.12,1116.89 1340.73,1115.42 1345.14,1114.02 1350.11,1112.43 1355.08,1110.85 1359.47,1109.08 1363.86,1107.25 1368.01,1105.52 1372.65,1103.59 1377.29,1101.65 1381.9,1099.62 1386.5,1097.28 1390.77,1095.11 1395.49,1092.71 1400.52,1090.15 1405.72,1087.5 1412.1,1083.72 1417.37,1080.6 1422.51,1077.55 1427.36,1074.68 1432.06,1071.79 1436.75,1068.66 1441.21,1065.69 1446.28,1062.3 1451.46,1058.85 1457.37,1054.8 1462.58,1050.99 1467.11,1047.68 1473.1,1043.31 1478.26,1039.54 1486.91,1032.88 1491.72,1029.12 1496.53,1025.35 1501.78,1021.24 1508.04,1016.24 1513.4,1011.82 1518.39,1007.72 1523.92,1003.17 1529.45,998.619 1535.33,993.648 1541.21,988.653 1546.66,984.017 1552.83,978.773 1558.99,973.489 1565.15,968.171 1571.36,962.807 1579.08,956.148 1587.59,948.801 1596.04,941.5 1605.11,933.669 1612.37,927.501 1619.63,921.333 1626.91,915.143 1634.06,909.174 1640.16,904.16 1645.52,899.744 1652.38,894.104 1659.01,888.804 1664.55,884.472 1669.47,880.619 1675.95,875.547 1681.77,871.087 1687.44,866.946 1692.18,863.483 1698.73,858.693 1704.01,854.84 1708.54,851.76 1713.07,848.739 1717.55,845.758 1722.53,842.434 1727.52,839.11 1732.89,835.753 1738.27,832.572 1742.59,830.012 1747.51,827.094 1752.44,824.176 1755.69,822.323 1758.95,820.669 1763.31,818.449 1767.61,816.262 1772.4,813.83 1777.18,811.398 1782.18,809.075 1787.19,806.99 1791.37,805.247 1796.2,803.235 1801.03,801.223 1805.78,799.347 1810.53,797.834 1814.75,796.49 1819.36,795.021 1824.3,793.448 1829.35,791.842 1834.96,790.602 1839.21,789.687 1843.47,788.772 1848.56,787.676 1853.38,786.639 1857.15,786.101 1860.91,785.693 1864.93,785.257 1869.79,784.73 1874.62,784.207 1879.83,783.672 1885.35,783.672 1889.75,783.672 1894.16,783.672 1899,783.672 1904.05,783.672 1909.68,784.235 1914.48,784.756 1918.76,785.22 1923.64,785.749 1928.54,786.28 1932.46,787.028 1936.37,787.87 1940.41,788.739 1945.83,789.904 1950.54,790.918 1955.22,792.012 1959.9,793.502 1964.14,794.851 1968.62,796.279 1973.6,797.866 1978.5,799.426 1982.57,801.04 1986.63,802.735 1990.75,804.451 1995.48,806.424 2000.22,808.397 2006.3,811.117 2011.17,813.592 2015.37,815.729 2020.79,818.486 2025.68,820.971 2030.45,823.503 2035.23,826.331 2039.57,828.903 2044.44,831.789 2049.49,834.778 2054.97,838.085 2059.87,841.349 2064.77,844.613 2069.57,847.815 2074.68,851.223 2080.47,855.165 2085.83,859.084 2090.39,862.415 2096.02,866.529 2101.15,870.271 2106.1,873.999 2111.06,877.88 2115.79,881.583 2121.92,886.378 2127.32,890.611 2132.2,894.558 2137.08,898.571 2141.98,902.6 2147.41,907.069 2152.84,911.538 2158.46,916.285 2164.08,921.062 2169.46,925.634 2175.84,931.05 2182.73,936.959 2188.98,942.354 2195.32,947.833 2203.15,954.591 2212.16,962.366 2220.92,969.934 2230.96,978.572 2237.73,984.323 2244.5,990.075 2253.11,997.392 2259.11,1002.34 2265.1,1007.28 2270.63,1011.83 2276.83,1016.92 2281.83,1020.91 2286.83,1024.83 2291.69,1028.63 2297.1,1032.86 2302.51,1037.1 2307.3,1040.66 2312.1,1044.16 2316.72,1047.53 2318,1048.47 " />
</g>

<g fill="#ffffff" fill-opacity="1" stroke="none" transform="matrix(5e-05,0,0,5e-05,0,0)"
font-family="Helvetica" font-size="60" font-weight="700" font-style="normal" 
>
<path vector-effect="none" fill-rule="evenodd" d="M2.048e+07,1.12e+06 L2.048e+07,3.44e+06 L2.302e+07,3.44e+06 L2.302e+07,1.12e+06 L2.048e+07,1.12e+06"/>
</g>

<g fill="#1171be" fill-opacity="1" stroke="#1171be" stroke-opacity="1" stroke-width="4" stroke-linecap="butt" stroke-linejoin="round" transform="matrix(0.5,0,0,0.5,0,0)"
font-family="Helvetica" font-size="60" font-weight="700" font-style="normal" 
>
<polyline fill="none" vector-effect="none" points="2053.99,142.967 2113.87,142.967 " />
</g>

<g fill="#dd5400" fill-opacity="1" stroke="#dd5400" stroke-opacity="1" stroke-width="4" stroke-linecap="butt" stroke-linejoin="round" transform="matrix(0.5,0,0,0.5,0,0)"
font-family="Helvetica" font-size="60" font-weight="700" font-style="normal" 
>
<polyline fill="none" vector-effect="none" points="2053.99,199.656 2113.87,199.656 " />
</g>

<g fill="#edb120" fill-opacity="1" stroke="#edb120" stroke-opacity="1" stroke-width="4" stroke-linecap="butt" stroke-linejoin="round" transform="matrix(0.5,0,0,0.5,0,0)"
font-family="Helvetica" font-size="60" font-weight="700" font-style="normal" 
>
<polyline fill="none" vector-effect="none" points="2053.99,256.344 2113.87,256.344 " />
</g>

<g fill="#8516d1" fill-opacity="1" stroke="#8516d1" stroke-opacity="1" stroke-width="4" stroke-linecap="butt" stroke-linejoin="round" transform="matrix(0.5,0,0,0.5,0,0)"
font-family="Helvetica" font-size="60" font-weight="700" font-style="normal" 
>
<polyline fill="none" vector-effect="none" points="2053.99,313.033 2113.87,313.033 " />
</g>

<g fill="#212121" fill-opacity="1" stroke="#212121" stroke-opacity="1" stroke-width="1" stroke-linecap="square" stroke-linejoin="bevel" transform="matrix(0.5,0,0,0.5,1059.18,80.2333)"
font-family="Helvetica" font-size="50" font-weight="400" font-style="normal" 
>
<text fill="#212121" fill-opacity="1" stroke="none" xml:space="preserve" x="0" y="0" font-family="Helvetica" font-size="50" font-weight="400" font-style="normal" 
 >Chassis</text>
</g>

<g fill="#212121" fill-opacity="1" stroke="#212121" stroke-opacity="1" stroke-width="1" stroke-linecap="square" stroke-linejoin="bevel" transform="matrix(0.5,0,0,0.5,1059.18,108.578)"
font-family="Helvetica" font-size="50" font-weight="400" font-style="normal" 
>
<text fill="#212121" fill-opacity="1" stroke="none" xml:space="preserve" x="0" y="0" font-family="Helvetica" font-size="50" font-weight="400" font-style="normal" 
 >Seat</text>
</g>

<g fill="#212121" fill-opacity="1" stroke="#212121" stroke-opacity="1" stroke-width="1" stroke-linecap="square" stroke-linejoin="bevel" transform="matrix(0.5,0,0,0.5,1059.18,136.922)"
font-family="Helvetica" font-size="50" font-weight="400" font-style="normal" 
>
<text fill="#212121" fill-opacity="1" stroke="none" xml:space="preserve" x="0" y="0" font-family="Helvetica" font-size="50" font-weight="400" font-style="normal" 
 >Wheel</text>
</g>

<g fill="#212121" fill-opacity="1" stroke="#212121" stroke-opacity="1" stroke-width="1" stroke-linecap="square" stroke-linejoin="bevel" transform="matrix(0.5,0,0,0.5,1059.18,165.267)"
font-family="Helvetica" font-size="50" font-weight="400" font-style="normal" 
>
<text fill="#212121" fill-opacity="1" stroke="none" xml:space="preserve" x="0" y="0" font-family="Helvetica" font-size="50" font-weight="400" font-style="normal" 
 >Ground</text>
</g>

<g fill="none" stroke="#212121" stroke-opacity="1" stroke-width="1" stroke-linecap="butt" stroke-linejoin="miter" stroke-miterlimit="2" transform="matrix(0.5,0,0,0.5,0,0)"
font-family="Helvetica" font-size="50" font-weight="400" font-style="normal" 
>
<path vector-effect="none" fill-rule="evenodd" d="M2048,344 L2048,112 L2302,112 L2302,344 L2048,344"/>
</g>
</g>
</svg>
