<?xml version="1.0" encoding="UTF-8" standalone="no"?>
<svg width="451.908mm" height="225.778mm"
 viewBox="0 0 1281 640"
 xmlns="http://www.w3.org/2000/svg" xmlns:xlink="http://www.w3.org/1999/xlink"  version="1.2" baseProfile="tiny">
<title>Qt SVG Document</title>
<desc>MATLAB, The MathWorks, Inc. Version 25.2.0.2998904 R2025b</desc>
<defs>
</defs>
<g fill="none" stroke="black" stroke-width="1" fill-rule="evenodd" stroke-linecap="square" stroke-linejoin="bevel" >

<g fill="#ffffff" fill-opacity="1" stroke="none" transform="matrix(0.5,0,0,0.5,0,0)"
font-family="MS Shell Dlg 2" font-size="8" font-weight="400" font-style="normal" 
>
<path vector-effect="none" fill-rule="evenodd" d="M0,0 L2562,0 L2562,1281 L0,1281 L0,0"/>
</g>

<g fill="#ffffff" fill-opacity="1" stroke="none" transform="matrix(5e-05,0,0,5e-05,0,0)"
font-family="MS Shell Dlg 2" font-size="8" font-weight="400" font-style="normal" 
>
<path vector-effect="none" fill-rule="evenodd" d="M3.33e+06,960000 L3.33e+06,1.127e+07 L2.318e+07,1.127e+07 L2.318e+07,960000 L3.33e+06,960000"/>
</g>

<g fill="#212121" fill-opacity="0.14902" stroke="#212121" stroke-opacity="0.14902" stroke-width="1" stroke-linecap="butt" stroke-linejoin="round" transform="matrix(0.5,0,0,0.5,0,0)"
font-family="MS Shell Dlg 2" font-size="8" font-weight="400" font-style="normal" 
>
<polyline fill="none" vector-effect="none" points="333,96 333,1127 " />
<polyline fill="none" vector-effect="none" points="730,96 730,1127 " />
<polyline fill="none" vector-effect="none" points="1127,96 1127,1127 " />
<polyline fill="none" vector-effect="none" points="1524,96 1524,1127 " />
<polyline fill="none" vector-effect="none" points="1921,96 1921,1127 " />
<polyline fill="none" vector-effect="none" points="2318,96 2318,1127 " />
<polyline fill="none" vector-effect="none" points="333,1127 2318,1127 " />
<polyline fill="none" vector-effect="none" points="333,998.125 2318,998.125 " />
<polyline fill="none" vector-effect="none" points="333,869.25 2318,869.25 " />
<polyline fill="none" vector-effect="none" points="333,740.375 2318,740.375 " />
<polyline fill="none" vector-effect="none" points="333,611.5 2318,611.5 " />
<polyline fill="none" vector-effect="none" points="333,482.625 2318,482.625 " />
<polyline fill="none" vector-effect="none" points="333,353.75 2318,353.75 " />
<polyline fill="none" vector-effect="none" points="333,224.875 2318,224.875 " />
<polyline fill="none" vector-effect="none" points="333,96 2318,96 " />
</g>

<g fill="#212121" fill-opacity="1" stroke="#212121" stroke-opacity="1" stroke-width="1" stroke-linecap="square" stroke-linejoin="bevel" transform="matrix(0.5,0,0,0.5,608.25,633.5)"
font-family="Helvetica" font-size="60" font-weight="400" font-style="normal" 
>
<text fill="#212121" fill-opacity="1" stroke="none" xml:space="preserve" x="0" y="0" font-family="Helvetica" font-size="60" font-weight="400" font-style="normal" 
 >Time (s)</text>
</g>

<g fill="#212121" fill-opacity="1" stroke="#212121" stroke-opacity="1" stroke-width="1" stroke-linecap="square" stroke-linejoin="round" transform="matrix(0.5,0,0,0.5,0,0)"
font-family="Helvetica" font-size="60" font-weight="400" font-style="normal" 
>
<polyline fill="none" vector-effect="none" points="333,1127 2318,1127 " />
<polyline fill="none" vector-effect="none" points="333,96 2318,96 " />
<polyline fill="none" vector-effect="none" points="333,1127 333,1107.15 " />
<polyline fill="none" vector-effect="none" points="333,115.85 333,96 " />
<polyline fill="none" vector-effect="none" points="730,1127 730,1107.15 " />
<polyline fill="none" vector-effect="none" points="730,115.85 730,96 " />
<polyline fill="none" vector-effect="none" points="1127,1127 1127,1107.15 " />
<polyline fill="none" vector-effect="none" points="1127,115.85 1127,96 " />
<polyline fill="none" vector-effect="none" points="1524,1127 1524,1107.15 " />
<polyline fill="none" vector-effect="none" points="1524,115.85 1524,96 " />
<polyline fill="none" vector-effect="none" points="1921,1127 1921,1107.15 " />
<polyline fill="none" vector-effect="none" points="1921,115.85 1921,96 " />
<polyline fill="none" vector-effect="none" points="2318,1127 2318,1107.15 " />
<polyline fill="none" vector-effect="none" points="2318,115.85 2318,96 " />
</g>

<g fill="#212121" fill-opacity="1" stroke="#212121" stroke-opacity="1" stroke-width="1" stroke-linecap="square" stroke-linejoin="bevel" transform="matrix(0.5,0,0,0.5,158.25,599)"
font-family="Helvetica" font-size="60" font-weight="400" font-style="normal" 
>
<text fill="#212121" fill-opacity="1" stroke="none" xml:space="preserve" x="0" y="0" font-family="Helvetica" font-size="60" font-weight="400" font-style="normal" 
 >0</text>
</g>

<g fill="#212121" fill-opacity="1" stroke="#212121" stroke-opacity="1" stroke-width="1" stroke-linecap="square" stroke-linejoin="bevel" transform="matrix(0.5,0,0,0.5,356.75,599)"
font-family="Helvetica" font-size="60" font-weight="400" font-style="normal" 
>
<text fill="#212121" fill-opacity="1" stroke="none" xml:space="preserve" x="0" y="0" font-family="Helvetica" font-size="60" font-weight="400" font-style="normal" 
 >2</text>
</g>

<g fill="#212121" fill-opacity="1" stroke="#212121" stroke-opacity="1" stroke-width="1" stroke-linecap="square" stroke-linejoin="bevel" transform="matrix(0.5,0,0,0.5,555.25,599)"
font-family="Helvetica" font-size="60" font-weight="400" font-style="normal" 
>
<text fill="#212121" fill-opacity="1" stroke="none" xml:space="preserve" x="0" y="0" font-family="Helvetica" font-size="60" font-weight="400" font-style="normal" 
 >4</text>
</g>

<g fill="#212121" fill-opacity="1" stroke="#212121" stroke-opacity="1" stroke-width="1" stroke-linecap="square" stroke-linejoin="bevel" transform="matrix(0.5,0,0,0.5,753.75,599)"
font-family="Helvetica" font-size="60" font-weight="400" font-style="normal" 
>
<text fill="#212121" fill-opacity="1" stroke="none" xml:space="preserve" x="0" y="0" font-family="Helvetica" font-size="60" font-weight="400" font-style="normal" 
 >6</text>
</g>

<g fill="#212121" fill-opacity="1" stroke="#212121" stroke-opacity="1" stroke-width="1" stroke-linecap="square" stroke-linejoin="bevel" transform="matrix(0.5,0,0,0.5,952.25,599)"
font-family="Helvetica" font-size="60" font-weight="400" font-style="normal" 
>
<text fill="#212121" fill-opacity="1" stroke="none" xml:space="preserve" x="0" y="0" font-family="Helvetica" font-size="60" font-weight="400" font-style="normal" 
 >8</text>
</g>

<g fill="#212121" fill-opacity="1" stroke="#212121" stroke-opacity="1" stroke-width="1" stroke-linecap="square" stroke-linejoin="bevel" transform="matrix(0.5,0,0,0.5,1142.5,599)"
font-family="Helvetica" font-size="60" font-weight="400" font-style="normal" 
>
<text fill="#212121" fill-opacity="1" stroke="none" xml:space="preserve" x="0" y="0" font-family="Helvetica" font-size="60" font-weight="400" font-style="normal" 
 >10</text>
</g>

<g fill="#212121" fill-opacity="1" stroke="#212121" stroke-opacity="1" stroke-width="1" stroke-linecap="square" stroke-linejoin="bevel" transform="matrix(0,-0.5,0.5,0,107,422.75)"
font-family="Helvetica" font-size="60" font-weight="400" font-style="normal" 
>
<text fill="#212121" fill-opacity="1" stroke="none" xml:space="preserve" x="0" y="0" font-family="Helvetica" font-size="60" font-weight="400" font-style="normal" 
 >Displacement (m)</text>
</g>

<g fill="#212121" fill-opacity="1" stroke="#212121" stroke-opacity="1" stroke-width="1" stroke-linecap="square" stroke-linejoin="round" transform="matrix(0.5,0,0,0.5,0,0)"
font-family="Helvetica" font-size="60" font-weight="400" font-style="normal" 
>
<polyline fill="none" vector-effect="none" points="333,1127 333,96 " />
<polyline fill="none" vector-effect="none" points="2318,1127 2318,96 " />
<polyline fill="none" vector-effect="none" points="333,1127 352.85,1127 " />
<polyline fill="none" vector-effect="none" points="2298.15,1127 2318,1127 " />
<polyline fill="none" vector-effect="none" points="333,998.125 352.85,998.125 " />
<polyline fill="none" vector-effect="none" points="2298.15,998.125 2318,998.125 " />
<polyline fill="none" vector-effect="none" points="333,869.25 352.85,869.25 " />
<polyline fill="none" vector-effect="none" points="2298.15,869.25 2318,869.25 " />
<polyline fill="none" vector-effect="none" points="333,740.375 352.85,740.375 " />
<polyline fill="none" vector-effect="none" points="2298.15,740.375 2318,740.375 " />
<polyline fill="none" vector-effect="none" points="333,611.5 352.85,611.5 " />
<polyline fill="none" vector-effect="none" points="2298.15,611.5 2318,611.5 " />
<polyline fill="none" vector-effect="none" points="333,482.625 352.85,482.625 " />
<polyline fill="none" vector-effect="none" points="2298.15,482.625 2318,482.625 " />
<polyline fill="none" vector-effect="none" points="333,353.75 352.85,353.75 " />
<polyline fill="none" vector-effect="none" points="2298.15,353.75 2318,353.75 " />
<polyline fill="none" vector-effect="none" points="333,224.875 352.85,224.875 " />
<polyline fill="none" vector-effect="none" points="2298.15,224.875 2318,224.875 " />
<polyline fill="none" vector-effect="none" points="333,96 352.85,96 " />
<polyline fill="none" vector-effect="none" points="2298.15,96 2318,96 " />
</g>

<g fill="#212121" fill-opacity="1" stroke="#212121" stroke-opacity="1" stroke-width="1" stroke-linecap="square" stroke-linejoin="bevel" transform="matrix(0.5,0,0,0.5,142,574)"
font-family="Helvetica" font-size="60" font-weight="400" font-style="normal" 
>
<text fill="#212121" fill-opacity="1" stroke="none" xml:space="preserve" x="0" y="0" font-family="Helvetica" font-size="60" font-weight="400" font-style="normal" 
 >0</text>
</g>

<g fill="#212121" fill-opacity="1" stroke="#212121" stroke-opacity="1" stroke-width="1" stroke-linecap="square" stroke-linejoin="bevel" transform="matrix(0.5,0,0,0.5,117,509.563)"
font-family="Helvetica" font-size="60" font-weight="400" font-style="normal" 
>
<text fill="#212121" fill-opacity="1" stroke="none" xml:space="preserve" x="0" y="0" font-family="Helvetica" font-size="60" font-weight="400" font-style="normal" 
 >0.1</text>
</g>

<g fill="#212121" fill-opacity="1" stroke="#212121" stroke-opacity="1" stroke-width="1" stroke-linecap="square" stroke-linejoin="bevel" transform="matrix(0.5,0,0,0.5,117,445.125)"
font-family="Helvetica" font-size="60" font-weight="400" font-style="normal" 
>
<text fill="#212121" fill-opacity="1" stroke="none" xml:space="preserve" x="0" y="0" font-family="Helvetica" font-size="60" font-weight="400" font-style="normal" 
 >0.2</text>
</g>

<g fill="#212121" fill-opacity="1" stroke="#212121" stroke-opacity="1" stroke-width="1" stroke-linecap="square" stroke-linejoin="bevel" transform="matrix(0.5,0,0,0.5,117,380.688)"
font-family="Helvetica" font-size="60" font-weight="400" font-style="normal" 
>
<text fill="#212121" fill-opacity="1" stroke="none" xml:space="preserve" x="0" y="0" font-family="Helvetica" font-size="60" font-weight="400" font-style="normal" 
 >0.3</text>
</g>

<g fill="#212121" fill-opacity="1" stroke="#212121" stroke-opacity="1" stroke-width="1" stroke-linecap="square" stroke-linejoin="bevel" transform="matrix(0.5,0,0,0.5,117,316.25)"
font-family="Helvetica" font-size="60" font-weight="400" font-style="normal" 
>
<text fill="#212121" fill-opacity="1" stroke="none" xml:space="preserve" x="0" y="0" font-family="Helvetica" font-size="60" font-weight="400" font-style="normal" 
 >0.4</text>
</g>

<g fill="#212121" fill-opacity="1" stroke="#212121" stroke-opacity="1" stroke-width="1" stroke-linecap="square" stroke-linejoin="bevel" transform="matrix(0.5,0,0,0.5,117,251.813)"
font-family="Helvetica" font-size="60" font-weight="400" font-style="normal" 
>
<text fill="#212121" fill-opacity="1" stroke="none" xml:space="preserve" x="0" y="0" font-family="Helvetica" font-size="60" font-weight="400" font-style="normal" 
 >0.5</text>
</g>

<g fill="#212121" fill-opacity="1" stroke="#212121" stroke-opacity="1" stroke-width="1" stroke-linecap="square" stroke-linejoin="bevel" transform="matrix(0.5,0,0,0.5,117,187.375)"
font-family="Helvetica" font-size="60" font-weight="400" font-style="normal" 
>
<text fill="#212121" fill-opacity="1" stroke="none" xml:space="preserve" x="0" y="0" font-family="Helvetica" font-size="60" font-weight="400" font-style="normal" 
 >0.6</text>
</g>

<g fill="#212121" fill-opacity="1" stroke="#212121" stroke-opacity="1" stroke-width="1" stroke-linecap="square" stroke-linejoin="bevel" transform="matrix(0.5,0,0,0.5,117,122.938)"
font-family="Helvetica" font-size="60" font-weight="400" font-style="normal" 
>
<text fill="#212121" fill-opacity="1" stroke="none" xml:space="preserve" x="0" y="0" font-family="Helvetica" font-size="60" font-weight="400" font-style="normal" 
 >0.7</text>
</g>

<g fill="#212121" fill-opacity="1" stroke="#212121" stroke-opacity="1" stroke-width="1" stroke-linecap="square" stroke-linejoin="bevel" transform="matrix(0.5,0,0,0.5,117,58.5)"
font-family="Helvetica" font-size="60" font-weight="400" font-style="normal" 
>
<text fill="#212121" fill-opacity="1" stroke="none" xml:space="preserve" x="0" y="0" font-family="Helvetica" font-size="60" font-weight="400" font-style="normal" 
 >0.8</text>
</g>

<g fill="#212121" fill-opacity="1" stroke="#212121" stroke-opacity="1" stroke-width="1" stroke-linecap="square" stroke-linejoin="bevel" transform="matrix(0.5,0,0,0.5,301.75,37.75)"
font-family="Helvetica" font-size="60" font-weight="700" font-style="normal" 
>
<text fill="#212121" fill-opacity="1" stroke="none" xml:space="preserve" x="0" y="0" font-family="Helvetica" font-size="60" font-weight="700" font-style="normal" 
 >Displacement of Quarter Car Model (Bump; Tuned)</text>
</g>

<g fill="none" stroke="#1171be" stroke-opacity="1" stroke-width="4" stroke-linecap="butt" stroke-linejoin="round" transform="matrix(0.5,0,0,0.5,0,0)"
font-family="Helvetica" font-size="60" font-weight="700" font-style="normal" 
>
<polyline fill="none" vector-effect="none" points="333,611.5 372.7,611.5 412.4,611.5 452.1,611.5 491.8,611.5 531.5,611.5 531.5,611.5 531.5,611.5 533.726,611.499 535.953,611.488 538.453,611.438 541.574,611.284 545.406,610.908 549.951,610.188 554.787,609.142 560.803,607.55 568.507,605.188 575.646,602.761 585.57,599.103 596.875,594.647 610.187,589.13 634.758,578.47 645.167,573.83 655.576,569.143 669.978,562.596 689.282,553.744 701.442,548.14 713.601,542.522 729.83,535.011 752.842,524.358 765.942,518.296 779.043,512.242 792.107,506.215 806.209,499.72 822.432,492.265 829.25,489.139 829.25,489.139 829.25,489.139 832.764,487.539 835.875,486.207 840.507,484.602 844.881,483.645 849.025,483.235 853.723,483.242 859.908,483.806 866.842,484.968 873.511,486.484 883.309,489.255 893.454,492.626 905.864,497.236 923.82,504.545 937.686,510.543 951.553,516.753 967.341,524.009 984.547,532.074 1000.25,539.53 1013.72,545.976 1027.69,552.686 1045.66,561.34 1058.24,567.398 1070.81,573.452 1084.73,580.142 1101.88,588.365 1120.33,597.178 1127.08,600.394 1130.57,602.051 1134.07,603.652 1139.43,605.842 1144.56,607.544 1149.38,608.834 1155.26,610.103 1163.73,611.534 1171.07,612.502 1180.94,613.505 1192.91,614.391 1206.45,615.091 1228.29,615.775 1241.99,616.013 1255.68,616.146 1269.43,616.201 1283.84,616.192 1299.37,616.126 1315.27,616.014 1330.15,615.879 1344.08,615.736 1358.8,615.571 1376.76,615.359 1391.03,615.187 1405.3,615.014 1418.97,614.85 1432.11,614.695 1446.11,614.534 1462.28,614.353 1479.54,614.168 1494.8,614.013 1507.88,613.884 1521.98,613.752 1540.88,613.585 1552.97,613.483 1565.07,613.386 1579.11,613.279 1598.08,613.142 1612.96,613.042 1627.84,612.948 1645.96,612.84 1657.92,612.775 1669.87,612.712 1683.18,612.645 1701.53,612.559 1717.86,612.488 1734.19,612.422 1750.96,612.359 1761.61,612.319 1772.26,612.282 1785.12,612.241 1806.69,612.175 1818.3,612.143 1829.9,612.111 1846.33,612.07 1867.37,612.022 1880.56,611.993 1893.74,611.965 1906.99,611.94 1922.03,611.912 1939.42,611.883 1956.17,611.856 1970.01,611.836 1982.9,611.818 2000.28,611.795 2013.82,611.779 2027.37,611.763 2041.43,611.748 2056.79,611.732 2073.02,611.717 2088.35,611.703 2102.21,611.692 2116.27,611.681 2133.67,611.668 2149.01,611.658 2164.36,611.648 2178.08,611.639 2189.96,611.632 2202.46,611.625 2218.82,611.617 2241.03,611.605 2253.95,611.6 2266.87,611.595 2280.23,611.59 2294.87,611.585 2311.26,611.579 2318,611.577 " />
</g>

<g fill="none" stroke="#dd5400" stroke-opacity="1" stroke-width="4" stroke-linecap="butt" stroke-linejoin="round" transform="matrix(0.5,0,0,0.5,0,0)"
font-family="Helvetica" font-size="60" font-weight="700" font-style="normal" 
>
<polyline fill="none" vector-effect="none" points="333,353.75 372.7,353.75 412.4,353.75 452.1,353.75 491.8,353.75 531.5,353.75 531.5,353.75 531.5,353.75 533.726,353.75 535.953,353.75 538.453,353.748 541.574,353.738 545.406,353.705 549.951,353.611 554.787,353.421 560.803,353.029 568.507,352.252 575.646,351.249 585.57,349.417 596.875,346.75 610.187,342.911 634.758,334.229 645.167,330.063 655.576,325.673 669.978,319.299 689.282,310.339 701.442,304.517 713.601,298.596 729.83,290.581 752.842,279.085 765.942,272.506 779.043,265.92 792.107,259.356 806.209,252.285 822.432,244.177 829.25,240.78 829.25,240.78 829.25,240.78 832.764,239.033 835.875,237.491 840.507,235.226 844.881,233.167 849.025,231.333 853.723,229.434 859.908,227.271 866.842,225.333 873.511,223.96 883.309,222.792 893.454,222.583 905.864,223.564 923.82,227.011 937.686,230.998 951.553,235.893 967.341,242.332 984.547,250.142 1000.25,257.801 1013.72,264.667 1027.69,271.99 1045.66,281.621 1058.24,288.45 1070.81,295.321 1084.73,302.948 1101.88,312.343 1120.33,322.414 1127.08,326.084 1130.57,327.98 1134.07,329.871 1139.43,332.745 1144.56,335.422 1149.38,337.846 1155.26,340.647 1163.73,344.348 1171.07,347.233 1180.94,350.642 1192.91,354.107 1206.45,357.24 1228.29,360.841 1241.99,362.374 1255.68,363.47 1269.43,364.215 1283.84,364.694 1299.37,364.938 1315.27,364.964 1330.15,364.835 1344.08,364.614 1358.8,364.302 1376.76,363.846 1391.03,363.445 1405.3,363.023 1418.97,362.609 1432.11,362.207 1446.11,361.781 1462.28,361.298 1479.54,360.797 1494.8,360.37 1507.88,360.017 1521.98,359.653 1540.88,359.189 1552.97,358.908 1565.07,358.639 1579.11,358.342 1598.08,357.965 1612.96,357.69 1627.84,357.43 1645.96,357.136 1657.92,356.954 1669.87,356.781 1683.18,356.599 1701.53,356.365 1717.86,356.172 1734.19,355.993 1750.96,355.823 1761.61,355.721 1772.26,355.624 1785.12,355.514 1806.69,355.342 1818.3,355.257 1829.9,355.176 1846.33,355.069 1867.37,354.943 1880.56,354.871 1893.74,354.802 1906.99,354.738 1922.03,354.669 1939.42,354.596 1956.17,354.531 1970.01,354.481 1982.9,354.437 2000.28,354.382 2013.82,354.342 2027.37,354.305 2041.43,354.269 2056.79,354.232 2073.02,354.196 2088.35,354.164 2102.21,354.137 2116.27,354.112 2133.67,354.083 2149.01,354.059 2164.36,354.037 2178.08,354.019 2189.96,354.004 2202.46,353.989 2218.82,353.971 2241.03,353.948 2253.95,353.936 2266.87,353.925 2280.23,353.914 2294.87,353.903 2311.26,353.891 2318,353.886 " />
</g>

<g fill="none" stroke="#edb120" stroke-opacity="1" stroke-width="4" stroke-linecap="butt" stroke-linejoin="round" transform="matrix(0.5,0,0,0.5,0,0)"
font-family="Helvetica" font-size="60" font-weight="700" font-style="normal" 
>
<polyline fill="none" vector-effect="none" points="333,869.25 372.7,869.25 412.4,869.25 452.1,869.25 491.8,869.25 531.5,869.25 531.5,869.25 531.5,869.25 533.726,869.207 535.953,868.96 538.453,868.345 541.574,867.126 545.406,865.203 549.951,862.752 554.787,860.259 560.803,857.395 568.507,853.904 575.646,850.7 585.57,846.271 596.875,841.272 610.187,835.428 634.758,824.692 645.167,820.164 655.576,815.638 669.978,809.38 689.282,801.002 701.442,795.725 713.601,790.452 729.83,783.417 752.842,773.446 765.942,767.77 779.043,762.098 792.107,756.441 806.209,750.336 822.432,743.312 829.25,740.363 829.25,740.363 829.25,740.363 832.764,739.148 835.875,739.101 840.507,740.854 844.881,743.547 849.025,746.199 853.723,748.915 859.908,752.044 866.842,755.307 873.511,758.405 883.309,762.911 893.454,767.495 905.864,773.029 923.82,780.958 937.686,787.043 951.553,793.109 967.341,799.998 984.547,807.491 1000.25,814.319 1013.72,820.172 1027.69,826.236 1045.66,834.028 1058.24,839.482 1070.81,844.934 1084.73,850.965 1101.88,858.392 1120.33,866.38 1127.08,869.306 1130.57,870.655 1134.07,871.386 1139.43,871.379 1144.56,870.854 1149.38,870.423 1155.26,870.133 1163.73,869.949 1171.07,869.833 1180.94,869.699 1192.91,869.589 1206.45,869.505 1228.29,869.418 1241.99,869.381 1255.68,869.353 1269.43,869.331 1283.84,869.312 1299.37,869.296 1315.27,869.283 1330.15,869.274 1344.08,869.268 1358.8,869.262 1376.76,869.258 1391.03,869.255 1405.3,869.253 1418.97,869.25 1432.11,869.248 1446.11,869.247 1462.28,869.246 1479.54,869.246 1494.8,869.245 1507.88,869.244 1521.98,869.243 1540.88,869.24 1552.97,869.242 1565.07,869.244 1579.11,869.244 1598.08,869.244 1612.96,869.245 1627.84,869.246 1645.96,869.25 1657.92,869.248 1669.87,869.246 1683.18,869.246 1701.53,869.246 1717.86,869.246 1734.19,869.244 1750.96,869.239 1761.61,869.244 1772.26,869.247 1785.12,869.247 1806.69,869.251 1818.3,869.248 1829.9,869.248 1846.33,869.248 1867.37,869.245 1880.56,869.246 1893.74,869.247 1906.99,869.248 1922.03,869.248 1939.42,869.247 1956.17,869.247 1970.01,869.249 1982.9,869.249 2000.28,869.251 2013.82,869.251 2027.37,869.25 2041.43,869.25 2056.79,869.25 2073.02,869.251 2088.35,869.251 2102.21,869.25 2116.27,869.249 2133.67,869.248 2149.01,869.247 2164.36,869.245 2178.08,869.246 2189.96,869.249 2202.46,869.25 2218.82,869.25 2241.03,869.251 2253.95,869.252 2266.87,869.251 2280.23,869.25 2294.87,869.25 2311.26,869.251 2318,869.25 " />
</g>

<g fill="none" stroke="#8516d1" stroke-opacity="1" stroke-width="4" stroke-linecap="butt" stroke-linejoin="round" transform="matrix(0.5,0,0,0.5,0,0)"
font-family="Helvetica" font-size="60" font-weight="700" font-style="normal" 
>
<polyline fill="none" vector-effect="none" points="333,1127 372.7,1127 412.4,1127 452.1,1127 491.8,1127 531.5,1127 531.5,1127 531.5,1127 533.726,1126.04 535.953,1125.07 538.453,1123.99 541.574,1122.64 545.406,1120.98 549.951,1119.01 554.787,1116.92 560.803,1114.32 568.507,1110.98 575.646,1107.89 585.57,1103.6 596.875,1098.7 610.187,1092.94 634.758,1082.31 645.167,1077.8 655.576,1073.3 669.978,1067.06 689.282,1058.71 701.442,1053.44 713.601,1048.18 729.83,1041.16 752.842,1031.2 765.942,1025.53 779.043,1019.86 792.107,1014.2 806.209,1008.1 822.432,1001.08 829.25,998.125 829.25,998.125 829.25,998.125 832.764,999.646 835.875,1000.99 840.507,1003 844.881,1004.89 849.025,1006.68 853.723,1008.72 859.908,1011.39 866.842,1014.4 873.511,1017.28 883.309,1021.52 893.454,1025.91 905.864,1031.29 923.82,1039.06 937.686,1045.06 951.553,1051.06 967.341,1057.9 984.547,1065.34 1000.25,1072.14 1013.72,1077.97 1027.69,1084.02 1045.66,1091.8 1058.24,1097.24 1070.81,1102.68 1084.73,1108.71 1101.88,1116.13 1120.33,1124.11 1127.08,1127 1130.57,1127 1134.07,1127 1139.43,1127 1144.56,1127 1149.38,1127 1155.26,1127 1163.73,1127 1171.07,1127 1180.94,1127 1192.91,1127 1206.45,1127 1228.29,1127 1241.99,1127 1255.68,1127 1269.43,1127 1283.84,1127 1299.37,1127 1315.27,1127 1330.15,1127 1344.08,1127 1358.8,1127 1376.76,1127 1391.03,1127 1405.3,1127 1418.97,1127 1432.11,1127 1446.11,1127 1462.28,1127 1479.54,1127 1494.8,1127 1507.88,1127 1521.98,1127 1540.88,1127 1552.97,1127 1565.07,1127 1579.11,1127 1598.08,1127 1612.96,1127 1627.84,1127 1645.96,1127 1657.92,1127 1669.87,1127 1683.18,1127 1701.53,1127 1717.86,1127 1734.19,1127 1750.96,1127 1761.61,1127 1772.26,1127 1785.12,1127 1806.69,1127 1818.3,1127 1829.9,1127 1846.33,1127 1867.37,1127 1880.56,1127 1893.74,1127 1906.99,1127 1922.03,1127 1939.42,1127 1956.17,1127 1970.01,1127 1982.9,1127 2000.28,1127 2013.82,1127 2027.37,1127 2041.43,1127 2056.79,1127 2073.02,1127 2088.35,1127 2102.21,1127 2116.27,1127 2133.67,1127 2149.01,1127 2164.36,1127 2178.08,1127 2189.96,1127 2202.46,1127 2218.82,1127 2241.03,1127 2253.95,1127 2266.87,1127 2280.23,1127 2294.87,1127 2311.26,1127 2318,1127 " />
</g>

<g fill="#ffffff" fill-opacity="1" stroke="none" transform="matrix(5e-05,0,0,5e-05,0,0)"
font-family="Helvetica" font-size="60" font-weight="700" font-style="normal" 
>
<path vector-effect="none" fill-rule="evenodd" d="M2.048e+07,1.12e+06 L2.048e+07,3.44e+06 L2.302e+07,3.44e+06 L2.302e+07,1.12e+06 L2.048e+07,1.12e+06"/>
</g>

<g fill="#1171be" fill-opacity="1" stroke="#1171be" stroke-opacity="1" stroke-width="4" stroke-linecap="butt" stroke-linejoin="round" transform="matrix(0.5,0,0,0.5,0,0)"
font-family="Helvetica" font-size="60" font-weight="700" font-style="normal" 
>
<polyline fill="none" vector-effect="none" points="2053.99,142.967 2113.87,142.967 " />
</g>

<g fill="#dd5400" fill-opacity="1" stroke="#dd5400" stroke-opacity="1" stroke-width="4" stroke-linecap="butt" stroke-linejoin="round" transform="matrix(0.5,0,0,0.5,0,0)"
font-family="Helvetica" font-size="60" font-weight="700" font-style="normal" 
>
<polyline fill="none" vector-effect="none" points="2053.99,199.656 2113.87,199.656 " />
</g>

<g fill="#edb120" fill-opacity="1" stroke="#edb120" stroke-opacity="1" stroke-width="4" stroke-linecap="butt" stroke-linejoin="round" transform="matrix(0.5,0,0,0.5,0,0)"
font-family="Helvetica" font-size="60" font-weight="700" font-style="normal" 
>
<polyline fill="none" vector-effect="none" points="2053.99,256.344 2113.87,256.344 " />
</g>

<g fill="#8516d1" fill-opacity="1" stroke="#8516d1" stroke-opacity="1" stroke-width="4" stroke-linecap="butt" stroke-linejoin="round" transform="matrix(0.5,0,0,0.5,0,0)"
font-family="Helvetica" font-size="60" font-weight="700" font-style="normal" 
>
<polyline fill="none" vector-effect="none" points="2053.99,313.033 2113.87,313.033 " />
</g>

<g fill="#212121" fill-opacity="1" stroke="#212121" stroke-opacity="1" stroke-width="1" stroke-linecap="square" stroke-linejoin="bevel" transform="matrix(0.5,0,0,0.5,1059.18,80.2333)"
font-family="Helvetica" font-size="50" font-weight="400" font-style="normal" 
>
<text fill="#212121" fill-opacity="1" stroke="none" xml:space="preserve" x="0" y="0" font-family="Helvetica" font-size="50" font-weight="400" font-style="normal" 
 >Chassis</text>
</g>

<g fill="#212121" fill-opacity="1" stroke="#212121" stroke-opacity="1" stroke-width="1" stroke-linecap="square" stroke-linejoin="bevel" transform="matrix(0.5,0,0,0.5,1059.18,108.578)"
font-family="Helvetica" font-size="50" font-weight="400" font-style="normal" 
>
<text fill="#212121" fill-opacity="1" stroke="none" xml:space="preserve" x="0" y="0" font-family="Helvetica" font-size="50" font-weight="400" font-style="normal" 
 >Seat</text>
</g>

<g fill="#212121" fill-opacity="1" stroke="#212121" stroke-opacity="1" stroke-width="1" stroke-linecap="square" stroke-linejoin="bevel" transform="matrix(0.5,0,0,0.5,1059.18,136.922)"
font-family="Helvetica" font-size="50" font-weight="400" font-style="normal" 
>
<text fill="#212121" fill-opacity="1" stroke="none" xml:space="preserve" x="0" y="0" font-family="Helvetica" font-size="50" font-weight="400" font-style="normal" 
 >Wheel</text>
</g>

<g fill="#212121" fill-opacity="1" stroke="#212121" stroke-opacity="1" stroke-width="1" stroke-linecap="square" stroke-linejoin="bevel" transform="matrix(0.5,0,0,0.5,1059.18,165.267)"
font-family="Helvetica" font-size="50" font-weight="400" font-style="normal" 
>
<text fill="#212121" fill-opacity="1" stroke="none" xml:space="preserve" x="0" y="0" font-family="Helvetica" font-size="50" font-weight="400" font-style="normal" 
 >Ground</text>
</g>

<g fill="none" stroke="#212121" stroke-opacity="1" stroke-width="1" stroke-linecap="butt" stroke-linejoin="miter" stroke-miterlimit="2" transform="matrix(0.5,0,0,0.5,0,0)"
font-family="Helvetica" font-size="50" font-weight="400" font-style="normal" 
>
<path vector-effect="none" fill-rule="evenodd" d="M2048,344 L2048,112 L2302,112 L2302,344 L2048,344"/>
</g>
</g>
</svg>
