<?xml version="1.0" encoding="UTF-8" standalone="no"?>
<svg width="451.908mm" height="225.778mm"
 viewBox="0 0 1281 640"
 xmlns="http://www.w3.org/2000/svg" xmlns:xlink="http://www.w3.org/1999/xlink"  version="1.2" baseProfile="tiny">
<title>Qt SVG Document</title>
<desc>MATLAB, The MathWorks, Inc. Version 25.2.0.2998904 R2025b</desc>
<defs>
</defs>
<g fill="none" stroke="black" stroke-width="1" fill-rule="evenodd" stroke-linecap="square" stroke-linejoin="bevel" >

<g fill="#ffffff" fill-opacity="1" stroke="none" transform="matrix(0.5,0,0,0.5,0,0)"
font-family="MS Shell Dlg 2" font-size="8" font-weight="400" font-style="normal" 
>
<path vector-effect="none" fill-rule="evenodd" d="M0,0 L2562,0 L2562,1281 L0,1281 L0,0"/>
</g>

<g fill="#ffffff" fill-opacity="1" stroke="none" transform="matrix(5e-05,0,0,5e-05,0,0)"
font-family="MS Shell Dlg 2" font-size="8" font-weight="400" font-style="normal" 
>
<path vector-effect="none" fill-rule="evenodd" d="M3.33e+06,960000 L3.33e+06,1.127e+07 L2.318e+07,1.127e+07 L2.318e+07,960000 L3.33e+06,960000"/>
</g>

<g fill="#212121" fill-opacity="0.14902" stroke="#212121" stroke-opacity="0.14902" stroke-width="1" stroke-linecap="butt" stroke-linejoin="round" transform="matrix(0.5,0,0,0.5,0,0)"
font-family="MS Shell Dlg 2" font-size="8" font-weight="400" font-style="normal" 
>
<polyline fill="none" vector-effect="none" points="333,96 333,1127 " />
<polyline fill="none" vector-effect="none" points="730,96 730,1127 " />
<polyline fill="none" vector-effect="none" points="1127,96 1127,1127 " />
<polyline fill="none" vector-effect="none" points="1524,96 1524,1127 " />
<polyline fill="none" vector-effect="none" points="1921,96 1921,1127 " />
<polyline fill="none" vector-effect="none" points="2318,96 2318,1127 " />
<polyline fill="none" vector-effect="none" points="333,1127 2318,1127 " />
<polyline fill="none" vector-effect="none" points="333,955.167 2318,955.167 " />
<polyline fill="none" vector-effect="none" points="333,783.333 2318,783.333 " />
<polyline fill="none" vector-effect="none" points="333,611.5 2318,611.5 " />
<polyline fill="none" vector-effect="none" points="333,439.667 2318,439.667 " />
<polyline fill="none" vector-effect="none" points="333,267.833 2318,267.833 " />
<polyline fill="none" vector-effect="none" points="333,96 2318,96 " />
</g>

<g fill="#212121" fill-opacity="1" stroke="#212121" stroke-opacity="1" stroke-width="1" stroke-linecap="square" stroke-linejoin="bevel" transform="matrix(0.5,0,0,0.5,608.25,633.5)"
font-family="Helvetica" font-size="60" font-weight="400" font-style="normal" 
>
<text fill="#212121" fill-opacity="1" stroke="none" xml:space="preserve" x="0" y="0" font-family="Helvetica" font-size="60" font-weight="400" font-style="normal" 
 >Time (s)</text>
</g>

<g fill="#212121" fill-opacity="1" stroke="#212121" stroke-opacity="1" stroke-width="1" stroke-linecap="square" stroke-linejoin="round" transform="matrix(0.5,0,0,0.5,0,0)"
font-family="Helvetica" font-size="60" font-weight="400" font-style="normal" 
>
<polyline fill="none" vector-effect="none" points="333,1127 2318,1127 " />
<polyline fill="none" vector-effect="none" points="333,96 2318,96 " />
<polyline fill="none" vector-effect="none" points="333,1127 333,1107.15 " />
<polyline fill="none" vector-effect="none" points="333,115.85 333,96 " />
<polyline fill="none" vector-effect="none" points="730,1127 730,1107.15 " />
<polyline fill="none" vector-effect="none" points="730,115.85 730,96 " />
<polyline fill="none" vector-effect="none" points="1127,1127 1127,1107.15 " />
<polyline fill="none" vector-effect="none" points="1127,115.85 1127,96 " />
<polyline fill="none" vector-effect="none" points="1524,1127 1524,1107.15 " />
<polyline fill="none" vector-effect="none" points="1524,115.85 1524,96 " />
<polyline fill="none" vector-effect="none" points="1921,1127 1921,1107.15 " />
<polyline fill="none" vector-effect="none" points="1921,115.85 1921,96 " />
<polyline fill="none" vector-effect="none" points="2318,1127 2318,1107.15 " />
<polyline fill="none" vector-effect="none" points="2318,115.85 2318,96 " />
</g>

<g fill="#212121" fill-opacity="1" stroke="#212121" stroke-opacity="1" stroke-width="1" stroke-linecap="square" stroke-linejoin="bevel" transform="matrix(0.5,0,0,0.5,158.25,599)"
font-family="Helvetica" font-size="60" font-weight="400" font-style="normal" 
>
<text fill="#212121" fill-opacity="1" stroke="none" xml:space="preserve" x="0" y="0" font-family="Helvetica" font-size="60" font-weight="400" font-style="normal" 
 >0</text>
</g>

<g fill="#212121" fill-opacity="1" stroke="#212121" stroke-opacity="1" stroke-width="1" stroke-linecap="square" stroke-linejoin="bevel" transform="matrix(0.5,0,0,0.5,356.75,599)"
font-family="Helvetica" font-size="60" font-weight="400" font-style="normal" 
>
<text fill="#212121" fill-opacity="1" stroke="none" xml:space="preserve" x="0" y="0" font-family="Helvetica" font-size="60" font-weight="400" font-style="normal" 
 >2</text>
</g>

<g fill="#212121" fill-opacity="1" stroke="#212121" stroke-opacity="1" stroke-width="1" stroke-linecap="square" stroke-linejoin="bevel" transform="matrix(0.5,0,0,0.5,555.25,599)"
font-family="Helvetica" font-size="60" font-weight="400" font-style="normal" 
>
<text fill="#212121" fill-opacity="1" stroke="none" xml:space="preserve" x="0" y="0" font-family="Helvetica" font-size="60" font-weight="400" font-style="normal" 
 >4</text>
</g>

<g fill="#212121" fill-opacity="1" stroke="#212121" stroke-opacity="1" stroke-width="1" stroke-linecap="square" stroke-linejoin="bevel" transform="matrix(0.5,0,0,0.5,753.75,599)"
font-family="Helvetica" font-size="60" font-weight="400" font-style="normal" 
>
<text fill="#212121" fill-opacity="1" stroke="none" xml:space="preserve" x="0" y="0" font-family="Helvetica" font-size="60" font-weight="400" font-style="normal" 
 >6</text>
</g>

<g fill="#212121" fill-opacity="1" stroke="#212121" stroke-opacity="1" stroke-width="1" stroke-linecap="square" stroke-linejoin="bevel" transform="matrix(0.5,0,0,0.5,952.25,599)"
font-family="Helvetica" font-size="60" font-weight="400" font-style="normal" 
>
<text fill="#212121" fill-opacity="1" stroke="none" xml:space="preserve" x="0" y="0" font-family="Helvetica" font-size="60" font-weight="400" font-style="normal" 
 >8</text>
</g>

<g fill="#212121" fill-opacity="1" stroke="#212121" stroke-opacity="1" stroke-width="1" stroke-linecap="square" stroke-linejoin="bevel" transform="matrix(0.5,0,0,0.5,1142.5,599)"
font-family="Helvetica" font-size="60" font-weight="400" font-style="normal" 
>
<text fill="#212121" fill-opacity="1" stroke="none" xml:space="preserve" x="0" y="0" font-family="Helvetica" font-size="60" font-weight="400" font-style="normal" 
 >10</text>
</g>

<g fill="#212121" fill-opacity="1" stroke="#212121" stroke-opacity="1" stroke-width="1" stroke-linecap="square" stroke-linejoin="bevel" transform="matrix(0,-0.5,0.5,0,97,422.75)"
font-family="Helvetica" font-size="60" font-weight="400" font-style="normal" 
>
<text fill="#212121" fill-opacity="1" stroke="none" xml:space="preserve" x="0" y="0" font-family="Helvetica" font-size="60" font-weight="400" font-style="normal" 
 >Displacement (m)</text>
</g>

<g fill="#212121" fill-opacity="1" stroke="#212121" stroke-opacity="1" stroke-width="1" stroke-linecap="square" stroke-linejoin="round" transform="matrix(0.5,0,0,0.5,0,0)"
font-family="Helvetica" font-size="60" font-weight="400" font-style="normal" 
>
<polyline fill="none" vector-effect="none" points="333,1127 333,96 " />
<polyline fill="none" vector-effect="none" points="2318,1127 2318,96 " />
<polyline fill="none" vector-effect="none" points="333,1127 352.85,1127 " />
<polyline fill="none" vector-effect="none" points="2298.15,1127 2318,1127 " />
<polyline fill="none" vector-effect="none" points="333,955.167 352.85,955.167 " />
<polyline fill="none" vector-effect="none" points="2298.15,955.167 2318,955.167 " />
<polyline fill="none" vector-effect="none" points="333,783.333 352.85,783.333 " />
<polyline fill="none" vector-effect="none" points="2298.15,783.333 2318,783.333 " />
<polyline fill="none" vector-effect="none" points="333,611.5 352.85,611.5 " />
<polyline fill="none" vector-effect="none" points="2298.15,611.5 2318,611.5 " />
<polyline fill="none" vector-effect="none" points="333,439.667 352.85,439.667 " />
<polyline fill="none" vector-effect="none" points="2298.15,439.667 2318,439.667 " />
<polyline fill="none" vector-effect="none" points="333,267.833 352.85,267.833 " />
<polyline fill="none" vector-effect="none" points="2298.15,267.833 2318,267.833 " />
<polyline fill="none" vector-effect="none" points="333,96 352.85,96 " />
<polyline fill="none" vector-effect="none" points="2298.15,96 2318,96 " />
</g>

<g fill="#212121" fill-opacity="1" stroke="#212121" stroke-opacity="1" stroke-width="1" stroke-linecap="square" stroke-linejoin="bevel" transform="matrix(0.5,0,0,0.5,132,574)"
font-family="Helvetica" font-size="60" font-weight="400" font-style="normal" 
>
<text fill="#212121" fill-opacity="1" stroke="none" xml:space="preserve" x="0" y="0" font-family="Helvetica" font-size="60" font-weight="400" font-style="normal" 
 >-1</text>
</g>

<g fill="#212121" fill-opacity="1" stroke="#212121" stroke-opacity="1" stroke-width="1" stroke-linecap="square" stroke-linejoin="bevel" transform="matrix(0.5,0,0,0.5,107,488.083)"
font-family="Helvetica" font-size="60" font-weight="400" font-style="normal" 
>
<text fill="#212121" fill-opacity="1" stroke="none" xml:space="preserve" x="0" y="0" font-family="Helvetica" font-size="60" font-weight="400" font-style="normal" 
 >-0.5</text>
</g>

<g fill="#212121" fill-opacity="1" stroke="#212121" stroke-opacity="1" stroke-width="1" stroke-linecap="square" stroke-linejoin="bevel" transform="matrix(0.5,0,0,0.5,142,402.167)"
font-family="Helvetica" font-size="60" font-weight="400" font-style="normal" 
>
<text fill="#212121" fill-opacity="1" stroke="none" xml:space="preserve" x="0" y="0" font-family="Helvetica" font-size="60" font-weight="400" font-style="normal" 
 >0</text>
</g>

<g fill="#212121" fill-opacity="1" stroke="#212121" stroke-opacity="1" stroke-width="1" stroke-linecap="square" stroke-linejoin="bevel" transform="matrix(0.5,0,0,0.5,117,316.25)"
font-family="Helvetica" font-size="60" font-weight="400" font-style="normal" 
>
<text fill="#212121" fill-opacity="1" stroke="none" xml:space="preserve" x="0" y="0" font-family="Helvetica" font-size="60" font-weight="400" font-style="normal" 
 >0.5</text>
</g>

<g fill="#212121" fill-opacity="1" stroke="#212121" stroke-opacity="1" stroke-width="1" stroke-linecap="square" stroke-linejoin="bevel" transform="matrix(0.5,0,0,0.5,142,230.333)"
font-family="Helvetica" font-size="60" font-weight="400" font-style="normal" 
>
<text fill="#212121" fill-opacity="1" stroke="none" xml:space="preserve" x="0" y="0" font-family="Helvetica" font-size="60" font-weight="400" font-style="normal" 
 >1</text>
</g>

<g fill="#212121" fill-opacity="1" stroke="#212121" stroke-opacity="1" stroke-width="1" stroke-linecap="square" stroke-linejoin="bevel" transform="matrix(0.5,0,0,0.5,117,144.417)"
font-family="Helvetica" font-size="60" font-weight="400" font-style="normal" 
>
<text fill="#212121" fill-opacity="1" stroke="none" xml:space="preserve" x="0" y="0" font-family="Helvetica" font-size="60" font-weight="400" font-style="normal" 
 >1.5</text>
</g>

<g fill="#212121" fill-opacity="1" stroke="#212121" stroke-opacity="1" stroke-width="1" stroke-linecap="square" stroke-linejoin="bevel" transform="matrix(0.5,0,0,0.5,142,58.5)"
font-family="Helvetica" font-size="60" font-weight="400" font-style="normal" 
>
<text fill="#212121" fill-opacity="1" stroke="none" xml:space="preserve" x="0" y="0" font-family="Helvetica" font-size="60" font-weight="400" font-style="normal" 
 >2</text>
</g>

<g fill="#212121" fill-opacity="1" stroke="#212121" stroke-opacity="1" stroke-width="1" stroke-linecap="square" stroke-linejoin="bevel" transform="matrix(0.5,0,0,0.5,254.75,37.75)"
font-family="Helvetica" font-size="60" font-weight="700" font-style="normal" 
>
<text fill="#212121" fill-opacity="1" stroke="none" xml:space="preserve" x="0" y="0" font-family="Helvetica" font-size="60" font-weight="700" font-style="normal" 
 >Displacement of Quarter Car Model (Wavy Road; Control)</text>
</g>

<g fill="none" stroke="#1171be" stroke-opacity="1" stroke-width="4" stroke-linecap="butt" stroke-linejoin="round" transform="matrix(0.5,0,0,0.5,0,0)"
font-family="Helvetica" font-size="60" font-weight="700" font-style="normal" 
>
<polyline fill="none" vector-effect="none" points="333,645.867 334.015,645.867 335.03,645.864 336.461,645.846 338.572,645.74 341.046,645.397 343.923,644.585 347.311,643.03 350.375,641.144 353.641,638.711 357.136,635.619 360.631,631.957 364.391,627.35 368.876,621.024 372.843,614.768 377.34,606.985 381.837,598.518 388.259,585.422 393.557,573.96 398.856,562.082 404.326,549.526 409.612,537.254 414.899,524.991 419.974,513.359 426.11,499.594 431.782,487.223 436.693,476.831 441.603,466.787 446.225,457.691 451.47,447.767 456.716,438.235 461.232,430.328 465.748,422.704 470.191,415.497 475.163,407.743 480.134,400.262 489.927,386.241 494.427,380.147 498.928,374.278 503.722,368.227 509.57,361.099 514.491,355.34 518.745,350.586 524.27,344.731 529.2,339.774 533.882,335.289 538.565,331.044 542.818,327.448 547.571,323.745 552.565,320.171 557.811,316.736 562.981,313.678 568.15,311.01 572.557,309.055 577.393,307.193 582.701,305.441 585.938,304.514 589.175,303.703 593.318,302.86 598.46,302.094 603.246,301.585 609.051,301.161 613.896,300.958 617.965,300.929 622.901,301.056 627.667,301.274 633.04,301.572 637.507,301.854 641.974,302.209 646.289,302.638 651.308,303.19 656.11,303.726 659.778,304.135 663.445,304.559 667.444,305.08 672.194,305.796 677.033,306.588 682.102,307.459 687.591,308.472 691.841,309.371 696.09,310.409 701.102,311.782 705.908,313.224 709.797,314.486 713.686,315.862 717.723,317.459 722.756,319.707 727.553,322.076 733.044,325.038 737.361,327.568 741.678,330.331 746.092,333.423 751.184,337.284 756.042,341.226 759.963,344.588 763.884,348.13 768.03,352.105 773.457,357.657 778.298,362.884 783.085,368.279 787.871,373.901 792.218,379.238 797.011,385.382 802.056,392.085 807.419,399.43 812.502,406.588 817.585,413.972 822.325,421.058 827.474,428.919 833.253,437.9 838.644,446.415 843.191,453.73 848.823,462.939 853.926,471.37 858.869,479.59 863.811,487.867 868.531,495.842 874.604,506.185 880.002,515.408 885.016,523.986 890.031,532.581 894.917,540.988 900.348,550.349 905.778,559.701 911.531,569.591 917.285,579.48 922.71,588.81 928.942,599.51 936.273,612.059 942.461,622.637 948.887,633.607 956.329,646.288 964.604,660.355 972.878,674.391 983.108,691.713 989.633,702.741 996.157,713.735 1002.61,724.583 1009.06,735.415 1015.53,746.237 1020.89,755.153 1026.97,765.232 1033.05,775.274 1039.3,785.53 1044.31,793.677 1049.67,802.309 1055.03,810.879 1059.57,818.083 1064.1,825.22 1068.69,832.338 1073.89,840.287 1079.09,848.136 1083.96,855.397 1088.84,862.547 1093.3,868.955 1098.42,876.147 1103.53,883.197 1108.31,889.648 1113.08,895.961 1117.45,901.583 1122.91,908.378 1127.99,914.509 1132.76,920.122 1137.52,925.576 1141.84,930.323 1146.82,935.588 1151.84,940.685 1157.49,946.205 1162.61,951.002 1166.83,954.755 1171.85,958.977 1176.68,962.84 1182.34,967.14 1187.37,970.766 1191.54,973.563 1196.4,976.591 1201.2,979.379 1206.55,982.286 1211.15,984.618 1215.74,986.742 1220.08,988.533 1225.17,990.42 1230.05,992.052 1233.93,993.231 1237.8,994.289 1241.82,995.218 1247.04,996.175 1251.76,996.851 1257.59,997.481 1262.39,997.816 1266.45,997.917 1271.34,997.809 1276.11,997.518 1281.41,997.017 1286.9,996.294 1291.38,995.486 1296.04,994.423 1300.83,993.148 1306.12,991.561 1311.65,989.697 1316.06,988.001 1320.47,986.101 1325.32,983.824 1330.37,981.28 1336.01,978.242 1341.07,975.259 1345.37,972.519 1350.2,969.255 1355.25,965.67 1360.91,961.451 1365.75,957.619 1370.11,953.959 1375.06,949.609 1380.08,945.038 1384.65,940.732 1389.23,936.257 1393.44,931.954 1398.17,926.94 1402.91,921.777 1407.45,916.692 1412,911.472 1416.29,906.389 1421.41,900.117 1426.44,893.776 1432.3,886.231 1437.4,879.502 1441.79,873.566 1447.35,865.833 1452.37,858.708 1457.23,851.712 1462.09,844.604 1466.63,837.821 1472.12,829.458 1477.35,821.375 1482.41,813.473 1487.46,805.475 1492.17,797.899 1498.26,787.975 1503.64,779.118 1508.66,770.781 1513.68,762.37 1518.56,754.101 1524.01,744.793 1529.46,735.432 1535.33,725.309 1541.19,715.118 1546.66,705.557 1552.82,694.735 1558.97,683.907 1565.12,673.049 1571.32,662.081 1579.05,648.391 1587.45,633.511 1595.88,618.624 1604.85,602.822 1611.85,590.56 1618.84,578.377 1625.57,566.732 1632.49,554.834 1639.12,543.533 1644.49,534.464 1650.56,524.318 1656.63,514.261 1662.86,504.055 1667.88,495.949 1673.26,487.374 1678.63,478.895 1683.18,471.809 1687.72,464.809 1692.31,457.857 1697.5,450.114 1702.7,442.487 1707.56,435.454 1712.43,428.539 1716.89,422.333 1722.01,415.371 1727.13,408.547 1731.9,402.298 1736.68,396.178 1741.05,390.724 1746.51,384.13 1751.58,378.16 1756.35,372.676 1761.13,367.332 1765.44,362.669 1770.42,357.486 1775.44,352.444 1781.08,346.962 1786.21,342.167 1790.43,338.4 1795.44,334.148 1800.28,330.232 1805.92,325.855 1810.97,322.131 1815.13,319.245 1819.99,316.109 1824.79,313.201 1830.12,310.155 1834.77,307.667 1839.42,305.388 1843.76,303.476 1848.82,301.458 1853.72,299.683 1857.65,298.381 1861.58,297.208 1865.6,296.186 1871.03,295.079 1875.72,294.318 1880.36,293.721 1885,293.283 1889.19,293.076 1893.6,293.074 1898.57,293.286 1903.36,293.664 1907.02,294.061 1910.68,294.568 1914.68,295.286 1919.45,296.374 1924.28,297.679 1929.37,299.236 1934.85,301.12 1940,303.162 1944.33,305.098 1949.07,307.402 1954.25,310.1 1959.8,313.201 1964.07,315.778 1968.33,318.549 1973.36,322.016 1978.21,325.529 1982,328.375 1985.79,331.328 1989.86,334.663 1994.89,339 1999.73,343.357 2005.25,348.498 2009.58,352.666 2013.91,356.994 2018.39,361.669 2023.52,367.187 2028.47,372.667 2032.81,377.585 2037.15,382.633 2041.41,387.748 2046.19,393.639 2050.96,399.662 2055.69,405.735 2060.41,411.928 2064.83,417.86 2069.94,424.904 2075.08,432.115 2081.04,440.631 2086.22,448.17 2090.74,454.879 2096.74,463.973 2101.89,471.898 2110.43,485.234 2115.22,492.867 2120.01,500.614 2125.27,509.191 2131.43,519.351 2136.82,528.336 2141.78,536.699 2147.33,546.141 2152.88,555.648 2158.56,565.425 2164.23,575.27 2169.6,584.656 2175.91,595.744 2182.86,608.002 2189.08,619.005 2195.42,630.252 2203.14,643.964 2212.36,660.343 2221.05,675.755 2231.3,693.862 2237.94,705.531 2244.59,717.12 2253.37,732.333 2261.02,745.446 2267.74,756.833 2274.34,767.895 2280.45,778.034 2286.4,787.791 2291.43,795.93 2296.95,804.716 2302.46,813.397 2307.23,820.826 2312,828.154 2316.6,835.104 2318,837.192 " />
</g>

<g fill="none" stroke="#dd5400" stroke-opacity="1" stroke-width="4" stroke-linecap="butt" stroke-linejoin="round" transform="matrix(0.5,0,0,0.5,0,0)"
font-family="Helvetica" font-size="60" font-weight="700" font-style="normal" 
>
<polyline fill="none" vector-effect="none" points="333,577.133 334.015,577.133 335.03,577.133 336.461,577.133 338.572,577.132 341.046,577.126 343.923,577.102 347.311,577.032 350.375,576.905 353.641,576.677 357.136,576.297 360.631,575.737 364.391,574.885 368.876,573.454 372.843,571.739 377.34,569.199 381.837,565.941 388.259,559.874 393.557,553.488 398.856,545.76 404.326,536.316 409.612,525.754 414.899,513.798 419.974,501.059 426.11,484.126 431.782,467.147 436.693,451.568 441.603,435.33 446.225,419.594 451.47,401.384 456.716,383.018 461.232,367.252 465.748,351.677 470.191,336.672 475.163,320.416 480.134,304.881 489.927,276.937 494.427,265.476 498.928,254.982 503.722,244.925 509.57,234.276 514.491,226.716 518.745,221.209 524.27,215.459 529.2,211.621 533.882,209.049 538.565,207.455 542.818,206.794 547.571,206.864 552.565,207.761 557.811,209.489 562.981,211.847 568.15,214.725 572.557,217.492 577.393,220.766 582.701,224.529 585.938,226.861 589.175,229.189 593.318,232.123 598.46,235.633 603.246,238.706 609.051,242.1 613.896,244.601 617.965,246.44 622.901,248.328 627.667,249.781 633.04,250.976 637.507,251.612 641.974,251.93 646.289,251.95 651.308,251.642 656.11,251.044 659.778,250.408 663.445,249.634 667.444,248.656 672.194,247.347 677.033,245.895 682.102,244.301 687.591,242.556 691.841,241.237 696.09,239.986 701.102,238.649 705.908,237.554 709.797,236.837 713.686,236.294 717.723,235.94 722.756,235.837 727.553,236.125 733.044,236.962 737.361,238.026 741.678,239.465 746.092,241.344 751.184,244.038 756.042,247.149 759.963,250.047 763.884,253.293 768.03,257.102 773.457,262.67 778.298,268.182 783.085,274.121 787.871,280.526 792.218,286.73 797.011,293.97 802.056,302.018 807.419,311.011 812.502,319.907 817.585,329.122 822.325,337.964 827.474,347.8 833.253,359.07 838.644,369.744 843.191,378.829 848.823,390.139 853.926,400.403 858.869,410.321 863.811,420.184 868.531,429.527 874.604,441.409 880.002,451.807 885.016,461.313 890.031,470.656 894.917,479.595 900.348,489.337 905.778,498.875 911.531,508.76 917.285,518.429 922.71,527.363 928.942,537.431 936.273,549.041 942.461,558.685 948.887,568.588 956.329,579.97 964.604,592.586 972.878,605.24 983.108,621.047 989.633,631.27 996.157,641.628 1002.61,652.02 1009.06,662.564 1015.53,673.287 1020.89,682.285 1026.97,692.614 1033.05,703.049 1039.3,713.854 1044.31,722.573 1049.67,731.921 1055.03,741.276 1059.57,749.185 1064.1,757.07 1068.69,765.006 1073.89,773.931 1079.09,782.762 1083.96,790.928 1088.84,798.973 1093.3,806.219 1098.42,814.37 1103.53,822.328 1108.31,829.558 1113.08,836.593 1117.45,842.858 1122.91,850.422 1127.99,857.178 1132.76,863.281 1137.52,869.138 1141.84,874.217 1146.82,879.83 1151.84,885.192 1157.49,890.876 1162.61,895.713 1166.83,899.475 1171.85,903.688 1176.68,907.476 1182.34,911.575 1187.37,914.938 1191.54,917.516 1196.4,920.301 1201.2,922.816 1206.55,925.351 1211.15,927.317 1215.74,929.093 1220.08,930.596 1225.17,932.155 1230.05,933.447 1233.93,934.336 1237.8,935.11 1241.82,935.792 1247.04,936.501 1251.76,936.97 1257.59,937.33 1262.39,937.451 1266.45,937.431 1271.34,937.258 1276.11,936.931 1281.41,936.386 1286.9,935.621 1291.38,934.844 1296.04,933.886 1300.83,932.742 1306.12,931.283 1311.65,929.54 1316.06,927.986 1320.47,926.283 1325.32,924.233 1330.37,921.892 1336.01,919.037 1341.07,916.245 1345.37,913.704 1350.2,910.654 1355.25,907.239 1360.91,903.146 1365.75,899.422 1370.11,895.88 1375.06,891.641 1380.08,887.118 1384.65,882.795 1389.23,878.282 1393.44,873.957 1398.17,868.908 1402.91,863.658 1407.45,858.429 1412,853.023 1416.29,847.767 1421.41,841.295 1426.44,834.717 1432.3,826.821 1437.4,819.741 1441.79,813.512 1447.35,805.417 1452.37,797.934 1457.23,790.552 1462.09,783.035 1466.63,775.887 1472.12,767.106 1477.35,758.61 1482.41,750.288 1487.46,741.863 1492.17,733.916 1498.26,723.547 1503.64,714.294 1508.66,705.583 1513.68,696.81 1518.56,688.223 1524.01,678.587 1529.46,668.902 1535.33,658.438 1541.19,647.936 1546.66,638.117 1552.82,627.019 1558.97,615.925 1565.12,604.819 1571.32,593.625 1579.05,579.666 1587.45,564.507 1595.88,549.344 1604.85,533.252 1611.85,520.765 1618.84,508.335 1625.57,496.438 1632.49,484.283 1639.12,472.723 1644.49,463.414 1650.56,452.984 1656.63,442.649 1662.86,432.155 1667.88,423.783 1673.26,414.904 1678.63,406.13 1683.18,398.807 1687.72,391.566 1692.31,384.342 1697.5,376.272 1702.7,368.332 1707.56,361.031 1712.43,353.853 1716.89,347.38 1722.01,340.093 1727.13,332.965 1731.9,326.465 1736.68,320.112 1741.05,314.423 1746.51,307.514 1751.58,301.275 1756.35,295.58 1761.13,290.052 1765.44,285.207 1770.42,279.786 1775.44,274.525 1781.08,268.855 1786.21,263.933 1790.43,260.04 1795.44,255.608 1800.28,251.54 1805.92,247.047 1810.97,243.264 1815.13,240.307 1819.99,237.052 1824.79,234.043 1830.12,230.939 1834.77,228.441 1839.42,226.135 1843.76,224.16 1848.82,222.071 1853.72,220.27 1857.65,218.981 1861.58,217.831 1865.6,216.8 1871.03,215.64 1875.72,214.853 1880.36,214.272 1885,213.885 1889.19,213.701 1893.6,213.678 1898.57,213.864 1903.36,214.254 1907.02,214.691 1910.68,215.247 1914.68,215.991 1919.45,217.065 1924.28,218.36 1929.37,219.952 1934.85,221.919 1940,224.01 1944.33,225.944 1949.07,228.255 1954.25,231.005 1959.8,234.209 1964.07,236.849 1968.33,239.645 1973.36,243.138 1978.21,246.718 1982,249.648 1985.79,252.696 1989.86,256.107 1994.89,260.502 1999.73,264.93 2005.25,270.205 2009.58,274.512 2013.91,278.964 2018.39,283.731 2023.52,289.358 2028.47,294.985 2032.81,300.066 2037.15,305.282 2041.41,310.532 2046.19,316.561 2050.96,322.745 2055.69,329.014 2060.41,335.426 2064.83,341.545 2069.94,348.779 2075.08,356.196 2081.04,364.996 2086.22,372.803 2090.74,379.725 2096.74,389.082 2101.89,397.255 2110.43,411.056 2115.22,418.94 2120.01,426.917 2125.27,435.757 2131.43,446.254 2136.82,455.543 2141.78,464.167 2147.33,473.892 2152.88,483.696 2158.56,493.789 2164.23,503.948 2169.6,513.614 2175.91,525.035 2182.86,537.674 2189.08,549.013 2195.42,560.596 2203.14,574.718 2212.36,591.586 2221.05,607.462 2231.3,626.103 2237.94,638.115 2244.59,650.059 2253.37,665.732 2261.02,679.225 2267.74,690.968 2274.34,702.381 2280.45,712.823 2286.4,722.864 2291.43,731.264 2296.95,740.346 2302.46,749.304 2307.23,756.95 2312,764.495 2316.6,771.68 2318,773.841 " />
</g>

<g fill="none" stroke="#edb120" stroke-opacity="1" stroke-width="4" stroke-linecap="butt" stroke-linejoin="round" transform="matrix(0.5,0,0,0.5,0,0)"
font-family="Helvetica" font-size="60" font-weight="700" font-style="normal" 
>
<polyline fill="none" vector-effect="none" points="333,714.6 334.015,714.567 335.03,714.351 336.461,713.479 338.572,710.68 341.046,705.458 343.923,698.478 347.311,691.511 350.375,686.911 353.641,682.54 357.136,677.02 360.631,670.518 364.391,663.482 368.876,655.869 372.843,649.331 377.34,641.494 381.837,633.423 388.259,622.281 393.557,613.413 398.856,604.352 404.326,594.951 409.612,585.999 414.899,577.357 419.974,569.305 426.11,559.417 431.782,550.296 436.693,542.591 441.603,535.384 446.225,528.687 451.47,520.872 456.716,513.092 461.232,506.584 465.748,500.582 470.191,494.841 475.163,488.165 480.134,481.431 489.927,469.046 494.427,464.034 498.928,458.765 503.722,452.944 509.57,446.091 514.491,440.977 518.745,436.949 524.27,431.419 529.2,426.324 533.882,421.662 538.565,417.545 542.818,414.357 547.571,410.637 552.565,406.427 557.811,402.159 562.981,398.536 568.15,395.729 572.557,393.172 577.393,390.088 582.701,386.858 585.938,385.122 589.175,383.822 593.318,382.499 598.46,380.553 603.246,378.478 609.051,376.208 613.896,375.043 617.965,374.607 622.901,373.799 627.667,372.69 633.04,371.617 637.507,371.252 641.974,371.61 646.289,371.882 651.308,371.778 656.11,371.722 659.778,371.861 663.445,372.525 667.444,373.719 672.194,374.924 677.033,375.779 682.102,376.809 687.591,378.549 691.841,380.64 696.09,382.657 701.102,384.635 705.908,386.585 709.797,388.368 713.686,390.727 717.723,393.602 722.756,396.917 727.553,399.785 733.044,403.272 737.361,406.508 741.678,410.396 746.092,414.309 751.184,418.436 756.042,422.449 759.963,425.903 763.884,429.892 768.03,434.456 773.457,440.112 778.298,444.956 783.085,449.925 787.871,455.397 792.218,460.898 797.011,466.8 802.056,472.727 807.419,479.176 812.502,485.744 817.585,492.875 822.325,499.37 827.474,506.216 833.253,514.052 838.644,521.871 843.191,528.831 848.823,537.17 853.926,544.606 858.869,551.969 863.811,559.709 868.531,567.335 874.604,576.902 880.002,585.349 885.016,593.335 890.031,601.666 894.917,609.863 900.348,618.784 905.778,627.71 911.531,637.324 917.285,647.214 922.71,656.463 928.942,667.005 936.273,679.536 942.461,690.254 948.887,701.337 956.329,714.157 964.604,728.436 972.878,742.691 983.108,760.336 989.633,771.421 996.157,782.457 1002.61,793.442 1009.06,804.36 1015.53,814.99 1020.89,823.734 1026.97,833.796 1033.05,843.795 1039.3,853.646 1044.31,861.356 1049.67,869.796 1055.03,878.236 1059.57,885.257 1064.1,891.874 1068.69,898.4 1073.89,906.024 1079.09,913.702 1083.96,920.733 1088.84,927.258 1093.3,932.999 1098.42,939.823 1103.53,946.737 1108.31,953.021 1113.08,958.79 1117.45,963.716 1122.91,970.123 1127.99,976.232 1132.76,981.811 1137.52,986.858 1141.84,990.948 1146.82,995.882 1151.84,1001.1 1157.49,1006.78 1162.61,1011.27 1166.83,1014.44 1171.85,1018.47 1176.68,1022.61 1182.34,1027.26 1187.37,1030.71 1191.54,1032.99 1196.4,1035.89 1201.2,1039.07 1206.55,1042.42 1211.15,1044.8 1215.74,1046.44 1220.08,1048.05 1225.17,1050.32 1230.05,1052.43 1233.93,1053.88 1237.8,1054.73 1241.82,1055.22 1247.04,1056.18 1251.76,1057.33 1257.59,1058.47 1262.39,1058.67 1266.45,1058.29 1271.34,1058.08 1276.11,1058.21 1281.41,1058.17 1286.9,1057.36 1291.38,1056 1296.04,1054.81 1300.83,1053.89 1306.12,1052.71 1311.65,1050.77 1316.06,1048.5 1320.47,1046.4 1325.32,1044.42 1330.37,1042.25 1336.01,1039.23 1341.07,1035.62 1345.37,1032.68 1350.2,1029.71 1355.25,1026.49 1360.91,1022.33 1365.75,1017.95 1370.11,1014.1 1375.06,1010.06 1380.08,1005.88 1384.65,1001.74 1389.23,996.898 1393.44,992.314 1398.17,987.502 1402.91,982.763 1407.45,978.012 1412,972.741 1416.29,967.355 1421.41,961.147 1426.44,955.263 1432.3,948.213 1437.4,941.501 1441.79,935.36 1447.35,927.855 1452.37,921.223 1457.23,914.642 1462.09,907.624 1466.63,900.727 1472.12,892.617 1477.35,885.028 1482.41,877.541 1487.46,869.659 1492.17,862.058 1498.26,852.494 1503.64,844.093 1508.66,836.103 1513.68,827.762 1518.56,819.566 1524.01,810.607 1529.46,801.634 1535.33,791.811 1541.19,781.707 1546.66,772.374 1552.82,761.917 1558.97,751.381 1565.12,740.7 1571.32,729.961 1579.05,716.609 1587.45,702.052 1595.88,687.495 1604.85,671.972 1611.85,659.994 1618.84,648.162 1625.57,636.686 1632.49,624.957 1639.12,614.051 1644.49,605.279 1650.56,595.24 1656.63,585.271 1662.86,575.461 1667.88,567.756 1673.26,559.3 1678.63,550.846 1683.18,543.831 1687.72,537.222 1692.31,530.713 1697.5,523.111 1702.7,515.455 1707.56,508.457 1712.43,501.962 1716.89,496.237 1722.01,489.429 1727.13,482.529 1731.9,476.254 1736.68,470.495 1741.05,465.577 1746.51,459.19 1751.58,453.088 1756.35,447.511 1761.13,442.463 1765.44,438.374 1770.42,433.445 1775.44,428.229 1781.08,422.545 1786.21,418.046 1790.43,414.875 1795.44,410.841 1800.28,406.686 1805.92,402.036 1810.97,398.561 1815.13,396.276 1819.99,393.368 1824.79,390.181 1830.12,386.819 1834.77,384.406 1839.42,382.733 1843.76,381.11 1848.82,378.844 1853.72,376.718 1857.65,375.243 1861.58,374.399 1865.6,373.91 1871.03,372.869 1875.72,371.727 1880.36,370.784 1885,370.407 1889.19,370.764 1893.6,371.045 1898.57,370.943 1903.36,370.912 1907.02,371.084 1910.68,371.79 1914.68,373.03 1919.45,374.299 1924.28,375.224 1929.37,376.347 1934.85,378.189 1940,380.838 1944.33,382.88 1949.07,384.808 1954.25,387.058 1959.8,390.085 1964.07,393.136 1968.33,396.108 1973.36,399.225 1978.21,402.295 1982,404.881 1985.79,407.993 1989.86,411.748 1994.89,416.121 1999.73,420.041 2005.25,424.696 2009.58,428.814 2013.91,433.534 2018.39,438.345 2023.52,443.465 2028.47,448.495 2032.81,453.166 2037.15,458.43 2041.41,463.782 2046.19,469.472 2050.96,475.05 2055.69,480.745 2060.41,486.908 2064.83,493.082 2069.94,500.031 2075.08,506.796 2081.04,514.853 2086.22,522.374 2090.74,529.23 2096.74,538.042 2101.89,545.535 2110.43,558.47 2115.22,566.23 2120.01,573.824 2125.27,581.978 2131.43,591.732 2136.82,600.64 2141.78,608.964 2147.33,618.097 2152.88,627.23 2158.56,636.715 2164.23,646.485 2169.6,655.672 2175.91,666.379 2182.86,678.296 2189.08,689.098 2195.42,700.078 2203.14,713.417 2212.36,729.384 2221.05,744.412 2231.3,762.131 2237.94,773.424 2244.59,784.698 2253.37,799.665 2261.02,812.392 2267.74,823.335 2274.34,834.271 2280.45,844.285 2286.4,853.657 2291.43,861.393 2296.95,870.047 2302.46,878.705 2307.23,886.048 2312,892.941 2316.6,899.492 2318,901.522 " />
</g>

<g fill="none" stroke="#8516d1" stroke-opacity="1" stroke-width="4" stroke-linecap="butt" stroke-linejoin="round" transform="matrix(0.5,0,0,0.5,0,0)"
font-family="Helvetica" font-size="60" font-weight="700" font-style="normal" 
>
<polyline fill="none" vector-effect="none" points="333,783.333 334.015,781.581 335.03,779.828 336.461,777.357 338.572,773.712 341.046,769.439 343.923,764.472 347.311,758.622 350.375,753.331 353.641,747.691 357.136,741.656 360.631,735.695 364.391,729.303 368.876,721.681 372.843,714.94 377.34,707.297 381.837,699.655 388.259,689.03 393.557,680.311 398.856,671.593 404.326,662.592 409.612,654.035 414.899,645.759 419.974,637.814 426.11,628.207 431.782,619.328 436.693,612.05 441.603,604.877 446.225,598.126 451.47,590.463 456.716,582.8 461.232,576.651 465.748,570.631 470.191,564.707 475.163,558.079 480.134,551.451 489.927,539.477 494.427,534.147 498.928,528.816 503.722,523.138 509.57,516.54 514.491,511.536 518.745,507.209 524.27,501.59 529.2,496.577 533.882,492.059 538.565,488.156 542.818,484.61 547.571,480.649 552.565,476.486 557.811,472.175 562.981,468.883 568.15,465.59 572.557,462.783 577.393,459.703 582.701,456.376 585.938,454.983 589.175,453.59 593.318,451.808 598.46,449.595 603.246,447.536 609.051,445.393 613.896,444.342 617.965,443.46 622.901,442.39 627.667,441.356 633.04,440.345 637.507,440.345 641.974,440.345 646.289,440.345 651.308,440.345 656.11,440.345 659.778,440.888 663.445,441.683 667.444,442.55 672.194,443.58 677.033,444.629 682.102,445.729 687.591,448.065 691.841,449.894 696.09,451.722 701.102,453.878 705.908,455.947 709.797,458.164 713.686,460.641 717.723,463.212 722.756,466.418 727.553,469.473 733.044,473.155 737.361,476.753 741.678,480.351 746.092,484.031 751.184,488.275 756.042,492.324 759.963,496.126 763.884,500.113 768.03,504.33 773.457,509.85 778.298,514.773 783.085,519.822 787.871,525.491 792.218,530.64 797.011,536.317 802.056,542.292 807.419,548.715 812.502,555.492 817.585,562.268 822.325,568.586 827.474,575.45 833.253,583.33 838.644,591.205 843.191,597.848 848.823,606.075 853.926,613.53 858.869,620.964 863.811,628.701 868.531,636.09 874.604,645.598 880.002,654.048 885.016,662.158 890.031,670.409 894.917,678.449 900.348,687.385 905.778,696.321 911.531,706.048 917.285,715.826 922.71,725.046 928.942,735.638 936.273,748.222 942.461,758.908 948.887,770.003 956.329,782.855 964.604,797.143 972.878,811.431 983.108,829.054 989.633,840.142 996.157,851.231 1002.61,862.197 1009.06,873.024 1015.53,883.664 1020.89,892.48 1026.97,902.491 1033.05,912.373 1039.3,922.152 1044.31,930.001 1049.67,938.39 1055.03,946.78 1059.57,953.548 1064.1,960.175 1068.69,966.878 1073.89,974.474 1079.09,982.071 1083.96,988.851 1088.84,995.345 1093.3,1001.29 1098.42,1008.12 1103.53,1014.94 1108.31,1021 1113.08,1026.65 1117.45,1031.83 1122.91,1038.3 1127.99,1044.31 1132.76,1049.7 1137.52,1054.55 1141.84,1058.93 1146.82,1064 1151.84,1069.11 1157.49,1074.61 1162.61,1078.88 1166.83,1082.39 1171.85,1086.58 1176.68,1090.61 1182.34,1095.08 1187.37,1098.29 1191.54,1100.94 1196.4,1104.04 1201.2,1107.09 1206.55,1110.39 1211.15,1112.37 1215.74,1114.35 1220.08,1116.22 1225.17,1118.41 1230.05,1120.51 1233.93,1121.55 1237.8,1122.39 1241.82,1123.26 1247.04,1124.39 1251.76,1125.42 1257.59,1126.32 1262.39,1126.32 1266.45,1126.32 1271.34,1126.32 1276.11,1126.32 1281.41,1126.21 1286.9,1125.02 1291.38,1124.05 1296.04,1123.03 1300.83,1122 1306.12,1120.78 1311.65,1118.41 1316.06,1116.51 1320.47,1114.61 1325.32,1112.53 1330.37,1110.35 1336.01,1106.84 1341.07,1103.62 1345.37,1100.88 1350.2,1097.81 1355.25,1094.59 1360.91,1089.96 1365.75,1085.93 1370.11,1082.3 1375.06,1078.16 1380.08,1073.98 1384.65,1069.44 1389.23,1064.79 1393.44,1060.5 1398.17,1055.69 1402.91,1050.88 1407.45,1045.94 1412,1040.56 1416.29,1035.48 1421.41,1029.42 1426.44,1023.45 1432.3,1016.25 1437.4,1009.45 1441.79,1003.61 1447.35,996.19 1452.37,989.493 1457.23,982.796 1462.09,975.701 1466.63,969.064 1472.12,961.04 1477.35,953.4 1482.41,945.812 1487.46,937.902 1492.17,930.52 1498.26,920.992 1503.64,912.575 1508.66,904.454 1513.68,896.193 1518.56,888.155 1524.01,879.185 1529.46,870.216 1535.33,860.297 1541.19,850.332 1546.66,841.043 1552.82,830.568 1558.97,820.014 1565.12,809.393 1571.32,798.691 1579.05,785.344 1587.45,770.831 1595.88,756.28 1604.85,740.783 1611.85,728.89 1618.84,717.004 1625.57,705.566 1632.49,693.935 1639.12,683.03 1644.49,674.185 1650.56,664.197 1656.63,654.336 1662.86,644.589 1667.88,636.733 1673.26,628.313 1678.63,619.893 1683.18,613.116 1687.72,606.48 1692.31,599.779 1697.5,592.184 1702.7,584.589 1707.56,577.823 1712.43,571.342 1716.89,565.394 1722.01,558.568 1727.13,551.742 1731.9,545.678 1736.68,540.024 1741.05,534.843 1746.51,528.383 1751.58,522.372 1756.35,516.976 1761.13,512.123 1765.44,507.738 1770.42,502.669 1775.44,497.564 1781.08,492.068 1786.21,487.798 1790.43,484.28 1795.44,480.099 1800.28,476.069 1805.92,471.603 1810.97,468.39 1815.13,465.737 1819.99,462.644 1824.79,459.588 1830.12,456.286 1834.77,454.285 1839.42,452.284 1843.76,450.419 1848.82,448.242 1853.72,446.133 1857.65,445.092 1861.58,444.239 1865.6,443.368 1871.03,442.191 1875.72,441.173 1880.36,440.345 1885,440.345 1889.19,440.345 1893.6,440.345 1898.57,440.345 1903.36,440.345 1907.02,440.894 1910.68,441.687 1914.68,442.555 1919.45,443.589 1924.28,444.637 1929.37,445.741 1934.85,448.085 1940,450.302 1944.33,452.164 1949.07,454.204 1954.25,456.433 1959.8,459.944 1964.07,462.66 1968.33,465.376 1973.36,468.577 1978.21,471.669 1982,474.608 1985.79,477.765 1989.86,481.162 1994.89,485.352 1999.73,489.388 2005.25,494.166 2009.58,498.569 2013.91,502.971 2018.39,507.536 2023.52,512.744 2028.47,517.78 2032.81,522.797 2037.15,527.939 2041.41,532.989 2046.19,538.643 2050.96,544.298 2055.69,550.122 2060.41,556.422 2064.83,562.309 2069.94,569.128 2075.08,575.971 2081.04,584.164 2086.22,591.732 2090.74,598.333 2096.74,607.102 2101.89,614.631 2110.43,627.768 2115.22,635.272 2120.01,642.776 2125.27,650.997 2131.43,660.84 2136.82,669.715 2141.78,677.882 2147.33,687.013 2152.88,696.145 2158.56,705.729 2164.23,715.37 2169.6,724.494 2175.91,735.222 2182.86,747.149 2189.08,757.887 2195.42,768.831 2203.14,782.157 2212.36,798.076 2221.05,813.088 2231.3,830.722 2237.94,842.011 2244.59,853.301 2253.37,868.234 2261.02,880.827 2267.74,891.885 2274.34,902.751 2280.45,912.664 2286.4,921.975 2291.43,929.857 2296.95,938.485 2302.46,947.113 2307.23,954.2 2312,961.167 2316.6,967.896 2318,969.939 " />
</g>

<g fill="#ffffff" fill-opacity="1" stroke="none" transform="matrix(5e-05,0,0,5e-05,0,0)"
font-family="Helvetica" font-size="60" font-weight="700" font-style="normal" 
>
<path vector-effect="none" fill-rule="evenodd" d="M3.49e+06,8.79e+06 L3.49e+06,1.111e+07 L6.04e+06,1.111e+07 L6.04e+06,8.79e+06 L3.49e+06,8.79e+06"/>
</g>

<g fill="#1171be" fill-opacity="1" stroke="#1171be" stroke-opacity="1" stroke-width="4" stroke-linecap="butt" stroke-linejoin="round" transform="matrix(0.5,0,0,0.5,0,0)"
font-family="Helvetica" font-size="60" font-weight="700" font-style="normal" 
>
<polyline fill="none" vector-effect="none" points="355.012,909.967 415.13,909.967 " />
</g>

<g fill="#dd5400" fill-opacity="1" stroke="#dd5400" stroke-opacity="1" stroke-width="4" stroke-linecap="butt" stroke-linejoin="round" transform="matrix(0.5,0,0,0.5,0,0)"
font-family="Helvetica" font-size="60" font-weight="700" font-style="normal" 
>
<polyline fill="none" vector-effect="none" points="355.012,966.656 415.13,966.656 " />
</g>

<g fill="#edb120" fill-opacity="1" stroke="#edb120" stroke-opacity="1" stroke-width="4" stroke-linecap="butt" stroke-linejoin="round" transform="matrix(0.5,0,0,0.5,0,0)"
font-family="Helvetica" font-size="60" font-weight="700" font-style="normal" 
>
<polyline fill="none" vector-effect="none" points="355.012,1023.34 415.13,1023.34 " />
</g>

<g fill="#8516d1" fill-opacity="1" stroke="#8516d1" stroke-opacity="1" stroke-width="4" stroke-linecap="butt" stroke-linejoin="round" transform="matrix(0.5,0,0,0.5,0,0)"
font-family="Helvetica" font-size="60" font-weight="700" font-style="normal" 
>
<polyline fill="none" vector-effect="none" points="355.012,1080.03 415.13,1080.03 " />
</g>

<g fill="#212121" fill-opacity="1" stroke="#212121" stroke-opacity="1" stroke-width="1" stroke-linecap="square" stroke-linejoin="bevel" transform="matrix(0.5,0,0,0.5,209.819,463.733)"
font-family="Helvetica" font-size="50" font-weight="400" font-style="normal" 
>
<text fill="#212121" fill-opacity="1" stroke="none" xml:space="preserve" x="0" y="0" font-family="Helvetica" font-size="50" font-weight="400" font-style="normal" 
 >Chassis</text>
</g>

<g fill="#212121" fill-opacity="1" stroke="#212121" stroke-opacity="1" stroke-width="1" stroke-linecap="square" stroke-linejoin="bevel" transform="matrix(0.5,0,0,0.5,209.819,492.078)"
font-family="Helvetica" font-size="50" font-weight="400" font-style="normal" 
>
<text fill="#212121" fill-opacity="1" stroke="none" xml:space="preserve" x="0" y="0" font-family="Helvetica" font-size="50" font-weight="400" font-style="normal" 
 >Seat</text>
</g>

<g fill="#212121" fill-opacity="1" stroke="#212121" stroke-opacity="1" stroke-width="1" stroke-linecap="square" stroke-linejoin="bevel" transform="matrix(0.5,0,0,0.5,209.819,520.422)"
font-family="Helvetica" font-size="50" font-weight="400" font-style="normal" 
>
<text fill="#212121" fill-opacity="1" stroke="none" xml:space="preserve" x="0" y="0" font-family="Helvetica" font-size="50" font-weight="400" font-style="normal" 
 >Wheel</text>
</g>

<g fill="#212121" fill-opacity="1" stroke="#212121" stroke-opacity="1" stroke-width="1" stroke-linecap="square" stroke-linejoin="bevel" transform="matrix(0.5,0,0,0.5,209.819,548.767)"
font-family="Helvetica" font-size="50" font-weight="400" font-style="normal" 
>
<text fill="#212121" fill-opacity="1" stroke="none" xml:space="preserve" x="0" y="0" font-family="Helvetica" font-size="50" font-weight="400" font-style="normal" 
 >Ground</text>
</g>

<g fill="none" stroke="#212121" stroke-opacity="1" stroke-width="1" stroke-linecap="butt" stroke-linejoin="miter" stroke-miterlimit="2" transform="matrix(0.5,0,0,0.5,0,0)"
font-family="Helvetica" font-size="50" font-weight="400" font-style="normal" 
>
<path vector-effect="none" fill-rule="evenodd" d="M349,1111 L349,879 L604,879 L604,1111 L349,1111"/>
</g>
</g>
</svg>
