<?xml version="1.0" encoding="UTF-8" standalone="no"?>
<svg width="451.908mm" height="225.778mm"
 viewBox="0 0 1281 640"
 xmlns="http://www.w3.org/2000/svg" xmlns:xlink="http://www.w3.org/1999/xlink"  version="1.2" baseProfile="tiny">
<title>Qt SVG Document</title>
<desc>MATLAB, The MathWorks, Inc. Version 25.2.0.2998904 R2025b</desc>
<defs>
</defs>
<g fill="none" stroke="black" stroke-width="1" fill-rule="evenodd" stroke-linecap="square" stroke-linejoin="bevel" >

<g fill="#ffffff" fill-opacity="1" stroke="none" transform="matrix(0.5,0,0,0.5,0,0)"
font-family="MS Shell Dlg 2" font-size="8" font-weight="400" font-style="normal" 
>
<path vector-effect="none" fill-rule="evenodd" d="M0,0 L2562,0 L2562,1281 L0,1281 L0,0"/>
</g>

<g fill="#ffffff" fill-opacity="1" stroke="none" transform="matrix(5e-05,0,0,5e-05,0,0)"
font-family="MS Shell Dlg 2" font-size="8" font-weight="400" font-style="normal" 
>
<path vector-effect="none" fill-rule="evenodd" d="M3.33e+06,960000 L3.33e+06,1.127e+07 L2.318e+07,1.127e+07 L2.318e+07,960000 L3.33e+06,960000"/>
</g>

<g fill="#212121" fill-opacity="0.14902" stroke="#212121" stroke-opacity="0.14902" stroke-width="1" stroke-linecap="butt" stroke-linejoin="round" transform="matrix(0.5,0,0,0.5,0,0)"
font-family="MS Shell Dlg 2" font-size="8" font-weight="400" font-style="normal" 
>
<polyline fill="none" vector-effect="none" points="333,96 333,1127 " />
<polyline fill="none" vector-effect="none" points="730,96 730,1127 " />
<polyline fill="none" vector-effect="none" points="1127,96 1127,1127 " />
<polyline fill="none" vector-effect="none" points="1524,96 1524,1127 " />
<polyline fill="none" vector-effect="none" points="1921,96 1921,1127 " />
<polyline fill="none" vector-effect="none" points="2318,96 2318,1127 " />
<polyline fill="none" vector-effect="none" points="333,1127 2318,1127 " />
<polyline fill="none" vector-effect="none" points="333,998.125 2318,998.125 " />
<polyline fill="none" vector-effect="none" points="333,869.25 2318,869.25 " />
<polyline fill="none" vector-effect="none" points="333,740.375 2318,740.375 " />
<polyline fill="none" vector-effect="none" points="333,611.5 2318,611.5 " />
<polyline fill="none" vector-effect="none" points="333,482.625 2318,482.625 " />
<polyline fill="none" vector-effect="none" points="333,353.75 2318,353.75 " />
<polyline fill="none" vector-effect="none" points="333,224.875 2318,224.875 " />
<polyline fill="none" vector-effect="none" points="333,96 2318,96 " />
</g>

<g fill="#212121" fill-opacity="1" stroke="#212121" stroke-opacity="1" stroke-width="1" stroke-linecap="square" stroke-linejoin="bevel" transform="matrix(0.5,0,0,0.5,608.25,633.5)"
font-family="Helvetica" font-size="60" font-weight="400" font-style="normal" 
>
<text fill="#212121" fill-opacity="1" stroke="none" xml:space="preserve" x="0" y="0" font-family="Helvetica" font-size="60" font-weight="400" font-style="normal" 
 >Time (s)</text>
</g>

<g fill="#212121" fill-opacity="1" stroke="#212121" stroke-opacity="1" stroke-width="1" stroke-linecap="square" stroke-linejoin="round" transform="matrix(0.5,0,0,0.5,0,0)"
font-family="Helvetica" font-size="60" font-weight="400" font-style="normal" 
>
<polyline fill="none" vector-effect="none" points="333,1127 2318,1127 " />
<polyline fill="none" vector-effect="none" points="333,96 2318,96 " />
<polyline fill="none" vector-effect="none" points="333,1127 333,1107.15 " />
<polyline fill="none" vector-effect="none" points="333,115.85 333,96 " />
<polyline fill="none" vector-effect="none" points="730,1127 730,1107.15 " />
<polyline fill="none" vector-effect="none" points="730,115.85 730,96 " />
<polyline fill="none" vector-effect="none" points="1127,1127 1127,1107.15 " />
<polyline fill="none" vector-effect="none" points="1127,115.85 1127,96 " />
<polyline fill="none" vector-effect="none" points="1524,1127 1524,1107.15 " />
<polyline fill="none" vector-effect="none" points="1524,115.85 1524,96 " />
<polyline fill="none" vector-effect="none" points="1921,1127 1921,1107.15 " />
<polyline fill="none" vector-effect="none" points="1921,115.85 1921,96 " />
<polyline fill="none" vector-effect="none" points="2318,1127 2318,1107.15 " />
<polyline fill="none" vector-effect="none" points="2318,115.85 2318,96 " />
</g>

<g fill="#212121" fill-opacity="1" stroke="#212121" stroke-opacity="1" stroke-width="1" stroke-linecap="square" stroke-linejoin="bevel" transform="matrix(0.5,0,0,0.5,158.25,599)"
font-family="Helvetica" font-size="60" font-weight="400" font-style="normal" 
>
<text fill="#212121" fill-opacity="1" stroke="none" xml:space="preserve" x="0" y="0" font-family="Helvetica" font-size="60" font-weight="400" font-style="normal" 
 >0</text>
</g>

<g fill="#212121" fill-opacity="1" stroke="#212121" stroke-opacity="1" stroke-width="1" stroke-linecap="square" stroke-linejoin="bevel" transform="matrix(0.5,0,0,0.5,356.75,599)"
font-family="Helvetica" font-size="60" font-weight="400" font-style="normal" 
>
<text fill="#212121" fill-opacity="1" stroke="none" xml:space="preserve" x="0" y="0" font-family="Helvetica" font-size="60" font-weight="400" font-style="normal" 
 >2</text>
</g>

<g fill="#212121" fill-opacity="1" stroke="#212121" stroke-opacity="1" stroke-width="1" stroke-linecap="square" stroke-linejoin="bevel" transform="matrix(0.5,0,0,0.5,555.25,599)"
font-family="Helvetica" font-size="60" font-weight="400" font-style="normal" 
>
<text fill="#212121" fill-opacity="1" stroke="none" xml:space="preserve" x="0" y="0" font-family="Helvetica" font-size="60" font-weight="400" font-style="normal" 
 >4</text>
</g>

<g fill="#212121" fill-opacity="1" stroke="#212121" stroke-opacity="1" stroke-width="1" stroke-linecap="square" stroke-linejoin="bevel" transform="matrix(0.5,0,0,0.5,753.75,599)"
font-family="Helvetica" font-size="60" font-weight="400" font-style="normal" 
>
<text fill="#212121" fill-opacity="1" stroke="none" xml:space="preserve" x="0" y="0" font-family="Helvetica" font-size="60" font-weight="400" font-style="normal" 
 >6</text>
</g>

<g fill="#212121" fill-opacity="1" stroke="#212121" stroke-opacity="1" stroke-width="1" stroke-linecap="square" stroke-linejoin="bevel" transform="matrix(0.5,0,0,0.5,952.25,599)"
font-family="Helvetica" font-size="60" font-weight="400" font-style="normal" 
>
<text fill="#212121" fill-opacity="1" stroke="none" xml:space="preserve" x="0" y="0" font-family="Helvetica" font-size="60" font-weight="400" font-style="normal" 
 >8</text>
</g>

<g fill="#212121" fill-opacity="1" stroke="#212121" stroke-opacity="1" stroke-width="1" stroke-linecap="square" stroke-linejoin="bevel" transform="matrix(0.5,0,0,0.5,1142.5,599)"
font-family="Helvetica" font-size="60" font-weight="400" font-style="normal" 
>
<text fill="#212121" fill-opacity="1" stroke="none" xml:space="preserve" x="0" y="0" font-family="Helvetica" font-size="60" font-weight="400" font-style="normal" 
 >10</text>
</g>

<g fill="#212121" fill-opacity="1" stroke="#212121" stroke-opacity="1" stroke-width="1" stroke-linecap="square" stroke-linejoin="bevel" transform="matrix(0,-0.5,0.5,0,97,395.75)"
font-family="Helvetica" font-size="60" font-weight="400" font-style="normal" 
>
<text fill="#212121" fill-opacity="1" stroke="none" xml:space="preserve" x="0" y="0" font-family="Helvetica" font-size="60" font-weight="400" font-style="normal" 
 >Velocity (m/s)</text>
</g>

<g fill="#212121" fill-opacity="1" stroke="#212121" stroke-opacity="1" stroke-width="1" stroke-linecap="square" stroke-linejoin="round" transform="matrix(0.5,0,0,0.5,0,0)"
font-family="Helvetica" font-size="60" font-weight="400" font-style="normal" 
>
<polyline fill="none" vector-effect="none" points="333,1127 333,96 " />
<polyline fill="none" vector-effect="none" points="2318,1127 2318,96 " />
<polyline fill="none" vector-effect="none" points="333,1127 352.85,1127 " />
<polyline fill="none" vector-effect="none" points="2298.15,1127 2318,1127 " />
<polyline fill="none" vector-effect="none" points="333,998.125 352.85,998.125 " />
<polyline fill="none" vector-effect="none" points="2298.15,998.125 2318,998.125 " />
<polyline fill="none" vector-effect="none" points="333,869.25 352.85,869.25 " />
<polyline fill="none" vector-effect="none" points="2298.15,869.25 2318,869.25 " />
<polyline fill="none" vector-effect="none" points="333,740.375 352.85,740.375 " />
<polyline fill="none" vector-effect="none" points="2298.15,740.375 2318,740.375 " />
<polyline fill="none" vector-effect="none" points="333,611.5 352.85,611.5 " />
<polyline fill="none" vector-effect="none" points="2298.15,611.5 2318,611.5 " />
<polyline fill="none" vector-effect="none" points="333,482.625 352.85,482.625 " />
<polyline fill="none" vector-effect="none" points="2298.15,482.625 2318,482.625 " />
<polyline fill="none" vector-effect="none" points="333,353.75 352.85,353.75 " />
<polyline fill="none" vector-effect="none" points="2298.15,353.75 2318,353.75 " />
<polyline fill="none" vector-effect="none" points="333,224.875 352.85,224.875 " />
<polyline fill="none" vector-effect="none" points="2298.15,224.875 2318,224.875 " />
<polyline fill="none" vector-effect="none" points="333,96 352.85,96 " />
<polyline fill="none" vector-effect="none" points="2298.15,96 2318,96 " />
</g>

<g fill="#212121" fill-opacity="1" stroke="#212121" stroke-opacity="1" stroke-width="1" stroke-linecap="square" stroke-linejoin="bevel" transform="matrix(0.5,0,0,0.5,107,574)"
font-family="Helvetica" font-size="60" font-weight="400" font-style="normal" 
>
<text fill="#212121" fill-opacity="1" stroke="none" xml:space="preserve" x="0" y="0" font-family="Helvetica" font-size="60" font-weight="400" font-style="normal" 
 >-1.5</text>
</g>

<g fill="#212121" fill-opacity="1" stroke="#212121" stroke-opacity="1" stroke-width="1" stroke-linecap="square" stroke-linejoin="bevel" transform="matrix(0.5,0,0,0.5,132,509.563)"
font-family="Helvetica" font-size="60" font-weight="400" font-style="normal" 
>
<text fill="#212121" fill-opacity="1" stroke="none" xml:space="preserve" x="0" y="0" font-family="Helvetica" font-size="60" font-weight="400" font-style="normal" 
 >-1</text>
</g>

<g fill="#212121" fill-opacity="1" stroke="#212121" stroke-opacity="1" stroke-width="1" stroke-linecap="square" stroke-linejoin="bevel" transform="matrix(0.5,0,0,0.5,107,445.125)"
font-family="Helvetica" font-size="60" font-weight="400" font-style="normal" 
>
<text fill="#212121" fill-opacity="1" stroke="none" xml:space="preserve" x="0" y="0" font-family="Helvetica" font-size="60" font-weight="400" font-style="normal" 
 >-0.5</text>
</g>

<g fill="#212121" fill-opacity="1" stroke="#212121" stroke-opacity="1" stroke-width="1" stroke-linecap="square" stroke-linejoin="bevel" transform="matrix(0.5,0,0,0.5,142,380.688)"
font-family="Helvetica" font-size="60" font-weight="400" font-style="normal" 
>
<text fill="#212121" fill-opacity="1" stroke="none" xml:space="preserve" x="0" y="0" font-family="Helvetica" font-size="60" font-weight="400" font-style="normal" 
 >0</text>
</g>

<g fill="#212121" fill-opacity="1" stroke="#212121" stroke-opacity="1" stroke-width="1" stroke-linecap="square" stroke-linejoin="bevel" transform="matrix(0.5,0,0,0.5,117,316.25)"
font-family="Helvetica" font-size="60" font-weight="400" font-style="normal" 
>
<text fill="#212121" fill-opacity="1" stroke="none" xml:space="preserve" x="0" y="0" font-family="Helvetica" font-size="60" font-weight="400" font-style="normal" 
 >0.5</text>
</g>

<g fill="#212121" fill-opacity="1" stroke="#212121" stroke-opacity="1" stroke-width="1" stroke-linecap="square" stroke-linejoin="bevel" transform="matrix(0.5,0,0,0.5,142,251.813)"
font-family="Helvetica" font-size="60" font-weight="400" font-style="normal" 
>
<text fill="#212121" fill-opacity="1" stroke="none" xml:space="preserve" x="0" y="0" font-family="Helvetica" font-size="60" font-weight="400" font-style="normal" 
 >1</text>
</g>

<g fill="#212121" fill-opacity="1" stroke="#212121" stroke-opacity="1" stroke-width="1" stroke-linecap="square" stroke-linejoin="bevel" transform="matrix(0.5,0,0,0.5,117,187.375)"
font-family="Helvetica" font-size="60" font-weight="400" font-style="normal" 
>
<text fill="#212121" fill-opacity="1" stroke="none" xml:space="preserve" x="0" y="0" font-family="Helvetica" font-size="60" font-weight="400" font-style="normal" 
 >1.5</text>
</g>

<g fill="#212121" fill-opacity="1" stroke="#212121" stroke-opacity="1" stroke-width="1" stroke-linecap="square" stroke-linejoin="bevel" transform="matrix(0.5,0,0,0.5,142,122.938)"
font-family="Helvetica" font-size="60" font-weight="400" font-style="normal" 
>
<text fill="#212121" fill-opacity="1" stroke="none" xml:space="preserve" x="0" y="0" font-family="Helvetica" font-size="60" font-weight="400" font-style="normal" 
 >2</text>
</g>

<g fill="#212121" fill-opacity="1" stroke="#212121" stroke-opacity="1" stroke-width="1" stroke-linecap="square" stroke-linejoin="bevel" transform="matrix(0.5,0,0,0.5,117,58.5)"
font-family="Helvetica" font-size="60" font-weight="400" font-style="normal" 
>
<text fill="#212121" fill-opacity="1" stroke="none" xml:space="preserve" x="0" y="0" font-family="Helvetica" font-size="60" font-weight="400" font-style="normal" 
 >2.5</text>
</g>

<g fill="#212121" fill-opacity="1" stroke="#212121" stroke-opacity="1" stroke-width="1" stroke-linecap="square" stroke-linejoin="bevel" transform="matrix(0.5,0,0,0.5,295.25,37.75)"
font-family="Helvetica" font-size="60" font-weight="700" font-style="normal" 
>
<text fill="#212121" fill-opacity="1" stroke="none" xml:space="preserve" x="0" y="0" font-family="Helvetica" font-size="60" font-weight="700" font-style="normal" 
 >Velocity of Quarter Car Model (Wavy Road; Control)</text>
</g>

<g fill="none" stroke="#1171be" stroke-opacity="1" stroke-width="4" stroke-linecap="butt" stroke-linejoin="round" transform="matrix(0.5,0,0,0.5,0,0)"
font-family="Helvetica" font-size="60" font-weight="700" font-style="normal" 
>
<polyline fill="none" vector-effect="none" points="333,740.375 334.015,740.275 335.03,739.612 336.461,736.892 338.572,727.929 341.046,710.552 343.923,685.941 347.311,658.979 350.375,639.123 353.641,619.766 357.136,596.976 360.631,571.604 364.391,544.775 368.876,516.739 372.843,494.658 377.34,471.012 381.837,449.563 388.259,425.531 393.557,411.833 398.856,402.031 404.326,395.995 409.612,394.233 414.899,396.571 419.974,402.143 426.11,410.931 431.782,420.634 436.693,430.266 441.603,441.73 446.225,452.851 451.47,464.408 456.716,475.202 461.232,484.224 465.748,494.039 470.191,503.551 475.163,512.502 480.134,520.116 489.927,534.764 494.427,542.706 498.928,549.455 503.722,555.378 509.57,562.55 514.491,570.155 518.745,577.919 524.27,587.008 529.2,594.278 533.882,601.375 538.565,609.877 542.818,619.271 547.571,629.225 552.565,638.297 557.811,647.507 562.981,657.566 568.15,669.568 572.557,678.786 577.393,687.1 582.701,695.282 585.938,700.258 589.175,706.08 593.318,714.002 598.46,721.864 603.246,726.956 609.051,731.906 613.896,736.783 617.965,741.791 622.901,746.104 627.667,748.017 633.04,749.176 637.507,750.695 641.974,753.837 646.289,756.237 651.308,756.995 656.11,756.976 659.778,757.027 663.445,758.407 667.444,761.286 672.194,764.021 677.033,765.336 682.102,766.657 687.591,769.649 691.841,774.334 696.09,778.973 701.102,783.139 705.908,787.006 709.797,790.58 713.686,795.853 717.723,802.77 722.756,810.672 727.553,817.022 733.044,824.378 737.361,831.316 741.678,840.153 746.092,848.924 751.184,857.39 756.042,864.967 759.963,871.217 763.884,878.726 768.03,887.472 773.457,897.395 778.298,904.735 783.085,911.614 787.871,919.184 792.218,927.172 797.011,934.913 802.056,941.232 807.419,947.181 812.502,953.162 817.585,960.116 822.325,965.477 827.474,969.689 833.253,973.615 838.644,977.782 843.191,981.87 848.823,985.348 853.926,987.227 858.869,988.738 863.811,990.768 868.531,993.016 874.604,994.518 880.002,994.937 885.016,995.175 890.031,996.06 894.917,996.918 900.348,996.934 905.778,996.517 911.531,996.16 917.285,996.416 922.71,996.285 928.942,995.62 936.273,994.955 942.461,994.728 948.887,994.327 956.329,993.752 964.604,993.205 972.878,992.659 983.108,992.267 989.633,991.635 996.157,990.885 1002.61,990.492 1009.06,990.073 1015.53,988.796 1020.89,987.513 1026.97,986.575 1033.05,985.641 1039.3,983.533 1044.31,981.161 1049.67,979.276 1055.03,977.587 1059.57,975.929 1064.1,973.086 1068.69,969.625 1073.89,966.437 1079.09,963.665 1083.96,960.822 1088.84,956.564 1093.3,951.908 1098.42,947.388 1103.53,943.488 1108.31,939.717 1113.08,934.617 1117.45,928.883 1122.91,922.67 1127.99,917.849 1132.76,913.317 1137.52,907.556 1141.84,901.034 1146.82,894.311 1151.84,888.853 1157.49,882.98 1162.61,876.272 1166.83,869.31 1171.85,862.124 1176.68,856.666 1182.34,850.621 1187.37,843.901 1191.54,836.827 1196.4,829.636 1201.2,824.187 1206.55,818.536 1211.15,812.836 1215.74,805.304 1220.08,798.649 1225.17,792.681 1230.05,787.675 1233.93,783.639 1237.8,778.147 1241.82,771.463 1247.04,764.231 1251.76,759.327 1257.59,753.601 1262.39,747.401 1266.45,740.733 1271.34,733.844 1276.11,728.874 1281.41,723.776 1286.9,717.114 1291.38,709.881 1296.04,703.356 1300.83,698.299 1306.12,693.173 1311.65,686.607 1316.06,679.517 1320.47,673.199 1325.32,667.937 1330.37,662.991 1336.01,656.634 1341.07,648.617 1345.37,642.499 1350.2,637.266 1355.25,632.329 1360.91,626.027 1365.75,618.581 1370.11,612.461 1375.06,607.185 1380.08,602.416 1384.65,597.766 1389.23,591.388 1393.44,585.387 1398.17,580.15 1402.91,575.866 1407.45,571.835 1412,566.765 1416.29,561.006 1421.41,555.217 1426.44,550.947 1432.3,546.349 1437.4,541.319 1441.79,536.165 1447.35,530.998 1452.37,527.521 1457.23,524.33 1462.09,520.362 1466.63,515.948 1472.12,511.757 1477.35,508.868 1482.41,506.262 1487.46,502.968 1492.17,499.44 1498.26,496.153 1503.64,494.058 1508.66,492.188 1513.68,489.634 1518.56,487.158 1524.01,485.36 1529.46,484.036 1535.33,482.592 1541.19,480.652 1546.66,479.39 1552.82,478.609 1558.97,477.957 1565.12,477.181 1571.32,476.73 1579.05,476.709 1587.45,476.992 1595.88,477.758 1604.85,478.782 1611.85,480.071 1618.84,481.965 1625.57,483.547 1632.49,485.309 1639.12,487.958 1644.49,490.389 1650.56,492.615 1656.63,494.829 1662.86,498.19 1667.88,501.536 1673.26,504.402 1678.63,506.982 1683.18,509.312 1687.72,512.753 1692.31,516.728 1697.5,520.392 1702.7,523.522 1707.56,526.586 1712.43,530.955 1716.89,535.633 1722.01,540.079 1727.13,543.797 1731.9,547.308 1736.68,552.066 1741.05,557.425 1746.51,563.088 1751.58,567.339 1756.35,571.291 1761.13,576.436 1765.44,582.38 1770.42,588.415 1775.44,593.178 1781.08,598.269 1786.21,604.291 1790.43,610.711 1795.44,617.279 1800.28,622.184 1805.92,627.632 1810.97,633.89 1815.13,640.634 1819.99,647.487 1824.79,652.67 1830.12,658.09 1834.77,663.724 1839.42,671.282 1843.76,677.901 1848.82,683.864 1853.72,688.999 1857.65,693.249 1861.58,699.053 1865.6,705.939 1871.03,713.625 1875.72,718.76 1880.36,723.611 1885,729.508 1889.19,736.663 1893.6,743.649 1898.57,749.581 1903.36,754.63 1907.02,758.535 1910.68,763.695 1914.68,770.553 1919.45,777.764 1924.28,783.244 1929.37,788.516 1934.85,795.158 1940,803.709 1944.33,810.001 1949.07,815.274 1954.25,820.51 1959.8,827.016 1964.07,833.833 1968.33,840.14 1973.36,845.737 1978.21,850.446 1982,854.137 1985.79,859.043 1989.86,865.338 1994.89,871.922 1999.73,876.634 2005.25,881.571 2009.58,886.205 2013.91,892.36 2018.39,898.208 2023.52,903.091 2028.47,907.216 2032.81,911.004 2037.15,916.19 2041.41,921.603 2046.19,926.306 2050.96,929.982 2055.69,933.466 2060.41,937.816 2064.83,942.848 2069.94,947.686 2075.08,951.222 2081.04,955.026 2086.22,959.265 2090.74,963.584 2096.74,967.897 2101.89,970.674 2110.43,975.567 2115.22,979.361 2120.01,982.36 2125.27,984.604 2131.43,987.069 2136.82,989.864 2141.78,992.556 2147.33,994.633 2152.88,996.19 2158.56,997.746 2164.23,999.815 2169.6,1001.33 2175.91,1002.35 2182.86,1003.31 2189.08,1004.24 2195.42,1004.8 2203.14,1004.94 2212.36,1004.68 2221.05,1003.9 2231.3,1002.61 2237.94,1001.02 2244.59,999.226 2253.37,997.025 2261.02,994.301 2267.74,991.055 2274.34,988.541 2280.45,986.117 2286.4,982.776 2291.43,979.332 2296.95,976.257 2302.46,973.501 2307.23,970.912 2312,967.079 2316.6,963.076 2318,962.006 " />
</g>

<g fill="none" stroke="#dd5400" stroke-opacity="1" stroke-width="4" stroke-linecap="butt" stroke-linejoin="round" transform="matrix(0.5,0,0,0.5,0,0)"
font-family="Helvetica" font-size="60" font-weight="700" font-style="normal" 
>
<polyline fill="none" vector-effect="none" points="333,740.375 334.015,740.375 335.03,740.372 336.461,740.348 338.572,740.206 341.046,739.718 343.923,738.475 347.311,735.862 350.375,732.368 353.641,727.429 357.136,720.643 360.631,712.111 364.391,700.804 368.876,684.375 372.843,667.225 377.34,644.893 381.837,619.634 388.259,579.062 393.557,542.413 398.856,503.787 404.326,462.799 409.612,423.136 414.899,384.478 419.974,349.307 426.11,310.593 431.782,279.63 436.693,257.31 441.603,239.723 446.225,227.894 451.47,220.297 456.716,219.026 461.232,222.997 465.748,231.581 470.191,244.408 475.163,263.609 480.134,287.468 489.927,345.924 494.427,376.913 498.928,409.848 503.722,446.443 509.57,492.25 514.491,531.023 518.745,564.253 524.27,606.36 529.2,642.302 533.882,674.525 538.565,704.509 542.818,729.607 547.571,755.052 552.565,778.592 557.811,799.571 562.981,816.397 568.15,829.487 572.557,837.8 577.393,843.975 582.701,847.332 585.938,847.718 589.175,846.944 593.318,844.429 598.46,839.186 603.246,832.42 609.051,822.125 613.896,812.129 617.965,803.05 622.901,791.506 627.667,780.024 633.04,766.95 637.507,756.205 641.974,745.837 646.289,736.395 651.308,726.273 656.11,717.568 659.778,711.643 663.445,706.419 667.444,701.634 672.194,697.295 677.033,694.396 682.102,693.003 687.591,693.407 691.841,695.151 696.09,698.187 701.102,703.363 705.908,709.842 709.797,716.103 713.686,723.244 717.723,731.591 722.756,743.269 727.553,755.549 733.044,770.757 737.361,783.441 741.678,796.708 746.092,810.813 751.184,827.574 756.042,843.839 759.963,857.032 763.884,870.21 768.03,884.09 773.457,902.038 778.298,917.63 783.085,932.481 787.871,946.64 792.218,958.862 797.011,971.574 802.056,983.954 807.419,995.841 812.502,1005.81 817.585,1014.52 822.325,1021.51 827.474,1027.82 833.253,1033.26 838.644,1036.79 843.191,1038.7 848.823,1039.8 853.926,1039.62 858.869,1038.44 863.811,1036.37 868.531,1033.69 874.604,1029.39 880.002,1024.88 885.016,1020.22 890.031,1015.25 894.917,1010.25 900.348,1004.63 905.778,999.053 911.531,993.319 917.285,987.923 922.71,983.274 928.942,978.551 936.273,973.954 942.461,970.975 948.887,968.813 956.329,967.496 964.604,967.48 972.878,968.862 983.108,972.221 989.633,975.117 996.157,978.402 1002.61,981.888 1009.06,985.473 1015.53,989.001 1020.89,991.729 1026.97,994.51 1033.05,996.873 1039.3,998.757 1044.31,999.754 1049.67,1000.26 1055.03,1000.17 1059.57,999.622 1064.1,998.609 1068.69,997.057 1073.89,994.649 1079.09,991.592 1083.96,988.167 1088.84,984.202 1093.3,980.062 1098.42,974.735 1103.53,968.865 1108.31,962.966 1113.08,956.686 1117.45,950.578 1122.91,942.505 1127.99,934.66 1132.76,927.072 1137.52,919.321 1141.84,912.157 1146.82,903.695 1151.84,895.083 1157.49,885.403 1162.61,876.696 1166.83,869.538 1171.85,861.041 1176.68,852.963 1182.34,843.753 1187.37,835.794 1191.54,829.347 1196.4,821.941 1201.2,814.825 1206.55,807.2 1211.15,800.911 1215.74,794.812 1220.08,789.184 1225.17,782.756 1230.05,776.834 1233.93,772.311 1237.8,767.923 1241.82,763.452 1247.04,757.707 1251.76,752.631 1257.59,746.562 1262.39,741.691 1266.45,737.594 1271.34,732.61 1276.11,727.753 1281.41,722.38 1286.9,716.847 1291.38,712.259 1296.04,707.348 1300.83,702.209 1306.12,696.462 1311.65,690.388 1316.06,685.418 1320.47,680.287 1325.32,674.503 1330.37,668.372 1336.01,661.455 1341.07,655.092 1345.37,649.539 1350.2,643.182 1355.25,636.468 1360.91,628.926 1365.75,622.416 1370.11,616.456 1375.06,609.635 1380.08,602.755 1384.65,596.549 1389.23,590.388 1393.44,584.712 1398.17,578.363 1402.91,572.112 1407.45,566.244 1412,560.523 1416.29,555.225 1421.41,549.012 1426.44,543.078 1432.3,536.484 1437.4,531.029 1441.79,526.51 1447.35,520.99 1452.37,516.269 1457.23,511.98 1462.09,507.962 1466.63,504.406 1472.12,500.351 1477.35,496.777 1482.41,493.616 1487.46,490.734 1492.17,488.249 1498.26,485.313 1503.64,483.006 1508.66,481.102 1513.68,479.417 1518.56,477.945 1524.01,476.492 1529.46,475.256 1535.33,474.164 1541.19,473.281 1546.66,472.612 1552.82,472.046 1558.97,471.681 1565.12,471.494 1571.32,471.462 1579.05,471.645 1587.45,472.12 1595.88,472.884 1604.85,474.015 1611.85,475.122 1618.84,476.46 1625.57,477.977 1632.49,479.759 1639.12,481.692 1644.49,483.466 1650.56,485.687 1656.63,488.116 1662.86,490.829 1667.88,493.232 1673.26,496.025 1678.63,499.011 1683.18,501.671 1687.72,504.468 1692.31,507.477 1697.5,511.107 1702.7,514.93 1707.56,518.655 1712.43,522.534 1716.89,526.274 1722.01,530.78 1727.13,535.466 1731.9,539.962 1736.68,544.58 1741.05,548.964 1746.51,554.65 1751.58,560.099 1756.35,565.318 1761.13,570.62 1765.44,575.529 1770.42,581.368 1775.44,587.372 1781.08,594.195 1786.21,600.437 1790.43,605.671 1795.44,612.024 1800.28,618.226 1805.92,625.489 1810.97,631.981 1815.13,637.4 1819.99,643.819 1824.79,650.213 1830.12,657.309 1834.77,663.465 1839.42,669.65 1843.76,675.484 1848.82,682.339 1853.72,688.955 1857.65,694.226 1861.58,699.476 1865.6,704.877 1871.03,712.236 1875.72,718.608 1880.36,724.855 1885,731.04 1889.19,736.637 1893.6,742.573 1898.57,749.285 1903.36,755.718 1907.02,760.583 1910.68,765.415 1914.68,770.708 1919.45,777.074 1924.28,783.523 1929.37,790.265 1934.85,797.415 1940,804.13 1944.33,809.807 1949.07,816.022 1954.25,822.741 1959.8,829.828 1964.07,835.245 1968.33,840.684 1973.36,847.081 1978.21,853.186 1982,857.874 1985.79,862.503 1989.86,867.471 1994.89,873.601 1999.73,879.45 2005.25,885.98 2009.58,890.989 2013.91,895.942 2018.39,901.059 2023.52,906.831 2028.47,912.283 2032.81,916.937 2037.15,921.493 2041.41,925.92 2046.19,930.814 2050.96,935.591 2055.69,940.17 2060.41,944.595 2064.83,948.639 2069.94,953.233 2075.08,957.7 2081.04,962.65 2086.22,966.744 2090.74,970.201 2096.74,974.64 2101.89,978.261 2110.43,983.81 2115.22,986.718 2120.01,989.507 2125.27,992.389 2131.43,995.503 2136.82,997.999 2141.78,1000.14 2147.33,1002.36 2152.88,1004.36 2158.56,1006.16 2164.23,1007.75 2169.6,1009.07 2175.91,1010.37 2182.86,1011.48 2189.08,1012.19 2195.42,1012.66 2203.14,1012.86 2212.36,1012.59 2221.05,1011.8 2231.3,1010.25 2237.94,1008.88 2244.59,1007.2 2253.37,1004.54 2261.02,1001.85 2267.74,999.148 2274.34,996.193 2280.45,993.233 2286.4,990.148 2291.43,987.339 2296.95,984.057 2302.46,980.6 2307.23,977.485 2312,974.243 2316.6,970.951 2318,969.92 " />
</g>

<g fill="none" stroke="#edb120" stroke-opacity="1" stroke-width="4" stroke-linecap="butt" stroke-linejoin="round" transform="matrix(0.5,0,0,0.5,0,0)"
font-family="Helvetica" font-size="60" font-weight="700" font-style="normal" 
>
<polyline fill="none" vector-effect="none" points="333,740.375 334.015,726.142 335.03,687.8 336.461,608.029 338.572,480.634 341.046,386.434 343.923,390.58 347.311,482.537 350.375,540.789 353.641,530.324 357.136,479.687 360.631,455.14 364.391,473.378 368.876,496.841 372.843,489.547 377.34,474.125 381.837,474.896 388.259,490.143 393.557,489.214 398.856,483.572 404.326,486.443 409.612,490.514 414.899,502.981 419.974,503.118 426.11,499.298 431.782,503.058 436.693,514.271 441.603,526.267 446.225,521.468 451.47,517.591 456.716,522.014 461.232,533.564 465.748,548.635 470.191,544.899 475.163,537.686 480.134,541.02 489.927,572.292 494.427,572.268 498.928,560.698 503.722,561.051 509.57,572.509 514.491,597.143 518.745,597.932 524.27,586.104 529.2,588.928 533.882,596.087 538.565,623.218 542.818,629.65 547.571,617.499 552.565,615.414 557.811,623.446 562.981,651.918 568.15,659.944 572.557,647.963 577.393,645.909 582.701,653.866 585.938,670.136 589.175,689.369 593.318,691.692 598.46,677.035 603.246,677.394 609.051,688.139 613.896,720.098 617.965,723.848 622.901,708.181 627.667,706.527 633.04,715.377 637.507,743.338 641.974,755.26 646.289,742.71 651.308,735.539 656.11,742.35 659.778,754.173 663.445,779.342 667.444,785.359 672.194,770.236 677.033,766.626 682.102,774.543 687.591,805.721 691.841,816.235 696.09,804.327 701.102,797.522 705.908,804.662 709.797,817.297 713.686,842.296 717.723,845.929 722.756,831.137 727.553,830.658 733.044,839.207 737.361,866.199 741.678,877.393 746.092,865.753 751.184,859.938 756.042,867.226 759.963,880.079 763.884,901.615 768.03,902.806 773.457,889.415 778.298,891.62 783.085,898.102 787.871,923.597 792.218,929.356 797.011,917.652 802.056,915.862 807.419,923.237 812.502,944.107 817.585,949.246 822.325,939.712 827.474,939.256 833.253,945.234 838.644,966.588 843.191,966.43 848.823,956.691 853.926,959.436 858.869,965.905 863.811,980.042 868.531,979.191 874.604,972.232 880.002,975.254 885.016,981.998 890.031,991.287 894.917,987.499 900.348,983.864 905.778,986.58 911.531,993.584 917.285,996.425 922.71,992.228 928.942,993.218 936.273,997.018 942.461,998.209 948.887,996.436 956.329,997.462 964.604,996.712 972.878,997.293 983.108,995.936 989.633,991.389 996.157,993.57 1002.61,993.353 1009.06,990.214 1015.53,981.94 1020.89,985.455 1026.97,986.38 1033.05,983.254 1039.3,968.539 1044.31,972.005 1049.67,976.143 1055.03,973.091 1059.57,965.195 1064.1,951.977 1068.69,954.667 1073.89,961.144 1079.09,958.174 1083.96,949.421 1088.84,932.319 1093.3,934.281 1098.42,942.095 1103.53,939.403 1108.31,931.417 1113.08,910.444 1117.45,909.297 1122.91,919.758 1127.99,917.531 1132.76,910.392 1137.52,885.737 1141.84,881.754 1146.82,893.497 1151.84,893.832 1157.49,886.309 1162.61,855.993 1166.83,852.806 1171.85,866.596 1176.68,866.683 1182.34,858.733 1187.37,826.458 1191.54,821.963 1196.4,836.544 1201.2,838.049 1206.55,828.931 1211.15,802.68 1215.74,790.59 1220.08,801.92 1225.17,807.926 1230.05,801.077 1233.93,786.547 1237.8,761.573 1241.82,759.563 1247.04,775.444 1251.76,774.739 1257.59,763.296 1262.39,730.851 1266.45,726.477 1271.34,741.902 1276.11,743.586 1281.41,734.029 1286.9,700.728 1291.38,695.287 1296.04,709.225 1300.83,711.247 1306.12,702.726 1311.65,670.178 1316.06,663.098 1320.47,676.098 1325.32,680.065 1330.37,672.522 1336.01,642.905 1341.07,632.599 1345.37,645.244 1350.2,649.313 1355.25,641.836 1360.91,613.84 1365.75,603.375 1370.11,615.297 1375.06,619.805 1380.08,612.752 1384.65,593.805 1389.23,576.094 1393.44,583.227 1398.17,592.562 1402.91,588.438 1407.45,579.481 1412,556.888 1416.29,553.826 1421.41,565.436 1426.44,565.151 1432.3,556.447 1437.4,533.766 1441.79,533.398 1447.35,544.247 1452.37,541.642 1457.23,534.695 1462.09,516.559 1466.63,515.548 1472.12,524.567 1477.35,522.477 1482.41,516.114 1487.46,501.297 1492.17,502.117 1498.26,509.001 1503.64,505.761 1508.66,498.787 1513.68,489.435 1518.56,493.191 1524.01,496.63 1529.46,493.75 1535.33,486.365 1541.19,483.962 1546.66,487.969 1552.82,486.655 1558.97,483.561 1565.12,481.352 1571.32,483.386 1579.05,482.427 1587.45,483.252 1595.88,482.625 1604.85,483.564 1611.85,488.276 1618.84,487.168 1625.57,486.859 1632.49,489.969 1639.12,498.872 1644.49,495.255 1650.56,494.469 1656.63,497.678 1662.86,512.475 1667.88,509.168 1673.26,505.036 1678.63,508.137 1683.18,516.069 1687.72,529.319 1692.31,526.627 1697.5,520.171 1702.7,523.148 1707.56,531.868 1712.43,548.953 1716.89,547.025 1722.01,539.157 1727.13,541.793 1731.9,549.71 1736.68,570.663 1741.05,571.794 1746.51,561.272 1751.58,563.416 1756.35,570.471 1761.13,595.107 1765.44,599.061 1770.42,587.257 1775.44,586.849 1781.08,594.253 1786.21,624.584 1790.43,627.766 1795.44,613.925 1800.28,613.773 1805.92,621.577 1810.97,653.947 1815.13,658.489 1819.99,643.879 1824.79,642.306 1830.12,651.361 1834.77,677.844 1839.42,689.741 1843.76,678.28 1848.82,672.537 1853.72,679.46 1857.65,694.809 1861.58,719.574 1865.6,720.465 1871.03,704.477 1875.72,706.483 1880.36,713.544 1885,744.852 1889.19,755.684 1893.6,742.496 1898.57,735.903 1903.36,743.496 1907.02,755.785 1910.68,781.1 1914.68,787.125 1919.45,772.182 1924.28,769.029 1929.37,777.165 1934.85,808.721 1940,817.215 1944.33,803.974 1949.07,801.028 1954.25,808.862 1959.8,839.339 1964.07,849.239 1968.33,837.613 1973.36,831.308 1978.21,838.267 1982,850.254 1985.79,873.533 1989.86,877.104 1994.89,862.751 1999.73,862.084 2005.25,869.862 2009.58,895.272 2013.91,905.093 2018.39,893.495 2023.52,888.34 2028.47,895.139 2032.81,910.349 2037.15,928.031 2041.41,923.536 2046.19,913.775 2050.96,916.609 2055.69,923.779 2060.41,945.012 2064.83,948.087 2069.94,937.535 2075.08,937.92 2081.04,946.282 2086.22,965.23 2090.74,964.313 2096.74,955.518 2101.89,959.125 2110.43,978.51 2115.22,980.585 2120.01,972.301 2125.27,972.713 2131.43,980.143 2136.82,990.667 2141.78,987.886 2147.33,984.248 2152.88,986.899 2158.56,993.706 2164.23,997.287 2169.6,993.106 2175.91,993.907 2182.86,997.479 2189.08,999.286 2195.42,997.448 2203.14,998.42 2212.36,997.335 2221.05,998.449 2231.3,995.976 2237.94,992.051 2244.59,994.252 2253.37,992.492 2261.02,981.974 2267.74,985.92 2274.34,985.962 2280.45,982.331 2286.4,968.828 2291.43,971.361 2296.95,975.506 2302.46,972.56 2307.23,963.01 2312,950.829 2316.6,955.279 2318,957.596 " />
</g>

<g fill="#ffffff" fill-opacity="1" stroke="none" transform="matrix(5e-05,0,0,5e-05,0,0)"
font-family="Helvetica" font-size="60" font-weight="700" font-style="normal" 
>
<path vector-effect="none" fill-rule="evenodd" d="M2.012e+07,1.12e+06 L2.012e+07,3.2e+06 L2.302e+07,3.2e+06 L2.302e+07,1.12e+06 L2.012e+07,1.12e+06"/>
</g>

<g fill="#1171be" fill-opacity="1" stroke="#1171be" stroke-opacity="1" stroke-width="4" stroke-linecap="butt" stroke-linejoin="round" transform="matrix(0.5,0,0,0.5,0,0)"
font-family="Helvetica" font-size="60" font-weight="700" font-style="normal" 
>
<polyline fill="none" vector-effect="none" points="2017.99,148.412 2077.89,148.412 " />
</g>

<g fill="#dd5400" fill-opacity="1" stroke="#dd5400" stroke-opacity="1" stroke-width="4" stroke-linecap="butt" stroke-linejoin="round" transform="matrix(0.5,0,0,0.5,0,0)"
font-family="Helvetica" font-size="60" font-weight="700" font-style="normal" 
>
<polyline fill="none" vector-effect="none" points="2017.99,216 2077.89,216 " />
</g>

<g fill="#edb120" fill-opacity="1" stroke="#edb120" stroke-opacity="1" stroke-width="4" stroke-linecap="butt" stroke-linejoin="round" transform="matrix(0.5,0,0,0.5,0,0)"
font-family="Helvetica" font-size="60" font-weight="700" font-style="normal" 
>
<polyline fill="none" vector-effect="none" points="2017.99,283.588 2077.89,283.588 " />
</g>

<g fill="#212121" fill-opacity="1" stroke="#212121" stroke-opacity="1" stroke-width="1" stroke-linecap="square" stroke-linejoin="bevel" transform="matrix(0.5,0,0,0.5,1041.19,84.7062)"
font-family="Helvetica" font-size="60" font-weight="400" font-style="normal" 
>
<text fill="#212121" fill-opacity="1" stroke="none" xml:space="preserve" x="0" y="0" font-family="Helvetica" font-size="60" font-weight="400" font-style="normal" 
 >Chassis</text>
</g>

<g fill="#212121" fill-opacity="1" stroke="#212121" stroke-opacity="1" stroke-width="1" stroke-linecap="square" stroke-linejoin="bevel" transform="matrix(0.5,0,0,0.5,1041.19,118.5)"
font-family="Helvetica" font-size="60" font-weight="400" font-style="normal" 
>
<text fill="#212121" fill-opacity="1" stroke="none" xml:space="preserve" x="0" y="0" font-family="Helvetica" font-size="60" font-weight="400" font-style="normal" 
 >Seat</text>
</g>

<g fill="#212121" fill-opacity="1" stroke="#212121" stroke-opacity="1" stroke-width="1" stroke-linecap="square" stroke-linejoin="bevel" transform="matrix(0.5,0,0,0.5,1041.19,152.294)"
font-family="Helvetica" font-size="60" font-weight="400" font-style="normal" 
>
<text fill="#212121" fill-opacity="1" stroke="none" xml:space="preserve" x="0" y="0" font-family="Helvetica" font-size="60" font-weight="400" font-style="normal" 
 >Wheel</text>
</g>

<g fill="none" stroke="#212121" stroke-opacity="1" stroke-width="1" stroke-linecap="butt" stroke-linejoin="miter" stroke-miterlimit="2" transform="matrix(0.5,0,0,0.5,0,0)"
font-family="Helvetica" font-size="60" font-weight="400" font-style="normal" 
>
<path vector-effect="none" fill-rule="evenodd" d="M2012,320 L2012,112 L2302,112 L2302,320 L2012,320"/>
</g>
</g>
</svg>
