<?xml version="1.0" encoding="UTF-8" standalone="no"?>
<svg width="451.908mm" height="225.778mm"
 viewBox="0 0 1281 640"
 xmlns="http://www.w3.org/2000/svg" xmlns:xlink="http://www.w3.org/1999/xlink"  version="1.2" baseProfile="tiny">
<title>Qt SVG Document</title>
<desc>MATLAB, The MathWorks, Inc. Version 25.2.0.2998904 R2025b</desc>
<defs>
</defs>
<g fill="none" stroke="black" stroke-width="1" fill-rule="evenodd" stroke-linecap="square" stroke-linejoin="bevel" >

<g fill="#ffffff" fill-opacity="1" stroke="none" transform="matrix(0.5,0,0,0.5,0,0)"
font-family="MS Shell Dlg 2" font-size="8" font-weight="400" font-style="normal" 
>
<path vector-effect="none" fill-rule="evenodd" d="M0,0 L2562,0 L2562,1281 L0,1281 L0,0"/>
</g>

<g fill="#ffffff" fill-opacity="1" stroke="none" transform="matrix(5e-05,0,0,5e-05,0,0)"
font-family="MS Shell Dlg 2" font-size="8" font-weight="400" font-style="normal" 
>
<path vector-effect="none" fill-rule="evenodd" d="M3.33e+06,960000 L3.33e+06,1.127e+07 L2.318e+07,1.127e+07 L2.318e+07,960000 L3.33e+06,960000"/>
</g>

<g fill="#212121" fill-opacity="0.14902" stroke="#212121" stroke-opacity="0.14902" stroke-width="1" stroke-linecap="butt" stroke-linejoin="round" transform="matrix(0.5,0,0,0.5,0,0)"
font-family="MS Shell Dlg 2" font-size="8" font-weight="400" font-style="normal" 
>
<polyline fill="none" vector-effect="none" points="333,96 333,1127 " />
<polyline fill="none" vector-effect="none" points="730,96 730,1127 " />
<polyline fill="none" vector-effect="none" points="1127,96 1127,1127 " />
<polyline fill="none" vector-effect="none" points="1524,96 1524,1127 " />
<polyline fill="none" vector-effect="none" points="1921,96 1921,1127 " />
<polyline fill="none" vector-effect="none" points="2318,96 2318,1127 " />
<polyline fill="none" vector-effect="none" points="333,1127 2318,1127 " />
<polyline fill="none" vector-effect="none" points="333,998.125 2318,998.125 " />
<polyline fill="none" vector-effect="none" points="333,869.25 2318,869.25 " />
<polyline fill="none" vector-effect="none" points="333,740.375 2318,740.375 " />
<polyline fill="none" vector-effect="none" points="333,611.5 2318,611.5 " />
<polyline fill="none" vector-effect="none" points="333,482.625 2318,482.625 " />
<polyline fill="none" vector-effect="none" points="333,353.75 2318,353.75 " />
<polyline fill="none" vector-effect="none" points="333,224.875 2318,224.875 " />
<polyline fill="none" vector-effect="none" points="333,96 2318,96 " />
</g>

<g fill="#212121" fill-opacity="1" stroke="#212121" stroke-opacity="1" stroke-width="1" stroke-linecap="square" stroke-linejoin="bevel" transform="matrix(0.5,0,0,0.5,608.25,633.5)"
font-family="Helvetica" font-size="60" font-weight="400" font-style="normal" 
>
<text fill="#212121" fill-opacity="1" stroke="none" xml:space="preserve" x="0" y="0" font-family="Helvetica" font-size="60" font-weight="400" font-style="normal" 
 >Time (s)</text>
</g>

<g fill="#212121" fill-opacity="1" stroke="#212121" stroke-opacity="1" stroke-width="1" stroke-linecap="square" stroke-linejoin="round" transform="matrix(0.5,0,0,0.5,0,0)"
font-family="Helvetica" font-size="60" font-weight="400" font-style="normal" 
>
<polyline fill="none" vector-effect="none" points="333,1127 2318,1127 " />
<polyline fill="none" vector-effect="none" points="333,96 2318,96 " />
<polyline fill="none" vector-effect="none" points="333,1127 333,1107.15 " />
<polyline fill="none" vector-effect="none" points="333,115.85 333,96 " />
<polyline fill="none" vector-effect="none" points="730,1127 730,1107.15 " />
<polyline fill="none" vector-effect="none" points="730,115.85 730,96 " />
<polyline fill="none" vector-effect="none" points="1127,1127 1127,1107.15 " />
<polyline fill="none" vector-effect="none" points="1127,115.85 1127,96 " />
<polyline fill="none" vector-effect="none" points="1524,1127 1524,1107.15 " />
<polyline fill="none" vector-effect="none" points="1524,115.85 1524,96 " />
<polyline fill="none" vector-effect="none" points="1921,1127 1921,1107.15 " />
<polyline fill="none" vector-effect="none" points="1921,115.85 1921,96 " />
<polyline fill="none" vector-effect="none" points="2318,1127 2318,1107.15 " />
<polyline fill="none" vector-effect="none" points="2318,115.85 2318,96 " />
</g>

<g fill="#212121" fill-opacity="1" stroke="#212121" stroke-opacity="1" stroke-width="1" stroke-linecap="square" stroke-linejoin="bevel" transform="matrix(0.5,0,0,0.5,158.25,599)"
font-family="Helvetica" font-size="60" font-weight="400" font-style="normal" 
>
<text fill="#212121" fill-opacity="1" stroke="none" xml:space="preserve" x="0" y="0" font-family="Helvetica" font-size="60" font-weight="400" font-style="normal" 
 >0</text>
</g>

<g fill="#212121" fill-opacity="1" stroke="#212121" stroke-opacity="1" stroke-width="1" stroke-linecap="square" stroke-linejoin="bevel" transform="matrix(0.5,0,0,0.5,356.75,599)"
font-family="Helvetica" font-size="60" font-weight="400" font-style="normal" 
>
<text fill="#212121" fill-opacity="1" stroke="none" xml:space="preserve" x="0" y="0" font-family="Helvetica" font-size="60" font-weight="400" font-style="normal" 
 >2</text>
</g>

<g fill="#212121" fill-opacity="1" stroke="#212121" stroke-opacity="1" stroke-width="1" stroke-linecap="square" stroke-linejoin="bevel" transform="matrix(0.5,0,0,0.5,555.25,599)"
font-family="Helvetica" font-size="60" font-weight="400" font-style="normal" 
>
<text fill="#212121" fill-opacity="1" stroke="none" xml:space="preserve" x="0" y="0" font-family="Helvetica" font-size="60" font-weight="400" font-style="normal" 
 >4</text>
</g>

<g fill="#212121" fill-opacity="1" stroke="#212121" stroke-opacity="1" stroke-width="1" stroke-linecap="square" stroke-linejoin="bevel" transform="matrix(0.5,0,0,0.5,753.75,599)"
font-family="Helvetica" font-size="60" font-weight="400" font-style="normal" 
>
<text fill="#212121" fill-opacity="1" stroke="none" xml:space="preserve" x="0" y="0" font-family="Helvetica" font-size="60" font-weight="400" font-style="normal" 
 >6</text>
</g>

<g fill="#212121" fill-opacity="1" stroke="#212121" stroke-opacity="1" stroke-width="1" stroke-linecap="square" stroke-linejoin="bevel" transform="matrix(0.5,0,0,0.5,952.25,599)"
font-family="Helvetica" font-size="60" font-weight="400" font-style="normal" 
>
<text fill="#212121" fill-opacity="1" stroke="none" xml:space="preserve" x="0" y="0" font-family="Helvetica" font-size="60" font-weight="400" font-style="normal" 
 >8</text>
</g>

<g fill="#212121" fill-opacity="1" stroke="#212121" stroke-opacity="1" stroke-width="1" stroke-linecap="square" stroke-linejoin="bevel" transform="matrix(0.5,0,0,0.5,1142.5,599)"
font-family="Helvetica" font-size="60" font-weight="400" font-style="normal" 
>
<text fill="#212121" fill-opacity="1" stroke="none" xml:space="preserve" x="0" y="0" font-family="Helvetica" font-size="60" font-weight="400" font-style="normal" 
 >10</text>
</g>

<g fill="#212121" fill-opacity="1" stroke="#212121" stroke-opacity="1" stroke-width="1" stroke-linecap="square" stroke-linejoin="bevel" transform="matrix(0,-0.5,0.5,0,97,395.75)"
font-family="Helvetica" font-size="60" font-weight="400" font-style="normal" 
>
<text fill="#212121" fill-opacity="1" stroke="none" xml:space="preserve" x="0" y="0" font-family="Helvetica" font-size="60" font-weight="400" font-style="normal" 
 >Velocity (m/s)</text>
</g>

<g fill="#212121" fill-opacity="1" stroke="#212121" stroke-opacity="1" stroke-width="1" stroke-linecap="square" stroke-linejoin="round" transform="matrix(0.5,0,0,0.5,0,0)"
font-family="Helvetica" font-size="60" font-weight="400" font-style="normal" 
>
<polyline fill="none" vector-effect="none" points="333,1127 333,96 " />
<polyline fill="none" vector-effect="none" points="2318,1127 2318,96 " />
<polyline fill="none" vector-effect="none" points="333,1127 352.85,1127 " />
<polyline fill="none" vector-effect="none" points="2298.15,1127 2318,1127 " />
<polyline fill="none" vector-effect="none" points="333,998.125 352.85,998.125 " />
<polyline fill="none" vector-effect="none" points="2298.15,998.125 2318,998.125 " />
<polyline fill="none" vector-effect="none" points="333,869.25 352.85,869.25 " />
<polyline fill="none" vector-effect="none" points="2298.15,869.25 2318,869.25 " />
<polyline fill="none" vector-effect="none" points="333,740.375 352.85,740.375 " />
<polyline fill="none" vector-effect="none" points="2298.15,740.375 2318,740.375 " />
<polyline fill="none" vector-effect="none" points="333,611.5 352.85,611.5 " />
<polyline fill="none" vector-effect="none" points="2298.15,611.5 2318,611.5 " />
<polyline fill="none" vector-effect="none" points="333,482.625 352.85,482.625 " />
<polyline fill="none" vector-effect="none" points="2298.15,482.625 2318,482.625 " />
<polyline fill="none" vector-effect="none" points="333,353.75 352.85,353.75 " />
<polyline fill="none" vector-effect="none" points="2298.15,353.75 2318,353.75 " />
<polyline fill="none" vector-effect="none" points="333,224.875 352.85,224.875 " />
<polyline fill="none" vector-effect="none" points="2298.15,224.875 2318,224.875 " />
<polyline fill="none" vector-effect="none" points="333,96 352.85,96 " />
<polyline fill="none" vector-effect="none" points="2298.15,96 2318,96 " />
</g>

<g fill="#212121" fill-opacity="1" stroke="#212121" stroke-opacity="1" stroke-width="1" stroke-linecap="square" stroke-linejoin="bevel" transform="matrix(0.5,0,0,0.5,107,574)"
font-family="Helvetica" font-size="60" font-weight="400" font-style="normal" 
>
<text fill="#212121" fill-opacity="1" stroke="none" xml:space="preserve" x="0" y="0" font-family="Helvetica" font-size="60" font-weight="400" font-style="normal" 
 >-0.3</text>
</g>

<g fill="#212121" fill-opacity="1" stroke="#212121" stroke-opacity="1" stroke-width="1" stroke-linecap="square" stroke-linejoin="bevel" transform="matrix(0.5,0,0,0.5,107,509.563)"
font-family="Helvetica" font-size="60" font-weight="400" font-style="normal" 
>
<text fill="#212121" fill-opacity="1" stroke="none" xml:space="preserve" x="0" y="0" font-family="Helvetica" font-size="60" font-weight="400" font-style="normal" 
 >-0.2</text>
</g>

<g fill="#212121" fill-opacity="1" stroke="#212121" stroke-opacity="1" stroke-width="1" stroke-linecap="square" stroke-linejoin="bevel" transform="matrix(0.5,0,0,0.5,107,445.125)"
font-family="Helvetica" font-size="60" font-weight="400" font-style="normal" 
>
<text fill="#212121" fill-opacity="1" stroke="none" xml:space="preserve" x="0" y="0" font-family="Helvetica" font-size="60" font-weight="400" font-style="normal" 
 >-0.1</text>
</g>

<g fill="#212121" fill-opacity="1" stroke="#212121" stroke-opacity="1" stroke-width="1" stroke-linecap="square" stroke-linejoin="bevel" transform="matrix(0.5,0,0,0.5,142,380.688)"
font-family="Helvetica" font-size="60" font-weight="400" font-style="normal" 
>
<text fill="#212121" fill-opacity="1" stroke="none" xml:space="preserve" x="0" y="0" font-family="Helvetica" font-size="60" font-weight="400" font-style="normal" 
 >0</text>
</g>

<g fill="#212121" fill-opacity="1" stroke="#212121" stroke-opacity="1" stroke-width="1" stroke-linecap="square" stroke-linejoin="bevel" transform="matrix(0.5,0,0,0.5,117,316.25)"
font-family="Helvetica" font-size="60" font-weight="400" font-style="normal" 
>
<text fill="#212121" fill-opacity="1" stroke="none" xml:space="preserve" x="0" y="0" font-family="Helvetica" font-size="60" font-weight="400" font-style="normal" 
 >0.1</text>
</g>

<g fill="#212121" fill-opacity="1" stroke="#212121" stroke-opacity="1" stroke-width="1" stroke-linecap="square" stroke-linejoin="bevel" transform="matrix(0.5,0,0,0.5,117,251.813)"
font-family="Helvetica" font-size="60" font-weight="400" font-style="normal" 
>
<text fill="#212121" fill-opacity="1" stroke="none" xml:space="preserve" x="0" y="0" font-family="Helvetica" font-size="60" font-weight="400" font-style="normal" 
 >0.2</text>
</g>

<g fill="#212121" fill-opacity="1" stroke="#212121" stroke-opacity="1" stroke-width="1" stroke-linecap="square" stroke-linejoin="bevel" transform="matrix(0.5,0,0,0.5,117,187.375)"
font-family="Helvetica" font-size="60" font-weight="400" font-style="normal" 
>
<text fill="#212121" fill-opacity="1" stroke="none" xml:space="preserve" x="0" y="0" font-family="Helvetica" font-size="60" font-weight="400" font-style="normal" 
 >0.3</text>
</g>

<g fill="#212121" fill-opacity="1" stroke="#212121" stroke-opacity="1" stroke-width="1" stroke-linecap="square" stroke-linejoin="bevel" transform="matrix(0.5,0,0,0.5,117,122.937)"
font-family="Helvetica" font-size="60" font-weight="400" font-style="normal" 
>
<text fill="#212121" fill-opacity="1" stroke="none" xml:space="preserve" x="0" y="0" font-family="Helvetica" font-size="60" font-weight="400" font-style="normal" 
 >0.4</text>
</g>

<g fill="#212121" fill-opacity="1" stroke="#212121" stroke-opacity="1" stroke-width="1" stroke-linecap="square" stroke-linejoin="bevel" transform="matrix(0.5,0,0,0.5,117,58.5)"
font-family="Helvetica" font-size="60" font-weight="400" font-style="normal" 
>
<text fill="#212121" fill-opacity="1" stroke="none" xml:space="preserve" x="0" y="0" font-family="Helvetica" font-size="60" font-weight="400" font-style="normal" 
 >0.5</text>
</g>

<g fill="#212121" fill-opacity="1" stroke="#212121" stroke-opacity="1" stroke-width="1" stroke-linecap="square" stroke-linejoin="bevel" transform="matrix(0.5,0,0,0.5,295.25,37.75)"
font-family="Helvetica" font-size="60" font-weight="700" font-style="normal" 
>
<text fill="#212121" fill-opacity="1" stroke="none" xml:space="preserve" x="0" y="0" font-family="Helvetica" font-size="60" font-weight="700" font-style="normal" 
 >Velocity of Quarter Car Model (Wavy Road; Control)</text>
</g>

<g fill="none" stroke="#1171be" stroke-opacity="1" stroke-width="4" stroke-linecap="butt" stroke-linejoin="round" transform="matrix(0.5,0,0,0.5,0,0)"
font-family="Helvetica" font-size="60" font-weight="700" font-style="normal" 
>
<polyline fill="none" vector-effect="none" points="333,740.375 334.015,740.275 335.03,739.612 336.619,736.432 338.766,726.806 341.32,708.31 344.388,681.963 347.823,655.386 350.867,636.198 354.272,615.888 357.754,592.618 361.236,567.157 365.33,538.527 369.598,512.595 373.71,489.994 379.242,461.554 383.785,441.344 389.425,422.112 394.22,410.41 399.555,401.013 404.891,395.624 410.242,394.289 415.593,397.196 420.617,402.98 426.28,411.204 431.943,420.936 437.03,431.003 442.117,442.989 446.781,454.134 452.859,467.306 458.253,478.264 464.34,490.954 469.489,502.145 474.922,512.079 480.069,520.02 489.958,534.841 494.165,542.243 498.373,548.687 503.25,554.817 508.731,561.405 513.955,569.136 518.26,577.07 523.36,585.646 528.244,592.844 534.134,601.77 539.154,611.122 543.375,620.518 548.514,631.028 553.386,639.745 559.258,650.112 564.17,660.222 568.319,669.936 573.451,680.473 578.279,688.527 584.062,697.308 588.957,705.631 593.067,713.561 598.047,721.371 602.841,726.575 608.318,731.275 612.586,735.232 616.855,740.502 621.188,744.954 626.253,747.587 630.999,748.818 635.111,749.621 639.222,751.776 643.225,754.699 648.595,756.818 653.297,756.999 658.002,756.942 662.707,758.015 666.97,760.962 671.39,763.687 676.383,765.194 681.219,766.406 685.018,767.769 688.816,770.826 692.843,775.495 697.916,780.635 702.683,784.371 708.23,789 713.367,795.305 717.535,802.474 722.358,810.131 727.124,816.452 732.413,823.536 735.675,828.422 738.937,834.475 743.163,843.229 748.501,853.086 753.33,860.754 758.093,868.167 762.856,876.585 767.138,885.624 771.821,894.676 776.812,902.544 781.982,910.053 787.627,918.803 792.819,928.263 797.463,935.512 802.419,941.64 808.193,947.985 813.481,954.394 817.907,960.53 823.229,966.328 828.222,970.207 833.21,973.583 838.199,977.405 842.788,981.534 848.091,985.008 853.32,987.041 858.482,988.62 863.644,990.674 868.397,992.974 874.272,994.489 879.653,994.92 884.905,995.183 890.156,996.103 895.076,996.933 900.608,996.92 906.141,996.494 913.416,996.209 919.942,996.458 926.11,995.92 932.174,995.286 940.198,994.813 947.999,994.394 956.339,993.75 968.045,992.845 973.468,992.486 978.891,992.49 984.606,992.173 990.32,991.516 996.737,990.859 1005.28,990.341 1010.56,989.921 1015.85,988.727 1021.12,987.467 1028.49,986.376 1034.62,985.265 1040.16,983.107 1045.09,980.873 1050.69,978.955 1056.29,977.154 1063.47,973.534 1068.86,969.443 1074.25,966.277 1079.47,963.476 1086.5,958.913 1090.84,954.488 1095.19,950.085 1100.82,945.55 1105.96,941.636 1112.11,935.828 1116.74,929.774 1121.36,924.261 1126.48,919.268 1132.06,914.023 1137.34,907.815 1142.62,899.833 1147.38,893.665 1152.26,888.426 1157.13,883.359 1162.01,877.203 1166.3,870.155 1170.98,863.211 1175.94,857.462 1181.12,851.895 1186.79,844.733 1191.8,836.372 1196.32,829.774 1201.13,824.26 1206.56,818.506 1212.32,811.022 1216.94,803.319 1221.77,796.5 1226.55,791.273 1232.26,785.49 1237.28,779.048 1241.38,772.171 1246.18,765.237 1250.93,760.163 1256.14,755.059 1261.53,748.657 1266.92,739.935 1271.28,733.951 1275.98,729.01 1281.42,723.748 1287.07,716.846 1291.61,709.515 1296.36,702.981 1301.12,698.009 1306.61,692.717 1311.72,686.532 1316.83,678.293 1321.31,672.173 1326.01,667.26 1331.5,661.914 1336.12,656.461 1340.73,649.165 1345.14,642.795 1350.11,637.353 1355.08,632.49 1359.47,627.914 1363.86,621.573 1368.01,615.222 1372.65,609.581 1377.29,605.05 1381.9,600.712 1386.5,595.395 1390.77,589.095 1395.49,582.913 1400.52,577.99 1405.72,573.392 1412.1,566.618 1417.37,559.559 1422.51,554.224 1427.36,550.239 1432.06,546.532 1436.75,542.039 1441.21,536.816 1446.28,531.833 1451.46,528.112 1457.37,524.224 1462.58,519.888 1467.11,515.503 1473.1,511.171 1478.26,508.399 1486.91,503.501 1491.72,499.766 1496.53,496.87 1501.78,494.758 1508.04,492.409 1513.4,489.755 1518.39,487.24 1523.92,485.382 1529.45,484.024 1535.33,482.588 1541.21,480.645 1546.66,479.384 1552.83,478.606 1558.99,477.955 1565.15,477.177 1571.36,476.731 1579.08,476.712 1587.59,477.003 1596.04,477.778 1605.11,478.819 1612.37,480.211 1619.63,482.167 1626.91,483.859 1634.06,485.827 1640.16,488.449 1645.52,490.784 1652.38,493.269 1659.01,495.911 1664.55,499.342 1669.47,502.444 1675.95,505.688 1681.77,508.554 1687.44,512.52 1692.18,516.617 1698.73,521.119 1704.01,524.31 1708.54,527.29 1713.07,531.613 1717.55,536.278 1722.53,540.477 1727.52,544.068 1732.89,548.119 1738.27,554.013 1742.59,559.198 1747.51,563.965 1752.44,568.046 1755.69,570.719 1758.95,573.79 1763.31,579.417 1767.61,585.23 1772.4,590.386 1777.18,594.748 1782.18,599.405 1787.19,605.826 1791.37,612.068 1796.2,618.082 1801.03,622.933 1805.78,627.519 1810.53,633.245 1814.75,640.006 1819.36,646.706 1824.3,652.177 1829.35,657.295 1834.96,663.955 1839.21,670.923 1843.47,677.509 1848.56,683.57 1853.38,688.626 1857.15,692.619 1860.91,697.927 1864.93,704.808 1869.79,712.091 1874.62,717.588 1879.83,723.076 1885.35,730.129 1889.75,737.645 1894.16,744.374 1899,750.044 1904.05,755.372 1909.68,762.156 1914.48,770.232 1918.76,776.843 1923.64,782.571 1928.54,787.663 1932.46,791.852 1936.37,797.54 1940.41,804.329 1945.83,811.802 1950.54,816.758 1955.22,821.428 1959.9,827.087 1964.14,833.917 1968.62,840.519 1973.6,845.972 1978.5,850.705 1982.57,854.784 1986.63,860.342 1990.75,866.654 1995.48,872.557 2000.22,877.087 2006.3,882.638 2011.17,888.42 2015.37,894.397 2020.79,900.664 2025.68,904.923 2030.45,908.852 2035.23,913.702 2039.57,919.347 2044.44,924.775 2049.49,928.875 2054.97,932.9 2059.87,937.218 2064.77,942.79 2069.57,947.383 2074.68,950.957 2080.47,954.612 2085.83,958.863 2090.39,963.295 2096.02,967.485 2101.15,970.277 2106.1,972.878 2111.06,976.184 2115.79,979.786 2121.92,983.206 2127.32,985.445 2132.2,987.388 2137.08,989.996 2141.98,992.66 2147.41,994.664 2152.84,996.172 2158.46,997.714 2164.08,999.765 2169.46,1001.3 2175.84,1002.34 2182.73,1003.29 2188.98,1004.22 2195.32,1004.79 2203.15,1004.94 2212.16,1004.69 2220.92,1003.91 2230.96,1002.69 2237.73,1001.08 2244.5,999.244 2253.11,997.096 2259.11,995.148 2265.1,992.292 2270.63,989.908 2276.83,987.558 2281.83,985.522 2286.83,982.48 2291.69,979.168 2297.1,976.174 2302.51,973.472 2307.3,970.859 2312.1,966.986 2316.72,962.98 2318,962.005 " />
</g>

<g fill="none" stroke="#dd5400" stroke-opacity="1" stroke-width="4" stroke-linecap="butt" stroke-linejoin="round" transform="matrix(0.5,0,0,0.5,0,0)"
font-family="Helvetica" font-size="60" font-weight="700" font-style="normal" 
>
<polyline fill="none" vector-effect="none" points="333,740.375 334.015,740.375 335.03,740.372 336.619,740.343 338.766,740.183 341.32,739.634 344.388,738.193 347.823,735.353 350.867,731.706 354.272,726.324 357.754,719.267 361.236,710.443 365.33,697.629 369.598,681.438 373.71,663.153 379.242,634.55 383.785,607.846 389.425,571.208 394.22,537.674 399.555,498.583 404.891,458.538 410.242,418.456 415.593,379.535 420.617,345.03 426.28,309.593 431.943,278.83 437.03,255.946 442.117,238.177 446.781,226.793 452.859,219.344 458.253,219.857 464.34,228.419 469.489,242.108 474.922,262.572 480.069,287.132 489.958,346.136 494.165,375.057 498.373,405.705 503.25,442.797 508.731,485.642 513.955,526.81 518.26,560.484 523.36,599.529 528.244,635.472 534.134,676.186 539.154,708.096 543.375,732.719 548.514,759.739 553.386,782.115 559.258,804.648 564.17,819.716 568.319,829.835 573.451,839.157 578.279,844.767 584.062,847.633 588.957,847.021 593.067,844.619 598.047,839.684 602.841,833.056 608.318,823.537 612.586,814.934 616.855,805.578 621.188,795.57 626.253,783.461 630.999,771.923 635.111,761.95 639.222,752.175 643.225,743.046 648.595,731.634 653.297,722.558 658.002,714.444 662.707,707.424 666.97,702.163 671.39,697.941 676.383,694.713 681.219,693.141 685.018,692.982 688.816,693.792 692.843,695.764 697.916,699.891 702.683,705.346 708.23,713.484 713.367,722.63 717.535,731.183 722.358,742.298 727.124,754.408 732.413,768.949 735.675,778.412 738.937,788.216 743.163,801.395 748.501,818.69 753.33,834.734 758.093,850.738 762.856,866.758 767.138,881.109 771.821,896.664 776.812,912.896 781.982,929.115 787.627,945.936 792.819,960.503 797.463,972.728 802.419,984.802 808.193,997.442 813.481,1007.58 817.907,1015.02 823.229,1022.71 828.222,1028.61 833.21,1033.21 838.199,1036.54 842.788,1038.55 848.091,1039.72 853.32,1039.69 858.482,1038.56 863.644,1036.44 868.397,1033.76 874.272,1029.64 879.653,1025.18 884.905,1020.33 890.156,1015.12 895.076,1010.09 900.608,1004.36 906.141,998.69 913.416,991.514 919.942,985.599 926.11,980.624 932.174,976.403 940.198,971.978 947.999,969.071 956.339,967.508 968.045,967.912 973.468,969.018 978.891,970.644 984.606,972.847 990.32,975.449 996.737,978.706 1005.28,983.363 1010.56,986.3 1015.85,989.163 1021.12,991.837 1028.49,995.135 1034.62,997.394 1040.16,998.95 1045.09,999.852 1050.69,1000.28 1056.29,1000.05 1063.47,998.77 1068.86,996.976 1074.25,994.443 1079.47,991.334 1086.5,986.167 1090.84,982.397 1095.19,978.164 1100.82,972.043 1105.96,965.915 1112.11,957.997 1116.74,951.611 1121.36,944.856 1126.48,937.029 1132.06,928.211 1137.34,919.644 1142.62,910.852 1147.38,902.761 1152.26,894.39 1157.13,886.03 1162.01,877.73 1166.3,870.441 1170.98,862.514 1175.94,854.204 1181.12,845.726 1186.79,836.703 1191.8,828.944 1196.32,822.057 1201.13,814.916 1206.56,807.168 1212.32,799.321 1216.94,793.229 1221.77,787.007 1226.55,781.042 1232.26,774.211 1237.28,768.492 1241.38,763.919 1246.18,758.632 1250.93,753.505 1256.14,748.043 1261.53,742.557 1266.92,737.113 1271.28,732.68 1275.98,727.891 1281.42,722.382 1287.07,716.683 1291.61,712.03 1296.36,707.023 1301.12,701.906 1306.61,695.939 1311.72,690.323 1316.83,684.547 1321.31,679.302 1326.01,673.681 1331.5,667.004 1336.12,661.328 1340.73,655.533 1345.14,649.851 1350.11,643.312 1355.08,636.701 1359.47,630.852 1363.86,624.969 1368.01,619.336 1372.65,612.957 1377.29,606.572 1381.9,600.282 1386.5,594.058 1390.77,588.315 1395.49,581.961 1400.52,575.25 1405.72,568.459 1412.1,560.395 1417.37,553.898 1422.51,547.688 1427.36,542.018 1432.06,536.749 1436.75,531.706 1441.21,527.093 1446.28,522.018 1451.46,517.096 1457.37,511.851 1462.58,507.554 1467.11,504.028 1473.1,499.649 1478.26,496.179 1486.91,491.029 1491.72,488.479 1496.53,486.114 1501.78,483.77 1508.04,481.326 1513.4,479.505 1518.39,477.996 1523.92,476.518 1529.45,475.261 1535.33,474.165 1541.21,473.28 1546.66,472.612 1552.83,472.045 1558.99,471.68 1565.15,471.493 1571.36,471.461 1579.08,471.645 1587.59,472.128 1596.04,472.901 1605.11,474.052 1612.37,475.213 1619.63,476.627 1626.91,478.307 1634.06,480.197 1640.16,482.024 1645.52,483.831 1652.38,486.396 1659.01,489.128 1664.55,491.62 1669.47,494.042 1675.95,497.504 1681.77,500.839 1687.44,504.298 1692.18,507.397 1698.73,512.003 1704.01,515.924 1708.54,519.427 1713.07,523.069 1717.55,526.843 1722.53,531.254 1727.52,535.83 1732.89,540.905 1738.27,546.147 1742.59,550.536 1747.51,555.715 1752.44,561.026 1755.69,564.584 1758.95,568.177 1763.31,573.08 1767.61,578.047 1772.4,583.707 1777.18,589.455 1782.18,595.519 1787.19,601.641 1791.37,606.852 1796.2,612.989 1801.03,619.191 1805.78,625.31 1810.53,631.428 1814.75,636.913 1819.36,643.003 1824.3,649.584 1829.35,656.297 1834.96,663.734 1839.21,669.386 1843.47,675.105 1848.56,682.002 1853.38,688.512 1857.15,693.56 1860.91,698.583 1864.93,703.974 1869.79,710.546 1874.62,717.104 1879.83,724.137 1885.35,731.491 1889.75,737.377 1894.16,743.314 1899,749.859 1904.05,756.627 1909.68,764.088 1914.48,770.441 1918.76,776.149 1923.64,782.675 1928.54,789.17 1932.46,794.302 1936.37,799.396 1940.41,804.663 1945.83,811.773 1950.54,817.937 1955.22,823.984 1959.9,829.945 1964.14,835.323 1968.62,841.041 1973.6,847.382 1978.5,853.533 1982.57,858.557 1986.63,863.521 1990.75,868.541 1995.48,874.312 2000.22,880.023 2006.3,887.194 2011.17,892.805 2015.37,897.61 2020.79,903.773 2025.68,909.232 2030.45,914.432 2035.23,919.491 2039.57,924.019 2044.44,929.047 2049.49,934.145 2054.97,939.499 2059.87,944.102 2064.77,948.59 2069.57,952.909 2074.68,957.37 2080.47,962.192 2085.83,966.444 2090.39,969.938 2096.02,974.119 2101.15,977.743 2106.1,981.06 2111.06,984.194 2115.79,987.054 2121.92,990.571 2127.32,993.46 2132.2,995.872 2137.08,998.112 2141.98,1000.22 2147.41,1002.39 2152.84,1004.34 2158.46,1006.14 2164.08,1007.71 2169.46,1009.04 2175.84,1010.36 2182.73,1011.46 2188.98,1012.18 2195.32,1012.66 2203.15,1012.87 2212.16,1012.6 2220.92,1011.82 2230.96,1010.31 2237.73,1008.93 2244.5,1007.23 2253.11,1004.63 2259.11,1002.56 2265.1,1000.25 2270.63,997.886 2276.83,995.013 2281.83,992.538 2286.83,989.915 2291.69,987.191 2297.1,983.961 2302.51,980.563 2307.3,977.432 2312.1,974.171 2316.72,970.862 2318,969.919 " />
</g>

<g fill="none" stroke="#edb120" stroke-opacity="1" stroke-width="4" stroke-linecap="butt" stroke-linejoin="round" transform="matrix(0.5,0,0,0.5,0,0)"
font-family="Helvetica" font-size="60" font-weight="700" font-style="normal" 
>
<polyline fill="none" vector-effect="none" points="333,740.375 334.015,726.142 335.03,687.8 336.619,598.243 338.766,470.327 341.32,381.681 344.388,400.419 347.823,496.266 350.867,543.812 354.272,522.013 357.754,472.03 361.236,455.747 365.33,480.334 369.598,497.295 373.71,486.027 379.242,472.506 383.785,478.344 389.425,491.582 394.22,488.223 399.555,483.532 404.891,486.878 410.242,492.08 415.593,503.676 420.617,502.424 426.28,499.456 431.943,503.077 437.03,515.543 442.117,526.284 446.781,520.595 452.859,518.482 458.253,523.934 464.34,546.019 469.489,545.604 474.922,537.865 480.069,541.272 489.958,571.846 494.165,572.661 498.373,561.963 503.25,560.563 508.731,567.563 513.955,596.708 518.26,599.433 523.36,586.567 528.244,587.434 534.134,596.972 539.154,625.911 543.375,628.717 548.514,615.59 553.386,616.521 559.258,627.614 564.17,657.477 568.319,660.293 573.451,646.251 578.279,646.804 584.062,657.382 588.957,689.007 593.067,692.67 598.047,677.606 602.841,676.653 608.318,684.833 612.586,713.428 616.855,725.733 621.188,713.027 626.253,705.105 630.999,712.034 635.111,726.045 639.222,752.38 643.225,753.272 648.595,736.526 653.297,737.758 658.002,745.032 662.707,775.344 666.97,785.804 671.39,772.594 676.383,766.132 681.219,773.453 685.018,787.106 688.816,811.909 692.843,815.033 697.916,799.451 702.683,799.089 708.23,807.35 713.367,841.79 717.535,846.65 722.358,831.585 727.124,829.924 732.413,839.113 735.675,855.066 738.937,872.899 743.163,874.248 748.501,860.832 753.33,862.945 758.093,869.518 762.856,897.697 767.138,904.798 771.821,892.298 776.812,889.441 781.982,896.753 787.627,922.621 792.819,927.534 797.463,916.755 802.419,916.616 808.193,923.217 813.481,948.311 817.907,949.549 823.229,938.072 828.222,939.837 833.21,945.808 838.199,965.108 842.788,966.896 848.091,957.466 853.32,958.815 858.482,964.465 863.644,979.993 868.397,979.52 874.272,972.173 879.653,974.98 884.905,981.838 890.156,991.161 895.076,987.244 900.608,983.999 906.141,986.733 913.416,996.478 919.942,993.806 926.11,992.1 932.174,994.506 940.198,999.229 947.999,995.708 956.339,998.278 968.045,993.124 973.468,999.922 978.891,997.524 984.606,993.888 990.32,991.87 996.737,993.637 1005.28,992.512 1010.56,987.598 1015.85,981.839 1021.12,985.516 1028.49,985.633 1034.62,978.858 1040.16,969.043 1045.09,972.844 1050.69,975.587 1056.29,972.654 1063.47,951.468 1068.86,955.889 1074.25,961.526 1079.47,957.311 1086.5,938.938 1090.84,930.258 1095.19,937.772 1100.82,942.273 1105.96,937.052 1112.11,912.751 1116.74,908.214 1121.36,918.084 1126.48,919.174 1132.06,912.684 1137.34,885.97 1142.62,883.712 1147.38,894.585 1152.26,893.134 1157.13,887.678 1162.01,858.667 1166.3,851.825 1170.98,864.716 1175.94,867.635 1181.12,860.277 1186.79,829.637 1191.8,823.572 1196.32,836.229 1201.13,837.679 1206.56,829.029 1212.32,795.959 1216.94,792.805 1221.77,806.337 1226.55,806.332 1232.26,798.048 1237.28,763.199 1241.38,758.116 1246.18,773.83 1250.93,776.176 1256.14,767.197 1261.53,735.149 1266.92,728.688 1271.28,741.948 1275.98,743.298 1281.42,733.978 1287.07,699.969 1291.61,695.822 1296.36,709.91 1301.12,710.854 1306.61,702.087 1311.72,669.679 1316.83,664.647 1321.31,678.336 1326.01,679.339 1331.5,670.202 1336.12,642.36 1340.73,632.117 1345.14,644.47 1350.11,649.344 1355.08,642.098 1359.47,623.314 1363.86,603.015 1368.01,608.714 1372.65,619.952 1377.29,616.998 1381.9,609.646 1386.5,583.228 1390.77,576.535 1395.49,588.907 1400.52,591.743 1405.72,584.591 1412.1,555.118 1417.37,556.917 1422.51,567.154 1427.36,563.529 1432.06,556.849 1436.75,536.034 1441.21,532.561 1446.28,542.891 1451.46,542.706 1457.37,534.614 1462.58,515.344 1467.11,516.251 1473.1,525.13 1478.26,521.516 1486.91,501.943 1491.72,500.176 1496.53,508.474 1501.78,507.871 1508.04,499.967 1513.4,490.007 1518.39,493.091 1523.92,496.425 1529.45,493.789 1535.33,486.431 1541.21,483.916 1546.66,487.973 1552.83,486.668 1558.99,483.531 1565.15,481.359 1571.36,483.399 1579.08,482.423 1587.59,483.287 1596.04,482.593 1605.11,483.624 1612.37,488.722 1619.63,486.637 1626.91,487.42 1634.06,492.835 1640.16,498.288 1645.52,494.815 1652.38,495.361 1659.01,504.088 1664.55,512.225 1669.47,507.402 1675.95,506.396 1681.77,511.344 1687.44,528.763 1692.18,526.744 1698.73,520.248 1704.01,524.445 1708.54,535.766 1713.07,550.126 1717.55,545.894 1722.53,538.8 1727.52,542.141 1732.89,554.368 1738.27,573.602 1742.59,568.305 1747.51,560.721 1752.44,564.478 1755.69,568.15 1758.95,584.254 1763.31,600.411 1767.61,593.988 1772.4,585.123 1777.18,589.118 1782.18,601.327 1787.19,626.565 1791.37,624.833 1796.2,613.377 1801.03,615.054 1805.78,621.255 1810.53,651.325 1814.75,659.073 1819.36,645.694 1824.3,641.749 1829.35,649.342 1834.96,679.429 1839.21,690.36 1843.47,679.024 1848.56,672.163 1853.38,679.099 1857.15,691.322 1860.91,716.77 1864.93,722.011 1869.79,707.026 1874.62,704.735 1879.83,713.56 1885.35,746.698 1889.75,753.978 1894.16,740.777 1899,736.701 1904.05,744.387 1909.68,775.167 1914.48,787.045 1918.76,774.19 1923.64,768.544 1928.54,776.088 1932.46,791.388 1936.37,815.928 1940.41,816.869 1945.83,800.967 1950.54,802.936 1955.22,809.905 1959.9,840.098 1964.14,849.783 1968.62,836.708 1973.6,831.215 1978.5,838.717 1982.57,854.29 1986.63,876.296 1990.75,874.716 1995.48,861.81 2000.22,862.841 2006.3,875.086 2011.17,901.16 2015.37,902.176 2020.79,889.07 2025.68,891.101 2030.45,897.904 2035.23,922.915 2039.57,927.84 2044.44,915.964 2049.49,914.691 2054.97,921.653 2059.87,943.44 2064.77,948.055 2069.57,937.907 2074.68,937.568 2080.47,943.844 2085.83,965.104 2090.39,965.067 2096.02,955.491 2101.15,958.368 2106.1,964.999 2111.06,979.262 2115.79,978.428 2121.92,971.716 2127.32,974.993 2132.2,981.707 2137.08,991.2 2141.98,987.798 2147.41,984.056 2152.84,986.883 2158.46,993.626 2164.08,997.339 2169.46,993.154 2175.84,993.901 2182.73,997.366 2188.98,999.307 2195.32,997.462 2203.15,998.438 2212.16,997.387 2220.92,998.426 2230.96,996.409 2237.73,991.806 2244.5,994.416 2253.11,992.435 2259.11,985.303 2265.1,983.085 2270.63,986.698 2276.83,985.059 2281.83,978.841 2286.83,968.451 2291.69,971.631 2297.1,975.524 2302.51,972.555 2307.3,962.685 2312.1,950.778 2316.72,955.505 2318,957.612 " />
</g>

<g fill="#ffffff" fill-opacity="1" stroke="none" transform="matrix(5e-05,0,0,5e-05,0,0)"
font-family="Helvetica" font-size="60" font-weight="700" font-style="normal" 
>
<path vector-effect="none" fill-rule="evenodd" d="M2.012e+07,1.12e+06 L2.012e+07,3.2e+06 L2.302e+07,3.2e+06 L2.302e+07,1.12e+06 L2.012e+07,1.12e+06"/>
</g>

<g fill="#1171be" fill-opacity="1" stroke="#1171be" stroke-opacity="1" stroke-width="4" stroke-linecap="butt" stroke-linejoin="round" transform="matrix(0.5,0,0,0.5,0,0)"
font-family="Helvetica" font-size="60" font-weight="700" font-style="normal" 
>
<polyline fill="none" vector-effect="none" points="2017.99,148.412 2077.89,148.412 " />
</g>

<g fill="#dd5400" fill-opacity="1" stroke="#dd5400" stroke-opacity="1" stroke-width="4" stroke-linecap="butt" stroke-linejoin="round" transform="matrix(0.5,0,0,0.5,0,0)"
font-family="Helvetica" font-size="60" font-weight="700" font-style="normal" 
>
<polyline fill="none" vector-effect="none" points="2017.99,216 2077.89,216 " />
</g>

<g fill="#edb120" fill-opacity="1" stroke="#edb120" stroke-opacity="1" stroke-width="4" stroke-linecap="butt" stroke-linejoin="round" transform="matrix(0.5,0,0,0.5,0,0)"
font-family="Helvetica" font-size="60" font-weight="700" font-style="normal" 
>
<polyline fill="none" vector-effect="none" points="2017.99,283.588 2077.89,283.588 " />
</g>

<g fill="#212121" fill-opacity="1" stroke="#212121" stroke-opacity="1" stroke-width="1" stroke-linecap="square" stroke-linejoin="bevel" transform="matrix(0.5,0,0,0.5,1041.19,84.7062)"
font-family="Helvetica" font-size="60" font-weight="400" font-style="normal" 
>
<text fill="#212121" fill-opacity="1" stroke="none" xml:space="preserve" x="0" y="0" font-family="Helvetica" font-size="60" font-weight="400" font-style="normal" 
 >Chassis</text>
</g>

<g fill="#212121" fill-opacity="1" stroke="#212121" stroke-opacity="1" stroke-width="1" stroke-linecap="square" stroke-linejoin="bevel" transform="matrix(0.5,0,0,0.5,1041.19,118.5)"
font-family="Helvetica" font-size="60" font-weight="400" font-style="normal" 
>
<text fill="#212121" fill-opacity="1" stroke="none" xml:space="preserve" x="0" y="0" font-family="Helvetica" font-size="60" font-weight="400" font-style="normal" 
 >Seat</text>
</g>

<g fill="#212121" fill-opacity="1" stroke="#212121" stroke-opacity="1" stroke-width="1" stroke-linecap="square" stroke-linejoin="bevel" transform="matrix(0.5,0,0,0.5,1041.19,152.294)"
font-family="Helvetica" font-size="60" font-weight="400" font-style="normal" 
>
<text fill="#212121" fill-opacity="1" stroke="none" xml:space="preserve" x="0" y="0" font-family="Helvetica" font-size="60" font-weight="400" font-style="normal" 
 >Wheel</text>
</g>

<g fill="none" stroke="#212121" stroke-opacity="1" stroke-width="1" stroke-linecap="butt" stroke-linejoin="miter" stroke-miterlimit="2" transform="matrix(0.5,0,0,0.5,0,0)"
font-family="Helvetica" font-size="60" font-weight="400" font-style="normal" 
>
<path vector-effect="none" fill-rule="evenodd" d="M2012,320 L2012,112 L2302,112 L2302,320 L2012,320"/>
</g>
</g>
</svg>
