<?xml version="1.0" encoding="UTF-8" standalone="no"?>
<svg width="451.908mm" height="225.778mm"
 viewBox="0 0 1281 640"
 xmlns="http://www.w3.org/2000/svg" xmlns:xlink="http://www.w3.org/1999/xlink"  version="1.2" baseProfile="tiny">
<title>Qt SVG Document</title>
<desc>MATLAB, The MathWorks, Inc. Version 25.2.0.2998904 R2025b</desc>
<defs>
</defs>
<g fill="none" stroke="black" stroke-width="1" fill-rule="evenodd" stroke-linecap="square" stroke-linejoin="bevel" >

<g fill="#ffffff" fill-opacity="1" stroke="none" transform="matrix(0.5,0,0,0.5,0,0)"
font-family="MS Shell Dlg 2" font-size="8" font-weight="400" font-style="normal" 
>
<path vector-effect="none" fill-rule="evenodd" d="M0,0 L2562,0 L2562,1281 L0,1281 L0,0"/>
</g>

<g fill="#ffffff" fill-opacity="1" stroke="none" transform="matrix(5e-05,0,0,5e-05,0,0)"
font-family="MS Shell Dlg 2" font-size="8" font-weight="400" font-style="normal" 
>
<path vector-effect="none" fill-rule="evenodd" d="M3.33e+06,960000 L3.33e+06,1.127e+07 L2.318e+07,1.127e+07 L2.318e+07,960000 L3.33e+06,960000"/>
</g>

<g fill="#212121" fill-opacity="0.14902" stroke="#212121" stroke-opacity="0.14902" stroke-width="1" stroke-linecap="butt" stroke-linejoin="round" transform="matrix(0.5,0,0,0.5,0,0)"
font-family="MS Shell Dlg 2" font-size="8" font-weight="400" font-style="normal" 
>
<polyline fill="none" vector-effect="none" points="333,96 333,1127 " />
<polyline fill="none" vector-effect="none" points="730,96 730,1127 " />
<polyline fill="none" vector-effect="none" points="1127,96 1127,1127 " />
<polyline fill="none" vector-effect="none" points="1524,96 1524,1127 " />
<polyline fill="none" vector-effect="none" points="1921,96 1921,1127 " />
<polyline fill="none" vector-effect="none" points="2318,96 2318,1127 " />
<polyline fill="none" vector-effect="none" points="333,1127 2318,1127 " />
<polyline fill="none" vector-effect="none" points="333,998.125 2318,998.125 " />
<polyline fill="none" vector-effect="none" points="333,869.25 2318,869.25 " />
<polyline fill="none" vector-effect="none" points="333,740.375 2318,740.375 " />
<polyline fill="none" vector-effect="none" points="333,611.5 2318,611.5 " />
<polyline fill="none" vector-effect="none" points="333,482.625 2318,482.625 " />
<polyline fill="none" vector-effect="none" points="333,353.75 2318,353.75 " />
<polyline fill="none" vector-effect="none" points="333,224.875 2318,224.875 " />
<polyline fill="none" vector-effect="none" points="333,96 2318,96 " />
</g>

<g fill="#212121" fill-opacity="1" stroke="#212121" stroke-opacity="1" stroke-width="1" stroke-linecap="square" stroke-linejoin="bevel" transform="matrix(0.5,0,0,0.5,608.25,633.5)"
font-family="Helvetica" font-size="60" font-weight="400" font-style="normal" 
>
<text fill="#212121" fill-opacity="1" stroke="none" xml:space="preserve" x="0" y="0" font-family="Helvetica" font-size="60" font-weight="400" font-style="normal" 
 >Time (s)</text>
</g>

<g fill="#212121" fill-opacity="1" stroke="#212121" stroke-opacity="1" stroke-width="1" stroke-linecap="square" stroke-linejoin="round" transform="matrix(0.5,0,0,0.5,0,0)"
font-family="Helvetica" font-size="60" font-weight="400" font-style="normal" 
>
<polyline fill="none" vector-effect="none" points="333,1127 2318,1127 " />
<polyline fill="none" vector-effect="none" points="333,96 2318,96 " />
<polyline fill="none" vector-effect="none" points="333,1127 333,1107.15 " />
<polyline fill="none" vector-effect="none" points="333,115.85 333,96 " />
<polyline fill="none" vector-effect="none" points="730,1127 730,1107.15 " />
<polyline fill="none" vector-effect="none" points="730,115.85 730,96 " />
<polyline fill="none" vector-effect="none" points="1127,1127 1127,1107.15 " />
<polyline fill="none" vector-effect="none" points="1127,115.85 1127,96 " />
<polyline fill="none" vector-effect="none" points="1524,1127 1524,1107.15 " />
<polyline fill="none" vector-effect="none" points="1524,115.85 1524,96 " />
<polyline fill="none" vector-effect="none" points="1921,1127 1921,1107.15 " />
<polyline fill="none" vector-effect="none" points="1921,115.85 1921,96 " />
<polyline fill="none" vector-effect="none" points="2318,1127 2318,1107.15 " />
<polyline fill="none" vector-effect="none" points="2318,115.85 2318,96 " />
</g>

<g fill="#212121" fill-opacity="1" stroke="#212121" stroke-opacity="1" stroke-width="1" stroke-linecap="square" stroke-linejoin="bevel" transform="matrix(0.5,0,0,0.5,158.25,599)"
font-family="Helvetica" font-size="60" font-weight="400" font-style="normal" 
>
<text fill="#212121" fill-opacity="1" stroke="none" xml:space="preserve" x="0" y="0" font-family="Helvetica" font-size="60" font-weight="400" font-style="normal" 
 >0</text>
</g>

<g fill="#212121" fill-opacity="1" stroke="#212121" stroke-opacity="1" stroke-width="1" stroke-linecap="square" stroke-linejoin="bevel" transform="matrix(0.5,0,0,0.5,356.75,599)"
font-family="Helvetica" font-size="60" font-weight="400" font-style="normal" 
>
<text fill="#212121" fill-opacity="1" stroke="none" xml:space="preserve" x="0" y="0" font-family="Helvetica" font-size="60" font-weight="400" font-style="normal" 
 >2</text>
</g>

<g fill="#212121" fill-opacity="1" stroke="#212121" stroke-opacity="1" stroke-width="1" stroke-linecap="square" stroke-linejoin="bevel" transform="matrix(0.5,0,0,0.5,555.25,599)"
font-family="Helvetica" font-size="60" font-weight="400" font-style="normal" 
>
<text fill="#212121" fill-opacity="1" stroke="none" xml:space="preserve" x="0" y="0" font-family="Helvetica" font-size="60" font-weight="400" font-style="normal" 
 >4</text>
</g>

<g fill="#212121" fill-opacity="1" stroke="#212121" stroke-opacity="1" stroke-width="1" stroke-linecap="square" stroke-linejoin="bevel" transform="matrix(0.5,0,0,0.5,753.75,599)"
font-family="Helvetica" font-size="60" font-weight="400" font-style="normal" 
>
<text fill="#212121" fill-opacity="1" stroke="none" xml:space="preserve" x="0" y="0" font-family="Helvetica" font-size="60" font-weight="400" font-style="normal" 
 >6</text>
</g>

<g fill="#212121" fill-opacity="1" stroke="#212121" stroke-opacity="1" stroke-width="1" stroke-linecap="square" stroke-linejoin="bevel" transform="matrix(0.5,0,0,0.5,952.25,599)"
font-family="Helvetica" font-size="60" font-weight="400" font-style="normal" 
>
<text fill="#212121" fill-opacity="1" stroke="none" xml:space="preserve" x="0" y="0" font-family="Helvetica" font-size="60" font-weight="400" font-style="normal" 
 >8</text>
</g>

<g fill="#212121" fill-opacity="1" stroke="#212121" stroke-opacity="1" stroke-width="1" stroke-linecap="square" stroke-linejoin="bevel" transform="matrix(0.5,0,0,0.5,1142.5,599)"
font-family="Helvetica" font-size="60" font-weight="400" font-style="normal" 
>
<text fill="#212121" fill-opacity="1" stroke="none" xml:space="preserve" x="0" y="0" font-family="Helvetica" font-size="60" font-weight="400" font-style="normal" 
 >10</text>
</g>

<g fill="#212121" fill-opacity="1" stroke="#212121" stroke-opacity="1" stroke-width="1" stroke-linecap="square" stroke-linejoin="bevel" transform="matrix(0,-0.5,0.5,0,80.5,395.75)"
font-family="Helvetica" font-size="60" font-weight="400" font-style="normal" 
>
<text fill="#212121" fill-opacity="1" stroke="none" xml:space="preserve" x="0" y="0" font-family="Helvetica" font-size="60" font-weight="400" font-style="normal" 
 >Velocity (m/s)</text>
</g>

<g fill="#212121" fill-opacity="1" stroke="#212121" stroke-opacity="1" stroke-width="1" stroke-linecap="square" stroke-linejoin="round" transform="matrix(0.5,0,0,0.5,0,0)"
font-family="Helvetica" font-size="60" font-weight="400" font-style="normal" 
>
<polyline fill="none" vector-effect="none" points="333,1127 333,96 " />
<polyline fill="none" vector-effect="none" points="2318,1127 2318,96 " />
<polyline fill="none" vector-effect="none" points="333,1127 352.85,1127 " />
<polyline fill="none" vector-effect="none" points="2298.15,1127 2318,1127 " />
<polyline fill="none" vector-effect="none" points="333,998.125 352.85,998.125 " />
<polyline fill="none" vector-effect="none" points="2298.15,998.125 2318,998.125 " />
<polyline fill="none" vector-effect="none" points="333,869.25 352.85,869.25 " />
<polyline fill="none" vector-effect="none" points="2298.15,869.25 2318,869.25 " />
<polyline fill="none" vector-effect="none" points="333,740.375 352.85,740.375 " />
<polyline fill="none" vector-effect="none" points="2298.15,740.375 2318,740.375 " />
<polyline fill="none" vector-effect="none" points="333,611.5 352.85,611.5 " />
<polyline fill="none" vector-effect="none" points="2298.15,611.5 2318,611.5 " />
<polyline fill="none" vector-effect="none" points="333,482.625 352.85,482.625 " />
<polyline fill="none" vector-effect="none" points="2298.15,482.625 2318,482.625 " />
<polyline fill="none" vector-effect="none" points="333,353.75 352.85,353.75 " />
<polyline fill="none" vector-effect="none" points="2298.15,353.75 2318,353.75 " />
<polyline fill="none" vector-effect="none" points="333,224.875 352.85,224.875 " />
<polyline fill="none" vector-effect="none" points="2298.15,224.875 2318,224.875 " />
<polyline fill="none" vector-effect="none" points="333,96 352.85,96 " />
<polyline fill="none" vector-effect="none" points="2298.15,96 2318,96 " />
</g>

<g fill="#212121" fill-opacity="1" stroke="#212121" stroke-opacity="1" stroke-width="1" stroke-linecap="square" stroke-linejoin="bevel" transform="matrix(0.5,0,0,0.5,90.5,574)"
font-family="Helvetica" font-size="60" font-weight="400" font-style="normal" 
>
<text fill="#212121" fill-opacity="1" stroke="none" xml:space="preserve" x="0" y="0" font-family="Helvetica" font-size="60" font-weight="400" font-style="normal" 
 >-0.25</text>
</g>

<g fill="#212121" fill-opacity="1" stroke="#212121" stroke-opacity="1" stroke-width="1" stroke-linecap="square" stroke-linejoin="bevel" transform="matrix(0.5,0,0,0.5,107,509.563)"
font-family="Helvetica" font-size="60" font-weight="400" font-style="normal" 
>
<text fill="#212121" fill-opacity="1" stroke="none" xml:space="preserve" x="0" y="0" font-family="Helvetica" font-size="60" font-weight="400" font-style="normal" 
 >-0.2</text>
</g>

<g fill="#212121" fill-opacity="1" stroke="#212121" stroke-opacity="1" stroke-width="1" stroke-linecap="square" stroke-linejoin="bevel" transform="matrix(0.5,0,0,0.5,90.5,445.125)"
font-family="Helvetica" font-size="60" font-weight="400" font-style="normal" 
>
<text fill="#212121" fill-opacity="1" stroke="none" xml:space="preserve" x="0" y="0" font-family="Helvetica" font-size="60" font-weight="400" font-style="normal" 
 >-0.15</text>
</g>

<g fill="#212121" fill-opacity="1" stroke="#212121" stroke-opacity="1" stroke-width="1" stroke-linecap="square" stroke-linejoin="bevel" transform="matrix(0.5,0,0,0.5,107,380.688)"
font-family="Helvetica" font-size="60" font-weight="400" font-style="normal" 
>
<text fill="#212121" fill-opacity="1" stroke="none" xml:space="preserve" x="0" y="0" font-family="Helvetica" font-size="60" font-weight="400" font-style="normal" 
 >-0.1</text>
</g>

<g fill="#212121" fill-opacity="1" stroke="#212121" stroke-opacity="1" stroke-width="1" stroke-linecap="square" stroke-linejoin="bevel" transform="matrix(0.5,0,0,0.5,90.5,316.25)"
font-family="Helvetica" font-size="60" font-weight="400" font-style="normal" 
>
<text fill="#212121" fill-opacity="1" stroke="none" xml:space="preserve" x="0" y="0" font-family="Helvetica" font-size="60" font-weight="400" font-style="normal" 
 >-0.05</text>
</g>

<g fill="#212121" fill-opacity="1" stroke="#212121" stroke-opacity="1" stroke-width="1" stroke-linecap="square" stroke-linejoin="bevel" transform="matrix(0.5,0,0,0.5,142,251.813)"
font-family="Helvetica" font-size="60" font-weight="400" font-style="normal" 
>
<text fill="#212121" fill-opacity="1" stroke="none" xml:space="preserve" x="0" y="0" font-family="Helvetica" font-size="60" font-weight="400" font-style="normal" 
 >0</text>
</g>

<g fill="#212121" fill-opacity="1" stroke="#212121" stroke-opacity="1" stroke-width="1" stroke-linecap="square" stroke-linejoin="bevel" transform="matrix(0.5,0,0,0.5,100.5,187.375)"
font-family="Helvetica" font-size="60" font-weight="400" font-style="normal" 
>
<text fill="#212121" fill-opacity="1" stroke="none" xml:space="preserve" x="0" y="0" font-family="Helvetica" font-size="60" font-weight="400" font-style="normal" 
 >0.05</text>
</g>

<g fill="#212121" fill-opacity="1" stroke="#212121" stroke-opacity="1" stroke-width="1" stroke-linecap="square" stroke-linejoin="bevel" transform="matrix(0.5,0,0,0.5,117,122.938)"
font-family="Helvetica" font-size="60" font-weight="400" font-style="normal" 
>
<text fill="#212121" fill-opacity="1" stroke="none" xml:space="preserve" x="0" y="0" font-family="Helvetica" font-size="60" font-weight="400" font-style="normal" 
 >0.1</text>
</g>

<g fill="#212121" fill-opacity="1" stroke="#212121" stroke-opacity="1" stroke-width="1" stroke-linecap="square" stroke-linejoin="bevel" transform="matrix(0.5,0,0,0.5,100.5,58.5)"
font-family="Helvetica" font-size="60" font-weight="400" font-style="normal" 
>
<text fill="#212121" fill-opacity="1" stroke="none" xml:space="preserve" x="0" y="0" font-family="Helvetica" font-size="60" font-weight="400" font-style="normal" 
 >0.15</text>
</g>

<g fill="#212121" fill-opacity="1" stroke="#212121" stroke-opacity="1" stroke-width="1" stroke-linecap="square" stroke-linejoin="bevel" transform="matrix(0.5,0,0,0.5,333,37.75)"
font-family="Helvetica" font-size="60" font-weight="700" font-style="normal" 
>
<text fill="#212121" fill-opacity="1" stroke="none" xml:space="preserve" x="0" y="0" font-family="Helvetica" font-size="60" font-weight="700" font-style="normal" 
 >Velocity of Quarter Car Model (Bump; Control)</text>
</g>

<g fill="none" stroke="#1171be" stroke-opacity="1" stroke-width="4" stroke-linecap="butt" stroke-linejoin="round" transform="matrix(0.5,0,0,0.5,0,0)"
font-family="Helvetica" font-size="60" font-weight="700" font-style="normal" 
>
<polyline fill="none" vector-effect="none" points="333,482.625 372.7,482.625 412.4,482.625 452.1,482.625 491.8,482.625 531.5,482.625 531.5,482.625 531.5,482.625 533.53,482.115 535.36,479.478 537.558,472.365 540.16,459.299 543.334,441.072 546.823,423.559 549.861,411.044 553.449,396.56 557.544,377.618 561.049,360.39 565.192,341.521 569.335,324.977 573.851,308.38 578.871,291.286 583.762,277.159 589.45,264.341 595.261,254.58 601.46,247.823 608.245,244.598 615.03,244.871 623.017,248.769 632.701,256.881 641.278,265.588 649.855,274.365 658.436,282.421 667.071,289.169 675.829,294.547 684.743,298.534 693.85,301.535 703.287,303.959 713.543,306.519 721.378,308.804 729.212,311.504 737.322,314.831 746.33,319.044 755.932,323.921 764.52,328.155 772.074,331.614 779.854,334.507 788.284,336.709 797.364,337.653 806.564,337.026 815.426,334.803 824.224,331.258 829.25,328.658 829.25,328.658 829.25,328.658 830.928,328.306 832.606,331.029 834.917,342.753 837.253,363.345 840.045,393.454 842.872,422.366 845.698,446.192 848.587,467.23 852.693,498.88 856.086,529.045 859.474,559.893 863.144,590.446 866.814,617.421 871.068,646.279 875.715,675.84 880.076,700.093 885.675,724.78 890.592,741.379 896.605,755.881 902.604,763.801 909.052,766.105 916.24,762.737 923.428,754.597 931.814,741.61 940.87,725.997 950.097,711.003 959.034,698.843 967.921,689.874 977.246,683.602 987.357,679.647 995.629,677.636 1003.9,675.702 1011.71,673.331 1019.72,669.72 1028.53,664.074 1037.99,655.927 1046.91,646.725 1054.95,637.53 1063.04,628.245 1071.59,618.997 1080.53,610.914 1089.68,605.02 1099,602.221 1108.82,603.027 1118.25,607.397 1122.99,610.841 1126.66,614.053 1129.55,615.836 1132.43,612.01 1135.19,602.145 1138.27,588.059 1141.47,575.169 1144.67,565.508 1148.13,556.237 1151.77,544.78 1155.42,531.733 1159.71,517.178 1164.3,504.288 1168.68,493.411 1174.2,480.748 1179.11,471.532 1185.1,463.433 1191.08,457.935 1197.51,454.797 1204.59,454.347 1211.68,456.084 1220.02,460.031 1229.17,465.192 1238.5,470.063 1247.35,473.253 1256.01,474.712 1265.06,474.291 1274.63,472.164 1285.45,468.532 1291.93,466.164 1298.42,464.022 1307.09,462.064 1315.53,461.345 1324.93,462.409 1334.8,465.62 1342.22,469.297 1349.64,473.869 1358.15,479.873 1370.99,489.448 1376.62,493.38 1382.26,496.883 1388.68,500.598 1395.1,503.516 1402.65,505.918 1414.01,507.317 1423.87,506.423 1430.04,504.853 1436.21,502.639 1444.73,498.929 1452.39,494.889 1460.82,490.221 1469.28,485.398 1478.23,480.617 1487.63,476.128 1498,472.15 1505.38,470.079 1512.77,468.631 1521.16,467.737 1533.12,467.755 1539.43,468.372 1545.73,469.349 1554.5,470.983 1562.2,472.863 1570.85,475.091 1579.33,477.484 1588.55,480.02 1598.31,482.615 1607.42,484.852 1614.56,486.355 1621.71,487.676 1630.29,488.986 1640.58,490.098 1648.37,490.568 1656.16,490.779 1664.69,490.672 1674.27,490.21 1683.65,489.343 1691.64,488.485 1699.23,487.423 1707.34,486.236 1716.06,484.824 1725.19,483.374 1734.27,481.913 1743.23,480.641 1752.46,479.445 1762.39,478.437 1771.41,477.811 1780.44,477.362 1787.8,477.313 1794.84,477.363 1802.75,477.621 1812.58,478.182 1821.16,478.888 1829.73,479.671 1838.1,480.578 1846.47,481.466 1855.09,482.434 1863.95,483.323 1872.92,484.19 1881.97,484.875 1891.29,485.467 1901.28,485.868 1910.24,486.005 1919.19,486.063 1926.54,485.877 1933.62,485.672 1941.59,485.329 1951.46,484.799 1959.89,484.241 1968.33,483.697 1976.79,483.087 1985.38,482.54 1994.11,481.967 2002.92,481.514 2011.82,481.079 2020.88,480.796 2030.29,480.57 2040.49,480.476 2048.51,480.531 2056.54,480.623 2064.53,480.812 2073.05,481.056 2082.25,481.414 2091.27,481.739 2099.48,482.133 2107.48,482.441 2115.89,482.814 2124.76,483.12 2133.85,483.445 2143,483.656 2152.37,483.852 2162.53,483.963 2170.67,483.957 2178.82,483.944 2186.72,483.847 2194.98,483.729 2203.98,483.527 2213.24,483.339 2221.8,483.069 2229.83,482.89 2238.13,482.637 2246.86,482.444 2255.9,482.21 2265.09,482.063 2274.52,481.904 2284.76,481.798 2292.62,481.788 2300.49,481.776 2308.59,481.812 2318,481.869 " />
</g>

<g fill="none" stroke="#dd5400" stroke-opacity="1" stroke-width="4" stroke-linecap="butt" stroke-linejoin="round" transform="matrix(0.5,0,0,0.5,0,0)"
font-family="Helvetica" font-size="60" font-weight="700" font-style="normal" 
>
<polyline fill="none" vector-effect="none" points="333,482.625 372.7,482.625 412.4,482.625 452.1,482.625 491.8,482.625 531.5,482.625 531.5,482.625 531.5,482.625 533.53,482.623 535.36,482.597 537.558,482.47 540.16,482.054 543.334,480.971 546.823,478.917 549.861,476.366 553.449,472.402 557.544,466.474 561.049,460.065 565.192,450.798 569.335,439.7 573.851,425.567 578.871,407.456 583.762,387.567 589.45,362.068 595.261,334.003 601.46,302.66 608.245,267.898 615.03,234.043 623.017,197.257 632.701,159.959 641.278,135.911 649.855,121.818 658.436,118.354 667.071,125.51 675.829,142.807 684.743,169.216 693.85,203.142 703.287,242.903 713.543,287.899 721.378,321.261 729.212,352.113 737.322,380.096 746.33,405.235 755.932,424.175 764.52,433.891 772.074,436.871 779.854,434.82 788.284,427.329 797.364,414.086 806.564,396.416 815.426,376.612 824.224,355.454 829.25,343.137 829.25,343.137 829.25,343.137 830.928,339.034 832.606,334.975 834.917,329.589 837.253,324.616 840.045,319.615 842.872,315.831 845.698,313.435 848.587,312.467 852.693,313.858 856.086,317.759 859.474,324.404 863.144,334.846 866.814,348.682 871.068,368.924 875.715,396.095 880.076,426.176 885.675,470.65 890.592,514.32 896.605,572.254 902.604,633.287 909.052,700.169 916.24,773.248 923.428,841.418 931.814,910.551 940.87,968.146 950.097,1004.97 959.034,1017.86 967.921,1008.57 977.246,977.047 987.357,921.86 995.629,864.591 1003.9,800.478 1011.71,737.186 1019.72,672.751 1028.53,606.182 1037.99,543.415 1046.91,495.27 1054.95,462.451 1063.04,440.278 1071.59,428.633 1080.53,428.768 1089.68,440.629 1099,462.981 1108.82,495.32 1118.25,532.161 1122.99,552.054 1126.66,567.822 1129.55,580.303 1132.43,592.726 1135.19,604.315 1138.27,616.649 1141.47,628.536 1144.67,639.381 1148.13,649.799 1151.77,659.18 1155.42,666.662 1159.71,672.801 1164.3,675.989 1168.68,675.724 1174.2,670.758 1179.11,662.059 1185.1,646.388 1191.08,625.766 1197.51,598.988 1204.59,565.329 1211.68,529.024 1220.02,485.295 1229.17,439.433 1238.5,398.199 1247.35,366.765 1256.01,344.805 1265.06,331.926 1274.63,329.466 1285.45,339.291 1291.93,350.652 1298.42,365.308 1307.09,388.818 1315.53,414.366 1324.93,444.036 1334.8,474.395 1342.22,495.545 1349.64,514.526 1358.15,533.031 1370.99,553.38 1376.62,559.312 1382.26,563.416 1388.68,565.936 1395.1,566.282 1402.65,564.116 1414.01,556.299 1423.87,545.884 1430.04,538.073 1436.21,529.504 1444.73,516.812 1452.39,504.969 1460.82,491.926 1469.28,479.284 1478.23,466.87 1487.63,455.399 1498,445.115 1505.38,439.537 1512.77,435.548 1521.16,433.012 1533.12,433.063 1539.43,434.744 1545.73,437.484 1554.5,442.864 1562.2,448.853 1570.85,456.665 1579.33,465.062 1588.55,474.544 1598.31,484.439 1607.42,493.049 1614.56,499.115 1621.71,504.384 1630.29,509.474 1640.58,513.606 1648.37,515.222 1656.16,515.537 1664.69,514.462 1674.27,511.644 1683.65,507.496 1691.64,503.108 1699.23,498.429 1707.34,493.098 1716.06,487.247 1725.19,481.292 1734.27,475.821 1743.23,471.105 1752.46,467.153 1762.39,464.086 1771.41,462.436 1780.44,461.884 1787.8,462.212 1794.84,463.137 1802.75,464.808 1812.58,467.674 1821.16,470.717 1829.73,474.099 1838.1,477.555 1846.47,481.023 1855.09,484.442 1863.95,487.656 1872.92,490.461 1881.97,492.732 1891.29,494.405 1901.28,495.4 1910.24,495.593 1919.19,495.15 1926.54,494.362 1933.62,493.275 1941.59,491.739 1951.46,489.481 1959.89,487.357 1968.33,485.154 1976.79,482.967 1985.38,480.862 1994.11,478.933 2002.92,477.274 2011.82,475.956 2020.88,475.021 2030.29,474.508 2040.49,474.476 2048.51,474.806 2056.54,475.424 2064.53,476.28 2073.05,477.409 2082.25,478.802 2091.27,480.273 2099.48,481.631 2107.48,482.919 2115.89,484.182 2124.76,485.36 2133.85,486.358 2143,487.111 2152.37,487.601 2162.53,487.798 2170.67,487.718 2178.82,487.437 2186.72,486.999 2194.98,486.389 2203.98,485.593 2213.24,484.676 2221.8,483.787 2229.83,482.953 2238.13,482.13 2246.86,481.337 2255.9,480.63 2265.09,480.057 2274.52,479.642 2284.76,479.404 2292.62,479.366 2300.49,479.455 2308.59,479.661 2318,480.035 " />
</g>

<g fill="none" stroke="#edb120" stroke-opacity="1" stroke-width="4" stroke-linecap="butt" stroke-linejoin="round" transform="matrix(0.5,0,0,0.5,0,0)"
font-family="Helvetica" font-size="60" font-weight="700" font-style="normal" 
>
<polyline fill="none" vector-effect="none" points="333,482.625 372.7,482.625 412.4,482.625 452.1,482.625 491.8,482.625 531.5,482.625 531.5,482.625 531.5,482.625 533.53,447.476 535.36,377.591 537.558,292.261 540.16,240.028 543.334,262.703 546.823,327.566 549.861,352.032 553.449,330.013 557.544,295.249 561.049,293.696 565.192,310.88 569.335,316.078 573.851,306.173 578.871,301.464 583.762,305.862 589.45,306.157 595.261,303.672 601.46,305.039 608.245,305.518 615.03,305.685 623.017,306.898 632.701,307.527 641.278,308.617 649.855,309.083 658.436,309.635 667.071,310.002 675.829,310.072 684.743,310.468 693.85,310.158 703.287,310.91 713.543,310.143 721.378,311.444 729.212,310.903 737.322,311.855 746.33,311.744 755.932,312.516 764.52,312.655 772.074,312.989 779.854,312.917 788.284,313.095 797.364,312.931 806.564,312.554 815.426,312.485 824.224,311.621 829.25,311.412 829.25,311.412 829.25,311.412 830.928,360.957 832.606,479.845 834.917,665.534 837.253,783.263 840.045,781.733 842.872,681.941 845.698,591.748 848.587,575.017 852.693,645.911 856.086,690.604 859.474,683.15 863.144,651.82 866.814,642.014 871.068,659.672 875.715,672.094 880.076,665.489 885.675,660.573 890.592,665.55 896.605,665.871 902.604,663.04 909.052,663.513 916.24,661.961 923.428,660.595 931.814,659.334 940.87,658.009 950.097,656.876 959.034,656.697 967.921,655.84 977.246,656.524 987.357,655.322 995.629,656.555 1003.9,655.414 1011.71,655.869 1019.72,654.826 1028.53,654.596 1037.99,653.436 1046.91,652.582 1054.95,651.882 1063.04,651.112 1071.59,650.615 1080.53,649.998 1089.68,650.299 1099,649.824 1108.82,651.352 1118.25,650.92 1122.99,652.463 1126.66,652.722 1129.55,599.738 1132.43,484.563 1135.19,415.09 1138.27,424.774 1141.47,484.646 1144.67,522.256 1148.13,510.053 1151.77,475.614 1155.42,464.161 1159.71,480.277 1164.3,490.177 1168.68,481.786 1174.2,475.852 1179.11,480.498 1185.1,480.949 1191.08,478.732 1197.51,480.386 1204.59,480.506 1211.68,480.828 1220.02,481.58 1229.17,481.937 1238.5,482.079 1247.35,482.485 1256.01,481.861 1265.06,482.227 1274.63,480.967 1285.45,482.094 1291.93,480.013 1298.42,481.258 1307.09,480.337 1315.53,481.397 1324.93,480.632 1334.8,482.625 1342.22,481.537 1349.64,483.14 1358.15,482.834 1370.99,485.922 1376.62,482.333 1382.26,484.57 1388.68,485.148 1395.1,484.248 1402.65,485.034 1414.01,483.518 1423.87,485.41 1430.04,482.823 1436.21,484.165 1444.73,482.869 1452.39,483.209 1460.82,482.306 1469.28,482.465 1478.23,481.528 1487.63,482.109 1498,480.606 1505.38,482.021 1512.77,480.899 1521.16,481.774 1533.12,480.29 1539.43,482.821 1545.73,481.353 1554.5,482.538 1562.2,481.827 1570.85,482.732 1579.33,482.174 1588.55,483.244 1598.31,482.201 1607.42,483.667 1614.56,482.6 1621.71,483.584 1630.29,482.936 1640.58,483.837 1648.37,482.878 1656.16,483.587 1664.69,482.964 1674.27,483.335 1683.65,483.04 1691.64,482.952 1699.23,482.753 1707.34,482.791 1716.06,482.611 1725.19,482.398 1734.27,482.611 1743.23,482.008 1752.46,482.668 1762.39,481.538 1771.41,482.738 1780.44,481.847 1787.8,482.609 1794.84,481.882 1802.75,482.547 1812.58,482.034 1821.16,482.666 1829.73,482.366 1838.1,482.672 1846.47,482.624 1855.09,482.711 1863.95,482.895 1872.92,482.652 1881.97,483.175 1891.29,482.48 1901.28,483.581 1910.24,482.354 1919.19,483.21 1926.54,482.456 1933.62,483.164 1941.59,482.523 1951.46,483.039 1959.89,482.451 1968.33,482.78 1976.79,482.497 1985.38,482.566 1994.11,482.556 2002.92,482.354 2011.82,482.667 2020.88,482.142 2030.29,482.9 2040.49,481.72 2048.51,483.032 2056.54,482.062 2064.53,482.838 2073.05,482.287 2082.25,482.75 2091.27,482.568 2099.48,482.644 2107.48,482.642 2115.89,482.666 2124.76,482.798 2133.85,482.524 2143,483.044 2152.37,482.285 2162.53,483.467 2170.67,482.172 2178.82,483.143 2186.72,482.38 2194.98,482.939 2203.98,482.486 2213.24,482.708 2221.8,482.659 2229.83,482.598 2238.13,482.632 2246.86,482.486 2255.9,482.763 2265.09,482.25 2274.52,483.014 2284.76,481.804 2292.62,483.132 2300.49,482.127 2308.59,482.899 2318,482.273 " />
</g>

<g fill="#ffffff" fill-opacity="1" stroke="none" transform="matrix(5e-05,0,0,5e-05,0,0)"
font-family="Helvetica" font-size="60" font-weight="700" font-style="normal" 
>
<path vector-effect="none" fill-rule="evenodd" d="M2.012e+07,1.12e+06 L2.012e+07,3.2e+06 L2.302e+07,3.2e+06 L2.302e+07,1.12e+06 L2.012e+07,1.12e+06"/>
</g>

<g fill="#1171be" fill-opacity="1" stroke="#1171be" stroke-opacity="1" stroke-width="4" stroke-linecap="butt" stroke-linejoin="round" transform="matrix(0.5,0,0,0.5,0,0)"
font-family="Helvetica" font-size="60" font-weight="700" font-style="normal" 
>
<polyline fill="none" vector-effect="none" points="2017.99,148.412 2077.89,148.412 " />
</g>

<g fill="#dd5400" fill-opacity="1" stroke="#dd5400" stroke-opacity="1" stroke-width="4" stroke-linecap="butt" stroke-linejoin="round" transform="matrix(0.5,0,0,0.5,0,0)"
font-family="Helvetica" font-size="60" font-weight="700" font-style="normal" 
>
<polyline fill="none" vector-effect="none" points="2017.99,216 2077.89,216 " />
</g>

<g fill="#edb120" fill-opacity="1" stroke="#edb120" stroke-opacity="1" stroke-width="4" stroke-linecap="butt" stroke-linejoin="round" transform="matrix(0.5,0,0,0.5,0,0)"
font-family="Helvetica" font-size="60" font-weight="700" font-style="normal" 
>
<polyline fill="none" vector-effect="none" points="2017.99,283.588 2077.89,283.588 " />
</g>

<g fill="#212121" fill-opacity="1" stroke="#212121" stroke-opacity="1" stroke-width="1" stroke-linecap="square" stroke-linejoin="bevel" transform="matrix(0.5,0,0,0.5,1041.19,84.7062)"
font-family="Helvetica" font-size="60" font-weight="400" font-style="normal" 
>
<text fill="#212121" fill-opacity="1" stroke="none" xml:space="preserve" x="0" y="0" font-family="Helvetica" font-size="60" font-weight="400" font-style="normal" 
 >Chassis</text>
</g>

<g fill="#212121" fill-opacity="1" stroke="#212121" stroke-opacity="1" stroke-width="1" stroke-linecap="square" stroke-linejoin="bevel" transform="matrix(0.5,0,0,0.5,1041.19,118.5)"
font-family="Helvetica" font-size="60" font-weight="400" font-style="normal" 
>
<text fill="#212121" fill-opacity="1" stroke="none" xml:space="preserve" x="0" y="0" font-family="Helvetica" font-size="60" font-weight="400" font-style="normal" 
 >Seat</text>
</g>

<g fill="#212121" fill-opacity="1" stroke="#212121" stroke-opacity="1" stroke-width="1" stroke-linecap="square" stroke-linejoin="bevel" transform="matrix(0.5,0,0,0.5,1041.19,152.294)"
font-family="Helvetica" font-size="60" font-weight="400" font-style="normal" 
>
<text fill="#212121" fill-opacity="1" stroke="none" xml:space="preserve" x="0" y="0" font-family="Helvetica" font-size="60" font-weight="400" font-style="normal" 
 >Wheel</text>
</g>

<g fill="none" stroke="#212121" stroke-opacity="1" stroke-width="1" stroke-linecap="butt" stroke-linejoin="miter" stroke-miterlimit="2" transform="matrix(0.5,0,0,0.5,0,0)"
font-family="Helvetica" font-size="60" font-weight="400" font-style="normal" 
>
<path vector-effect="none" fill-rule="evenodd" d="M2012,320 L2012,112 L2302,112 L2302,320 L2012,320"/>
</g>
</g>
</svg>
