<?xml version="1.0" encoding="UTF-8" standalone="no"?>
<svg width="451.908mm" height="225.778mm"
 viewBox="0 0 1281 640"
 xmlns="http://www.w3.org/2000/svg" xmlns:xlink="http://www.w3.org/1999/xlink"  version="1.2" baseProfile="tiny">
<title>Qt SVG Document</title>
<desc>MATLAB, The MathWorks, Inc. Version 25.2.0.2998904 R2025b</desc>
<defs>
</defs>
<g fill="none" stroke="black" stroke-width="1" fill-rule="evenodd" stroke-linecap="square" stroke-linejoin="bevel" >

<g fill="#ffffff" fill-opacity="1" stroke="none" transform="matrix(0.5,0,0,0.5,0,0)"
font-family="MS Shell Dlg 2" font-size="8" font-weight="400" font-style="normal" 
>
<path vector-effect="none" fill-rule="evenodd" d="M0,0 L2562,0 L2562,1281 L0,1281 L0,0"/>
</g>

<g fill="#ffffff" fill-opacity="1" stroke="none" transform="matrix(5e-05,0,0,5e-05,0,0)"
font-family="MS Shell Dlg 2" font-size="8" font-weight="400" font-style="normal" 
>
<path vector-effect="none" fill-rule="evenodd" d="M3.33e+06,960000 L3.33e+06,1.127e+07 L2.318e+07,1.127e+07 L2.318e+07,960000 L3.33e+06,960000"/>
</g>

<g fill="#212121" fill-opacity="0.14902" stroke="#212121" stroke-opacity="0.14902" stroke-width="1" stroke-linecap="butt" stroke-linejoin="round" transform="matrix(0.5,0,0,0.5,0,0)"
font-family="MS Shell Dlg 2" font-size="8" font-weight="400" font-style="normal" 
>
<polyline fill="none" vector-effect="none" points="333,96 333,1127 " />
<polyline fill="none" vector-effect="none" points="730,96 730,1127 " />
<polyline fill="none" vector-effect="none" points="1127,96 1127,1127 " />
<polyline fill="none" vector-effect="none" points="1524,96 1524,1127 " />
<polyline fill="none" vector-effect="none" points="1921,96 1921,1127 " />
<polyline fill="none" vector-effect="none" points="2318,96 2318,1127 " />
<polyline fill="none" vector-effect="none" points="333,1125.4 2318,1125.4 " />
<polyline fill="none" vector-effect="none" points="333,868.048 2318,868.048 " />
<polyline fill="none" vector-effect="none" points="333,610.699 2318,610.699 " />
<polyline fill="none" vector-effect="none" points="333,353.349 2318,353.349 " />
<polyline fill="none" vector-effect="none" points="333,96 2318,96 " />
</g>

<g fill="#212121" fill-opacity="1" stroke="#212121" stroke-opacity="1" stroke-width="1" stroke-linecap="square" stroke-linejoin="bevel" transform="matrix(0.5,0,0,0.5,608.25,633.5)"
font-family="Helvetica" font-size="60" font-weight="400" font-style="normal" 
>
<text fill="#212121" fill-opacity="1" stroke="none" xml:space="preserve" x="0" y="0" font-family="Helvetica" font-size="60" font-weight="400" font-style="normal" 
 >Time (s)</text>
</g>

<g fill="#212121" fill-opacity="1" stroke="#212121" stroke-opacity="1" stroke-width="1" stroke-linecap="square" stroke-linejoin="round" transform="matrix(0.5,0,0,0.5,0,0)"
font-family="Helvetica" font-size="60" font-weight="400" font-style="normal" 
>
<polyline fill="none" vector-effect="none" points="333,1127 2318,1127 " />
<polyline fill="none" vector-effect="none" points="333,96 2318,96 " />
<polyline fill="none" vector-effect="none" points="333,1127 333,1107.15 " />
<polyline fill="none" vector-effect="none" points="333,115.85 333,96 " />
<polyline fill="none" vector-effect="none" points="730,1127 730,1107.15 " />
<polyline fill="none" vector-effect="none" points="730,115.85 730,96 " />
<polyline fill="none" vector-effect="none" points="1127,1127 1127,1107.15 " />
<polyline fill="none" vector-effect="none" points="1127,115.85 1127,96 " />
<polyline fill="none" vector-effect="none" points="1524,1127 1524,1107.15 " />
<polyline fill="none" vector-effect="none" points="1524,115.85 1524,96 " />
<polyline fill="none" vector-effect="none" points="1921,1127 1921,1107.15 " />
<polyline fill="none" vector-effect="none" points="1921,115.85 1921,96 " />
<polyline fill="none" vector-effect="none" points="2318,1127 2318,1107.15 " />
<polyline fill="none" vector-effect="none" points="2318,115.85 2318,96 " />
</g>

<g fill="#212121" fill-opacity="1" stroke="#212121" stroke-opacity="1" stroke-width="1" stroke-linecap="square" stroke-linejoin="bevel" transform="matrix(0.5,0,0,0.5,158.25,599)"
font-family="Helvetica" font-size="60" font-weight="400" font-style="normal" 
>
<text fill="#212121" fill-opacity="1" stroke="none" xml:space="preserve" x="0" y="0" font-family="Helvetica" font-size="60" font-weight="400" font-style="normal" 
 >0</text>
</g>

<g fill="#212121" fill-opacity="1" stroke="#212121" stroke-opacity="1" stroke-width="1" stroke-linecap="square" stroke-linejoin="bevel" transform="matrix(0.5,0,0,0.5,356.75,599)"
font-family="Helvetica" font-size="60" font-weight="400" font-style="normal" 
>
<text fill="#212121" fill-opacity="1" stroke="none" xml:space="preserve" x="0" y="0" font-family="Helvetica" font-size="60" font-weight="400" font-style="normal" 
 >2</text>
</g>

<g fill="#212121" fill-opacity="1" stroke="#212121" stroke-opacity="1" stroke-width="1" stroke-linecap="square" stroke-linejoin="bevel" transform="matrix(0.5,0,0,0.5,555.25,599)"
font-family="Helvetica" font-size="60" font-weight="400" font-style="normal" 
>
<text fill="#212121" fill-opacity="1" stroke="none" xml:space="preserve" x="0" y="0" font-family="Helvetica" font-size="60" font-weight="400" font-style="normal" 
 >4</text>
</g>

<g fill="#212121" fill-opacity="1" stroke="#212121" stroke-opacity="1" stroke-width="1" stroke-linecap="square" stroke-linejoin="bevel" transform="matrix(0.5,0,0,0.5,753.75,599)"
font-family="Helvetica" font-size="60" font-weight="400" font-style="normal" 
>
<text fill="#212121" fill-opacity="1" stroke="none" xml:space="preserve" x="0" y="0" font-family="Helvetica" font-size="60" font-weight="400" font-style="normal" 
 >6</text>
</g>

<g fill="#212121" fill-opacity="1" stroke="#212121" stroke-opacity="1" stroke-width="1" stroke-linecap="square" stroke-linejoin="bevel" transform="matrix(0.5,0,0,0.5,952.25,599)"
font-family="Helvetica" font-size="60" font-weight="400" font-style="normal" 
>
<text fill="#212121" fill-opacity="1" stroke="none" xml:space="preserve" x="0" y="0" font-family="Helvetica" font-size="60" font-weight="400" font-style="normal" 
 >8</text>
</g>

<g fill="#212121" fill-opacity="1" stroke="#212121" stroke-opacity="1" stroke-width="1" stroke-linecap="square" stroke-linejoin="bevel" transform="matrix(0.5,0,0,0.5,1142.5,599)"
font-family="Helvetica" font-size="60" font-weight="400" font-style="normal" 
>
<text fill="#212121" fill-opacity="1" stroke="none" xml:space="preserve" x="0" y="0" font-family="Helvetica" font-size="60" font-weight="400" font-style="normal" 
 >10</text>
</g>

<g fill="#212121" fill-opacity="1" stroke="#212121" stroke-opacity="1" stroke-width="1" stroke-linecap="square" stroke-linejoin="bevel" transform="matrix(0,-0.5,0.5,0,80.5,395.75)"
font-family="Helvetica" font-size="60" font-weight="400" font-style="normal" 
>
<text fill="#212121" fill-opacity="1" stroke="none" xml:space="preserve" x="0" y="0" font-family="Helvetica" font-size="60" font-weight="400" font-style="normal" 
 >Velocity (m/s)</text>
</g>

<g fill="#212121" fill-opacity="1" stroke="#212121" stroke-opacity="1" stroke-width="1" stroke-linecap="square" stroke-linejoin="round" transform="matrix(0.5,0,0,0.5,0,0)"
font-family="Helvetica" font-size="60" font-weight="400" font-style="normal" 
>
<polyline fill="none" vector-effect="none" points="333,1127 333,96 " />
<polyline fill="none" vector-effect="none" points="2318,1127 2318,96 " />
<polyline fill="none" vector-effect="none" points="333,1125.4 352.85,1125.4 " />
<polyline fill="none" vector-effect="none" points="2298.15,1125.4 2318,1125.4 " />
<polyline fill="none" vector-effect="none" points="333,868.048 352.85,868.048 " />
<polyline fill="none" vector-effect="none" points="2298.15,868.048 2318,868.048 " />
<polyline fill="none" vector-effect="none" points="333,610.699 352.85,610.699 " />
<polyline fill="none" vector-effect="none" points="2298.15,610.699 2318,610.699 " />
<polyline fill="none" vector-effect="none" points="333,353.349 352.85,353.349 " />
<polyline fill="none" vector-effect="none" points="2298.15,353.349 2318,353.349 " />
<polyline fill="none" vector-effect="none" points="333,96 352.85,96 " />
<polyline fill="none" vector-effect="none" points="2298.15,96 2318,96 " />
</g>

<g fill="#212121" fill-opacity="1" stroke="#212121" stroke-opacity="1" stroke-width="1" stroke-linecap="square" stroke-linejoin="bevel" transform="matrix(0.5,0,0,0.5,107,573.199)"
font-family="Helvetica" font-size="60" font-weight="400" font-style="normal" 
>
<text fill="#212121" fill-opacity="1" stroke="none" xml:space="preserve" x="0" y="0" font-family="Helvetica" font-size="60" font-weight="400" font-style="normal" 
 >-0.1</text>
</g>

<g fill="#212121" fill-opacity="1" stroke="#212121" stroke-opacity="1" stroke-width="1" stroke-linecap="square" stroke-linejoin="bevel" transform="matrix(0.5,0,0,0.5,90.5,444.524)"
font-family="Helvetica" font-size="60" font-weight="400" font-style="normal" 
>
<text fill="#212121" fill-opacity="1" stroke="none" xml:space="preserve" x="0" y="0" font-family="Helvetica" font-size="60" font-weight="400" font-style="normal" 
 >-0.05</text>
</g>

<g fill="#212121" fill-opacity="1" stroke="#212121" stroke-opacity="1" stroke-width="1" stroke-linecap="square" stroke-linejoin="bevel" transform="matrix(0.5,0,0,0.5,142,315.849)"
font-family="Helvetica" font-size="60" font-weight="400" font-style="normal" 
>
<text fill="#212121" fill-opacity="1" stroke="none" xml:space="preserve" x="0" y="0" font-family="Helvetica" font-size="60" font-weight="400" font-style="normal" 
 >0</text>
</g>

<g fill="#212121" fill-opacity="1" stroke="#212121" stroke-opacity="1" stroke-width="1" stroke-linecap="square" stroke-linejoin="bevel" transform="matrix(0.5,0,0,0.5,100.5,187.175)"
font-family="Helvetica" font-size="60" font-weight="400" font-style="normal" 
>
<text fill="#212121" fill-opacity="1" stroke="none" xml:space="preserve" x="0" y="0" font-family="Helvetica" font-size="60" font-weight="400" font-style="normal" 
 >0.05</text>
</g>

<g fill="#212121" fill-opacity="1" stroke="#212121" stroke-opacity="1" stroke-width="1" stroke-linecap="square" stroke-linejoin="bevel" transform="matrix(0.5,0,0,0.5,117,58.5)"
font-family="Helvetica" font-size="60" font-weight="400" font-style="normal" 
>
<text fill="#212121" fill-opacity="1" stroke="none" xml:space="preserve" x="0" y="0" font-family="Helvetica" font-size="60" font-weight="400" font-style="normal" 
 >0.1</text>
</g>

<g fill="#212121" fill-opacity="1" stroke="#212121" stroke-opacity="1" stroke-width="1" stroke-linecap="square" stroke-linejoin="bevel" transform="matrix(0.5,0,0,0.5,342.25,37.75)"
font-family="Helvetica" font-size="60" font-weight="700" font-style="normal" 
>
<text fill="#212121" fill-opacity="1" stroke="none" xml:space="preserve" x="0" y="0" font-family="Helvetica" font-size="60" font-weight="700" font-style="normal" 
 >Velocity of Quarter Car Model (Bump; Tuned)</text>
</g>

<g fill="none" stroke="#1171be" stroke-opacity="1" stroke-width="4" stroke-linecap="butt" stroke-linejoin="round" transform="matrix(0.5,0,0,0.5,0,0)"
font-family="Helvetica" font-size="60" font-weight="700" font-style="normal" 
>
<polyline fill="none" vector-effect="none" points="333,610.699 372.7,610.699 412.4,610.699 452.1,610.699 491.8,610.699 531.5,610.699 531.5,610.699 531.5,610.699 533.726,609.466 535.953,602.581 538.453,586.12 541.574,555.211 545.406,510.52 549.951,460.928 554.787,419.87 560.803,384.221 568.507,352.684 575.646,330.639 585.57,307.761 596.875,289.796 610.187,275.474 634.758,259.453 645.167,255.377 655.576,252.13 669.978,248.771 689.282,245.954 701.442,244.779 713.601,244.065 729.83,243.643 752.842,243.695 765.942,244.053 779.043,244.586 792.107,245.214 806.209,245.958 822.432,246.875 829.25,247.322 829.25,247.322 829.25,247.322 832.764,256.182 835.875,291.525 840.507,385.898 844.881,488.206 849.025,573.1 853.723,646.825 859.908,714.905 866.842,769.626 873.511,810.745 883.309,856.438 893.454,889.903 905.864,918.632 923.82,946.123 937.686,960.334 951.553,970.631 967.341,979.003 984.547,985.189 1000.25,988.838 1013.72,990.811 1027.69,992.028 1045.66,992.514 1058.24,992.497 1070.81,992.133 1084.73,991.406 1101.88,990.189 1120.33,988.612 1127.08,988.086 1130.57,983.098 1134.07,961.752 1139.43,904.085 1144.56,845.684 1149.38,801.863 1155.26,764.105 1163.73,727.408 1171.07,703.867 1180.94,680.066 1192.91,659.973 1206.45,644.351 1228.29,627.985 1241.99,621.107 1255.68,615.893 1269.43,611.884 1283.84,608.671 1299.37,606.085 1315.27,604.173 1330.15,602.928 1344.08,602.134 1358.8,601.58 1376.76,601.273 1391.03,601.188 1405.3,601.216 1418.97,601.306 1432.11,601.453 1446.11,601.689 1462.28,602.027 1479.54,602.44 1494.8,602.79 1507.88,603.075 1521.98,603.418 1540.88,603.752 1552.97,604.143 1565.07,604.476 1579.11,604.805 1598.08,605.227 1612.96,605.557 1627.84,605.873 1645.96,606.372 1657.92,606.472 1669.87,606.617 1683.18,606.828 1701.53,607.108 1717.86,607.322 1734.19,607.482 1750.96,607.492 1761.61,607.836 1772.26,608.056 1785.12,608.194 1806.69,608.53 1818.3,608.54 1829.9,608.622 1846.33,608.757 1867.37,608.803 1880.56,608.952 1893.74,609.086 1906.99,609.196 1922.03,609.291 1939.42,609.377 1956.17,609.457 1970.01,609.574 1982.9,609.647 2000.28,609.788 2013.82,609.815 2027.37,609.843 2041.43,609.883 2056.79,609.939 2073.02,610.005 2088.35,610.046 2102.21,610.058 2116.27,610.083 2133.67,610.086 2149.01,610.078 2164.36,610.052 2178.08,610.126 2189.96,610.236 2202.46,610.279 2218.82,610.31 2241.03,610.436 2253.95,610.451 2266.87,610.425 2280.23,610.419 2294.87,610.433 2311.26,610.465 2318,610.434 " />
</g>

<g fill="none" stroke="#dd5400" stroke-opacity="1" stroke-width="4" stroke-linecap="butt" stroke-linejoin="round" transform="matrix(0.5,0,0,0.5,0,0)"
font-family="Helvetica" font-size="60" font-weight="700" font-style="normal" 
>
<polyline fill="none" vector-effect="none" points="333,610.699 372.7,610.699 412.4,610.699 452.1,610.699 491.8,610.699 531.5,610.699 531.5,610.699 531.5,610.699 533.726,610.682 535.953,610.466 538.453,609.555 541.574,606.741 545.406,600.099 549.951,587.828 554.787,570.905 560.803,546.84 568.507,514.385 575.646,484.437 585.57,444.676 596.875,403.553 610.187,361.814 634.758,303.072 645.167,284.379 655.576,268.803 669.978,251.606 689.282,234.99 701.442,227.549 713.601,221.96 729.83,216.839 752.842,213.08 765.942,212.262 779.043,212.183 792.107,212.681 806.209,213.713 822.432,215.368 829.25,216.182 829.25,216.182 829.25,216.182 832.764,216.813 835.875,218.951 840.507,228.867 844.881,247.703 849.025,273.152 853.723,308.145 859.908,359.352 866.842,418.934 873.511,475.825 883.309,555.775 893.454,631.591 905.864,712.949 923.82,808.651 937.686,866.574 951.553,912.716 967.341,953.357 984.547,986.041 1000.25,1007.55 1013.72,1020.99 1027.69,1031.03 1045.66,1039.38 1058.24,1042.8 1070.81,1044.67 1084.73,1045.32 1101.88,1044.53 1120.33,1042.23 1127.08,1041.13 1130.57,1040.4 1134.07,1038.64 1139.43,1031.17 1144.56,1017.62 1149.38,1000.34 1155.26,975.884 1163.73,938.367 1171.07,905.792 1180.94,863.84 1192.91,817.44 1206.45,771.962 1228.29,713.914 1241.99,685.876 1255.68,663.189 1269.43,644.922 1283.84,629.754 1299.37,617.12 1315.27,607.381 1330.15,600.58 1344.08,595.837 1358.8,592.179 1376.76,589.185 1391.03,587.72 1405.3,586.87 1418.97,586.51 1432.11,586.489 1446.11,586.737 1462.28,587.288 1479.54,588.105 1494.8,588.959 1507.88,589.748 1521.98,590.644 1540.88,591.898 1552.97,592.676 1565.07,593.464 1579.11,594.368 1598.08,595.55 1612.96,596.444 1627.84,597.304 1645.96,598.277 1657.92,598.929 1669.87,599.533 1683.18,600.171 1701.53,601.003 1717.86,601.696 1734.19,602.351 1750.96,602.995 1761.61,603.319 1772.26,603.67 1785.12,604.078 1806.69,604.7 1818.3,605.027 1829.9,605.326 1846.33,605.725 1867.37,606.211 1880.56,606.47 1893.74,606.72 1906.99,606.959 1922.03,607.215 1939.42,607.488 1956.17,607.725 1970.01,607.915 1982.9,608.085 2000.28,608.284 2013.82,608.441 2027.37,608.585 2041.43,608.723 2056.79,608.863 2073.02,609.002 2088.35,609.124 2102.21,609.225 2116.27,609.32 2133.67,609.439 2149.01,609.533 2164.36,609.62 2178.08,609.679 2189.96,609.727 2202.46,609.783 2218.82,609.851 2241.03,609.906 2253.95,609.972 2266.87,610.024 2280.23,610.068 2294.87,610.112 2311.26,610.157 2318,610.176 " />
</g>

<g fill="none" stroke="#edb120" stroke-opacity="1" stroke-width="4" stroke-linecap="butt" stroke-linejoin="round" transform="matrix(0.5,0,0,0.5,0,0)"
font-family="Helvetica" font-size="60" font-weight="700" font-style="normal" 
>
<polyline fill="none" vector-effect="none" points="333,610.699 372.7,610.699 412.4,610.699 452.1,610.699 491.8,610.699 531.5,610.699 531.5,610.699 531.5,610.699 533.726,567.27 535.953,473.659 538.453,359.789 541.574,250.494 545.406,187.804 549.951,187.459 554.787,217.604 560.803,245.343 568.507,254.478 575.646,255.445 585.57,258.484 596.875,261.52 610.187,263.483 634.758,265.204 645.167,266.052 655.576,266.055 669.978,266.373 689.282,266.593 701.442,266.749 713.601,266.962 729.83,267.075 752.842,266.286 765.942,267.195 779.043,267.465 792.107,267.515 806.209,267.544 822.432,267.656 829.25,267.161 829.25,267.161 829.25,267.161 832.764,456.329 835.875,740.939 840.507,1042.87 844.881,1127 849.025,1099.45 853.723,1039.43 859.908,991.783 866.842,979.783 873.511,978.126 883.309,972.023 893.454,966.337 905.864,962.438 923.82,959.248 937.686,957.856 951.553,956.931 967.341,956.095 984.547,955.181 1000.25,954.545 1013.72,954.681 1027.69,954.607 1045.66,954.228 1058.24,954.487 1070.81,954.341 1084.73,954.217 1101.88,954.253 1120.33,954.881 1127.08,952.44 1130.57,856.354 1134.07,698.274 1139.43,546.799 1144.56,526.953 1149.38,554.809 1155.26,585.238 1163.73,597.562 1171.07,598.666 1180.94,601.581 1192.91,604.71 1206.45,606.652 1228.29,607.906 1241.99,608.802 1255.68,609.323 1269.43,609.643 1283.84,609.893 1299.37,610.164 1315.27,610.471 1330.15,610.611 1344.08,610.553 1358.8,610.591 1376.76,611.028 1391.03,610.764 1405.3,610.584 1418.97,610.486 1432.11,610.518 1446.11,610.555 1462.28,610.483 1479.54,610.141 1494.8,610.038 1507.88,610.495 1521.98,610.612 1540.88,610.452 1552.97,610.893 1565.07,610.792 1579.11,610.765 1598.08,611.002 1612.96,610.966 1627.84,610.906 1645.96,611.237 1657.92,610.481 1669.87,610.603 1683.18,610.665 1701.53,610.524 1717.86,610.397 1734.19,610.236 1750.96,609.989 1761.61,611.237 1772.26,610.792 1785.12,610.709 1806.69,610.567 1818.3,610.536 1829.9,610.677 1846.33,610.658 1867.37,610.375 1880.56,610.782 1893.74,610.831 1906.99,610.79 1922.03,610.811 1939.42,611.044 1956.17,611.512 1970.01,611.137 1982.9,610.783 2000.28,610.833 2013.82,610.636 2027.37,610.599 2041.43,610.6 2056.79,610.547 2073.02,610.379 2088.35,610.272 2102.21,610.452 2116.27,610.562 2133.67,610.354 2149.01,610.407 2164.36,610.554 2178.08,610.849 2189.96,610.851 2202.46,610.749 2218.82,610.79 2241.03,611.886 2253.95,610.843 2266.87,610.615 2280.23,610.612 2294.87,610.597 2311.26,610.465 2318,610.641 " />
</g>

<g fill="#ffffff" fill-opacity="1" stroke="none" transform="matrix(5e-05,0,0,5e-05,0,0)"
font-family="Helvetica" font-size="60" font-weight="700" font-style="normal" 
>
<path vector-effect="none" fill-rule="evenodd" d="M2.012e+07,1.12e+06 L2.012e+07,3.2e+06 L2.302e+07,3.2e+06 L2.302e+07,1.12e+06 L2.012e+07,1.12e+06"/>
</g>

<g fill="#1171be" fill-opacity="1" stroke="#1171be" stroke-opacity="1" stroke-width="4" stroke-linecap="butt" stroke-linejoin="round" transform="matrix(0.5,0,0,0.5,0,0)"
font-family="Helvetica" font-size="60" font-weight="700" font-style="normal" 
>
<polyline fill="none" vector-effect="none" points="2017.99,148.412 2077.89,148.412 " />
</g>

<g fill="#dd5400" fill-opacity="1" stroke="#dd5400" stroke-opacity="1" stroke-width="4" stroke-linecap="butt" stroke-linejoin="round" transform="matrix(0.5,0,0,0.5,0,0)"
font-family="Helvetica" font-size="60" font-weight="700" font-style="normal" 
>
<polyline fill="none" vector-effect="none" points="2017.99,216 2077.89,216 " />
</g>

<g fill="#edb120" fill-opacity="1" stroke="#edb120" stroke-opacity="1" stroke-width="4" stroke-linecap="butt" stroke-linejoin="round" transform="matrix(0.5,0,0,0.5,0,0)"
font-family="Helvetica" font-size="60" font-weight="700" font-style="normal" 
>
<polyline fill="none" vector-effect="none" points="2017.99,283.588 2077.89,283.588 " />
</g>

<g fill="#212121" fill-opacity="1" stroke="#212121" stroke-opacity="1" stroke-width="1" stroke-linecap="square" stroke-linejoin="bevel" transform="matrix(0.5,0,0,0.5,1041.19,84.7062)"
font-family="Helvetica" font-size="60" font-weight="400" font-style="normal" 
>
<text fill="#212121" fill-opacity="1" stroke="none" xml:space="preserve" x="0" y="0" font-family="Helvetica" font-size="60" font-weight="400" font-style="normal" 
 >Chassis</text>
</g>

<g fill="#212121" fill-opacity="1" stroke="#212121" stroke-opacity="1" stroke-width="1" stroke-linecap="square" stroke-linejoin="bevel" transform="matrix(0.5,0,0,0.5,1041.19,118.5)"
font-family="Helvetica" font-size="60" font-weight="400" font-style="normal" 
>
<text fill="#212121" fill-opacity="1" stroke="none" xml:space="preserve" x="0" y="0" font-family="Helvetica" font-size="60" font-weight="400" font-style="normal" 
 >Seat</text>
</g>

<g fill="#212121" fill-opacity="1" stroke="#212121" stroke-opacity="1" stroke-width="1" stroke-linecap="square" stroke-linejoin="bevel" transform="matrix(0.5,0,0,0.5,1041.19,152.294)"
font-family="Helvetica" font-size="60" font-weight="400" font-style="normal" 
>
<text fill="#212121" fill-opacity="1" stroke="none" xml:space="preserve" x="0" y="0" font-family="Helvetica" font-size="60" font-weight="400" font-style="normal" 
 >Wheel</text>
</g>

<g fill="none" stroke="#212121" stroke-opacity="1" stroke-width="1" stroke-linecap="butt" stroke-linejoin="miter" stroke-miterlimit="2" transform="matrix(0.5,0,0,0.5,0,0)"
font-family="Helvetica" font-size="60" font-weight="400" font-style="normal" 
>
<path vector-effect="none" fill-rule="evenodd" d="M2012,320 L2012,112 L2302,112 L2302,320 L2012,320"/>
</g>
</g>
</svg>
